<svg xmlns="http://www.w3.org/2000/svg" xmlns:xlink="http://www.w3.org/1999/xlink" viewBox="0 0 669.4 185.53"><defs><linearGradient id="linear-gradient" x1="-2430.07" y1="-2679.37" x2="-2429.07" y2="-2679.37" gradientTransform="matrix(20.92, 118.66, 118.66, -20.92, 368874.75, 232278.5)" gradientUnits="userSpaceOnUse"><stop offset="0" stop-color="#065e30"/><stop offset="0.24" stop-color="#065e30"/><stop offset="0.93" stop-color="#fcee23"/><stop offset="1" stop-color="#fcee23"/></linearGradient><linearGradient id="linear-gradient-2" x1="-2438.04" y1="-2677.12" x2="-2437.04" y2="-2677.12" gradientTransform="matrix(0, 143.72, 143.72, 0, 384862.86, 350413.26)" gradientUnits="userSpaceOnUse"><stop offset="0" stop-color="#f2ea26"/><stop offset="1" stop-color="#f7921e"/></linearGradient><linearGradient id="linear-gradient-3" x1="-2406.43" y1="-2662.58" x2="-2405.43" y2="-2662.58" gradientTransform="matrix(5.88, 67.2, 67.2, -5.88, 193171.86, 146148.65)" gradientUnits="userSpaceOnUse"><stop offset="0" stop-color="#54ade1"/><stop offset="1" stop-color="#203f71"/></linearGradient><linearGradient id="linear-gradient-4" x1="-2404.6" y1="-2654.49" x2="-2403.6" y2="-2654.49" gradientTransform="matrix(0, 61.94, 61.94, 0, 164547.38, 149071.32)" gradientUnits="userSpaceOnUse"><stop offset="0" stop-color="#fcee23"/><stop offset="0.85" stop-color="#078241"/><stop offset="1" stop-color="#078241"/></linearGradient></defs><title>Brasil_1</title><g id="Layer_2" data-name="Layer 2"><g id="Layer_1-2" data-name="Layer 1"><polygon points="241.96 93.91 241.96 124.5 0 185.53 0 173.37 43.34 127.74 173.62 82 241.96 93.91" style="fill:#fff"/><g id="g164"><g id="g170"><path id="path172" d="M290.92,111v28.52c5.5,0,11-.12,15.86-.12,14.16,0,17-8.13,17-14.14S320,111,306,111Zm0-9.66h13.76c12.32,0,15.07-6.6,15.07-12.13,0-5.77-2.48-12.14-14.81-12.14-3.67,0-9.83,0-14-.12ZM305.2,67.53c19.28,0,28.58,8,28.58,21.32,0,7.43-5,13.91-12.32,16.5,8.91,2.36,16.65,10.48,16.65,20.62,0,13.07-9.44,23-31.2,23-10.62,0-19.14-.24-29-.35l-.79-.83v-79l.79-.83c9.57-.11,18.61-.35,27.26-.35" style="fill:#0b4f27"/></g><g id="g174"><path id="path176" d="M362.34,106.06c5.11-.12,10.87-.24,14.55-.24,12.84,0,16-7.3,16-14.14,0-7.19-3.15-14.25-16-14.25-3.81,0-10.1,0-14.55-.12Zm28.18,7.06c4.32,1.42,7.47,5.42,9.31,10l5.76,13.78c1.32,3.18,2.89,6.36,5.9,8.49-1.83,2.47-5.9,3.88-9.43,3.88-5.25,0-7.08-2.59-9.18-7.66l-6.56-15.9c-2.22-5.42-5.11-9.66-13.24-9.66H362.34v32.4a45.33,45.33,0,0,1-6.95.47,43.56,43.56,0,0,1-6.82-.47V68.71l.79-.83c9.83-.11,19.27-.35,28.18-.35,18.22,0,29.76,8.48,29.76,24.15,0,10.84-7.21,18.74-16.78,21.44" style="fill:#0b4f27"/></g><g id="g178"><path id="path180" d="M442.41,118.78c2.1,0,5.64-.12,6.69-.12h13.11c.91,0,4.45.12,6.55.12l-6-17.08c-2.36-6.84-5.11-15.08-7-21.33h-.65c-1.31,5.3-3.67,12.73-5.12,17.09Zm-3.54,10.13-6.94,19.68a32.23,32.23,0,0,1-6,.47,28.71,28.71,0,0,1-6.82-.83l-.4-.59L448.31,68a60,60,0,0,1,8-.47,56.58,56.58,0,0,1,7.86.47l29.37,79.64c-2,1.18-5.11,1.65-8.13,1.65-4.32,0-6.55-1.41-8.26-6.59l-4.85-13.79c-2.23,0-6.82.12-7.87.12H446.48c-1.05,0-5.38-.12-7.61-.12" style="fill:#0b4f27"/></g><g id="g182"><path id="path184" d="M506,131.5c7.6,4.48,17.3,8,26.35,8,10.62,0,16.64-4.6,16.78-11.08,0-5.54-4.33-9.78-11.93-12.72l-15.47-6c-11-4.24-18-10.37-18-20.38,0-12.85,12.06-22.86,29.63-22.86a69.92,69.92,0,0,1,27.79,6.13,14.19,14.19,0,0,1-5.12,9.78c-6.81-3.07-15.73-5.54-22.41-5.54-9.7,0-15.73,4.83-15.73,11.07,0,5.19,4.46,8.13,10.88,10.61L544,104.41c11.27,4.24,19.66,11.42,19.66,21.91,0,13.55-10.49,23.68-32.12,23.68a61.41,61.41,0,0,1-31.46-8.84,15.12,15.12,0,0,1,5.9-9.66" style="fill:#0b4f27"/></g><g id="g186"><path id="path188" d="M580,68a45.2,45.2,0,0,1,6.94-.47,46.38,46.38,0,0,1,7,.47v80.47a46.38,46.38,0,0,1-7,.47,45.2,45.2,0,0,1-6.94-.47Z" style="fill:#0b4f27"/></g><g id="g190"><path id="path192" d="M668.31,137.63a34.08,34.08,0,0,1-.39,5c-.79,4-4.06,6-9,6H624.66c-4.72,0-8.13-2.71-8.13-7.78V68.24l.92-.71h5.24c5.77,0,7.87,2.48,7.87,8V138.1c4.06-.35,8.13-.47,11.67-.47Z" style="fill:#0b4f27"/></g><g id="g194"><path id="path196" d="M285.11,34.9c2-.06,4.09-.12,5-.12,5.29,0,6.35-4.33,6.35-7.48s-1.06-7.48-6.35-7.48c-1.48,0-3.2,0-5-.06ZM290.57,41h-5.46V54.43a23.09,23.09,0,0,1-4,.3,23.53,23.53,0,0,1-4-.3V14.18l.42-.35c4.75-.12,8.73-.24,13-.24,8.19,0,14.07,4.45,14.07,13.71,0,9-5.88,13.66-14.07,13.66" style="fill:#0b4f27"/></g><g id="g198"><path id="path200" d="M316.1,38.94c.83,0,2.07-.06,2.67-.06h5.1c.54,0,1.66.06,2.5.06l-1.78-6.06c-1-3.38-2.32-8-3.21-11.51H321c-.59,3-1.84,7.3-2.61,10Zm-2,6.29-2.79,9.26a15.4,15.4,0,0,1-3.45.3,12.41,12.41,0,0,1-3.8-.54l-.29-.41,13.24-40a41.25,41.25,0,0,1,4.63-.29,30.68,30.68,0,0,1,4.57.35l13,40a10.22,10.22,0,0,1-4.57,1c-2.55,0-3.8-.89-4.75-4.28l-1.66-5.4c-.89,0-2.32.06-2.91.06h-8.31c-.6,0-2,0-2.91-.06" style="fill:#0b4f27"/></g><g id="g202"><path id="path204" d="M347.5,24.87c0-1.61.06-2.73.06-4.39h-.06c-.83,0-2.73.05-3.56.05h-6.59a17,17,0,0,1-.3-3.32,17.52,17.52,0,0,1,.3-3.33h28.38a13,13,0,0,1,.41,3.09c0,2.61-1.36,3.56-4.27,3.56h-2.79c-.83,0-2.73-.05-3.56-.05h-.06c0,1.66.06,2.78.06,4.39V54.43a24.29,24.29,0,0,1-4,.3,23.91,23.91,0,0,1-4-.3Z" style="fill:#0b4f27"/></g><g id="g206"><path id="path208" d="M379.14,32.7c2.08-.11,4.34-.17,5.47-.17,5.16,0,6.34-3.15,6.34-6.41s-1.18-6.42-6.34-6.42c-1.43,0-3.63,0-5.47-.06ZM391.73,37c2.14.77,3.56,2.79,4.39,5.22l2.2,6a9.68,9.68,0,0,0,2.79,4.33,6.74,6.74,0,0,1-5.28,2.38c-2.92,0-3.93-1.6-5.05-4.69l-2.5-7.07c-.89-2.37-2.07-4.27-5.52-4.27h-3.62V54.43a23.53,23.53,0,0,1-4,.3,23.19,23.19,0,0,1-3.91-.3V14.18l.41-.35c4.75-.12,9.26-.24,13.54-.24,8.25,0,13.95,4.09,13.95,12.53A11.31,11.31,0,0,1,391.73,37" style="fill:#0b4f27"/></g><g id="g210"><path id="path212" d="M407.52,13.88a24.08,24.08,0,0,1,4-.29,24.43,24.43,0,0,1,4,.29V54.43a23.41,23.41,0,0,1-4,.3,23.09,23.09,0,0,1-4-.3Z" style="fill:#0b4f27"/></g><g id="g214"><path id="path216" d="M433.7,38.94c.83,0,2.08-.06,2.67-.06h5.11c.53,0,1.66.06,2.49.06l-1.78-6.06c-1-3.38-2.32-8-3.21-11.51h-.35c-.6,3-1.84,7.3-2.62,10Zm-2,6.29L429,54.49a15.36,15.36,0,0,1-3.44.3,12.37,12.37,0,0,1-3.8-.54l-.3-.41,13.24-40a41.25,41.25,0,0,1,4.63-.29,30.58,30.58,0,0,1,4.57.35l13,40a10.15,10.15,0,0,1-4.57,1c-2.55,0-3.8-.89-4.75-4.28l-1.66-5.4c-.89,0-2.32.06-2.91.06h-8.31c-.59,0-2,0-2.91-.06" style="fill:#0b4f27"/></g><g id="g218"><path id="path220" d="M483.87,38.94c.83,0,2.07-.06,2.67-.06h5.1c.53,0,1.66.06,2.49.06l-1.78-6.06c-1-3.38-2.31-8-3.2-11.51h-.36c-.59,3-1.84,7.3-2.61,10Zm-2,6.29-2.79,9.26a15.25,15.25,0,0,1-3.44.3,12.41,12.41,0,0,1-3.8-.54l-.29-.41,13.23-40a41.58,41.58,0,0,1,4.64-.29,30.68,30.68,0,0,1,4.57.35l13,40a10.22,10.22,0,0,1-4.57,1c-2.56,0-3.8-.89-4.75-4.28L496,45.23c-.88,0-2.31.06-2.91.06h-8.31c-.59,0-2,0-2.91-.06" style="fill:#0b4f27"/></g><g id="g222"><path id="path224" d="M514.79,13.94a36.5,36.5,0,0,1,5.34-.41,31.65,31.65,0,0,1,5,.41l4.57,16.45c.42,1.66,1.9,7.78,2.26,10.15h.42c.35-2.37,1.83-8.49,2.25-10.15l4.51-16.45a33.45,33.45,0,0,1,5-.41,37.27,37.27,0,0,1,5.4.41l3.14,40.38a17.82,17.82,0,0,1-4,.41,21.79,21.79,0,0,1-3.5-.24l-1.13-19.05c-.24-3.69-.47-9.15-.47-12.89h-.42l-7,25.83a28.63,28.63,0,0,1-8.13,0l-6.94-25.83h-.42c-.06,3.74-.24,9.2-.48,12.89l-1.13,19.05a22.55,22.55,0,0,1-3.56.24,17.7,17.7,0,0,1-4-.41Z" style="fill:#0b4f27"/></g><g id="g226"><path id="path228" d="M569.71,38.94c.83,0,2.08-.06,2.67-.06h5.11c.53,0,1.66.06,2.49.06l-1.78-6.06c-1-3.38-2.32-8-3.21-11.51h-.35c-.6,3-1.84,7.3-2.61,10Zm-2,6.29L565,54.49a15.3,15.3,0,0,1-3.44.3,12.37,12.37,0,0,1-3.8-.54l-.3-.41,13.24-40a41.4,41.4,0,0,1,4.63-.29,30.58,30.58,0,0,1,4.57.35l13,40a10.22,10.22,0,0,1-4.57,1c-2.55,0-3.8-.89-4.75-4.28l-1.66-5.4c-.89,0-2.32.06-2.91.06h-8.31c-.59,0-2,0-2.91-.06" style="fill:#0b4f27"/></g><g id="g230"><path id="path232" d="M613,19.88c-2.25,0-4.09,0-6.47-.06V48.5c2.38-.06,4.22-.06,6.47-.06,7.78,0,8.91-7.78,8.91-14.31S620.82,19.88,613,19.88m10.63,31.88c-2.61,2.14-7.42,3-10.63,3-5,0-8.84-.12-14-.24l-.41-.35v-40l.41-.35c5.11-.18,9-.24,14-.24,3.21,0,8,.83,10.63,3,5.46,4.39,6.47,10.68,6.47,17.57s-.95,13.24-6.47,17.63" style="fill:#0b4f27"/></g><g id="g234"><path id="path236" d="M645.16,38.94c.83,0,2.08-.06,2.67-.06h5.11c.53,0,1.66.06,2.49.06l-1.78-6.06c-1-3.38-2.32-8-3.21-11.51h-.35c-.6,3-1.84,7.3-2.61,10Zm-2,6.29-2.79,9.26a15.36,15.36,0,0,1-3.44.3,12.37,12.37,0,0,1-3.8-.54l-.3-.41,13.24-40a41.55,41.55,0,0,1,4.63-.29,30.48,30.48,0,0,1,4.57.35l13,40a10.15,10.15,0,0,1-4.57,1c-2.55,0-3.8-.89-4.75-4.28l-1.66-5.4c-.89,0-2.31.06-2.91.06h-8.31c-.59,0-2,0-2.91-.06" style="fill:#0b4f27"/></g><g id="g238"><path id="path240" d="M328.72,0a7.45,7.45,0,0,1,3.2,4.24l-9.84,5.84a4.38,4.38,0,0,1-2.19-2.66Z" style="fill:#0b4f27"/></g><g id="g242"><path id="path244" d="M287,173.15l4.53,0q3.06,0,3.06,2.88v7.59a25.63,25.63,0,0,1-7.82,1.19,9.08,9.08,0,0,1-3.68-.7,7,7,0,0,1-2.68-2,8.52,8.52,0,0,1-1.63-3.19,15.12,15.12,0,0,1-.55-4.28,12.43,12.43,0,0,1,.76-4.57A9.61,9.61,0,0,1,281,166.8a8.43,8.43,0,0,1,3-2,9.65,9.65,0,0,1,3.49-.65,12.91,12.91,0,0,1,7,2.08,3.26,3.26,0,0,1-.21.94,7.18,7.18,0,0,1-.46.92,4.66,4.66,0,0,1-.64.81,5.18,5.18,0,0,1-.74.62A8.78,8.78,0,0,0,287.6,168q-4.71,0-4.71,6.58t4.82,6.55q.66,0,1.29-.06c.41,0,.82-.09,1.22-.17V179c0-.45,0-.83,0-1.16s0-.6,0-.83h-1.44a2.41,2.41,0,0,1-1.72-.48,2,2,0,0,1-.47-1.49,6.3,6.3,0,0,1,.31-1.87" style="fill:#7c7a7a"/></g><g id="g246"><path id="path248" d="M312.38,179a3.06,3.06,0,0,0,3.15,2.25,3,3,0,0,0,1.92-.59,4.18,4.18,0,0,0,1.15-1.5,7.12,7.12,0,0,0,.57-2,18.64,18.64,0,0,0,.14-2.22c0-.67,0-1.42-.07-2.25a9.45,9.45,0,0,0-.42-2.32,4.31,4.31,0,0,0-1.1-1.82,3,3,0,0,0-2.19-.74,3,3,0,0,0-2.12.71,4.36,4.36,0,0,0-1.1,1.74,8.85,8.85,0,0,0-.45,2.21c-.05.78-.08,1.47-.08,2.07a18.52,18.52,0,0,0,.13,2.36,12.5,12.5,0,0,0,.47,2.14m-2.33,4Q307,180.4,307,174.5a15.28,15.28,0,0,1,.59-4.45,9,9,0,0,1,1.7-3.22,7,7,0,0,1,2.7-2,9.93,9.93,0,0,1,7.17,0,7.12,7.12,0,0,1,2.72,2,9.19,9.19,0,0,1,1.7,3.23,16.93,16.93,0,0,1,0,8.86,9,9,0,0,1-1.7,3.22,7.09,7.09,0,0,1-2.72,2,9.12,9.12,0,0,1-3.59.67,8.31,8.31,0,0,1-5.48-1.82" style="fill:#7c7a7a"/></g><g id="g250"><path id="path252" d="M343.93,180.48l3.78-15.84a8.92,8.92,0,0,1,4.15.14l.17.23-5.39,19.33a30.45,30.45,0,0,1-3.31.18,5.07,5.07,0,0,1-2.39-.42,2.69,2.69,0,0,1-1.11-1.66L335,165a7,7,0,0,1,2.57-.67,2.53,2.53,0,0,1,1.78.55,3.65,3.65,0,0,1,.9,1.74l2.22,8.22c.35,1.29.71,3,1.1,5.25,0,.23.14.35.32.35" style="fill:#7c7a7a"/></g><g id="g254"><path id="path256" d="M368.91,178.51l0,2.08v0c.88,0,1.59-.06,2.12-.06h6.68a11.45,11.45,0,0,1-.09,1.65q-.35,2.22-2.94,2.22H367a2.6,2.6,0,0,1-2-.72,2.69,2.69,0,0,1-.7-2V164.84l.2-.21H377a9.46,9.46,0,0,1,.17,1.82,5.75,5.75,0,0,1-.41,2.05h-7.84l0,2.08v2c.5,0,1.15,0,2,0h4.39a5.82,5.82,0,0,1,.26,1.85,6.37,6.37,0,0,1-.26,1.9h-6.35Z" style="fill:#7c7a7a"/></g><g id="g258"><path id="path260" d="M395.38,167.89v5.69c.86,0,1.6,0,2.22,0a3.5,3.5,0,0,0,1.48-.35,2,2,0,0,0,.86-.86,3.52,3.52,0,0,0,.29-1.59c0-1.88-.91-2.81-2.72-2.81h-1.2a8.62,8.62,0,0,1-.93,0m9.55,2.83a5.67,5.67,0,0,1-.29,1.81,5.94,5.94,0,0,1-.77,1.53,5.45,5.45,0,0,1-1.12,1.18,4.89,4.89,0,0,1-1.34.76,3.94,3.94,0,0,1,2.22,2.66l.87,2.45a4.2,4.2,0,0,0,1.44,2.14,3.27,3.27,0,0,1-1.3,1,4.59,4.59,0,0,1-1.91.39,2.11,2.11,0,0,1-1.61-.59,5.45,5.45,0,0,1-1.07-2.06l-1-3a3.09,3.09,0,0,0-.85-1.33,2.39,2.39,0,0,0-1.6-.46h-1.18v7.21a12.44,12.44,0,0,1-2.31.18,11.8,11.8,0,0,1-2.28-.18V164.78l.2-.2,4.23-.09,2.7,0a10,10,0,0,1,2.88.39A6,6,0,0,1,403,166a5.23,5.23,0,0,1,1.41,2,6.87,6.87,0,0,1,.51,2.74" style="fill:#7c7a7a"/></g><g id="g262"><path id="path264" d="M434,164.43l.2.2v19.63a12.78,12.78,0,0,1-2.73.26,19.08,19.08,0,0,1-2.78-.18L424.12,174c-.54-1.17-1.09-2.53-1.65-4.07l-.09,0c.24,2.81.35,5.69.35,8.63v5.74a11.11,11.11,0,0,1-2.16.18,10.75,10.75,0,0,1-2.14-.18V164.72a11.77,11.77,0,0,1,2.64-.26,20.62,20.62,0,0,1,2.76.17l4.47,10.31q1.21,2.85,1.79,4.38l.12-.06q-.34-4-.35-8.51v-3.52a3.07,3.07,0,0,1,.61-2.15,2.57,2.57,0,0,1,2-.65Z" style="fill:#7c7a7a"/></g><g id="g266"><path id="path268" d="M452.69,179a3,3,0,0,0,3.14,2.25,3,3,0,0,0,1.92-.59,4.18,4.18,0,0,0,1.15-1.5,7.12,7.12,0,0,0,.57-2,18.64,18.64,0,0,0,.14-2.22c0-.67,0-1.42-.07-2.25a9.45,9.45,0,0,0-.42-2.32,4.31,4.31,0,0,0-1.1-1.82,3,3,0,0,0-2.19-.74,3,3,0,0,0-2.12.71,4.36,4.36,0,0,0-1.1,1.74,8.85,8.85,0,0,0-.45,2.21c-.05.78-.08,1.47-.08,2.07a18.52,18.52,0,0,0,.13,2.36,10.9,10.9,0,0,0,.48,2.14m-2.34,4q-3.09-2.57-3.09-8.46a15.28,15.28,0,0,1,.59-4.45,9,9,0,0,1,1.7-3.22,7,7,0,0,1,2.7-2,9.93,9.93,0,0,1,7.17,0,7.12,7.12,0,0,1,2.72,2,9.19,9.19,0,0,1,1.7,3.23,16.93,16.93,0,0,1,0,8.86,9,9,0,0,1-1.7,3.22,7.09,7.09,0,0,1-2.72,2,9.12,9.12,0,0,1-3.59.67,8.31,8.31,0,0,1-5.48-1.82" style="fill:#7c7a7a"/></g><g id="g270"><path id="path272" d="M498.36,168.56l0,2.25v1.82h6.21a7.88,7.88,0,0,1,0,3.78h-6.21v7.93a14.66,14.66,0,0,1-4.58,0V164.81l.2-.17h12.35a8.2,8.2,0,0,1,.17,1.8,2,2,0,0,1-.59,1.6,2.78,2.78,0,0,1-1.87.52Z" style="fill:#7c7a7a"/></g><g id="g274"><path id="path276" d="M523.7,178.51l0,2.08v0q1.32-.06,2.13-.06h6.67a13.51,13.51,0,0,1-.08,1.65c-.23,1.48-1.22,2.22-2.95,2.22h-7.67a2.6,2.6,0,0,1-1.95-.72,2.69,2.69,0,0,1-.71-2V164.84l.2-.21h12.44a8.73,8.73,0,0,1,.17,1.82,5.73,5.73,0,0,1-.4,2.05h-7.85l0,2.08v2q.75,0,1.95,0h4.4a6.12,6.12,0,0,1,.26,1.85,6.71,6.71,0,0,1-.26,1.9H523.7Z" style="fill:#7c7a7a"/></g><g id="g278"><path id="path280" d="M553,180.91c2.54,0,3.81-2.13,3.81-6.41s-1.27-6.43-3.81-6.43h-1.63q-.71,0-1.23,0v12.9q.52,0,1.23,0Zm5.31,2.16a5.94,5.94,0,0,1-2.43,1.1,14.75,14.75,0,0,1-3.31.35l-2.59,0-4.23-.09-.2-.2V164.78l.2-.2q1.68-.06,3.48-.09c1.2,0,2.47,0,3.8,0a9.58,9.58,0,0,1,4.1.78,6.68,6.68,0,0,1,2.62,2.14,8.35,8.35,0,0,1,1.39,3.18,18.33,18.33,0,0,1,.4,3.94,16.83,16.83,0,0,1-.66,5,7.25,7.25,0,0,1-2.57,3.57" style="fill:#7c7a7a"/></g><g id="g282"><path id="path284" d="M579.28,178.51l0,2.08v0q1.32-.06,2.13-.06h6.67a11.45,11.45,0,0,1-.09,1.65q-.35,2.22-2.94,2.22h-7.68a2.6,2.6,0,0,1-1.94-.72,2.65,2.65,0,0,1-.71-2V164.84l.2-.21h12.44a9.46,9.46,0,0,1,.17,1.82,5.73,5.73,0,0,1-.4,2.05h-7.85l0,2.08v2q.75,0,2,0h4.4a6.12,6.12,0,0,1,.26,1.85,6.71,6.71,0,0,1-.26,1.9h-6.35Z" style="fill:#7c7a7a"/></g><g id="g286"><path id="path288" d="M605.74,167.89v5.69c.86,0,1.61,0,2.22,0a3.55,3.55,0,0,0,1.49-.35,2,2,0,0,0,.85-.86,3.52,3.52,0,0,0,.29-1.59c0-1.88-.91-2.81-2.72-2.81h-1.19a8.69,8.69,0,0,1-.94,0m9.55,2.83a5.67,5.67,0,0,1-.29,1.81,6.25,6.25,0,0,1-.76,1.53,5.75,5.75,0,0,1-1.13,1.18,4.89,4.89,0,0,1-1.34.76,3.94,3.94,0,0,1,2.22,2.66l.87,2.45a4.26,4.26,0,0,0,1.44,2.14,3.27,3.27,0,0,1-1.3,1,4.55,4.55,0,0,1-1.9.39,2.15,2.15,0,0,1-1.62-.59,5.59,5.59,0,0,1-1.07-2.06l-1-3a3.09,3.09,0,0,0-.85-1.33,2.37,2.37,0,0,0-1.6-.46h-1.18v7.21a12.44,12.44,0,0,1-2.31.18,11.94,11.94,0,0,1-2.28-.18V164.78l.2-.2,4.23-.09,2.7,0a10,10,0,0,1,2.88.39,5.91,5.91,0,0,1,2.21,1.17,5.25,5.25,0,0,1,1.42,2,7,7,0,0,1,.5,2.74" style="fill:#7c7a7a"/></g><g id="g290"><path id="path292" d="M633.5,176.58l1.15,0h2.11l.5,0h.54l-.49-1.79c-.46-1.61-1-3.6-1.59-5.94h-.17q-.24,1.23-1.39,5.51Zm.08,3.64c-.51,0-.9,0-1.15,0l-1.24,4.18a8.07,8.07,0,0,1-1.93.18,6.63,6.63,0,0,1-2.25-.32l-.15-.23,6.35-19.37a18.33,18.33,0,0,1,2.63-.17,14.93,14.93,0,0,1,2.71.2l6.23,19.39a4.63,4.63,0,0,1-2.28.55,3.22,3.22,0,0,1-2.1-.52,4,4,0,0,1-1-2l-.55-1.9c-.25,0-.63,0-1.13,0Z" style="fill:#7c7a7a"/></g><g id="g294"><path id="path296" d="M664.38,180.45h5a11,11,0,0,1-.15,2,2.25,2.25,0,0,1-.92,1.42,3.33,3.33,0,0,1-2.05.59h-6.52a2.5,2.5,0,0,1-2.69-2.68V164.64l.21-.21H659c1.79,0,2.69,1,2.69,2.95v13.18c.85-.07,1.76-.11,2.72-.11" style="fill:#7c7a7a"/></g></g><g id="g14"><g id="g16"><g id="g22"><g id="g24"><path id="path36" d="M0,14.23v93.12l96.29-77.7L242,93.91V14.23Z" style="fill:url(#linear-gradient)"/></g></g></g></g><g id="g38"><g id="g40"><g id="g46"><g id="g48"><path id="path56" d="M0,107.35v66a231,231,0,0,1,22.07-16.28h0A89.43,89.43,0,0,1,110.33,82h0a89,89,0,0,1,53.72,17.94h0a371.13,371.13,0,0,1,77.91-6h0L96.29,29.65Z" style="fill:url(#linear-gradient-2)"/></g></g></g></g><g id="g108"><g id="g110"><g id="g116"><g id="g118"><path id="path126" d="M22.07,157.09a387.12,387.12,0,0,1,142-57.15h0A89,89,0,0,0,110.33,82h0a89.43,89.43,0,0,0-88.26,75.09" style="fill:url(#linear-gradient-3)"/></g></g></g></g><g id="g140"><g id="g142"><g id="g148"><g id="g150"><path id="path160" d="M186.35,124.35C104.94,129.07,49,154.91,20.93,171.46h0C7.08,179.63,0,185.53,0,185.53H242v-61q-15.12-.93-29.35-.91h0c-9,0-17.78.27-26.26.76" style="fill:url(#linear-gradient-4)"/></g></g></g></g></g></g></svg>