<svg id="Layer_1" data-name="Layer 1" xmlns="http://www.w3.org/2000/svg" viewBox="0 0 700 375"><title>ECOSUS Logo</title><path d="M252.83,229.21a72.38,72.38,0,0,1-20,18.48L287,306.81c6.26,6.82,17.19,7,24.15,0s6.83-17.9,0-24.15Z" style="fill:#0e5eaa"/><path d="M195,252.47c1.63,0,3.23-.08,4.82-.2l1.4,13.43q2-.26,4-.36l-1.4-13.48a65.86,65.86,0,0,0,38.06-111.55l14.74-15.18c-1-.9-1.92-1.85-2.82-2.84l-14.82,15.26a66,66,0,0,0-60.3-14.79L167.48,85.41c-1.25.44-2.53.82-3.83,1.14l11.14,37.32a66,66,0,0,0-43.42,45.49l-22.65-4a38.15,38.15,0,0,1-.91,3.9l22.62,4a66.45,66.45,0,0,0-1.35,13.33,65.56,65.56,0,0,0,14.26,40.9L97.26,271.1A39.57,39.57,0,0,1,100,274l45.91-43.43A65.71,65.71,0,0,0,195,252.47Z" style="fill:#0e5eaa"/><path d="M70.57,194.19a35.67,35.67,0,0,0,34.18-25.45,33.91,33.91,0,0,0,.94-3.89,35.69,35.69,0,1,0-35.12,29.34Z" style="fill:#0e5eaa"/><path d="M154.65,84.54a35,35,0,0,0,8.12-1,32.5,32.5,0,0,0,3.83-1.13,35.18,35.18,0,1,0-11.95,2.08Z" style="fill:#0e5eaa"/><path d="M293.2,35.38A50.53,50.53,0,0,0,255.94,120c.89,1,1.83,1.93,2.81,2.84a50.53,50.53,0,1,0,34.45-87.5Z" style="fill:#0e5eaa"/><path d="M95,273.2a40.11,40.11,0,1,0,2.74,2.9A37.45,37.45,0,0,0,95,273.2Z" style="fill:#0e5eaa"/><path d="M207.61,268.36c-.71,0-1.42,0-2.12.05-1.35.06-2.68.18-4,.35a46.24,46.24,0,1,0,6.11-.4Z" style="fill:#0e5eaa"/><path d="M86.6,135.25H83.06a16.82,16.82,0,0,0-25,0H54.53A7.75,7.75,0,0,0,46.79,143v32.07a7.75,7.75,0,0,0,7.74,7.74H86.6a7.75,7.75,0,0,0,7.74-7.74V143A7.75,7.75,0,0,0,86.6,135.25Zm4.66,39.81a4.66,4.66,0,0,1-4.66,4.66H54.53a4.66,4.66,0,0,1-4.66-4.66V143a4.66,4.66,0,0,1,4.66-4.66h5l.46-.56a13.75,13.75,0,0,1,21.21,0l.46.56h5A4.66,4.66,0,0,1,91.26,143Z" style="fill:#fff"/><path d="M70.57,135.25a12.66,12.66,0,1,0,12.66,12.66A12.68,12.68,0,0,0,70.57,135.25Zm1.54,22.1v-1.11a1.54,1.54,0,1,0-3.08,0v1.11a9.59,9.59,0,0,1-7.9-7.9h1.1a1.54,1.54,0,1,0,0-3.08h-1.1a9.56,9.56,0,0,1,18.88,0h-1.1a1.54,1.54,0,0,0,0,3.08H80A9.59,9.59,0,0,1,72.11,157.35Z" style="fill:#fff"/><path d="M70.57,140.81A1.54,1.54,0,0,0,69,142.35v5.56a1.54,1.54,0,1,0,3.08,0v-5.56A1.54,1.54,0,0,0,70.57,140.81Z" style="fill:#fff"/><path d="M160.21,50.75H149A18.22,18.22,0,0,0,130.88,69a1.54,1.54,0,0,0,1.54,1.54h44.46A1.54,1.54,0,0,0,178.42,69,18.23,18.23,0,0,0,160.21,50.75Zm-11.54,4.14L151.21,60l-5.08-2.54Zm14.5,2.54L158.09,60l2.54-5.08Zm-5.45-3.6L154.65,60l-3.07-6.14Zm-13,.65-2.29,2.28a1.54,1.54,0,0,0,.4,2.47l9.74,4.87-1.66,3.33H134A15.19,15.19,0,0,1,144.73,54.48Zm9.63,13,1.44-2.87,10.66-5.33a1.54,1.54,0,0,0,.4-2.47l-2.29-2.28a15.19,15.19,0,0,1,10.7,13Z" style="fill:#fff"/><path d="M154.65,48.27c4.81,0,10.43-3.89,10.43-14.88a10.43,10.43,0,0,0-20.86,0C144.22,44.38,149.84,48.27,154.65,48.27Zm0-22.23A7.36,7.36,0,0,1,162,33.39c0,7.28-2.81,11.8-7.35,11.8s-7.35-4.52-7.35-11.8A7.36,7.36,0,0,1,154.65,26Z" style="fill:#fff"/><path d="M168.55,62h-2.78a1.54,1.54,0,0,0,0,3.08h2.78a1.54,1.54,0,0,0,0-3.08Z" style="fill:#fff"/><path d="M293.2,62.13A23.78,23.78,0,1,0,317,85.91,23.81,23.81,0,0,0,293.2,62.13Zm0,44.47a20.7,20.7,0,1,1,20.69-20.69A20.71,20.71,0,0,1,293.2,106.6Z" style="fill:#fff"/><path d="M265.61,62.13a1.53,1.53,0,0,0-1.54,1.54V72a4,4,0,0,1-2.48,3.71v-12a1.54,1.54,0,1,0-3.08,0v12A4,4,0,0,1,256,72V63.67a1.54,1.54,0,1,0-3.08,0V72a7.11,7.11,0,0,0,5.56,6.93v29.2a1.54,1.54,0,1,0,3.08,0V78.94A7.12,7.12,0,0,0,267.15,72V63.67A1.54,1.54,0,0,0,265.61,62.13Z" style="fill:#fff"/><path d="M325.31,62.92l0,0a1.6,1.6,0,0,0-.28-.35l-.06,0a1.55,1.55,0,0,0-.81-.34H324a1.5,1.5,0,0,0-.37,0h0l0,0a1.79,1.79,0,0,0-.42.19h0a1.93,1.93,0,0,0-.33.31l0,.06a1.72,1.72,0,0,0-.2.38.24.24,0,0,0,0,.08,1.33,1.33,0,0,0-.08.45v44.47a1.54,1.54,0,1,0,3.08,0V95.78h4a1.53,1.53,0,0,0,1.54-1.54C331.07,89,331.07,73.11,325.31,62.92Zm.2,29.78V71.59c2.2,7.75,2.45,16.52,2.47,21.11Z" style="fill:#fff"/><path d="M305.55,85.91A12.36,12.36,0,1,1,293.2,73.55a1.54,1.54,0,0,0,0-3.08,15.44,15.44,0,1,0,15.43,15.44,1.54,1.54,0,0,0-3.08,0Z" style="fill:#fff"/><path d="M300.61,76a12.61,12.61,0,0,1,2.65,2.71,1.56,1.56,0,0,0,1.26.65,1.48,1.48,0,0,0,.89-.29,1.55,1.55,0,0,0,.36-2.15,15.61,15.61,0,0,0-3.31-3.38A1.54,1.54,0,0,0,300.61,76Z" style="fill:#fff"/><path d="M62.89,294.68h3v2.95a1.54,1.54,0,0,0,3.08,0v-2.95h3a1.54,1.54,0,1,0,0-3.08h-3v-3a1.54,1.54,0,0,0-3.08,0v3h-3a1.54,1.54,0,1,0,0,3.08Z" style="fill:#fff"/><path d="M96.56,289.35H86.88v-5.19a1.54,1.54,0,0,0-1.54-1.54H49.42a1.54,1.54,0,0,0-1.54,1.54v5.19H38.2a1.54,1.54,0,0,0-1.54,1.54v29.18a1.54,1.54,0,0,0,1.54,1.54H96.56a1.54,1.54,0,0,0,1.54-1.54V290.89A1.54,1.54,0,0,0,96.56,289.35Zm-56.82,3.08h8.14v26.1H39.74ZM51,290.89V285.7H83.8v32.83H77.9V304.36a1.54,1.54,0,0,0-1.54-1.54h-18a1.54,1.54,0,0,0-1.54,1.54v14.17H51Zm9,15h5.9v12.63h-5.9Zm9,12.63V305.9h5.9v12.63Zm26.1,0H86.88v-26.1H95Z" style="fill:#fff"/><path d="M190.94,296.34a4.32,4.32,0,0,0-4.32,4.32v27.79a4.32,4.32,0,0,0,8.64,0V300.66A4.33,4.33,0,0,0,190.94,296.34Zm1.23,32.11a1.24,1.24,0,1,1-2.47,0V300.66a1.24,1.24,0,1,1,2.47,0Z" style="fill:#fff"/><path d="M179.82,301.9a4.33,4.33,0,0,0-4.32,4.32v16.67a4.32,4.32,0,0,0,8.64,0V306.22A4.33,4.33,0,0,0,179.82,301.9Zm1.24,21a1.24,1.24,0,0,1-2.48,0V306.22a1.24,1.24,0,1,1,2.48,0Z" style="fill:#fff"/><path d="M235.4,301.9a4.33,4.33,0,0,0-4.32,4.32v16.67a4.32,4.32,0,0,0,8.64,0V306.22A4.32,4.32,0,0,0,235.4,301.9Zm1.24,21a1.23,1.23,0,0,1-1.24,1.24h0a1.24,1.24,0,0,1-1.24-1.24V306.22a1.24,1.24,0,1,1,2.48,0Z" style="fill:#fff"/><path d="M224.29,296.34a4.32,4.32,0,0,0-4.32,4.32v27.79a4.32,4.32,0,0,0,8.64,0V300.66A4.33,4.33,0,0,0,224.29,296.34Zm1.24,32.11a1.24,1.24,0,0,1-2.48,0V300.66a1.24,1.24,0,1,1,2.48,0Z" style="fill:#fff"/><path d="M216,313H199.27a1.54,1.54,0,0,0,0,3.08H216a1.54,1.54,0,0,0,0-3.08Z" style="fill:#fff"/><path d="M171.48,313H168.7a1.54,1.54,0,1,0,0,3.08h2.78a1.54,1.54,0,0,0,0-3.08Z" style="fill:#fff"/><path d="M246.52,313h-2.78a1.54,1.54,0,0,0,0,3.08h2.78a1.54,1.54,0,0,0,0-3.08Z" style="fill:#fff"/><path d="M211.79,162.69a26.06,26.06,0,1,1-33.66,0,55.07,55.07,0,0,0-30.74,24.83,54.93,54.93,0,0,0,95.14,0A55,55,0,0,0,211.79,162.69Z" style="fill:#fff"/><path d="M195,195.91a13.32,13.32,0,1,0-13.32-13.32A13.32,13.32,0,0,0,195,195.91Z" style="fill:#fff"/><path d="M335,152.63v11.81H307.61v12.34h24.54v11.81H307.61v13.13h27.57v11.72h-40V152.63Z" style="fill:#434343"/><path d="M358.87,160.86a30.44,30.44,0,0,1,22.37-9.16,31.14,31.14,0,0,1,16.85,4.81,25.43,25.43,0,0,1,10.72,13.13l-11.5,5.28A16.71,16.71,0,0,0,381.16,164,17.55,17.55,0,0,0,368,169.48a18.8,18.8,0,0,0-5.28,13.44A19.24,19.24,0,0,0,368,196.59a17.87,17.87,0,0,0,29.51-5.75L409,196.2a25.45,25.45,0,0,1-11,13.28A32.23,32.23,0,0,1,381,214.3c-8.85,0-16.31-3-22.29-8.93a30.34,30.34,0,0,1-9-22.29A30,30,0,0,1,358.87,160.86Z" style="fill:#434343"/><path d="M431.41,160.86a30.71,30.71,0,0,1,22.44-9.16,30.39,30.39,0,0,1,22.21,9,29.59,29.59,0,0,1,9.17,22.06,31.74,31.74,0,0,1-54,22.52,31.33,31.33,0,0,1,.16-44.43ZM435,183a18.88,18.88,0,0,0,5.43,13.59,18.58,18.58,0,0,0,26.57,0A18.88,18.88,0,0,0,472.41,183,18.59,18.59,0,0,0,467,169.48a18.58,18.58,0,0,0-26.57,0A18.59,18.59,0,0,0,435,183Z" style="fill:#434343"/><path d="M543.86,195.58a17.31,17.31,0,0,1-5.9,13.59c-4,3.5-9.4,5.21-16.39,5.21-11.42,0-20.11-5.52-23.76-14.29l10.87-5.6A14,14,0,0,0,522,203c5.36,0,9.24-2.72,9.24-6.45a4.66,4.66,0,0,0-2.4-4.19c-1.56-1.09-4.59-2.33-9.09-3.65-7.07-2.1-12-4.58-14.84-7.38A15.09,15.09,0,0,1,500.21,170a16.3,16.3,0,0,1,6.22-13.13,22.45,22.45,0,0,1,15-5.2c10.17,0,17.86,4.74,21.36,13.12l-10.41,5.67c-2.1-5-5.91-7.45-11.5-7.45-5,0-8.07,2.56-8.07,6.21s2.87,5.52,9.78,7.46C537.11,180.82,543.86,185.87,543.86,195.58Z" style="fill:#434343"/><path d="M610,152.63V188.9c0,15.92-8.39,25.4-24.54,25.4s-24.31-9.63-24.31-24.93V152.63h12.66l-.08,36.43c0,8.62,4.89,13.12,11.81,13.12,7.69,0,12-5,12-12.81V152.63Z" style="fill:#434343"/><path d="M671.77,195.58a17.31,17.31,0,0,1-5.9,13.59c-4,3.5-9.4,5.21-16.39,5.21-11.41,0-20.11-5.52-23.76-14.29l10.87-5.6A14,14,0,0,0,649.87,203c5.36,0,9.24-2.72,9.24-6.45a4.66,4.66,0,0,0-2.4-4.19c-1.56-1.09-4.59-2.33-9.09-3.65-7.07-2.1-12-4.58-14.84-7.38A15.09,15.09,0,0,1,628.12,170a16.3,16.3,0,0,1,6.22-13.13,22.45,22.45,0,0,1,15-5.2c10.17,0,17.86,4.74,21.36,13.12l-10.41,5.67c-2.1-5-5.9-7.45-11.5-7.45-5,0-8.07,2.56-8.07,6.21s2.87,5.52,9.78,7.46C665,180.82,671.77,185.87,671.77,195.58Z" style="fill:#434343"/><path d="M304.41,242.47v2.58H292V228.51h12.07v2.58h-9v4.3h8v2.52h-8v4.56Z" style="fill:#0e5eaa"/><path d="M322.18,228.51v16.54h-2.53l-9.12-11.2v11.2h-3V228.51H310l9.12,11.2v-11.2Z" style="fill:#0e5eaa"/><path d="M329.33,231.09v5h8v2.6h-8v6.33h-3.07V228.51h12.07v2.58Z" style="fill:#0e5eaa"/><path d="M351.77,245.05l-3.37-4.84-.64,0H344v4.82H341V228.51h6.8a9.17,9.17,0,0,1,3.74.71,5.43,5.43,0,0,1,2.45,2,5.77,5.77,0,0,1,.85,3.15,5.66,5.66,0,0,1-.91,3.21,5.43,5.43,0,0,1-2.61,2l3.8,5.43ZM350.66,232a4.75,4.75,0,0,0-3-.85H344v6.59h3.59a4.69,4.69,0,0,0,3-.86,3.38,3.38,0,0,0,0-4.88Z" style="fill:#0e5eaa"/><path d="M370.27,242.47v2.58h-12.4V228.51h12.07v2.58h-9v4.3h8v2.52h-8v4.56Z" style="fill:#0e5eaa"/><path d="M388,228.51v16.54H385.5l-9.11-11.2v11.2h-3.05V228.51h2.53l9.11,11.2v-11.2Z" style="fill:#0e5eaa"/><path d="M395.47,231.11H390v-2.6h14v2.6h-5.48v13.94h-3.07Z" style="fill:#0e5eaa"/><path d="M415.88,241.22h-8.27L406,245.05h-3.16l7.44-16.54h3l7.47,16.54h-3.22Zm-1-2.41-3.12-7.23-3.1,7.23Z" style="fill:#0e5eaa"/><path d="M437.68,245.05l0-11-5.43,9.07h-1.37l-5.44-8.93v10.82h-2.93V228.51H425l6.57,11,6.45-11h2.52l0,16.54Z" style="fill:#0e5eaa"/><path d="M457.1,242.47v2.58H444.7V228.51h12.07v2.58h-9v4.3h8v2.52h-8v4.56Z" style="fill:#0e5eaa"/><path d="M474.86,228.51v16.54h-2.53l-9.11-11.2v11.2h-3.05V228.51h2.53l9.12,11.2v-11.2Z" style="fill:#0e5eaa"/><path d="M482.3,231.11h-5.48v-2.6h14v2.6h-5.48v13.94H482.3Z" style="fill:#0e5eaa"/><path d="M495.74,244.19a8.28,8.28,0,0,1-3.19-3.05,8.84,8.84,0,0,1,0-8.72,8.18,8.18,0,0,1,3.19-3,10,10,0,0,1,9.12,0,8.16,8.16,0,0,1,3.19,3,8.81,8.81,0,0,1,0,8.74,8.26,8.26,0,0,1-3.19,3,10.08,10.08,0,0,1-9.12,0Zm7.54-2.34a5.47,5.47,0,0,0,2.08-2.08,6.34,6.34,0,0,0,0-6,5.47,5.47,0,0,0-2.08-2.08,6.35,6.35,0,0,0-5.95,0,5.33,5.33,0,0,0-2.08,2.08,6.26,6.26,0,0,0,0,6,5.33,5.33,0,0,0,2.08,2.08,6.35,6.35,0,0,0,5.95,0Z" style="fill:#0e5eaa"/><path d="M530.68,242.47v2.58h-12.4V228.51h12.07v2.58h-9v4.3h8v2.52h-8v4.56Z" style="fill:#0e5eaa"/><path d="M543,244.19a8.18,8.18,0,0,1-3.16-3,8.84,8.84,0,0,1,0-8.74,8.13,8.13,0,0,1,3.18-3,9.19,9.19,0,0,1,4.52-1.1,9.33,9.33,0,0,1,3.71.71,7.46,7.46,0,0,1,2.83,2l-2,1.87a5.8,5.8,0,0,0-4.42-1.94,6.22,6.22,0,0,0-3,.74,5.45,5.45,0,0,0-2.11,2.07,6.38,6.38,0,0,0,0,6,5.45,5.45,0,0,0,2.11,2.07,6.22,6.22,0,0,0,3,.74,5.75,5.75,0,0,0,4.42-2l2,1.89a7.62,7.62,0,0,1-2.84,2.06,9.59,9.59,0,0,1-3.72.7A9.37,9.37,0,0,1,543,244.19Z" style="fill:#0e5eaa"/><path d="M559.54,244.19a8.28,8.28,0,0,1-3.19-3.05,8.84,8.84,0,0,1,0-8.72,8.18,8.18,0,0,1,3.19-3,10,10,0,0,1,9.12,0,8.16,8.16,0,0,1,3.19,3,8.81,8.81,0,0,1,0,8.74,8.26,8.26,0,0,1-3.19,3,10.08,10.08,0,0,1-9.12,0Zm7.54-2.34a5.47,5.47,0,0,0,2.08-2.08,6.34,6.34,0,0,0,0-6,5.47,5.47,0,0,0-2.08-2.08,6.35,6.35,0,0,0-6,0,5.33,5.33,0,0,0-2.08,2.08,6.26,6.26,0,0,0,0,6,5.33,5.33,0,0,0,2.08,2.08,6.35,6.35,0,0,0,6,0Z" style="fill:#0e5eaa"/><path d="M590.6,228.51v16.54h-2.52L579,233.85v11.2h-3.05V228.51h2.53l9.12,11.2v-11.2Z" style="fill:#0e5eaa"/><path d="M598.05,231.11h-5.48v-2.6h14v2.6h-5.48v13.94h-3.07Z" style="fill:#0e5eaa"/><path d="M619.37,245.05,616,240.21l-.64,0h-3.73v4.82h-3.07V228.51h6.8a9.17,9.17,0,0,1,3.74.71,5.43,5.43,0,0,1,2.45,2,5.77,5.77,0,0,1,.85,3.15,5.66,5.66,0,0,1-.91,3.21,5.43,5.43,0,0,1-2.61,2l3.8,5.43ZM618.26,232a4.73,4.73,0,0,0-3-.85h-3.59v6.59h3.59a4.67,4.67,0,0,0,3-.86,3.38,3.38,0,0,0,0-4.88Z" style="fill:#0e5eaa"/><path d="M628.63,244.19a8.28,8.28,0,0,1-3.19-3.05,8.84,8.84,0,0,1,0-8.72,8.18,8.18,0,0,1,3.19-3,10,10,0,0,1,9.12,0,8.09,8.09,0,0,1,3.19,3,8.81,8.81,0,0,1,0,8.74,8.19,8.19,0,0,1-3.19,3,10.08,10.08,0,0,1-9.12,0Zm7.54-2.34a5.47,5.47,0,0,0,2.08-2.08,6.34,6.34,0,0,0,0-6,5.47,5.47,0,0,0-2.08-2.08,6.35,6.35,0,0,0-5.95,0,5.33,5.33,0,0,0-2.08,2.08,6.26,6.26,0,0,0,0,6,5.33,5.33,0,0,0,2.08,2.08,6.35,6.35,0,0,0,5.95,0Z" style="fill:#0e5eaa"/><path d="M645,228.51h3.07v13.94h8.65v2.6H645Z" style="fill:#0e5eaa"/><path d="M671.2,242.47v2.58H658.8V228.51h12.07v2.58h-9v4.3h8v2.52h-8v4.56Z" style="fill:#0e5eaa"/><path d="M334,256.86h7.23a10.32,10.32,0,0,1,4.7,1,7.6,7.6,0,0,1,3.19,2.9,8.88,8.88,0,0,1,0,8.67,7.69,7.69,0,0,1-3.19,2.91,10.44,10.44,0,0,1-4.7,1H334Zm7.09,13.94a7.11,7.11,0,0,0,3.2-.7,5,5,0,0,0,2.12-2,6.32,6.32,0,0,0,0-6,5,5,0,0,0-2.12-2,7.11,7.11,0,0,0-3.2-.69h-4V270.8Z" style="fill:#0e5eaa"/><path d="M363.64,269.57h-8.26l-1.63,3.82h-3.17L358,256.86h3l7.46,16.53H365.3Zm-1-2.41-3.12-7.23-3.09,7.23Z" style="fill:#0e5eaa"/><path d="M379.59,272.53a8.07,8.07,0,0,1-3.19-3,8.76,8.76,0,0,1,0-8.71,8.07,8.07,0,0,1,3.19-3,10,10,0,0,1,9.11,0,8.12,8.12,0,0,1,3.19,3,8.81,8.81,0,0,1,0,8.74,8.09,8.09,0,0,1-3.19,3,10,10,0,0,1-9.11,0Zm7.53-2.34a5.33,5.33,0,0,0,2.08-2.08,6.24,6.24,0,0,0,0-6,5.4,5.4,0,0,0-2.08-2.08,6.35,6.35,0,0,0-5.95,0,5.4,5.4,0,0,0-2.08,2.08,6.32,6.32,0,0,0,0,6,5.33,5.33,0,0,0,2.08,2.08,6.28,6.28,0,0,0,5.95,0Z" style="fill:#0e5eaa"/><path d="M409.85,266.3a4.2,4.2,0,0,1,.8,2.61,3.85,3.85,0,0,1-1.65,3.32,8.41,8.41,0,0,1-4.82,1.16H396V256.86h7.74a7.59,7.59,0,0,1,4.52,1.15,3.68,3.68,0,0,1,1.58,3.15,4.11,4.11,0,0,1-.57,2.17,3.94,3.94,0,0,1-1.56,1.47A4.38,4.38,0,0,1,409.85,266.3Zm-10.82-7v4.56h4.34a4.38,4.38,0,0,0,2.47-.58,2.11,2.11,0,0,0,0-3.4,4.38,4.38,0,0,0-2.47-.58Zm8.52,9.33c0-1.59-1.18-2.39-3.56-2.39h-5V271h5C406.37,271,407.55,270.19,407.55,268.6Z" style="fill:#0e5eaa"/><path d="M426,270.82v2.57h-12.4V256.86h12.07v2.57h-9v4.3h8v2.53h-8v4.56Z" style="fill:#0e5eaa"/><path d="M430.48,273.09a7.76,7.76,0,0,1-2.82-1.44l1.06-2.39a8.37,8.37,0,0,0,2.49,1.31,9,9,0,0,0,3,.51,5.19,5.19,0,0,0,2.76-.59,1.79,1.79,0,0,0,.91-1.56,1.52,1.52,0,0,0-.51-1.17A3.5,3.5,0,0,0,436,267c-.52-.17-1.23-.37-2.12-.59a24.25,24.25,0,0,1-3.06-.9,5.12,5.12,0,0,1-2-1.4,3.79,3.79,0,0,1-.84-2.59,4.46,4.46,0,0,1,.74-2.49,5.13,5.13,0,0,1,2.25-1.79,9.09,9.09,0,0,1,3.67-.66,12,12,0,0,1,3,.38,7.94,7.94,0,0,1,2.52,1.09l-1,2.38a10.28,10.28,0,0,0-2.27-1,8.51,8.51,0,0,0-2.29-.33,4.78,4.78,0,0,0-2.71.62,1.89,1.89,0,0,0-.88,1.63,1.51,1.51,0,0,0,.5,1.16,3.78,3.78,0,0,0,1.29.7c.52.18,1.23.37,2.13.59a22.82,22.82,0,0,1,3,.89,5.21,5.21,0,0,1,2,1.41,3.7,3.7,0,0,1,.84,2.55,4.41,4.41,0,0,1-.74,2.48,5.08,5.08,0,0,1-2.26,1.77,9.22,9.22,0,0,1-3.69.66A12.67,12.67,0,0,1,430.48,273.09Z" style="fill:#0e5eaa"/><path d="M443.55,256.86h3.07v16.53h-3.07Z" style="fill:#0e5eaa"/><path d="M450.73,256.86H458a10.32,10.32,0,0,1,4.7,1,7.6,7.6,0,0,1,3.19,2.9,8.88,8.88,0,0,1,0,8.67,7.69,7.69,0,0,1-3.19,2.91,10.44,10.44,0,0,1-4.7,1h-7.23Zm7.09,13.94a7.08,7.08,0,0,0,3.2-.7,5.06,5.06,0,0,0,2.13-2,6.39,6.39,0,0,0,0-6,5.06,5.06,0,0,0-2.13-2,7.08,7.08,0,0,0-3.2-.69h-4V270.8Z" style="fill:#0e5eaa"/><path d="M480.38,269.57h-8.27l-1.63,3.82h-3.17l7.45-16.53h3l7.46,16.53H482Zm-1-2.41-3.12-7.23-3.09,7.23Z" style="fill:#0e5eaa"/><path d="M487,256.86h7.23a10.32,10.32,0,0,1,4.7,1,7.6,7.6,0,0,1,3.19,2.9,8.88,8.88,0,0,1,0,8.67,7.69,7.69,0,0,1-3.19,2.91,10.44,10.44,0,0,1-4.7,1H487Zm7.09,13.94a7.08,7.08,0,0,0,3.2-.7,5,5,0,0,0,2.12-2,6.32,6.32,0,0,0,0-6,5,5,0,0,0-2.12-2,7.08,7.08,0,0,0-3.2-.69h-4V270.8Z" style="fill:#0e5eaa"/><path d="M518.55,270.82v2.57h-12.4V256.86h12.07v2.57h-9v4.3h8v2.53h-8v4.56Z" style="fill:#0e5eaa"/><path d="M542.48,256.86v16.53H540l-9.12-11.19v11.19h-3.05V256.86h2.53l9.12,11.2v-11.2Z" style="fill:#0e5eaa"/><path d="M549.73,272.53a8.07,8.07,0,0,1-3.19-3,8.76,8.76,0,0,1,0-8.71,8.07,8.07,0,0,1,3.19-3,10,10,0,0,1,9.12,0,8.16,8.16,0,0,1,3.18,3,8.81,8.81,0,0,1,0,8.74,8.13,8.13,0,0,1-3.18,3,10,10,0,0,1-9.12,0Zm7.53-2.34a5.33,5.33,0,0,0,2.08-2.08,6.24,6.24,0,0,0,0-6,5.4,5.4,0,0,0-2.08-2.08,6.35,6.35,0,0,0-6,0,5.47,5.47,0,0,0-2.08,2.08,6.32,6.32,0,0,0,0,6,5.4,5.4,0,0,0,2.08,2.08,6.28,6.28,0,0,0,6,0Z" style="fill:#0e5eaa"/><path d="M582.81,257.57a5.4,5.4,0,0,1,2.44,2,6.21,6.21,0,0,1,0,6.27,5.36,5.36,0,0,1-2.44,2,9,9,0,0,1-3.75.71h-3.73v4.77h-3.07V256.86h6.8A9.19,9.19,0,0,1,582.81,257.57Zm-.84,7.6a3.36,3.36,0,0,0,0-4.86,4.7,4.7,0,0,0-3.05-.85h-3.59V266h3.59A4.7,4.7,0,0,0,582,265.17Z" style="fill:#0e5eaa"/><path d="M588.82,256.86h3.07v16.53h-3.07Z" style="fill:#0e5eaa"/><path d="M606.72,269.57h-8.26l-1.63,3.82h-3.17l7.44-16.53h3l7.46,16.53h-3.21Zm-1-2.41-3.12-7.23-3.09,7.23Z" style="fill:#0e5eaa"/><path d="M614.76,271.71a7.5,7.5,0,0,1-1.92-5.52v-9.33h3.07v9.21q0,4.88,4.21,4.87c2.78,0,4.18-1.62,4.18-4.87v-9.21h3v9.33a7.54,7.54,0,0,1-1.9,5.52,8.36,8.36,0,0,1-10.66,0Z" style="fill:#0e5eaa"/><path d="M634,252.28h3.47l-4.11,3.23h-2.55Zm-2.74,4.58h3.07v16.53h-3.07Z" style="fill:#0e5eaa"/></svg>