<svg xmlns="http://www.w3.org/2000/svg" viewBox="0 0 570.25 517.13"><defs><style>.cls-1{fill:#1f60ac;}.cls-2{fill:#eee;}.cls-3{fill:none;stroke:#455b64;stroke-linejoin:round;stroke-width:3.05px;}.cls-3,.cls-4{opacity:0.1;}.cls-10,.cls-4{fill:#455b64;}.cls-5{fill:#f5f5f5;}.cls-6{fill:#fbcbbd;}.cls-7{fill:#fbc3ae;}.cls-8{fill:#ef5451;}.cls-9{fill:#fafbfb;}.cls-10{opacity:0.05;}.cls-11{fill:#184966;}.cls-12{fill:#f9aa92;}.cls-13{fill:#78b2e0;}.cls-14{fill:#83bbe5;}</style></defs><title>Header - Materiais</title><g id="Layer_2" data-name="Layer 2"><g id="Layer_1-2" data-name="Layer 1"><path class="cls-1" d="M521.47,400c-14.75,24.89-32.51,46-52.82,60.8a131.7,131.7,0,0,1-15,9.46c-5.66,3-11.86,6-18.53,8.85-38.24,16.34-91.9,29-148.23,33.59-40.52,3.28-82.41,2.33-120.94-4.52a304.53,304.53,0,0,1-44.87-11.37c-20.38-6.93-39-16.1-54.83-27.84A142.23,142.23,0,0,1,43.11,447.7c-75.71-87.34-39.3-218.29,14.48-291,30.75-41.59,84.71-70,146-86.81,15.91-4.37,32.32-8,49-10.78q10.35-1.77,20.79-3.14a584,584,0,0,1,109-4.12c53.41,3.08,101,13.88,132.31,31.35C592.19,126.49,583.11,296,521.47,400Z"/><path class="cls-2" d="M172.16,283.1s-29.74,10.49-38,15.16S99.7,371,96.9,381.76s66.47-37.19,66.47-37.19Z"/><path class="cls-2" d="M434.63,422.3c-.23,15.85.08,37.53.48,57.79-38.24,16.34-91.9,29-148.23,33.59-40.52,3.28-82.41,2.33-120.94-4.52,1.32-21,.33-59.88-.53-85-.36-10.13-.69-18-.85-21.59-.06-1.36-.09-2.09-.09-2.09a8.39,8.39,0,0,1,3.74-4.33,31.52,31.52,0,0,1,7.25-3.32c1.11-.37,2.3-.73,3.56-1.08,11-3,27.46-5,46.82-6.09,3.47-.2,7-.37,10.69-.52,18.92-.75,40-.79,61.09-.31q6.92.15,13.82.38l2.06.07c17.77.62,35.23,1.59,51.15,2.79l6.64.53c17.49,1.44,32.8,3.16,44.13,5,1.53.25,3,.5,4.36.76q2.43.45,4.53.9c5,1.08,8.52,2.19,10.34,3.29,1.05.64,1.53,1.28,1.37,1.91C435.21,403.68,434.8,411.68,434.63,422.3Z"/><path class="cls-3" d="M286.88,513.68c3-19.34,7.76-51.73,10.16-65.29.21-1.21.41-2.27.58-3.15q.08-.4.15-.75s0-.06,0-.09a10.76,10.76,0,0,1,.59-2.24"/><path class="cls-4" d="M242.35,256.89l-22,42.48-11.11,58.81,33.11-20.91-16.56,48.36,78.86,35.5L297.09,445S366,396.08,381.4,379.09l-17.07-47.17,32.46,13.84L381.4,292.83l-23-35.94S313.36,222.26,242.35,256.89Z"/><path class="cls-5" d="M254.55,246.61l-34.2,45.79-11.11,58.81,33.11-20.91-16.56,48.36s50.1,30.71,76.24,42.47L295.86,446S366,389.11,381.4,372.12L364.33,325l32.46,13.84L381.4,285.86l-23-35.94S325.56,212,254.55,246.61Z"/><path class="cls-4" d="M262.45,272.59s-4.53-21.36-2.24-24,7.09-6.47,22-6.5,7.4,25.13,7.4,25.13Z"/><path class="cls-2" d="M421.71,283.1s29.74,10.49,38,15.16S489.15,355,492,365.78s-61.45-21.21-61.45-21.21Z"/><path class="cls-6" d="M364.33,284.7l-9.2,34.92-2.39,9.08-103,6.41-7.41-48.23s1-.53,2.48-1.42c5.06-3,16.38-10,19.74-15.57,2-3.28,3.11-17.93,3.72-30.25.49-9.79.64-18.11.64-18.11s54-9.15,57.94-4.79c1.41,1.57,2,7.87,2.53,15.55.23,3.67.45,7.66.71,11.6.71,10.65,1.75,21,4.6,23.82,4.55,4.55,18.85,11.8,25.78,15.16C362.83,284,364.33,284.7,364.33,284.7Z"/><path class="cls-4" d="M330.11,243.89c-11.12,2.64-23.86,4.72-32.07,4.5-9.93-.25-21.67-4.91-29.75-8.75.49-9.79.64-18.11.64-18.11s54-9.15,57.94-4.79C329,219.07,329.31,231.69,330.11,243.89Z"/><polygon class="cls-5" points="337.17 329.67 344.87 300.24 367.16 294.36 355.18 336.95 337.17 329.67"/><path class="cls-5" d="M268.92,300.24c-4.46-12.53-7.61-28.58-8.12-36.6l-28,27.45L248,340.25l36.38-6.47Z"/><path class="cls-7" d="M221.44,136.32s12.14,55.44,20.33,67.07c5.36,7.61,36.3,30.44,42.84,31.27s25.7,2.37,33.51-1.82c11.87-6.38,38.52-26.16,40.69-34s11.62-48.14,14.23-55.54S373,68,373,68L265.87,56.09l-48.35,14.4Z"/><path class="cls-7" d="M233.58,167.14s-21.57,4.75-29.07-13-6.33-32.4,6.66-38.46,18.7,21.12,18.7,21.12Z"/><path class="cls-8" d="M312.49,386.93s-36.95-59.9-43.57-86.69c0,0,46.47,7,75.95,0C344.87,300.24,334.71,351.21,312.49,386.93Z"/><path class="cls-7" d="M363.32,167.14s21.39,5,28.59-12.63,5.86-32.25-7.06-38.47-18.23,20.84-18.23,20.84Z"/><path class="cls-9" d="M413,355.57s-4,37.9,10,53.51c10.89,12.15,45.83,52.71,57.43,66.65S508,499.7,512.36,501s20.6-2.18,21.18-5.23,9.28-26.14,8.7-32.67-8.12-44-9.57-47.49S504,379.89,499.31,374.23s-50.72-61.83-55.09-58.8S419.71,319.19,413,355.57Z"/><path class="cls-10" d="M448.93,370.09s-10.62,29.57-17.32,30.38c-16.29,2-4-42.72-4-42.72Z"/><path class="cls-11" d="M230,118.63s-3-20.57-3.38-33.74S256.59,66,262.09,68s23.82,10.7,44.46,9,25.37-11.69,36.32-10.16,14.87,4.43,23.06,11.41-1.16,46.79-1.16,46.79l9.44-4.69a15.14,15.14,0,0,1,6.46-5.26S388.5,82,386.39,70.49s-7.19-36.62-22.83-53.9-32.22-14.15-44.4-16c-4.13-.65-60.83-2.81-80.7,10S204,55.8,203.6,64s1.19,36,6.9,51.32a33.56,33.56,0,0,1,5.45-.26c1.55.21,4.54,2.78,5.64,4S230,118.63,230,118.63Z"/><path class="cls-9" d="M174.55,355.17s10.64,36.59-.36,54.43c-8.56,13.89-35.76,60-44.71,75.78s-22.88,28.46-26.93,30.52-20.65,1.5-21.77-1.4S67,490.42,66.43,483.89s.2-44.75,1-48.43,21.94-40.25,25.5-46.65,39-69.83,43.8-67.62S161.54,320.55,174.55,355.17Z"/><path class="cls-7" d="M445.34,381.76c-.39-.33-1.88-1.29-4.08-2.64-9.47-5.82-31.83-18.83-31.83-18.83l35.91-39.62,11.11,9.91C459.11,334,448.5,377.33,445.34,381.76Z"/><path class="cls-3" d="M302,421.13s5.23-20,10.46-34.2"/><polygon class="cls-11" points="229.96 118.63 233.58 144.38 224.6 144.38 221.59 119.03 229.96 118.63"/><polygon class="cls-11" points="364.77 125.11 361.17 144.38 370 141.24 374.21 120.42 364.77 125.11"/><path class="cls-12" d="M214.66,155.89a3.3,3.3,0,0,0,2.73,1.22,5.67,5.67,0,0,0,2.88-.66,3,3,0,0,0,1-.87l.08-.13s0,0,0-.06a.72.72,0,0,0,0-.13,2.42,2.42,0,0,0-.19-.52,29.69,29.69,0,0,0-1.68-2.61,24.88,24.88,0,0,1-3.05-5.94,20.78,20.78,0,0,1-1.16-6.66,21,21,0,0,1,.2-3.37c.13-1.09.42-2.26.57-3.21.33-2,.25-4.07-.92-5.46s-3.36-1.79-5.33-1.37a8,8,0,0,0-2.85,1.17,5,5,0,0,0-2,2.39,5.05,5.05,0,0,1,1.68-2.79,8.11,8.11,0,0,1,2.92-1.64,7.76,7.76,0,0,1,3.43-.36,5.61,5.61,0,0,1,3.26,1.56,6.41,6.41,0,0,1,1.62,3.27,11.72,11.72,0,0,1,.1,3.49c-.16,1.18-.32,2.12-.39,3.18s-.1,2.06-.07,3.08a23.17,23.17,0,0,0,1,6,30.74,30.74,0,0,0,2.53,5.68,24,24,0,0,1,1.51,3,3.23,3.23,0,0,1,.19,1.05,1.71,1.71,0,0,1-.13.65,3.07,3.07,0,0,1-.17.31l-.16.2a3.94,3.94,0,0,1-1.55,1.08,6.22,6.22,0,0,1-3.43.28,5.27,5.27,0,0,1-1.59-.6A2.6,2.6,0,0,1,214.66,155.89Z"/><path class="cls-12" d="M379,155.78a2.6,2.6,0,0,1-1.15,1.17,5.15,5.15,0,0,1-1.62.49,6.24,6.24,0,0,1-3.41-.5,4,4,0,0,1-1.47-1.19l-.15-.21a3,3,0,0,1-.15-.31,2.29,2.29,0,0,1-.09-.67,3.23,3.23,0,0,1,.26-1,25.23,25.23,0,0,1,1.71-2.9,31.14,31.14,0,0,0,2.91-5.49,23.64,23.64,0,0,0,1.43-5.94,28.73,28.73,0,0,0,.13-3.08c0-1.06-.09-2-.17-3.2a12.09,12.09,0,0,1,.33-3.47,6.35,6.35,0,0,1,1.84-3.15,5.61,5.61,0,0,1,3.36-1.35,7.76,7.76,0,0,1,3.39.59,8,8,0,0,1,2.8,1.84,4.94,4.94,0,0,1,1.49,2.89,5,5,0,0,0-1.82-2.52,8.18,8.18,0,0,0-2.76-1.36c-1.94-.54-4.18-.34-5.41,1s-1.48,3.42-1.29,5.4c.09,1,.3,2.14.36,3.24a20,20,0,0,1,0,3.37,20.74,20.74,0,0,1-1.6,6.57,25.27,25.27,0,0,1-3.44,5.73,28.64,28.64,0,0,0-1.84,2.48,1.93,1.93,0,0,0-.23.51,1.05,1.05,0,0,0,0,.13s0,0,0,.06l.07.13a2.67,2.67,0,0,0,.93.93,5.63,5.63,0,0,0,2.82.86A3.29,3.29,0,0,0,379,155.78Z"/><path class="cls-7" d="M443.7,311.89s-9.62,47.88-17.4,50.72-27,6.36-28.07.1,13.58-46.19,13.58-46.19Z"/><path class="cls-10" d="M445.34,381.76c-.39-.33-1.88-1.29-4.08-2.64,13.56-21,15.19-48.54,15.19-48.54C459.11,334,448.5,377.33,445.34,381.76Z"/><path class="cls-7" d="M150.17,311.89s9.62,47.88,17.4,50.72,27,6.36,28.07.1-13.57-46.19-13.57-46.19Z"/><path class="cls-7" d="M148.53,381.76c.39-.33,1.88-1.29,4.08-2.64,9.47-5.82,31.83-18.83,31.83-18.83l-35.91-39.62-11.11,9.91C134.76,334,145.37,377.33,148.53,381.76Z"/><polygon class="cls-13" points="297.62 448.43 175.46 438.27 175.46 176.88 297.62 187.04 297.62 448.43"/><polygon class="cls-14" points="419.79 438.27 297.62 448.43 297.62 187.04 419.79 176.88 419.79 438.27"/><polygon class="cls-7" points="394.72 304.18 392.27 293.77 405.68 285.39 433.83 277.08 440.19 281.23 444.55 288.6 442.96 295.55 432.86 297.33 406.03 300.51 394.72 304.18"/><polygon class="cls-7" points="396.44 305.72 396.44 318.14 421.33 319.77 444.14 312.91 448.93 304.49 442.96 295.55 420.95 300.17 396.44 305.72"/><polygon class="cls-7" points="398.94 322.25 396.44 333.9 412.41 339.77 434.01 337.98 440.84 334.28 446.32 325.92 442.14 319.16 430.97 321.28 410.37 323.7 398.94 322.25"/><polygon class="cls-7" points="402.41 341.39 402.41 349.71 417.91 357.75 433.98 353.15 438.26 346.53 436.53 339.1 419.92 342.82 402.41 341.39"/><path class="cls-10" d="M148.53,381.76s9.06,22.2,15.68,20.9c8.09-1.59,2.79-32.15,2.79-32.15Z"/><path class="cls-10" d="M148.53,381.76c.39-.33,1.88-1.29,4.08-2.64-13.56-21-15.19-48.54-15.19-48.54C134.76,334,145.37,377.33,148.53,381.76Z"/><polygon class="cls-7" points="152.09 286.51 139.98 330.58 163.16 362.97 168.49 351.21 154.23 286.51 152.09 286.51"/><polygon class="cls-7" points="199.15 304.18 201.61 293.77 188.19 285.39 160.04 277.08 153.69 281.23 149.32 288.6 150.91 295.55 161.01 297.33 187.84 300.51 199.15 304.18"/><polygon class="cls-7" points="197.44 305.72 197.44 318.14 172.54 319.77 149.73 312.91 144.94 304.49 150.91 295.55 172.92 300.17 197.44 305.72"/><polygon class="cls-7" points="194.93 322.25 197.44 333.9 181.46 339.77 159.86 337.98 153.03 334.28 147.55 325.92 151.74 319.16 162.9 321.28 183.5 323.7 194.93 322.25"/><polygon class="cls-7" points="191.46 341.39 191.46 349.71 175.96 357.75 159.89 353.15 155.61 346.53 157.34 339.1 173.95 342.82 191.46 341.39"/><polygon class="cls-7" points="441.26 286.51 453.38 330.58 430.19 362.97 424.87 351.21 439.12 286.51 441.26 286.51"/></g></g></svg>