<svg xmlns="http://www.w3.org/2000/svg" viewBox="0 0 611.14 518.42"><defs><style>.cls-1{fill:#1f60ac;}.cls-2{fill:#a18888;}.cls-3{fill:#d1dae8;}.cls-4{fill:#455b64;}.cls-4,.cls-8{opacity:0.1;}.cls-5{fill:#b0bec5;}.cls-6{fill:#4678bc;}.cls-7{fill:#cfd8dc;}.cls-8{fill:#263238;}.cls-9{fill:#434256;}.cls-10{fill:#fff;}.cls-11{fill:#edeff0;}</style></defs><title>Header - Publicações</title><g id="Layer_2" data-name="Layer 2"><g id="Layer_1-2" data-name="Layer 1"><path class="cls-1" d="M597.42,318.46c-3.35,12.18-7.27,24.18-11.75,35.82-9.69,25.23-22,48.77-36.55,68.77q-2.83,3.92-5.81,7.65l-.15.19q-1.41,1.77-2.83,3.48a188.38,188.38,0,0,1-18,18.89,141.35,141.35,0,0,1-27.81,19.89l-1.11.59a285.6,285.6,0,0,1-43.27,18q-2.68.88-5.44,1.76A501.37,501.37,0,0,1,380.14,509q-3.33.58-6.69,1.12c-15.26,2.47-31,4.38-47,5.64q-11.85.93-23.8,1.35-12.13.45-24.27.33a461.87,461.87,0,0,1-48.22-2.91q-3-.35-6-.75A327.38,327.38,0,0,1,165.8,501c-33-10.66-61.55-27-81.81-50.37a173.26,173.26,0,0,1-38.92-79.47,210.79,210.79,0,0,1-4.15-46.57c0-.92,0-1.84.07-2.76a1.09,1.09,0,0,1,0-.18c0-1.88.13-3.77.24-5.65q.27-5.12.77-10.22.41-4.26,1-8.52c.18-1.4.37-2.79.58-4.19s.44-2.95.69-4.43c.12-.75.24-1.51.38-2.26q.72-4.26,1.59-8.48c.19-.94.39-1.88.59-2.82q.44-2,.9-4.05.57-2.47,1.18-4.95.7-2.85,1.48-5.68h0c.24-.91.49-1.81.75-2.72a3.6,3.6,0,0,1,.12-.44l0-.12c.34-1.2.68-2.4,1-3.59h0c.46-1.55.93-3.08,1.41-4.62.88-2.81,1.8-5.61,2.75-8.38.21-.62.43-1.24.65-1.85q1.76-5,3.68-9.94c1.09-2.8,2.21-5.58,3.38-8.32a.61.61,0,0,1,0-.12c1.18-2.81,2.41-5.59,3.66-8.33s2.59-5.55,3.93-8.27c1.63-3.32,3.32-6.59,5-9.79q2.25-4.19,4.58-8.22c2.13-3.67,4.3-7.26,6.53-10.74q2.65-4.17,5.4-8.15,2.52-3.69,5.12-7.19c.52-.71,1-1.41,1.59-2.11q3.14-4.11,6.6-8A176.1,176.1,0,0,1,122,134c31.71-28.31,75.71-48.62,124.18-61.73,11.87-3.21,24-6,36.31-8.34h0c12.6-2.42,25.35-4.39,38.15-5.93h0c2.35-.28,4.69-.55,7-.8,1.14-.13,2.29-.25,3.43-.36q8.4-.87,16.79-1.48c3.32-.24,6.63-.46,9.94-.64a573,573,0,0,1,64.46-.08,443.17,443.17,0,0,1,74.65,10.17c1,.23,2.07.48,3.09.72h0c21.51,5.2,40.4,12.07,55.48,20.5C614.27,118.91,623.31,224.14,597.42,318.46Z"/><path class="cls-2" d="M493.37,129.36s6.35-11.8,10.37-11.58,15.69,10.49,14.09,25.67-13.2,30.62-17.55,32.62-19.54,11.59-19.76,6.9S487,151,487,151Z"/><path class="cls-3" d="M551.57,327.51c-.88,10.22-2.1,20.88-3.36,30.87-.22,1.83-.46,3.63-.69,5.39-.66,5-1.31,9.81-1.92,14.2v0c-.06.46-.12.91-.19,1.36-1.74,12.48-3.1,21.48-3.1,23.13s.32,12.13.79,27.36c0,.67,0,1.34.07,2q-1.41,1.77-2.83,3.48a188.38,188.38,0,0,1-18,18.89,141.35,141.35,0,0,1-27.81,19.89l-1.11.59a285.6,285.6,0,0,1-43.27,18q-2.68.88-5.44,1.76A501.37,501.37,0,0,1,380.14,510q-3.33.58-6.69,1.12c-15.26,2.47-31,4.38-47,5.64q-11.85.93-23.8,1.35-12.13.45-24.27.33c1.12-8.88,1.53-16.3.59-20.32a53.29,53.29,0,0,1-.61-10.58c0-.41,0-.84,0-1.27,0-1,0-2.13.07-3.27,0-.64,0-1.3.06-2s.07-1.58.1-2.4q0-.7.06-1.44c.1-2.32.23-4.77.37-7.33,0-.62.07-1.24.11-1.88q.17-2.6.33-5.31c.06-.84.11-1.69.17-2.55.41-6.09.88-12.58,1.39-19.25.05-.74.11-1.49.17-2.23.29-3.9.6-7.86.9-11.82.05-.6.1-1.19.14-1.79.12-1.49.23-3,.35-4.46.05-.76.11-1.51.17-2.26q.29-3.75.56-7.46c.09-1.17.18-2.33.26-3.49.26-3.48.5-6.9.73-10.23.08-1.11.15-2.21.22-3.3l.15-2.26c.07-1.09.14-2.16.2-3.22l.06-.92c.55-9.06.91-17.11.94-23.36a70.24,70.24,0,0,0-.47-10.45c-.05-.24-.09-.46-.13-.67C282,336,284.1,275,290.28,265a3,3,0,0,1,1.35-1.33c4-1.52,35.26-6.15,66.05-9.93l6.74-.81,4.08-.49q4.68-.54,9.2-1c7.27-.79,14.14-1.48,20.18-2,7.68-.66,14-1.06,18.18-1.06a74.62,74.62,0,0,1,7.59.5c7.71.84,18.29,2.67,30.06,5q3.18.63,6.47,1.32l5.65,1.2,9,2,5.27,1.19,3.11.71c26.95,6.21,53.27,13.15,62.7,16.31l.07,0,1.72.61a3.74,3.74,0,0,1,1.38.94C553.92,283.13,553.61,304.14,551.57,327.51Z"/><path class="cls-4" d="M450.14,492.72q-2.68.88-5.44,1.76A501.37,501.37,0,0,1,380.14,510c3.28-54,10.45-155.6,11.65-181.77,0-1.07.08-2,.11-2.81a15.92,15.92,0,0,0,0-3.47c-.13,0,.2-.31.9-.72a80.56,80.56,0,0,1,13.7-5.73c4.44-1.4,9.12-2.42,12.85-2.22,3.29.17,5.83,1.29,6.79,3.94a5.44,5.44,0,0,1,.19.61,7.33,7.33,0,0,1,.21,1.47,9.13,9.13,0,0,1,0,1.38,42.3,42.3,0,0,0,.11,4.9C428.19,349.31,441.55,437.51,450.14,492.72Z"/><path class="cls-5" d="M462.74,262.09s-80.94-8.35-92.21.65-5.21-26.64.75-27.28,27.66-12,27.66-12h58.25l13,24.79Z"/><path class="cls-2" d="M377.3,253.71l-11.5,4.52,15.4,37.23s31.4,18.15,36,12.26,37.05-14.16,38.86-19.52,6.69-27.95,6.69-27.95l-12.63-3.58Z"/><path class="cls-6" d="M379.1,283.17s7.21,16.75,22.54,19.46,39-19.95,42.17-20.46,6.3,17.3,6.3,17.3-17.36,17.59-30.88,21.19-32.91,5.57-48.92-17.13S379.1,283.17,379.1,283.17Z"/><path class="cls-6" d="M444.7,494.48A501.37,501.37,0,0,1,380.14,510q-3.33.58-6.69,1.12c4.7-53.57,15.52-156,17.79-183.41.07-.94.14-1.79.2-2.55a27.65,27.65,0,0,0,.17-4.31s0,0,0,0c-.39-.13,3.29-2.15,8.39-4.21h0c7.09-2.86,16.91-5.79,22.31-3.86a5.49,5.49,0,0,1,3.82,4.46,6.57,6.57,0,0,1,.09.66,10.52,10.52,0,0,1,0,1.69,57.57,57.57,0,0,0,.1,6.19C427.71,351.61,438.12,440.07,444.7,494.48Z"/><path class="cls-4" d="M435.33,312.09s13.2,21.87,14.78,22.78,35.35-23.4,34.12-62.67c-1.23-38.92-43.93,16-47.75,14.93,5.33,4.19,6.14,11.31,6,19Z"/><path class="cls-2" d="M374.14,263.55A111.29,111.29,0,0,0,380,238.14a97.68,97.68,0,0,0,0-22.95,9.3,9.3,0,0,1,.9-5.7c3-5.58,12.69-6.81,23.87-6.08,20.27,1.32,45.56,9.07,45.56,9.07s.11,9.5.9,20.45c.84,12,2.5,25.74,5.67,30.62C463,272.89,374.14,263.55,374.14,263.55Z"/><path class="cls-4" d="M381.58,314.8s-4.88,21-4.88,23.37-30.17-15.26-23.05-64c5-34.46,29.44,15.71,29.44,15.71C380.21,299.2,378.12,308.18,381.58,314.8Z"/><path class="cls-2" d="M101.21,291.26c-9.15,8.58-21.29,1.08-32.35-10.61a170.7,170.7,0,0,1-16.1-20.35C45.1,249.13,39.9,239.59,39.9,239.59S38,224.85,36.69,213.45v0c-.09-.79-.18-1.57-.25-2.32-.46-4.25.18-6.78,1.17-8.3a4.71,4.71,0,0,1,4.51-2.15c5,6.56,16.58,14.4,18.18,16.49,2.25,2.92,16,15.68,17.5,16.68s12.52,25,16.64,30.75S101.21,291.26,101.21,291.26Z"/><path class="cls-7" d="M371.29,327.65s3.6-42.68,7.81-44.48-20.71-33.11-6.36-44.7c7.95-6.42,7.7-5.5,7.7-5.5l.22-9.17a54.64,54.64,0,0,0-20.8,24.5c-7.21,16.83-6.61,24.05-6.61,24.05S356.86,313.83,371.29,327.65Z"/><path class="cls-8" d="M391.24,327.65s4.84,5.41,16,4.81,23.6-9.59,23.6-9.59l-5-10.77-37.72,6.53,1.35,9Z"/><path class="cls-7" d="M449,327.65s-3.15-45.08-8.11-45.08c0,0,26.6-28.86,22.54-43.74s-12.58-12.37-12.58-12.37l-.31-7s10.63-.67,19.65,12.18c11.73,16.68,14.56,34.11,14.43,37.12C484.21,277.64,467.47,313.22,449,327.65Z"/><path class="cls-7" d="M543.6,434.16s0,.09,0,.13a.25.25,0,0,1,0-.08Z"/><path class="cls-7" d="M597.42,319.46c-3.35,12.18-7.27,24.18-11.75,35.82-9.69,25.23-22,48.77-36.55,68.77q-2.83,3.92-5.81,7.65c-.07-.62-.15-1.23-.22-1.84-1.75-15-3.12-25.61-3-27.46.09-1.28.45-9,1-20,.29-6.16.63-13.35,1-21,1.68-36.4,3.85-83.86,3.89-84.78h0l.07,0c.27.13,1.37.66,3.1,1.55C558.17,282.84,584.43,297.86,597.42,319.46Z"/><path class="cls-7" d="M298.85,361.76s-.65,2-1.65,5c-2.74,8-8.12,22.81-10.09,20.48-1.5-1.8-68.68,56.92-70.89,59.1-6.16,6.08-14.42,13.43-22.49,20.16-13.09,10.91-25.68,20.17-28,19.65-13.83-3.07-36.2-35.12-49.12-51.56C107.5,423,72.11,347.13,55,325.66,35.42,301.2,51.67,278,66.18,264.24c8.94-8.45,22.26-7.38,30.1,2.31C124.58,301.49,174.4,379,174.4,379c13.15-3,65-69.35,65-69.35,19.83-29.75,39.5-44.52,53.93-45Z"/><path class="cls-8" d="M388.34,321.34l-3.27-1.69s.05-20.06,5.89-22.77,4.71,4.74,4.71,4.74Z"/><path class="cls-8" d="M421.42,295s7.16,18.67,6.94,21.26,3.6.45,3.6.45-.3-11.28-1.22-15.11-7-8.45-7-8.45Z"/><path class="cls-6" d="M386.54,320.89s-.59-18.77,4.77-22.69,30.07-4.32,32.71-2.54,7.31,17.15,5.54,20.29-12.36,11.25-20.7,13.28S386.56,323.23,386.54,320.89Z"/><path class="cls-4" d="M451.23,232.93c-11.26,8.63-26.62,17.52-38.71,18.53-13.92,1.15-25.84-7.22-32.54-13.32a97.68,97.68,0,0,0,0-22.95,9.3,9.3,0,0,1,.9-5.7l23.87-6.08c20.27,1.32,45.56,9.07,45.56,9.07S450.44,222,451.23,232.93Z"/><path class="cls-2" d="M399.46,235.46s18.44.65,27.81-1.05,44.7-25,47.6-31.22c.28-.6,1.42-3.41,2.88-7.06,3.45-8.61,8.71-21.89,8.71-21.89l6.37-64.14s6.95-53.92,2.89-55.63S359,35.18,359,35.18,342,67,339.11,74.4s-5,44.4-5,44.4,10.55,73.25,16.92,84.61S399.46,235.46,399.46,235.46Z"/><path class="cls-9" d="M502.28,78.87c1.1-14.76-23.83-59.77-35.53-67.14S396.15-9.57,357.65,10c-14.9,7.57-32.4,42.1-26,72.11,0,0,22.25-28.78,32.73-22s32.44,15,52.51,14.19C437.58,73.5,460.6,55.6,470,61.84s16.36,30.44,16.36,42.43c0,14-1.5,44.19-2.33,46.74s1.22,6,5.14,2.58-.77-21,5.85-26.12S501.18,93.63,502.28,78.87Z"/><path class="cls-2" d="M335.88,129.36s-6.35-11.8-10.37-11.58-15.69,10.49-14.09,25.67,13.2,30.62,17.55,32.62,19.54,11.59,19.76,6.9-6.48-32-6.48-32Z"/><path class="cls-2" d="M90.48,319.1c-7.8,9-16.26,16.77-19.45,16.82,0,0-11-3.81-16.73-7.52s-21.49-7.5-34.55-14.72c-9.06-5-11.06-7.21-12.36-9.27a27.81,27.81,0,0,0-1.86-2.86C2.75,298,2.68,286,3.68,284.55S.28,275.81,0,271s4.1-10.19,4.25-12.29c0-.68.13-.47.2-.24-.08-.54-.31-2.14-.78-6.12C2.4,241.68,8,243.67,7.49,241.09c-1.88-9.89-1-13.51,3.06-17.07,1.28-1.12,20.22-8,24.59-5.88s44.12,45.09,44.12,45.09,16.92,26.4,25.35,29.33C109.34,294.21,100.46,307.63,90.48,319.1Z"/><path class="cls-4" d="M91,319.1c-7.81,9-16.27,16.77-19.45,16.82,0,0-11-3.81-16.74-7.52s-21.48-7.5-34.54-14.72c-9.06-5-11.06-7.21-12.37-9.27,1.5-1.11,3.13-2.39,4.84-3.87,7.2-6.26,8-4.46,15-.82s14.86-5.92,14.86-5.92c13.36,3,7.51,15.77,17.4,23.06s26.53-4.51,28.52-.76S88.45,316.1,91,319.1Z"/><rect class="cls-10" x="31.43" y="135.57" width="182.59" height="242.87" transform="translate(22.72 -9.66) rotate(4.97)"/><rect class="cls-11" x="45.76" y="226.5" width="153.93" height="8.58" transform="translate(20.45 -9.76) rotate(4.97)"/><rect class="cls-11" x="45.76" y="247.28" width="153.93" height="8.58" transform="translate(22.24 -9.68) rotate(4.97)"/><rect class="cls-11" x="44.71" y="264.81" width="153.93" height="8.58" transform="translate(23.76 -9.53) rotate(4.97)"/><rect class="cls-11" x="40.67" y="285.12" width="153.93" height="8.58" transform="translate(25.5 -9.1) rotate(4.97)"/><path class="cls-2" d="M50.16,283.38l.53-17.28,1-7.39s2.14-12.27.45-14.5A35.78,35.78,0,0,0,48,239.83c.85.46,2.15-7.64,1.06-11.14-.77-2.47-10.15-10.16-13.94-10.55s-9.94,2.64-9.94,2.64L22,278.72,20.23,292s13.15-1.68,16.28-1.54,11.77-.9,12.6-3.16A19.38,19.38,0,0,0,50.16,283.38Z"/><path class="cls-4" d="M9,281.31s13.68-10.57,16.69-10.46,20.89,3.7,21.77,5.87,2.46,4.36,2.77,2,0-5.55-1.15-6.23-22-5-24.26-4.23S8.07,279.88,9,281.31Z"/><path class="cls-4" d="M10.12,264.53s15.11-11.84,17.53-11c1.93.67,15.44,4.67,20.89,6.29a3,3,0,0,1,2.11,3l-.43,6.23L51.66,260a2.38,2.38,0,0,0-.91-2.26C46.41,254.45,30,246,27,247.29,23.53,248.86,7.9,259.86,10.12,264.53Z"/><path class="cls-4" d="M13.33,241.73l13.48-8.8,7.78-.17L46.12,238s-10.24-12.94-16.4-10S13.17,234.1,13.33,241.73Z"/><path class="cls-9" d="M322.53,79.45c-1.11-14.76,22.39-61.5,34.08-68.87s6.86,44.16-2.53,50.4-15.62,31.88-15.62,43.87c0,14,1.51,44.19,2.34,46.74s-1.22,6-5.15,2.57.78-21-5.84-26.11S323.63,94.21,322.53,79.45Z"/><path class="cls-4" d="M302.69,518.06q-12.13.45-24.27.33c1.12-8.88,1.53-16.3.59-20.32a53.29,53.29,0,0,1-.61-10.58c0-.41,0-.84,0-1.27,0-1,0-2.13.07-3.27,0-.64,0-1.3.06-2s.07-1.58.1-2.4q0-.7.06-1.44c.1-2.32.23-4.77.37-7.33,0-.62.07-1.25.11-1.88q.17-2.6.33-5.31c.06-.84.11-1.69.17-2.55.41-6.09.88-12.58,1.39-19.25.05-.74.11-1.49.17-2.23.29-3.9.6-7.86.9-11.82.05-.6.1-1.19.14-1.79.12-1.49.23-3,.35-4.46.05-.76.11-1.51.17-2.26q.29-3.75.56-7.46c.09-1.17.18-2.33.26-3.49.26-3.48.5-6.9.73-10.23.08-1.11.15-2.21.22-3.3l.15-2.26c.07-1.09.14-2.16.2-3.22l.06-.92c-6.46,3-45,37.56-62.14,53-.18.17-.37.34-.55.49l-7.57,6.86-.09.08C210,452,202.43,459,195.25,465.2l-.37.31c-3.23,2.78-6.37,5.37-9.11,7.44l-.28.21c5.81-7.62,1.38-15.36,7.74-29.74,12.18-27.49,60.57-60.87,61.92-69,1-5.86,9.72-11.77,16.87-15.58-15.55-3.94-1.4-14.38,13.43-5.29a14.89,14.89,0,0,1,6.18,6.65,15.57,15.57,0,0,1,.67,1.94c1.7,1.51,3.31,3.1,4.71,4.57-.8,2.1-1.8,4.67-2.88,7.27l.09,1c2.42,31.29-1.67,94.62,4.62,108.6C302.28,491.27,311.27,507.3,302.69,518.06Z"/><path class="cls-4" d="M545.77,379s.94,23.49,3.35,45q-2.83,3.92-5.81,7.65l-.15.19q-1.41,1.77-2.83,3.48a188.38,188.38,0,0,1-18,18.89c1.88-29.49,1.75-59.17,7.85-67.61,7.82-10.82,4.81-32.42-9.62-56.49s-4.8-10.84-4.8-10.84S538,342.76,539.2,359.6c.36,5,1.46,4.71,2.83,1.71,3.25-7.08,8-29.24,8-32.27,0-1.34.76-2,1.55-1.53,1.74,1.1,3.65,8-2.15,26.68-.5,1.62-.9,3-1.21,4.19-.82,3.12-1,4.79-.69,5.39,1.47,3,14.41-20,17.23-21.91,3.6-2.4-11.13,27.65-17.59,32.46-.61.46-1.13,1.73-1.56,3.65v0c-.1.45-.2.93-.29,1.45l.1-.09Z"/><path class="cls-4" d="M174.4,379s2.67,21.12-9.07,41.41,8.9-5.42,8.9-16.69-2,33.37-1.83,38.33,8.48-26,5.24-44.54,10.36,9.82,13.19,16.58,2.56-15.33-4-21.64a45.53,45.53,0,0,1-9.72-14.63Z"/><rect class="cls-11" x="54.46" y="152.6" width="153.93" height="8.58" transform="translate(14.08 -10.79) rotate(4.97)"/><rect class="cls-11" x="52.87" y="170.96" width="153.93" height="8.58" transform="translate(15.66 -10.58) rotate(4.97)"/><rect class="cls-11" x="52.87" y="190.89" width="153.93" height="8.58" transform="translate(17.39 -10.51) rotate(4.97)"/><rect class="cls-11" x="49.52" y="209.44" width="153.93" height="8.58" transform="translate(18.98 -10.15) rotate(4.97)"/><rect class="cls-11" x="38.97" y="304.61" width="153.93" height="8.58" transform="translate(27.18 -8.88) rotate(4.97)"/><rect class="cls-11" x="37.34" y="323.36" width="153.93" height="8.58" transform="translate(28.8 -8.67) rotate(4.97)"/></g></g></svg>