<svg xmlns="http://www.w3.org/2000/svg" viewBox="0 0 570.26 516.04"><title>Header - O que é_1</title><g id="Layer_2" data-name="Layer 2"><g id="Layer_1-2" data-name="Layer 1"><path d="M544.79,351.9c-11.59,30.17-26.9,57.91-45.34,80.09-13.63,16.38-29,29.73-45.81,38.78l-1.11.59c-38.49,20.37-100.95,36.78-166.92,42-32.05,2.51-64.93,2.38-96.29-1.23q-3-.35-6-.75a327.38,327.38,0,0,1-58.35-12.74c-33-10.66-61.55-27-81.81-50.37-75.71-87.35-39.3-218.3,14.48-291,31-42,85.68-70.51,147.66-87.27,11.87-3.21,24-6,36.31-8.34h0c12.6-2.42,25.35-4.39,38.15-5.93h0A583.89,583.89,0,0,1,381.4,52.3c53.77,3,101.78,13.83,133.22,31.4C581,120.77,583.93,250.16,544.79,351.9Z" style="fill:#1f60ac"/><path d="M452.53,472.36c-38.49,20.37-100.95,36.78-166.92,42-32.05,2.51-64.93,2.38-96.29-1.23q-3-.35-6-.75a327.38,327.38,0,0,1-58.35-12.74c1.67-41.48,5.2-121.14,8-131.31,3.85-13.84,13.5-40.8,23.14-46.59,8.42-5.06,57-32.15,69.21-38.95h0l2.78-1.55h.46L239.4,281h0l6.34-.14,19.32-.43,44.08-1,3.37-.07,13-.29h0l9.87-.22,4.08-.09,20-.45,4.55-.1,7.35-.17,2.77.85h0l5.46,1.68h0l3.74,1.15,7.42,2.28,4.17,1.29,20.15,6.19,1.73.53,4.71,1.45S446.85,367,449.7,396.86v0c.12,1.2.2,2.34.24,3.39a32,32,0,0,1-.06,3.73c-.12,1.47-.21,3.25-.25,5.27v.05c-.11,4.41,0,10,.15,16.37.1,3.33.23,6.86.39,10.52C450.38,440.86,452.18,466.44,452.53,472.36Z" style="fill:#fafbfb"/><path d="M298.44,435a10.44,10.44,0,0,0-.58,2.21.29.29,0,0,0,0,.09c-2.47,12-10,66-12.23,77.07" style="fill:none;stroke:#455b64;stroke-linejoin:round;stroke-width:3px;opacity:0.1"/><path d="M243.32,252.71,221.68,294.5l-10.93,57.86,32.57-20.57L227,379.36l77.58,34.93-7.43,23.44s67.79-48.09,82.93-64.8l-16.79-46.41,31.93,13.62-15.14-52.07-22.65-35.36S313.18,218.64,243.32,252.71Z" style="fill:#455b64;opacity:0.1"/><path d="M255.32,242.6l-33.64,45L210.75,345.5l32.57-20.57L227,372.5s49.29,30.21,75,41.79L296,438.71s69-55.92,84.15-72.64l-16.79-46.41,31.93,13.63-15.14-52.08-22.65-35.35S325.18,208.52,255.32,242.6Z" style="fill:#f5f5f5"/><path d="M263.1,268.16s-4.46-21-2.21-23.59,7-6.36,21.65-6.4,7.28,24.72,7.28,24.72Z" style="fill:#455b64;opacity:0.1"/><path d="M426.11,271.21S457,274.43,466,277s41.15,47.57,46.29,57.21S448.61,328,448.61,328Z" style="fill:#eee"/><path d="M363.32,280.07l-9.05,34.35-2.35,8.93-101.31,6.31-7.29-47.45s.94-.52,2.44-1.4c5-2.92,16.12-9.87,19.42-15.31,2-3.23,3.06-17.64,3.66-29.76.48-9.63.63-17.82.63-17.82s53.14-9,57-4.71c1.39,1.55,2,7.74,2.49,15.3.23,3.61.44,7.53.7,11.41.7,10.48,1.72,20.63,4.52,23.43,4.48,4.48,18.55,11.61,25.36,14.92C361.85,279.39,363.32,280.07,363.32,280.07Z" style="fill:#fbc3ae"/><path d="M329.66,239.92c-10.94,2.6-23.47,4.64-31.55,4.43-9.77-.25-21.32-4.83-29.27-8.61.48-9.63.63-17.82.63-17.82s53.14-9,57-4.71C328.53,215.5,328.87,227.92,329.66,239.92Z" style="fill:#455b64;opacity:0.1"/><polygon points="336.6 324.31 344.18 295.36 366.11 289.57 354.32 331.47 336.6 324.31" style="fill:#f5f5f5"/><path d="M269.46,295.36c-4.39-12.32-7.49-28.12-8-36l-27.58,27,15,48.35,35.79-6.35Z" style="fill:#f5f5f5"/><path d="M222.75,134.11s11.94,54.53,20,66c5.27,7.49,35.71,29.95,42.14,30.76s25.29,2.34,33-1.79c11.67-6.27,37.89-25.73,40-33.42s11.43-47.36,14-54.64,0-74.07,0-74.07L266.46,55.18,218.89,69.35Z" style="fill:#fbc3ae"/><path d="M354.61,288.86h0a12.16,12.16,0,0,1-14.89-9.12L323,200.69,342.61,196l21.11,78A12.16,12.16,0,0,1,354.61,288.86Z" style="fill:#565a7b"/><path d="M234.69,164.43s-21.22,4.67-28.6-12.83-6.22-31.88,6.55-37.84S231,134.54,231,134.54Z" style="fill:#fbc3ae"/><path d="M312.32,380.64S276,321.71,269.46,295.36c0,0,45.72,6.85,74.72,0C344.18,295.36,334.18,345.5,312.32,380.64Z" style="fill:#4663ae"/><path d="M450.18,426.21c-28.15-38-56.39-45.43-65-60.43-8.29-14.49-.57-50.57,0-53l-7.85-4.59-3.23-1.88-19.84-1.88-13.45-1.28-13.71-6L323,290.46l-9.65-5.79-1.93-13-2.23-2.25L304,264.21l-1-12.57,4.86-5.22-1.93-13.82s17.29-11.87,23-14.09c.23,3.61.44,7.53.7,11.41.7,10.48,1.72,20.63,4.52,23.43,4.48,4.48,18.55,11.61,25.36,14.92l11.9-.27,50.17,15.42S451.82,371.5,449.89,394C449.35,400.38,449.58,412.34,450.18,426.21Z" style="fill:#455b64;opacity:0.1"/><path d="M362.32,164.43s21.05,4.93,28.13-12.43,5.76-31.73-6.94-37.85-17.94,20.5-17.94,20.5Z" style="fill:#fbc3ae"/><path d="M410.68,251.61l-17.36,37.28-51.1,4.82-.08,0-1.87-1.1h0L327.43,285l-3.21-10.29L314.57,269l-1.93-13-7.39-7.43-1-12.57,4.86-5.22-1.93-13.82s15.75-8.56,21-9.91h0a2.9,2.9,0,0,1,1.45-.12c2.34.91,47.27,6.5,47.27,6.5Z" style="fill:#fbc3ae"/><path d="M356.53,208.56s-4.14-7-4.57-12.13a10.28,10.28,0,0,1,4.79-9.86c2.28-1.28,5.5,8.18,10.64,11S391,229.25,391,229.25Z" style="fill:#fbc3ae"/><path d="M386.46,296.93s-8.57,38.14,0,53.14,67.72,51.86,84.86,65.57S512,439.21,518.46,440.5s30.43-2.14,31.29-5.14,13.71-25.72,12.86-32.15-12-43.28-14.15-46.71S506,321.36,499.18,315.79s-74.94-60.83-81.4-57.85S396.33,261.14,386.46,296.93Z" style="fill:#fafbfb"/><path d="M410.68,311.71s-10.45,29.09-17,29.9c-16,1.95-3.93-42-3.93-42Z" style="fill:#455b64;opacity:0.05"/><path d="M231.13,116.7s-2.91-20.24-3.33-33.19,29.53-18.62,34.94-16.59,23.43,10.52,43.74,8.9,24.95-11.5,35.73-10,14.63,4.36,22.69,11.23-1.15,46-1.15,46l9.28-4.61a15,15,0,0,1,6.37-5.17s7.69-32.61,5.62-43.94-7.08-36-22.46-53S330.86,2.4,318.89.54c-4.07-.63-59.84-2.76-79.39,9.78S205.61,54.89,205.2,63s1.17,35.38,6.79,50.48a32.82,32.82,0,0,1,5.36-.25c1.52.21,4.47,2.73,5.55,3.88S231.13,116.7,231.13,116.7Z" style="fill:#184966"/><path d="M410.68,311.71c-.38-.32-1.85-1.27-4-2.6-9.32-5.72-31.31-18.52-31.31-18.52l35.32-39,10.93,9.75C424.23,264.72,413.79,307.35,410.68,311.71Z" style="fill:#fbc3ae"/><path d="M189.32,513.1q-3-.35-6-.75c-.72-13-3-37-3.85-41.56a36.87,36.87,0,0,0-7.52-15.69c-3.34-4.17-7.15-12.85-10.72-21.21s-6.2-18.32-4.53-25.71,3.08,5.09,5.48,14.78c1.45,5.86,4.55,10.26,8.34,17.36,3.39,6.35,5.48,8,6.2,1s-2.15-18.32-4.29-25.07,6.19-9,6.91,0,2.14,28.93,4.52,39.22C185.68,463.49,188.29,498.42,189.32,513.1Z" style="fill:#455b64;opacity:0.1"/><path d="M302,414.29s5.15-19.72,10.29-33.65" style="fill:none;stroke:#455b64;stroke-linejoin:round;stroke-width:3px;opacity:0.1"/><polygon points="231.13 116.7 234.69 142.04 225.86 142.04 222.9 117.09 231.13 116.7" style="fill:#184966"/><polygon points="363.75 123.07 360.21 142.04 368.89 138.94 373.03 118.46 363.75 123.07" style="fill:#184966"/><path d="M216.08,153.36a3.23,3.23,0,0,0,2.69,1.19,5.4,5.4,0,0,0,2.83-.65,2.8,2.8,0,0,0,1-.85l.08-.13a.43.43,0,0,1,0,0,.76.76,0,0,0,0-.14,1.93,1.93,0,0,0-.19-.51,28.61,28.61,0,0,0-1.65-2.56,25,25,0,0,1-3-5.85,20.6,20.6,0,0,1-1.14-6.55,20.3,20.3,0,0,1,.2-3.31c.13-1.07.41-2.22.56-3.16.32-1.93.25-4-.91-5.38s-3.3-1.75-5.24-1.34a7.8,7.8,0,0,0-2.8,1.15,4.92,4.92,0,0,0-2,2.35,4.9,4.9,0,0,1,1.66-2.74,7.91,7.91,0,0,1,2.87-1.62,7.6,7.6,0,0,1,3.36-.35,5.48,5.48,0,0,1,3.21,1.54,6.2,6.2,0,0,1,1.6,3.21,12,12,0,0,1,.1,3.43c-.16,1.16-.31,2.09-.38,3.13a27.86,27.86,0,0,0-.07,3,22.89,22.89,0,0,0,1,5.93,29.69,29.69,0,0,0,2.49,5.58,23.85,23.85,0,0,1,1.48,2.95,3.15,3.15,0,0,1,.19,1,1.71,1.71,0,0,1-.13.65,1.78,1.78,0,0,1-.17.3l-.15.2a3.85,3.85,0,0,1-1.53,1.06,6,6,0,0,1-3.37.27,4.75,4.75,0,0,1-1.56-.59A2.55,2.55,0,0,1,216.08,153.36Z" style="fill:#f9aa92"/><path d="M377.76,153.24a2.54,2.54,0,0,1-1.13,1.16,5,5,0,0,1-1.6.48,6.2,6.2,0,0,1-3.35-.49,3.94,3.94,0,0,1-1.45-1.17l-.14-.21a1.77,1.77,0,0,1-.15-.31,2.17,2.17,0,0,1-.09-.65,3.1,3.1,0,0,1,.26-1,24.53,24.53,0,0,1,1.68-2.86,30.77,30.77,0,0,0,2.86-5.4,23,23,0,0,0,1.41-5.84c.1-1,.13-2,.13-3s-.1-2-.18-3.15a11.77,11.77,0,0,1,.34-3.42,6.14,6.14,0,0,1,1.8-3.09,5.51,5.51,0,0,1,3.31-1.33,7.63,7.63,0,0,1,3.33.58,8,8,0,0,1,2.76,1.8,4.91,4.91,0,0,1,1.46,2.85,4.88,4.88,0,0,0-1.79-2.48,8.06,8.06,0,0,0-2.71-1.33c-1.91-.54-4.11-.34-5.33,1s-1.45,3.36-1.26,5.31c.09.94.29,2.11.35,3.19a19.28,19.28,0,0,1,0,3.31,20.38,20.38,0,0,1-1.57,6.47,24.9,24.9,0,0,1-3.38,5.63,26.58,26.58,0,0,0-1.82,2.45,2.14,2.14,0,0,0-.22.49.39.39,0,0,0,0,.14.43.43,0,0,1,0,.05l.07.13a2.75,2.75,0,0,0,.91.92,5.54,5.54,0,0,0,2.78.84A3.23,3.23,0,0,0,377.76,153.24Z" style="fill:#f9aa92"/><circle cx="321.3" cy="150.49" r="51.83" style="fill:#edeff0"/><path d="M321.3,107.66a42.83,42.83,0,1,0,42.83,42.83A42.84,42.84,0,0,0,321.3,107.66Zm0,31.57a8.66,8.66,0,1,1-8.66,8.66A8.66,8.66,0,0,1,321.3,139.23Zm0,29.71a35.68,35.68,0,0,1-30.92-17.85,35.77,35.77,0,0,1,20-16.14,16.95,16.95,0,1,0,21.85,0,35.8,35.8,0,0,1,20,16.15A35.69,35.69,0,0,1,321.3,168.94Z" style="fill:#2d98d4"/><circle cx="321.3" cy="147.89" r="8.66" transform="translate(151 457.9) rotate(-85.93)" style="fill:#2d98d4"/><path d="M352.23,151.09a35.71,35.71,0,0,1-61.85,0,35.77,35.77,0,0,1,20-16.14,16.95,16.95,0,1,0,21.85,0A35.8,35.8,0,0,1,352.23,151.09Z" style="fill:#2d98d4"/><circle cx="321.3" cy="147.89" r="8.66" transform="translate(151 457.9) rotate(-85.93)" style="fill:#fff"/><circle cx="321.3" cy="147.89" r="8.66" transform="translate(-13.01 32.38) rotate(-5.65)" style="fill:#2d98d4"/><path d="M332.22,134.94a17,17,0,1,1-21.85,0,35.77,35.77,0,0,0-20,16.14,35.71,35.71,0,0,0,61.85,0A35.8,35.8,0,0,0,332.22,134.94Z" style="fill:#fff"/><circle cx="321.3" cy="147.89" r="8.66" style="fill:#fff"/><path d="M410.68,311.71c-.38-.32-1.85-1.27-4-2.6,13.34-20.63,14.94-47.75,14.94-47.75C424.23,264.72,413.79,307.35,410.68,311.71Z" style="fill:#455b64;opacity:0.05"/><path d="M340.26,292.56,327.43,285l-3.21-10.29L314.57,269l-1.93-13-7.39-7.43-1-12.57,4.86-5.22-1.93-13.82s15.75-8.56,21-9.91h0l1.45-.12S323,212.2,323,216.5c0,3.8,4.23,8.71,4.29,11.75.11,5.55-4.26,6.56-5.35,11.34s6.46,11.22,6.75,13.57-1.93,6.2-1.13,11.18c1.27,7.9,7.29,8.73,7.71,11.73a27.93,27.93,0,0,1-.26,7.07C334.79,288,338,291,340.26,292.56Z" style="fill:#455b64;opacity:0.05"/></g></g></svg>