<svg xmlns="http://www.w3.org/2000/svg" viewBox="0 0 570.25 516.62"><defs><style>.cls-1{fill:#1f60ac;}.cls-2{fill:#a18888;}.cls-3{fill:#d1dae8;}.cls-4{fill:#455b64;}.cls-4,.cls-8{opacity:0.1;}.cls-5{fill:#b0bec5;}.cls-6{fill:#4678bc;}.cls-7{fill:#cfd8dc;}.cls-8{fill:#263238;}.cls-9{fill:#434256;}.cls-10{fill:#184966;}.cls-11{fill:#83bbe5;}.cls-12{fill:#fbc3ae;}</style></defs><title>Header - Equipe</title><g id="Layer_2" data-name="Layer 2"><g id="Layer_1-2" data-name="Layer 1"><path class="cls-1" d="M559.43,305.47c-9.22,37.94-24.09,74.66-43.69,104.86-2,3.16-4.15,6.25-6.3,9.26-.69,1-1.39,1.94-2.1,2.89l0,0A199.25,199.25,0,0,1,484,449.14a143.27,143.27,0,0,1-30.31,22.22,240.27,240.27,0,0,1-23.92,11.08q-2.93,1.19-6,2.34a435.92,435.92,0,0,1-60.7,17.7q-3,.66-6,1.28a575.22,575.22,0,0,1-70.59,10.07c-1.77.15-3.54.28-5.32.4q-8.58.62-17.21.95c-1.93.09-3.86.15-5.79.21q-5.24.15-10.47.2c-3,0-5.95,0-8.92,0l-4.84-.06-3.22-.07c-10.52-.24-21-.82-31.33-1.77q-5.83-.53-11.61-1.21C140,506.81,95.8,493,63.56,468A143.44,143.44,0,0,1,48.4,454.56c-.55-.55-1.09-1.12-1.62-1.69q-1.89-2-3.67-4.05Q39.77,445,36.71,441A170.16,170.16,0,0,1,13.2,399.61c-32.55-82.1,0-181.79,44.39-241.83a168.31,168.31,0,0,1,22-24.2,206.3,206.3,0,0,1,16.14-13.22l.58-.43,0,0c.47-.36.94-.7,1.41-1l.81-.58,1.82-1.29a282.19,282.19,0,0,1,49.56-27.34A410,410,0,0,1,212,68.74c11.08-2.83,22.38-5.28,33.8-7.37a577.49,577.49,0,0,1,73.61-8.55h0l1.05,0c5.75-.3,11.49-.51,17.19-.62,2.39-.06,4.78-.09,7.16-.12C389,51.63,431,56.26,465.52,65.39l1.51.4c18.25,4.92,34.38,11.11,47.59,18.49C571.08,115.81,581.63,214.17,559.43,305.47Z"/><path class="cls-2" d="M462.32,125.69s5.61-10.45,9.17-10.25,13.89,9.29,12.47,22.72-11.68,27.1-15.53,28.87-17.29,10.26-17.49,6.11,5.73-28.29,5.73-28.29Z"/><path class="cls-3" d="M513.83,301.07c-.78,9-1.85,18.42-3,27.23-.21,1.64-.42,3.26-.63,4.85h0c-.58,4.43-1.15,8.66-1.69,12.53-.06.43-.12.85-.19,1.27-1.54,11-2.74,19-2.74,20.46s.28,10.72.7,24.18c.29,9.15.64,20.2,1,31.91A199.25,199.25,0,0,1,484,450.14a143.27,143.27,0,0,1-30.31,22.22,240.27,240.27,0,0,1-23.92,11.08q-2.93,1.19-6,2.34a435.92,435.92,0,0,1-60.7,17.7q-3,.66-6,1.28a575.22,575.22,0,0,1-70.59,10.07c-1.77.15-3.54.28-5.32.4q-8.58.62-17.21.95c3.56-19.16,11-54,8.64-64.16-1.38-5.89.08-27.81,1.94-52.06,1.85-24.55,4.11-51.49,4.18-66.58a64,64,0,0,0-.42-9.26c0-.21-.08-.41-.11-.59-.9-4.49-1.36-12.52-1.4-21.79-.13-22.91,2.23-53.42,6.54-57a1.34,1.34,0,0,1,.44-.26,4.7,4.7,0,0,1,.78-.23l.06,0,0,0c5.92-1.55,31.92-5.37,57.59-8.52l6-.72,3.61-.42c2.75-.33,5.47-.63,8.13-.92,6.44-.71,12.52-1.32,17.87-1.78h0c6.8-.59,12.41-.94,16.08-.94a63.25,63.25,0,0,1,6.68.44h0c6.83.74,16.19,2.36,26.62,4.45h0c1.88.37,3.78.76,5.72,1.16l5,1.07c2.63.56,5.27,1.14,7.94,1.75h0l4.69,1h0l2.74.63c23.84,5.49,47.13,11.63,55.49,14.43h0l0,0,1.54.54a3.22,3.22,0,0,1,1.23.85C515.91,261.83,515.63,280.4,513.83,301.07Z"/><path class="cls-4" d="M429.72,483.44q-2.93,1.19-6,2.34a435.92,435.92,0,0,1-60.7,17.7,40.34,40.34,0,0,1-2.38-13.43c.47-21.37,10.38-158.9,11.74-188.39,0-1,.08-1.79.1-2.5a15,15,0,0,0,0-3.07c-.12,0,.18-.27.8-.63a71.15,71.15,0,0,1,12.15-5.08c3.9-1.23,8-2.13,11.3-2,2.95.15,5.22,1.15,6.07,3.52a2.73,2.73,0,0,1,.14.51,5.28,5.28,0,0,1,.2,1.3,8.32,8.32,0,0,1,0,1.22,34.31,34.31,0,0,0,.1,4.32C405.08,327.41,425.62,457.57,429.72,483.44Z"/><path class="cls-5" d="M435.2,243.16s-71.63-7.39-81.61.58-4.61-23.58.67-24.15S378.74,209,378.74,209h51.55l11.49,22Z"/><path class="cls-2" d="M359.58,235.75l-10.17,4L363,272.69s27.79,16.07,31.85,10.85,32.79-12.53,34.39-17.27,5.92-24.74,5.92-24.74L424,238.36Z"/><path class="cls-6" d="M361.18,261.81s6.38,14.83,19.95,17.23,34.53-17.66,37.32-18.11S424,276.25,424,276.25,408.66,291.81,396.69,295s-29.12,4.93-43.29-15.16S361.18,261.81,361.18,261.81Z"/><path class="cls-6" d="M423.76,485.78a435.92,435.92,0,0,1-60.7,17.7q-3,.66-6,1.28a41.88,41.88,0,0,1-2.82-14.71c.48-21.26,15.14-158.22,17.66-188.87q.1-1.24.18-2.25a23.72,23.72,0,0,0,.16-3.82h0c-.35-.12,2.9-1.9,7.4-3.72,6.27-2.53,15-5.13,19.77-3.42a4.84,4.84,0,0,1,3.4,4,4.41,4.41,0,0,1,.07.54,8.19,8.19,0,0,1,0,1.49h0a49.44,49.44,0,0,0,.1,5.46C404.66,330.93,421.44,467.05,423.76,485.78Z"/><path class="cls-4" d="M410.94,287.41s11.69,19.36,13.09,20.16,31.28-20.71,30.19-55.47c-1.08-34.44-38.88,14.15-42.26,13.22,4.72,3.71,5.44,10,5.33,16.85Z"/><path class="cls-2" d="M356.79,244.45A98.2,98.2,0,0,0,362,222a86,86,0,0,0,0-20.31,8.22,8.22,0,0,1,.79-5c2.7-4.94,11.24-6,21.13-5.39,17.94,1.17,40.32,8,40.32,8s.1,8.41.8,18.1c.74,10.62,2.21,22.78,5,27.1C435.39,252.72,356.79,244.45,356.79,244.45Z"/><path class="cls-4" d="M363.37,289.81s-4.32,18.56-4.32,20.68-26.7-13.5-20.4-56.63c4.46-30.5,26.06,13.91,26.06,13.91C362.16,276,360.31,284,363.37,289.81Z"/><path class="cls-7" d="M354.26,301.18s3.2-37.77,6.92-39.37-18.33-29.3-5.63-39.56c7-5.68,6.82-4.86,6.82-4.86l.19-8.12A48.31,48.31,0,0,0,344.16,231c-6.39,14.89-5.86,21.28-5.86,21.28S341.5,289,354.26,301.18Z"/><path class="cls-8" d="M371.92,301.18s4.29,4.79,14.13,4.26S406.93,297,406.93,297l-4.38-9.53-33.39,5.78,1.2,8Z"/><path class="cls-7" d="M423,301.18s-2.79-39.9-7.18-39.9c0,0,23.54-25.53,19.95-38.7s-11.14-11-11.14-11l-.27-6.21s9.4-.59,17.39,10.78c10.38,14.77,12.89,30.2,12.77,32.86C454.21,256.93,439.39,288.42,423,301.18Z"/><path class="cls-7" d="M559.43,306.47c-9.22,37.94-24.09,74.66-43.69,104.86-2,3.16-4.15,6.25-6.3,9.26-.09-1-.18-2-.28-2.94l-.36-3.6c-.61-6-1.25-11.78-1.86-17.07-.05-.5-.11-1-.17-1.48q-.22-2-.45-3.9c-1.55-13.23-2.76-22.63-2.66-24.27.07-1.13.4-8,.86-17.74.25-5.45.55-11.81.85-18.6,1.5-32.24,3.41-74.27,3.45-75.05h0l0,0c.25.11,1.23.58,2.77,1.39,9,4.7,37.17,20.86,46.38,43.83A37.46,37.46,0,0,1,559.43,306.47Z"/><path class="cls-8" d="M369.36,295.6l-2.89-1.5s0-17.75,5.21-20.15,4.16,4.19,4.16,4.19Z"/><path class="cls-8" d="M398.64,272.29s6.33,16.52,6.13,18.82,3.2.4,3.2.4-.27-10-1.09-13.37-6.2-7.48-6.2-7.48Z"/><path class="cls-6" d="M367.76,295.2s-.52-16.62,4.23-20.08,26.61-3.82,28.95-2.25,6.47,15.18,4.9,18-10.94,10-18.32,11.75S367.78,297.27,367.76,295.2Z"/><path class="cls-4" d="M425,217.35c-10,7.64-23.56,15.51-34.27,16.4-12.31,1-22.86-6.39-28.8-11.79a86,86,0,0,0,0-20.31,8.22,8.22,0,0,1,.79-5l21.13-5.39c17.94,1.17,40.32,8,40.32,8S424.32,207.66,425,217.35Z"/><path class="cls-2" d="M379.2,219.59s16.32.58,24.61-.93,39.57-22.1,42.13-27.63c.25-.53,1.25-3,2.55-6.25,3.06-7.61,7.7-19.37,7.7-19.37l5.64-56.77S468,60.92,464.4,59.41s-121-17.08-121-17.08-15.06,28.19-17.63,34.72-4.42,39.3-4.42,39.3,9.34,64.83,15,74.87S379.2,219.59,379.2,219.59Z"/><path class="cls-9" d="M470.2,81c1-13.06-21.09-52.89-31.44-59.42s-62.49-18.85-96.57-1.53c-13.19,6.7-28.67,37.26-23,63.82,0,0,19.7-25.47,29-19.44S376.86,77.7,394.63,77c18.31-.74,38.68-16.58,47-11.06s14.48,26.94,14.48,37.55c0,12.39-1.33,39.11-2.06,41.37s1.07,5.31,4.55,2.28-.69-18.59,5.17-23.11S469.22,94.07,470.2,81Z"/><path class="cls-2" d="M322.93,125.69s-5.62-10.45-9.18-10.25-13.88,9.29-12.47,22.72S313,165.26,316.82,167s17.29,10.26,17.48,6.11-5.73-28.29-5.73-28.29Z"/><path class="cls-9" d="M311.11,81.52c-1-13.06,19.82-54.43,30.17-61s6.06,39.09-2.24,44.61S325.21,93.39,325.21,104c0,12.38,1.34,39.1,2.07,41.36s-1.08,5.31-4.56,2.28.69-18.59-5.17-23.11S312.09,94.58,311.11,81.52Z"/><path class="cls-4" d="M514.53,405.54c.37,1.73.77,3.67,1.21,5.79-2,3.16-4.15,6.25-6.3,9.26-.09-1-.18-2-.28-2.94l-.36-3.6c-.61-6-1.25-11.78-1.86-17.07-.05-.52-.11-1-.17-1.54v.06c.13,10.11.36,20,.57,28,0,1,.05,1.89.07,2.79l-.09-2.76A199.25,199.25,0,0,1,484,450.14c.55-4.28,1.2-9.3,2-15.35,4.16-31.39,2-71.82,8.95-81.4s4.25-28.68-8.52-50-4.25-9.6-4.25-9.6,19.68,20.75,20.75,35.64c.31,4.42,1.28,4.17,2.49,1.54,2.87-6.24,7.08-25.9,7.08-28.58,0-1.19.68-1.8,1.38-1.34,1.54,1,3.21,7.14-1.91,23.6-.44,1.4-.78,2.6-1.05,3.63-.74,2.81-.9,4.31-.63,4.85h0c1.33,2.59,12.75-17.74,15.25-19.4,3.19-2.13-9.85,24.47-15.57,28.73-.54.4-1,1.51-1.37,3.2-.1.41-.19.86-.27,1.34l.08-.07c.21-.18.33-.3.33-.3S510.24,385.38,514.53,405.54Z"/><path class="cls-7" d="M284.24,317.6c0,1.46-.06,2.9-.1,4.33-.17,7.22-.4,14-.69,19.83-.51,10.3-.87,17.5-.91,18.68-.07,2.28-3.8,18.56-8,39.52-5.09,25.4-10.89,57.68-11.76,80.26a222.1,222.1,0,0,1-4.61,36.17q-5.24.15-10.47.2c-3,0-5.95,0-8.92,0l-4.84-.06-3.22-.07c-10.52-.24-21-.82-31.33-1.77q-5.83-.53-11.61-1.21c1.9-11.83,4.05-24.58,6.12-36.54,3.52-20.33,6.85-38.37,8.44-45.72.92-4.24,2.67-12.76,4.91-23.65,5.79-28.11,14.86-72,21.34-99,1.78-7.44,3.37-13.59,4.64-17.74A36.34,36.34,0,0,1,235,286a64.77,64.77,0,0,1,9.7-14.19l.42-.48q1.35-1.5,2.76-2.91c13.6-13.68,30.66-21.54,35.45-23.58l1.22-.49.06,0,0,0S284.94,284.38,284.24,317.6Z"/><path class="cls-4" d="M295.16,376c5.17,14.84-5.49,66-8.87,90.23-.34,2.46-.61,4.64-.78,6.47-1.46,15.84-3,29.42-4.34,42.54q-8.58.62-17.21.95c3.56-19.16,11-54,8.64-64.16-1.38-5.89.08-27.81,1.94-52.06-5.09,25.4-10.89,57.68-11.76,80.26a222.1,222.1,0,0,1-4.61,36.17q-5.24.15-10.47.2c-3,0-5.95,0-8.92,0l-4.84-.06c1.23-5,2.63-11.09,4.13-17.75,2.92-13,6.21-28.25,9.32-42.67,4.66-21.62,8.89-41.32,10.81-48.56,4.26-16.06,5-62.87,9.24-67.85,2.51-2.93-.9-16.23-3.45-25.52-1.79-6.48-3.15-11-1.81-8.72a39.36,39.36,0,0,1,2.59,6.47c2.9,8.67,6.19,20.92,8.36,15,2.84-7.82-2.85-33.42,0-25.75s1.42,35.7,5.59,32.2c1.39-1.19,3.32-5.76,5.42-11.45l.8-2.18c4-11,8.54-24.95,11.62-27.51,3.71-3.08-5.27,19.6-9.65,34.72-1.45,5-2.4,9.22-2.21,11.35.54,6,2.67,14,5.84,23.94C291.9,366.5,293.46,371.08,295.16,376Z"/><path class="cls-10" d="M200,111.93s-3.55,75.12,15.26,102.81,43.27,60.75,40.13,91.84-128.67-58.36-128.67-58.36-19.34-42-15.35-60.3S200,111.93,200,111.93Z"/><polygon class="cls-10" points="98.11 105.94 96.28 121.47 83.52 118.96 82.36 101.46 98.11 97.57 98.11 105.94"/><polygon class="cls-10" points="226.97 104.97 226.82 120.61 239.79 119.74 245.23 86.62 228.03 96.67 226.97 104.97"/><path class="cls-11" d="M264.77,312q-.37,1.11-.78,2.25c-6.3,17.48-18.45,36.64-20.18,39.33l-.21.32s-3.31,12.21-7.48,28.86c-3.31,13.17-7.16,29.1-10.35,44v0c-.61,2.85-1.2,5.66-1.75,8.4-2.83,14-4.81,26.3-4.81,33.26,0,.9,0,1.81.06,2.71,0,.56,0,1.12.08,1.67l0,.45c0,.58.08,1.16.14,1.73,0,.23,0,.46.06.69,0,.47.1.95.16,1.42,0,.21,0,.42.07.63.08.63.17,1.26.27,1.9q.49,3.38,1.28,6.85c.1.43.19.87.3,1.31s.23,1,.35,1.45c.2.81.4,1.61.62,2.42s.39,1.44.59,2.17c.76,2.71,1.62,5.48,2.55,8.36.24.74.49,1.48.74,2.23,1.28,3.84,2.69,7.87,4.21,12.14-10.52-.24-21-.82-31.33-1.77q-5.83-.53-11.61-1.21C140,507.81,95.8,494,63.56,469A143.44,143.44,0,0,1,48.4,455.56c-.55-.55-1.09-1.12-1.62-1.69q-1.89-2-3.67-4.05Q39.77,446,36.71,442c-3.61-35.39-8.54-83.46-7.22-105.08,1.77-28.88,6.21-51.44,13-61a14.65,14.65,0,0,1,3.23-3.39c7.42-5.4,42.64-20.31,68.6-30.23l.32-.12c2.82-1.09,5.5-2.31,8-3.5l2.65-1.26c4.06-1.95,7.62-3.62,10.53-4.19,19.63-3.79,43.39-1.68,56.94,5.26.21.1.41.21.61.32l.39.21c.59.32,1.15.65,1.69,1,1.59,1,3.66,2.3,6.08,3.8,8.29,5.16,20.72,12.88,32.63,20.81h0c3.58,2.38,7.11,4.77,10.47,7.13,2.19,1.53,4.3,3,6.31,4.52a125.43,125.43,0,0,1,13.59,11.17C269.31,292.15,268.21,301.61,264.77,312Z"/><path class="cls-11" d="M55.87,268.19l-.23,57.28,0,11.65-.18,43.62s-1.74,15.24-3.76,32.2c-1.51,12.72-3.18,26.41-4.38,35.35-.05.38-.11.94-.17,1.67v0c-.1,1-.2,2.31-.32,3.89q-1.89-2-3.67-4.05Q39.77,446,36.71,442A170.16,170.16,0,0,1,13.2,400.61C12.14,367.4,12,334.1,16.67,314.89a67.9,67.9,0,0,1,25.85-39A60.51,60.51,0,0,1,55.87,268.19Z"/><path class="cls-11" d="M290.54,362.25c-.74,27.35-5.37,76.79-4.25,104,.13,3.14.33,6,.63,8.46.51,4.22.46,21.18-.43,40.15-1.77.15-3.54.28-5.32.4q-8.58.62-17.21.95c-1.93.09-3.86.15-5.79.21q-5.24.15-10.47.2c-3,0-5.95,0-8.92,0-.48-6.06-.67-12-.71-17.81-.15-20.07,1.52-38.28-.19-52.76,0-.36-.08-.74-.12-1.13s-.08-.73-.11-1.12c-.06-.6-.11-1.24-.17-1.9,0-.22,0-.45,0-.67q-.06-.84-.12-1.74c0-.25,0-.51-.05-.78-.13-2.09-.25-4.38-.35-6.84l0-.68c-.07-1.59-.13-3.25-.18-5l0-1c0-1.09-.07-2.19-.1-3.3,0-.56,0-1.12,0-1.69-.07-2.73-.13-5.55-.18-8.44,0-1,0-2.08,0-3.13,0-1.91-.05-3.84-.07-5.78l0-2.11c0-5.21-.07-10.47-.08-15.59v-2.5c0-8.72,0-16.92.12-23.62,0-.35,0-.7,0-1s0-.84,0-1.25,0-.92,0-1.36c.09-6.1.19-10.5.29-12.26.19-3.51-.94-17.34-2-32.44-.48-6.64-1-13.51-1.31-19.87-.82-14.82-1-26.8,1-26.25h0l0,0a112.27,112.27,0,0,1,10.85,6.63c1.7,1.17,3.55,2.48,5.51,4a146.66,146.66,0,0,1,17.12,15,68.65,68.65,0,0,1,9,11.51,76.32,76.32,0,0,1,7.45,15.86c.25.71.48,1.43.7,2.15.76,2.4,1.41,4.8,2,7.21a180.69,180.69,0,0,1,3.35,19.91A118.72,118.72,0,0,1,290.54,362.25Z"/><path class="cls-12" d="M201.24,243.63c-32.84,45.11-63.12,53.45-63.12,53.45C115.3,272.68,114.33,242,114.33,242c8.62-3.3,16-7.92,21.19-8.94,21-4.06,46.76-1.36,59.64,6.78Z"/><path class="cls-12" d="M186.21,206.1s-1.6,25.53,12.31,38.63c6.8,6.41-76.14-5.11-76.14-5.11s12.38-4.15,10.49-39.79S186.21,206.1,186.21,206.1Z"/><path class="cls-4" d="M130.06,215.48s14.44,9.77,28.68,9.83,42.84-12.94,42.84-12.94l-7.08-22.53-58.39,2.54-8.06,8.26Z"/><path class="cls-12" d="M161.73,216.06s-35.68-9.56-49.11-27.16-16.29-41.89-16.34-64a440,440,0,0,1,2.94-46.7l46.6-51.31,81.11,52.54s1.53,35.2-.54,57c-1.37,14.46-7.25,40.33-16.84,52C198.51,201.73,171.64,215.18,161.73,216.06Z"/><path class="cls-10" d="M80.66,109.47s-7.63-35.6.73-59,37.77-33.74,37.77-33.74S153.69-21,210,16.83s32.75,77.25,27.47,91c0,0-83.7,8.36-102.85-36.07,0,0-17.45,23.66-39.46,32.76Z"/><path class="cls-12" d="M99.3,155.3S84,161,80.44,140.05,76.56,100.62,86,104.74s13,15.52,13,15.52Z"/><path class="cls-12" d="M222.39,154.67s14.4,7.71,20.75-12.56,9.16-38.55-.71-35.74S227.51,120,227.51,120Z"/><path class="cls-4" d="M63.56,469A143.44,143.44,0,0,1,48.4,455.56c-.42-1.78-.86-3.64-1.3-5.58v0c-5.49-24-12-59-8.66-79.11,1-6.27,10.64-26.89,17.2-45.38.59-1.67,1.16-3.32,1.69-4.94,3.43-10.42,4.67-5.6,4.67-5.6S59.23,325,55.59,337.12c-4,13.2-9,28.82-12.48,36.45-4.93,10.64,3.55,29.75,8.54,39.37,1.87,3.6,3.25,5.87,3.25,5.87Z"/><path class="cls-10" d="M97,101.19s1.39,25.22.61,28c0,0,3.19-5.1,3.67-23.16s-3.37-15.6-3.37-15.6Z"/><path class="cls-10" d="M227.51,107.9s-5.66,24.27-1.12,32.74a40.31,40.31,0,0,1-5.51-26.31c1.93-15.7,3.78-11.52,3.78-11.52Z"/><path class="cls-4" d="M247.39,456.13c-2.35-16.15-4-74.13-4-74.13l-2-17.66s1.09-4.71,2.47-10.81c2.38-10.56,5.61-25.29,5.52-27a139.18,139.18,0,0,1-7.89,21.69L243,324.44l-6.67,31c0,.44,0,.89,0,1.36s0,.82,0,1.25,0,.69,0,1A328.07,328.07,0,0,1,219.58,388c-6,9.31-9.66,14.76-12.33,19.63a66.31,66.31,0,0,0-6,15.37c-6.55,23.55-10.34,36.47-7.34,54,.11.63.23,1.25.35,1.89,1.36,6.92,3.27,21,5.14,35.86,10.34.95,20.81,1.53,31.33,1.77-1.52-4.27-2.93-8.3-4.21-12.14-.25-.75-.5-1.49-.74-2.23-.93-2.88-1.79-5.65-2.55-8.36-.2-.73-.4-1.45-.59-2.17s-.43-1.62-.62-2.42c-.12-.48-.24-1-.35-1.45s-.21-.88-.3-1.31q-.78-3.48-1.28-6.85c-.1-.64-.19-1.27-.27-1.9,0-.21-.05-.42-.07-.63-.06-.47-.11-.95-.16-1.42,0-.23-.05-.46-.06-.69-.06-.57-.11-1.15-.14-1.73l0-.45c0-.56-.07-1.11-.08-1.67,0-.9-.06-1.81-.06-2.71,0-7,2-19.24,4.81-33.26l.55-3.61,1.2-4.79v0l10.35-41.46c0,5.12,0,10.38.08,15.59l0,2.11c0,1.94,0,3.87.07,5.78,0,1.05,0,2.1,0,3.13.05,2.89.11,5.71.18,8.44,0,.57,0,1.13,0,1.69,0,1.11.06,2.21.1,3.3l0,1c.05,1.72.11,3.38.18,5l0,.68c.1,2.46.22,4.75.35,6.84,0,.27,0,.53.05.78q.06.9.12,1.74c0,.22,0,.45,0,.67.06.66.11,1.3.17,1.9,0,.39.07.76.11,1.12s.08.77.12,1.13c1.71,14.48,0,32.69.19,52.76,0,5.8.23,11.75.71,17.81,3,0,5.95,0,8.92,0,.8-24.23,1.76-51.12.16-57.85C247.7,458.07,247.54,457.19,247.39,456.13Z"/></g></g></svg>