<svg xmlns="http://www.w3.org/2000/svg" viewBox="0 0 995.87 661.98"><title>Asset 23</title><g id="Layer_2" data-name="Layer 2"><g id="Layer_1-2" data-name="Layer 1"><path d="M259.51,655.11c200.66,9.84,647.3,34.22,712.27-146.48S980.17-49.86,680,5.48-404.39,622.55,259.51,655.11Z" style="fill:#e0edf3"/><path d="M865.62,497l-5.77,29.49-1.76,9-1,5.28L853,564.39c-1.76,10.2-3.92,30.55-5.81,50.4A525.06,525.06,0,0,1,783.74,634c-.75.19-1.51.36-2.26.54-31.76,7.51-65.84,13.12-101.09,17.24q-6.37.75-12.79,1.43-14.49,1.54-29.19,2.76-16,1.37-32.11,2.36h0a1.13,1.13,0,0,1,0-.18c2.15-11.66,6.27-33.87,9.9-53.35.93-5,1.83-9.83,2.66-14.25h0c2.22-11.87,3.91-20.82,4.27-22.48.7-3.26,9.72-44.63,18.31-80,2.42-10,4.81-19.52,7-27.56,3.53-13.18,6.44-22.4,7.85-23.27a22.92,22.92,0,0,1,2.64-1.24c.83-.35,1.81-.75,2.93-1.2,13.24-5.2,45.09-16.13,57.81-20.47h0l5.37-1.83s5.59-.65,13.22-1.66c3.37-.45,7.14-1,11-1.54h.06c9.33-1.37,19.18-3,25.21-4.64a31.2,31.2,0,0,0,3.87-1.25c2.07-.86,6.27-1.48,11.61-1.93,2.44-.21,5.13-.38,8-.51,1.2-.06,2.42-.12,3.66-.16,2.43-.1,4.94-.17,7.45-.23l1.17,0,2.32,0c2.94,0,5.87-.08,8.7-.09,2.19,0,4.32,0,6.34,0h4.66l7.91.07,1.53,0,3.52,0h.31l0,.15,1,4.78,9.13,43.8,1.77,8.49,3,14.35,2.76,13.24h0Z" style="fill:#f7f8fc"/><path d="M799,395.24a28.12,28.12,0,0,1,15.49,11.21c6.32,9.17-2,14.27-2,14.27s-17.11-6.32-16.93-6.93S799,395.24,799,395.24Z" style="fill:#dae5e5"/><path d="M748.87,400.54c-1.18.27-12,7.07-12,7.07l30,69,31.56,27.45,38.85-43.21-27.31-42.08-16.82-11.17Z" style="fill:#4663ae"/><polygon points="797.39 510.15 848.5 479.61 829.95 458.83 797.39 510.15" style="fill:#455b64;opacity:0.1"/><path d="M795.54,511.46s16.55-51.77,18.18-72l12.49,4s15.67,27.48,16,31.2C842.25,474.71,816.46,496.73,795.54,511.46Z" style="fill:#f5f5f5"/><path d="M865.62,497l-7.53,38.47c-8.87-9.06-17.12-10-20.6-23.71-1.34-5.29,2.12-20.76,4-28.5-3.52-1.82-10.12-7.06-20.31-14.09l-9.5-16.37.09-9-4-5.44,4-12.22-1.32-6.53,3.53-9.78,7.06,2.18,2.18-6.25s15-.5,23.31-.32Z" style="fill:#455b64;opacity:0.1"/><path d="M845.51,400.54s20.92,5.16,23.64,7.07,17.39,39.94,20.92,46.73,15.66,29.63,17.07,36.14-52.4-33.69-52.12-35.05S845.51,400.54,845.51,400.54Z" style="fill:#ededee"/><path d="M842.65,466.07s-7,26.64-5.16,34c3.93,16,14,15.12,24.1,28.56s37.85,41.16,42.34,43.26,27.3,3.78,33,0,6.11-40.32,4.08-42.84-12.23-27.3-17.94-28.14-19.56-17.65-19.56-17.65-27.14-41.86-30.28-41.72S846.53,449.48,842.65,466.07Z" style="fill:#f7f8fc"/><path d="M859.91,488.17S846.75,499.3,842,497.9s1.21-29.29,2-30.11S859.91,488.17,859.91,488.17Z" style="fill:#455b64;opacity:0.1"/><path d="M718.76,421.7s5.56,43.65,13.29,47.11L758.62,456l-17.18,29.62,58.83,18.48-45.79-70.65Z" style="fill:#455b64;opacity:0.1"/><path d="M733.29,465.35l37.63-21.84s-27.31-40.25-26.49-45.14,2.62-6.34,2.62-6.34l1.78-11.74s-10.38,6.39-13.1,10.2-16.53,24.88-17.89,26.23S733.29,465.35,733.29,465.35Z" style="fill:#f5f5f5"/><polygon points="759.1 445.87 745.42 482.9 807.74 505.9 770.92 443.51 759.1 445.87" style="fill:#f5f5f5"/><path d="M720.11,516.45C708.7,531,699.33,591,687.91,604.14c-6.72,7.77-7.79,30.38-7.52,47.63q-6.37.75-12.79,1.43c2.57-18.53,6.85-47.48,9.31-52.94,3.67-8.15,30.16-66.74,29.34-71.4s-1.22-22.7-6.11-30.26,2.28-5.83,6.13,9.7,3.45-2.14,3-9.32.61-20,2.65-14.94,2.24,30.85,0,34.73,11.82-13,11.82-21.14S731.52,501.89,720.11,516.45Z" style="fill:#455b64;opacity:0.1"/><path d="M798.34,502.44l-.29.93-.11.35h0l-.08.27-1.43,4.62-.48,1.54-.36,1.15-.05.15s-8.36,74.73-8.53,88.8c-.08,6.31-1.61,20.27-3.27,33.73-.75.19-1.51.36-2.26.54,1.55-13.88,3-27.32,2.89-28.57-.19-2.52,8.9-92.75,11.78-103.18h0l.14-.48a1.3,1.3,0,0,1,.24-.46Z" style="fill:#455b64;opacity:0.1"/><path d="M745.44,402s-4.29-9.72-2.73-14.2,12.65-8.29,12.65-8.29l-6.49,18.72Z" style="fill:#dae5e5"/><path d="M790.42,431.72c-16.44,2.63-30.74-5.25-37.11-15.5-2.91-4.67-7.71-13.61-7.86-14.25-.42-1.63,4.82-25.07,4.62-35.87-.15-7.61,11.19-23.47,11.19-23.47l18.81,21.95,22.78,26.59s-1.76,7.56-1.13,14a16,16,0,0,0,1.13,4.79s6.76,6.48,8.93,8.11S812.06,428.26,790.42,431.72Z" style="fill:#fbc3ae"/><path d="M801.72,405.13c-4.63-.46-8.88-1.52-11.66-3.61-9.52-7.17-24.3-31.95-24.3-31.95l14.31-5,22.78,26.59S801.09,398.73,801.72,405.13Z" style="fill:#455b64;opacity:0.1"/><path d="M762.09,368.75S804.48,397.69,811,401s31.18-8.51,32.4-8.92,17.49-72.21,17.53-76.47c.06-7.33-2.65-46.67-2.65-46.67s-79.07-5.29-87.22,10.19S758.83,360.6,762.09,368.75Z" style="fill:#fbc3ae"/><path d="M856.58,308.89l-6.15-1.29c-10.2-2.13-21.95,12.8-26.25,33.36-3.92,18.72-.31,35.64,8.06,40.13L819.09,435.4a7.2,7.2,0,0,0,5.67,8.67h0a7.2,7.2,0,0,0,8.66-5.66l9.74-55c-.68-.27-1.35-.54-2-.79Z" style="fill:#455b64;opacity:0.05"/><path d="M859.08,280.48s22.43-25.44,19.58-46.23c0,0-15,7.18-21.2,4.08-30.43-15.22-64.79-8.3-98.9,5.43-15.86,6.38-29.83,20.65-29.83,48.85a412.66,412.66,0,0,0,11.35,50.46c7.74,26.09,9.9,26.5,9.9,26.5s8.14-18.64,10.89-26.38c0,0-6.39-5.69-5.85-14.38l.55-8.7V319l7.33,1s8.66-28.46,11.26-29.54S815.74,263.36,859.08,280.48Z" style="fill:#184966"/><path d="M841,375.79c-10.19-2.13-15-20.53-10.66-41.08s16.06-35.49,26.25-33.36l6.16,1.29-15.59,74.44Z" style="fill:#90a4ae"/><path d="M830.93,437.82h0a7.19,7.19,0,0,1-5.66-8.66l13.15-54.35c2.65-.77,6.69.67,10.91,2.36l-9.73,55A7.21,7.21,0,0,1,830.93,437.82Z" style="fill:#616261"/><ellipse cx="854.96" cy="339.86" rx="38.03" ry="18.86" transform="translate(347.09 1107.02) rotate(-78.17)" style="fill:#b0bec5"/><path d="M871,343.22c-3.88,18.52-14.3,28.78-22.05,27.15s-11.17-16.56-7.65-33.37,12.65-29.13,20.4-27.51S875.25,322.81,871,343.22Z" style="fill:#55c4c9"/><path d="M765.76,326.73s-5.3-13.41-7.75-15-17.12-1.22-17.12,7.34,2.45,19.56,10.6,24.86S765.76,337,765.76,337Z" style="fill:#fbc3ae"/><path d="M774.16,290.59s-1.63,32.07,0,35.46c0,0-9,3.26-9.24,2.58s-3.28-14-4.52-16.16S771.31,288.69,774.16,290.59Z" style="fill:#184966"/><path d="M877.57,454.34s-1.23,21.2-17.66,33.83c0,0-5.64-6.66-10.58-11.85-2.88-3-5.53-5.54-6.68-5.94-3.1-1.09-9.95-6.65-21.21-14.43l-.25-.18-9.5-16.37.09-9-4-5.44,4-12.22-1.32-6.52,3.53-9.79,7.06,2.18,2.18-6.25s24.45-.81,28.25,0a2.18,2.18,0,0,1,.94.66c5.12,5.18,20.33,39.38,21.34,52.05l2.42,5.87Z" style="fill:#fbc3ae"/><path d="M877.57,454.34s-1.23,21.2-17.66,33.83c0,0-5.64-6.66-10.58-11.85,5.29-1.5,21.64-6.91,25-17.22.45-1.35,2-5.78,1.82-8.13Z" style="fill:#455b64;opacity:0.1"/><path d="M852.42,393.05c-2.63,1.55-8.09,1.54-9.77,4-1.79,2.59-.47,8.93-2.48,11s-7,1.94-8,4.25c-.83,1.88.41,9.78,0,10.59s-5.83,4.15-6.93,5.57-.61,6.8,0,9.24-4.41,3.23-5.71,5.88c-.95,1.94.86,8.86,1.89,12.44l-.25-.18-9.5-16.37.09-9-4-5.44,4-12.22-1.32-6.52,3.53-9.79,7.06,2.18,2.18-6.25s24.45-.81,28.25,0A2.18,2.18,0,0,1,852.42,393.05Z" style="fill:#455b64;opacity:0.05"/><path d="M474.62,463.46c-.57,5.94-1.27,12-2,17.72-.32,2.56-.65,5.06-1,7.46-.36,2.71-.72,5.28-1.06,7.68-.76,5.5-1.43,10-1.82,13-.09.69-.17,1.29-.23,1.8v0c-.1.8-.15,1.36-.15,1.63s0,.73,0,1.49v0c0,1.11.07,2.74.14,4.81.1,3.49.24,8.23.41,13.81,0,.34,0,.68,0,1,.19,5.83.4,12.53.62,19.62.07,2.28.14,4.61.21,7,.15,4.52.29,9.15.42,13.77.05,1.53.09,3.06.14,4.59.83,27.52,1.52,53.56,1.22,55.38a18.51,18.51,0,0,1-.65,2.37h0c-.23.71-.51,1.52-.83,2.41-2.43,6.74-7.3,18-10.88,22.86l-6.23-.06q-6.76-.06-13.45-.16c-19.64-.27-38.82-.74-57.34-1.32l-4.93-.15h-.11L372,660c-27.11-.91-52.67-2-76-3.16L276.83,656c-2-5-4.16-10.93-4.51-13.35-.64-4.5,10.93-50.78,8.36-61.71-2.24-9.53,4.81-71.39,4.93-95.57a50.21,50.21,0,0,0-.34-7.45q0-.25-.09-.48c-2.57-12.86-.64-61.72,4.5-63.64,2.88-1.08,25.14-4.38,47.09-7.08l4.81-.58,3-.34c2.2-.26,4.38-.51,6.5-.74,5.19-.57,10.09-1.06,14.4-1.43,5.47-.48,10-.76,12.95-.76a49.67,49.67,0,0,1,5.39.36c5.5.59,13.05,1.9,21.46,3.59,1.51.29,3,.61,4.6.93l4,.86q3.18.68,6.41,1.4l3.79.86,2.2.5c20.61,4.75,40.72,10.09,46,12.07h0l.06,0,.08,0a1.91,1.91,0,0,1,.41.24s0,0,0,0a4.38,4.38,0,0,1,1.25,1.6c.08.15.15.31.22.48,1.1,2.57,1.61,6.94,1.7,12.4A238,238,0,0,1,474.62,463.46Z" style="fill:#d1dae8"/><path d="M407.83,609.82c-2.51,13.08-18.7,42.18-25.6,50.55l-4.93-.15h0l-.05-.07c-6.69-7.83-26-31.92-25.6-48.61.38-17.22,8.36-128,9.45-151.77,0-.76.06-1.43.08-2a11.69,11.69,0,0,0,0-2.48c-.1,0,.15-.22.65-.51a56.88,56.88,0,0,1,9.71-4.07,27.91,27.91,0,0,1,9.24-1.6c2.35.13,4.17.95,4.83,2.87,0,.12.08.25.11.38a4.37,4.37,0,0,1,.15,1.06,6.28,6.28,0,0,1,0,1,30.11,30.11,0,0,0,.08,3.49C387.58,483.09,407.83,609.82,407.83,609.82Z" style="fill:#455b64;opacity:0.1"/><path d="M411.66,412.66s-57.7-6-65.73.46-3.72-19,.53-19.45,19.72-8.53,19.72-8.53h41.53L417,402.82Z" style="fill:#b0bec5"/><path d="M350.75,406.68l-8.2,3.22,11,26.54s22.38,12.94,25.65,8.74,26.42-10.09,27.7-13.91,4.77-19.93,4.77-19.93l-9-2.55Z" style="fill:#a18888"/><path d="M352,427.68s5.14,11.95,16.07,13.87,27.82-14.22,30.06-14.58,4.49,12.33,4.49,12.33-12.37,12.54-22,15.11-23.45,4-34.87-12.21S352,427.68,352,427.68Z" style="fill:#4678bc"/><path d="M402.67,609.82c-2.5,13-18.43,41.69-25.43,50.33a.18.18,0,0,1-.05.07L372,660c-6.78-7.95-25.88-31.89-25.51-48.5.38-17.13,12.19-127.46,14.23-152.14.05-.67.1-1.28.14-1.82a16.35,16.35,0,0,0,.11-3.08c-.28-.09,2.35-1.53,6-3h0c5.05-2,12.05-4.13,15.9-2.75a3.89,3.89,0,0,1,2.75,3.23c0,.13,0,.27.05.41a6.81,6.81,0,0,1,0,1.2,41.93,41.93,0,0,0,.08,4.41C387.17,485.28,402.67,609.82,402.67,609.82Z" style="fill:#4678bc"/><path d="M392.12,448.3s9.42,15.59,10.54,16.24,25.21-16.68,24.32-44.68c-.87-27.75-31.32,11.39-34,10.64,3.8,3,4.38,8.07,4.3,13.58Z" style="fill:#455b64;opacity:0.1"/><path d="M348.5,413.7a79.43,79.43,0,0,0,4.16-18.12,69.25,69.25,0,0,0,0-16.36,6.6,6.6,0,0,1,.64-4.06c2.17-4,9.05-4.86,17-4.34,14.45.94,32.48,6.47,32.48,6.47s.08,6.77.64,14.58c.6,8.55,1.78,18.35,4,21.83C411.82,420.36,348.5,413.7,348.5,413.7Z" style="fill:#a18888"/><path d="M353.8,450.23s-3.48,14.95-3.48,16.66-21.5-10.88-16.43-45.61c3.59-24.58,21,11.19,21,11.19C352.83,439.11,351.34,445.51,353.8,450.23Z" style="fill:#455b64;opacity:0.1"/><path d="M89,402.82c-6.09,6.55-15.09,1.81-23.53-6A121.79,121.79,0,0,1,53,383.17c-6-7.57-10.16-14.1-10.16-14.1s-2.11-10.39-3.56-18.44h0c-.1-.56-.2-1.11-.29-1.64-.53-3-.2-4.83.43-6a3.34,3.34,0,0,1,3.1-1.75c3.86,4.42,12.5,9.43,13.74,10.84,1.74,2,12.14,10.37,13.26,11s10.13,17.2,13.34,21.06S89,402.82,89,402.82Z" style="fill:#a18888"/><path d="M346.47,459.39S349,429,352,427.68s-14.64-23.45-4.54-31.87,15.25-10.56,15.25-10.56l-3.43-4.71s-15.85,10.28-21,22.28S333.61,420,333.61,420,336.18,449.54,346.47,459.39Z" style="fill:#cfd8dc"/><path d="M360.69,459.39s3.45,3.86,11.38,3.43S388.89,456,388.89,456l-3.53-7.67L358.47,453l1,6.42Z" style="fill:#263238;opacity:0.1"/><path d="M401.86,459.39s-2.25-32.14-5.79-32.14c0,0,19-20.57,16.07-31.18s-9-8.82-9-8.82l-.22-5s7.58-.48,14,8.68c8.35,11.89,10.38,24.32,10.28,26.46C427,423.74,415,449.11,401.86,459.39Z" style="fill:#cfd8dc"/><path d="M528.33,661.48c-17.93.38-35.74.52-53.31.49-.95-3.3-2.41-8.93-3.74-16.09-.4-2.15-.79-4.43-1.15-6.83a172,172,0,0,1-2-26.37c0-2.42.1-4.88.24-7.36.35-5.93.55-14.79.65-25.3,0-1,0-2.09,0-3.17,0-.55,0-1.1,0-1.66v-.51c0-4.55,0-9.35,0-14.3,0-1.83,0-3.69,0-5.56,0-6.82-.05-13.85-.11-20.88,0-.35,0-.69,0-1,0-5-.08-9.94-.13-14.82q0-4.46-.09-8.79l0-2.16c0-4.35-.09-8.57-.15-12.6s-.09-7.65-.14-11.15c-.05-4.13-.1-7.93-.15-11.31,0-1.84-.05-3.55-.07-5.12-.07-6.57-.11-10.74-.07-11.42.17-2.69,2.09-17.23,3.24-25.81.16-1.15.3-2.19.41-3.08.26-1.9.43-3.11.45-3.25h0l.06,0,.08,0,.41.24s0,0,0,0l2,1.2.3.19,2.42,1.5c6.89,4.32,18.61,12.06,23,17.37,3.18,3.82,8.26,29.85,12.8,57,3.33,19.92,6.38,40.47,8.2,53.34.25,1.87.49,3.58.7,5.1.36,2.59.63,4.64.8,6,0,.25.06.52.1.81.59,5.12,1.4,15.23,2.2,27.07.24,3.57.49,7.3.72,11.1C527.51,627.78,528.73,653.68,528.33,661.48Z" style="fill:#cfd8dc"/><rect x="31.71" y="207.23" width="3.59" height="175.97" transform="translate(-46.81 9.17) rotate(-9.21)" style="fill:#fbaa19"/><path d="M294.82,494.76a23.34,23.34,0,0,0-3.61-4.87,26.56,26.56,0,0,0-5.6-4.56,26.86,26.86,0,0,0-8.79-3.43c-12.85-2.57-80.35,12.86-93.21,12.86S100,455.54,80.75,449.11,66,437,66,437c.06-.87.15-1.71.26-2.54,3.29-24.84,27.38-31.61,27.38-31.61,18.64,12.85,92.57,35.43,92.57,35.43,12.21-2.49,61.71-14.86,61.71-14.86,19.29-8.36,41.79-9.64,41.79-9.64Z" style="fill:#cfd8dc"/><path d="M468.3,519.93c-.06,4.16-.06,8.6,0,13.08.05,8,.22,16,.39,23,0,1.49.06,2.93.1,4.31.18,7.13.34,12.5.32,14.37v.51c0,.51,0,1.16,0,1.94s0,1.74,0,2.8c.14,5.81.42,15.17.74,25,.37,11.47.79,23.61,1.07,31.66h0c.19,5.62.32,9.24.32,9.24l-6.93,16-5.1,0-6.23-.06q-6.76-.06-13.45-.16c1.11-5.79,13-12.13,11.9-17.15-1.29-6-7.55-18.43-5.49-32.15,1-6.78,1.58-10.93,2.27-16.46.26-2,.53-4.17.86-6.72.37-2.92.8-6.32,1.34-10.49,0-.31.09-.63.13-1,.29-2.23.61-4.67,1-7.37,1-7.44,1.53-15.51,1.95-23.4.15-2.61.27-5.21.4-7.75.24-4.89.47-9.59.78-13.89.68-9.64,1.73-17.28,4.08-20.53,2.67-3.7,3.57-9.18,2.64-15.77a49.94,49.94,0,0,0-2.27-9.21,80.28,80.28,0,0,0-7.23-15.29c-10.29-17.16-3.43-7.73-3.43-7.73s8.75,9.22,13.59,18.88l.06.1a35,35,0,0,1,2.33,5.82,19.63,19.63,0,0,1,.73,3.92c.36,5,1.76,2.59,3.27-2.15,1.18-3.73,2.44-8.9,3.32-13a53.62,53.62,0,0,0,1.13-6.61c0-1.32,1-1.76,1.72-.29.92,1.92,1.26,7.07-2,17.72l-.15.5c-1.77,5.69-1.77,7.41-.82,7,2.27-1.07,9.94-14.54,11.75-15.75,2.57-1.71-7.93,19.72-12.54,23.15a1.45,1.45,0,0,0-.27.28c-.9,1.25-1.49,5.24-1.85,10.82-.08,1.24-.14,2.57-.2,4v0c-.05,1-.08,2-.12,3.12v0C468.37,516.09,468.33,518,468.3,519.93Z" style="fill:#455b64;opacity:0.1"/><path d="M287.75,630.4c-6.63,7.07,2.24,17.68,8.23,26.48L276.83,656c-2-5-4.16-10.93-4.51-13.35-.64-4.5,10.93-50.78,8.36-61.71-2.24-9.53,4.81-71.39,4.93-95.57a26.86,26.86,0,0,0-8.79-3.43c-12.85-2.57-80.35,12.86-93.21,12.86S100,455.54,80.75,449.11,66,437,66,437c0-.67.11-1.33.19-2,0-.19,0-.38.07-.57l3.39,1.61C92.43,446.85,160,478.7,170.11,481.9c12.21,3.86,62.36-9,71.36-9,7.57,0,32.89-1.71,43.8,5a10.59,10.59,0,0,1,4.41,4.74,28.39,28.39,0,0,1,1.53,7.27c2.36,20.8-1.11,70.23,3.61,80.72,2.9,6.43,11.32,21.22-1.93,28.29S297.39,620.11,287.75,630.4Z" style="fill:#455b64;opacity:0.1"/><path d="M358.63,454.89l-2.33-1.2s0-14.3,4.19-16.23,3.36,3.37,3.36,3.37Z" style="fill:#263238;opacity:0.1"/><path d="M382.21,436.12s5.1,13.31,4.94,15.16,2.57.32,2.57.32-.21-8-.87-10.77-5-6-5-6Z" style="fill:#263238;opacity:0.1"/><path d="M357.34,454.57s-.42-13.38,3.4-16.17,21.44-3.08,23.32-1.81,5.21,12.22,3.95,14.46-8.81,8-14.76,9.47S357.35,456.24,357.34,454.57Z" style="fill:#4678bc"/><path d="M403.46,391.87c-8,6.15-19,12.49-27.6,13.21-9.92.82-18.42-5.15-23.2-9.5a69.25,69.25,0,0,0,0-16.36,6.6,6.6,0,0,1,.64-4.06l17-4.34c14.45.94,32.48,6.47,32.48,6.47S402.9,384.06,403.46,391.87Z" style="fill:#455b64;opacity:0.1"/><path d="M360.6,394.54a160.19,160.19,0,0,0,17.74-1.62c6.54-1.22,31.23-17.81,33.25-22.26.19-.43,1-2.43,2-5,2.42-6.14,6.08-15.61,6.08-15.61l4.46-45.73s4.85-38.44,2-39.65-95.5-13.76-95.5-13.76-11.89,22.7-13.91,28-3.5,31.66-3.5,31.66,10.12,54.9,14.57,63S360.6,394.54,360.6,394.54Z" style="fill:#a18888"/><path d="M414.66,362.94s6-5.63,17.65-22.23,18.13-47.75,18.94-58.27-15.63-42.49-24.2-47.75-42.57-18.62-72.11-7.69-44.11,36.35-39.42,57.75c0,0,7.85-20.52,15.54-15.66s16.19,8.9,24.28,10.11,40.87-13.35,47.75-8.9,19.83,22.06,17.4,30.25-8,31.5-8.59,33.32,4.56,4.28,7.44,1.84,2.85-15,7.71-18.62-6.23,21.31-6.66,25.64S414.66,362.94,414.66,362.94Z" style="fill:#434256"/><path d="M424.33,319.66s5-9.31,8.18-9.13,12.37,8.27,11.11,20.24-10.41,24.15-13.84,25.72-15.41,9.14-15.58,5.44,5.11-25.2,5.11-25.2Z" style="fill:#a18888"/><path d="M82.68,423.15c-5.11,6.77-10.75,12.72-13,12.91,0,0-8-2.17-12.27-4.53s-15.65-4.28-25.29-8.78c-6.69-3.12-8.22-4.59-9.25-6a19.66,19.66,0,0,0-1.46-1.94c-2.15-2.36-2.79-10.93-2.15-12s-2.84-6.05-3.27-9.48,2.42-7.45,2.42-8.95c0-.49.07-.34.13-.18-.08-.38-.32-1.51-.85-4.32-1.43-7.5,2.64-6.36,2.16-8.17-1.82-6.94-1.39-9.56,1.34-12.29.86-.86,18.86-10,22.07-8.68S72,384,72,384s13.32,18,19.46,19.62C94.88,404.52,89.22,414.5,82.68,423.15Z" style="fill:#a18888"/><path d="M82.68,423.15c-5.11,6.77-10.75,12.72-13,12.91,0,0-8-2.17-12.27-4.53s-15.65-4.28-25.29-8.78c-6.69-3.12-8.22-4.59-9.25-6,1-.86,2.11-1.85,3.25-3,4.82-4.8,5.46-3.56,10.61-1.31S47,407.52,47,407.52c9.65,1.49,6.11,10.85,13.5,15.55s18.65-4.5,20.25-1.93S80.75,421.14,82.68,423.15Z" style="fill:#455b64;opacity:0.1"/><path d="M68.93,397.68a21.74,21.74,0,0,0-3.51-.82,19.25,19.25,0,0,0-6.52,0c-5,1-6.68-2.88-6.63-3.53L53,383.17l.13-1.95s-.65-7.66-3.09-10.33,2.16-7.28,1.64-9.21c-1.52-5.63-12.07-9.4-12.4-11.05h0c-.1-.56-.2-1.11-.29-1.64-.53-3-.2-4.83.43-6l8.25,5.69a153,153,0,0,1,10.53,17C61.16,371.62,60.64,387.4,68.93,397.68Z" style="fill:#455b64;opacity:0.1"/><path d="M22.89,400.25s9.22-8.18,11.36-8.25,15,1.61,15.77,3.11a9,9,0,0,1,.84,2.89s1.28,3.43,1.39,1.72S51.82,392.43,51,392s-15.86-2.46-17.47-1.82S22.14,399.29,22.89,400.25Z" style="fill:#455b64;opacity:0.1"/><path d="M22.85,388.27s10.17-9.16,11.94-8.68C36.19,380,46,382.16,50,383a2.11,2.11,0,0,1,1.65,2.06v4.45l.58-6.54a1.7,1.7,0,0,0-.76-1.56c-3.25-2.13-15.31-7.37-17.38-6.27C31.63,376.47,21,385.05,22.85,388.27Z" style="fill:#455b64;opacity:0.1"/><path d="M24,371.89,33.18,365l5.52-.5,8.46,3.19S40.31,356,36.07,358.38,23.54,366.47,24,371.89Z" style="fill:#455b64;opacity:0.1"/><path d="M636.36,300s-7.84,62.94,2.24,85.84,29.12,49.35,27.44,75-69-48.23-69-48.23-10.36-34.72-8.22-49.85S636.36,300,636.36,300Z" style="fill:#184966"/><path d="M607.79,342.67S616.3,411,633,427.43,579,413.61,579,413.61V352.94Z" style="fill:#263238;opacity:0.1"/><polygon points="518.62 287.2 517.1 300.04 506.56 297.96 505.6 283.5 518.62 280.29 518.62 287.2" style="fill:#184966"/><polygon points="625.14 286.39 625.01 299.32 635.73 298.6 640.23 271.23 626.01 279.54 625.14 286.39" style="fill:#184966"/><path d="M654,463.9a192.62,192.62,0,0,1-12.53,24.16c-1.55,2.54-2.54,4.06-2.54,4.06s-10.31,38.08-16.18,67.15c-2.34,11.59-4,21.74-4,27.49,0,1.26,0,2.52.12,3.77h0q.18,2.7.59,5.43c.06.41.12.83.2,1.25.13.8.27,1.6.44,2.41.1.53.21,1.06.34,1.6.14.72.31,1.44.49,2.17s.3,1.24.47,1.87c.23.9.47,1.81.74,2.72.17.62.36,1.25.55,1.88.06.24.13.47.21.71.15.52.31,1,.48,1.58,1,3.2,2.12,6.53,3.36,10.06.27.78.55,1.58.84,2.39,1.3,3.67,2.69,7.55,4.17,11.72.29.8.58,1.62.87,2.45.69,2,1.41,4,2.13,6.13.27.77.53,1.54.8,2.33l.24.72c.17.48.33,1,.49,1.45l.53,1.59c.32,1,.64,1.92,1,2.9.22.68.44,1.37.67,2.06q-16,1.37-32.11,2.36h0c-25.92,1.62-52,2.63-77.92,3.16-17.93.38-35.74.52-53.31.49q-5.36,0-10.67,0l-5.1,0-6.23-.06c2.79-8.09,10.94-32.22,15.14-49.17.7-2.8,1.29-5.41,1.73-7.71a40.76,40.76,0,0,0,.85-7c0-3.09-.55-9.63-1.39-18.21-.08-.86-.17-1.73-.25-2.63l0-.28c-.06-.63-.13-1.28-.19-1.93-.46-4.6-1-9.64-1.52-14.95,0,0,0-.07,0-.11-.84-8.25-1.74-17.15-2.56-26l-.27-2.93c-.16-1.77-.32-3.54-.47-5.3h0c-1.2-13.83-2.13-27.13-2.3-37.39-.07-3.83,0-7.24.15-10.09.05-.74.09-1.48.15-2.21,0,0,0,0,0,0a1.15,1.15,0,0,1,0-.19c1.43-20.89,4.6-37.51,9.34-46a17.19,17.19,0,0,1,2.89-3.94,8.39,8.39,0,0,1,.8-.69l.25-.2a27.18,27.18,0,0,1,2.43-1.53l.17-.08c9.45-5.35,34.85-16,54.1-23.38l.27-.1c3.16-1.21,6.11-2.63,8.8-3.92h0c3.35-1.61,6.29-3,8.7-3.46a92.77,92.77,0,0,1,29.22-.72,64.82,64.82,0,0,1,13.44,3.16,38,38,0,0,1,4.4,1.9c.29.14.58.3.86.46l.39.22c.34.18.66.38,1,.58,1.32.84,3,1.9,5,3.14,5.37,3.35,12.85,8,20.58,13h0c4.91,3.19,9.92,6.52,14.56,9.76h0c7.08,4.94,13.28,9.66,16.93,13.31C661.09,442.08,658.48,453,654,463.9Z" style="fill:#4663ae"/><path d="M477.94,423.29s-27.15,12.16-37.79,40.17-40.33,113.69-31.36,134.41,38.08-5,42.56-21.84,13.71-54.54,13.71-54.54Z" style="fill:#4663ae"/><path d="M485.9,500.25a26.18,26.18,0,0,0,3.4-10c.44-5.25.08-13.83,3.86-14.17s7.25,12.15,5.17,14.71-2.24,9.5-2.24,9.5Z" style="fill:#fbcbbd"/><polygon points="513.8 527.83 514.11 534.23 510.13 529.21 481.52 453 485.19 451.63 513.8 527.83" style="fill:#faa71a"/><path d="M603.86,401c-27.14,37.29-52.17,44.19-52.17,44.19C532.83,425,532,399.65,532,399.65c7.13-2.72,13.2-6.54,17.52-7.38,17.37-3.36,38.65-1.12,49.3,5.6C600.16,398.71,601.87,399.77,603.86,401Z" style="fill:#fbc3ae"/><path d="M591.44,370s-1.32,21.1,10.18,31.93c5.61,5.3-62.94-4.22-62.94-4.22s10.23-3.43,8.68-32.89S591.44,370,591.44,370Z" style="fill:#fbc3ae"/><path d="M545,377.74s11.93,8.08,23.71,8.13,35.41-10.7,35.41-10.7l-5.85-18.62L550,358.65l-6.66,6.83Z" style="fill:#455b64;opacity:0.1"/><path d="M571.21,378.22s-29.5-7.9-40.59-22.44-13.47-34.63-13.52-52.94a365.17,365.17,0,0,1,2.44-38.6l38.52-42.41,67,43.43s1.26,29.09-.45,47.11c-1.13,11.94-6,33.33-13.92,42.95C601.61,366.38,579.4,377.49,571.21,378.22Z" style="fill:#fbc3ae"/><path d="M504.19,290.12s-6.3-29.42.61-48.79S536,213.44,536,213.44s28.54-31.14,75.12.1,27.07,63.85,22.7,75.26c0,0-69.18,6.91-85-29.82,0,0-14.42,19.56-32.62,27.08Z" style="fill:#184966"/><path d="M519.6,328S507,332.71,504,315.4s-3.2-32.6,4.57-29.19S519.28,299,519.28,299Z" style="fill:#fbc3ae"/><path d="M621.35,327.48s11.9,6.37,17.15-10.38,7.57-31.87-.59-29.54-12.33,11.26-12.33,11.26Z" style="fill:#fbc3ae"/><path d="M473.13,460s-13.19,33.47-18.79,45.56,6.09,34.75,6.09,34.75l-17.6,17.1s-5.29-11.9-1.37-39,25.32-45.5,27.81-53.79C471.89,455.9,473.13,460,473.13,460Z" style="fill:#263238;opacity:0.1"/><path d="M637.74,653.9c.22.68.44,1.37.67,2.06q-16,1.37-32.11,2.36c0-.06,0-.12,0-.18-1.57-13.82-4.48-38.62-6.71-53.69l-.21-1.41c-.46-3.07-.89-5.67-1.27-7.6-1.43-7.3-1.24-18.07,0-29.54.38-3.68.87-7.43,1.44-11.16.4-2.63.85-5.25,1.32-7.83,1.17-6.26,2.53-12.26,4-17.55,1.9-6.82,6.21-13.11,11.1-18.44a90.5,90.5,0,0,1,9.22-8.67c2-1.6-2-35.55-.35-36.74,2.78-2,4.16,14.68,4.72,24.36,0,.24.72-.57,1.8-2,3.68-4.77,11.75-16.33,11.78-15.66.11,2.25-13.27,24.27-13.27,24.27-.07.48-.15,1-.23,1.46l-8.45,54.42-.08.52-.23,1.5,1.88,4.87c-2.34,11.59-4,21.74-4,27.49,0,1.26,0,2.52.12,3.77h0q.18,2.7.59,5.43c.06.41.12.83.2,1.25.13.8.27,1.6.44,2.41.1.53.21,1.06.34,1.6.14.72.31,1.44.49,2.17s.3,1.24.47,1.87c.23.9.47,1.81.74,2.72.17.62.35,1.25.55,1.88.06.24.13.47.21.71.15.52.31,1,.48,1.58,1,3.2,2.12,6.53,3.36,10.06.27.79.55,1.58.84,2.39,1.3,3.67,2.69,7.55,4.17,11.72.29.8.58,1.62.87,2.45.69,2,1.41,4,2.13,6.13.27.77.53,1.54.8,2.33l.24.72c.17.48.33,1,.49,1.45l.53,1.59C637.1,652,637.42,652.92,637.74,653.9Z" style="fill:#263238;opacity:0.1"/><path d="M514.88,604.45h88.64a6.89,6.89,0,0,0,7.08-6.2l5.32-85.64c.47-7.47-6-13.74-14.06-13.64L518.45,500c-7.78.1-14,6.11-13.7,13.33l3.05,84.73A6.87,6.87,0,0,0,514.88,604.45Z" style="fill:#d3dbe9"/><polygon points="585.82 516.77 534.9 516.77 533.96 507.51 586.76 506.79 585.82 516.77" style="fill:#b0bfdd"/><path d="M560.7,499.34l-21.79.22c-.1-6.14,9.64-11.3,21.59-11.42s21.88,4.84,22,11Z" style="fill:#b0bfdd"/><path d="M512.77,589.84l-24.26-.77a3.62,3.62,0,0,1-3.75-2.36,29.13,29.13,0,0,1-1.11-3.73c-.42-2.08-3.71-2.53-4.25-4.69-.43-1.72,1.08-4.39.75-6.06-.16-.78-3.76-2.3-4-4.3-.31-2.91,2.5-4.62,2.36-5.81-.1-.91.28-1.06.2-2a18.63,18.63,0,0,1,.18-4.11c2.08-8.42,13.49-8.19,16.94-5.87s7.59,1.62,12.52.46c1.59-.37,9.24,9.1,9.24,9.1S521.16,590.66,512.77,589.84Z" style="fill:#fbcbbd"/><path d="M638.6,423.69a58.59,58.59,0,0,1,28,21.15c11.14,16,11.55,40.73,10.88,56.59s-15.74,98.62-22.72,104.19-132-12.12-140.42-14.12c-9.76-7.18-4.19-28.24,2.72-32.59,0,0,28.24,3.68,51.55-.8s52.21-3.71,52.21-3.71,9.13-60.52,10.69-67.53S634.92,421.9,638.6,423.69Z" style="fill:#4663ae"/><path d="M512.14,565.26s35.45,3.86,45.25,1.34,46.2,1.87,49.84-2.89a96.26,96.26,0,0,0,6.28-9.36s-1.55-5.29-3.06-6.09c-10-5.25-44.66,6.09-44.66,6.09H517.34Z" style="fill:#455b64;opacity:0.1"/><path d="M428.2,549.15s24.88-8.51,31.74-13.07c5-3.36,19.25-7.48,24.11,6.34s-.18,26-14.75,32.3-30.64,27.94-47.45,30.87S428.2,549.15,428.2,549.15Z" style="fill:#4663ae"/><path d="M474.06,498.42s-3.29,14.65-7.59,27.09-5.46,12.43-6,14.75-2.95,18.73,9.94,20.34,14-2.12,14-2.12,5.8-5,8-15.87.81-21.74-1.71-24.45-3,.56-4.65-8,.94-11.95-.93-12.88S474.06,498.42,474.06,498.42Z" style="fill:#fbcbbd"/><path d="M476.27,498.31,492,493.67s13.51,4.63,15.76,7.43.69,13.42,1.25,14.63-3.92,1.62-3.92,1.62l-4.11-10-9.64-4.67L476.27,508l-2.61-5.13Z" style="fill:#fbcbbd"/><path d="M479.26,504.92,492,499s10.94,4.81,13.18,7.61S508.48,519.82,509,521s-3.92,1.62-3.92,1.62l-4.11-10L491.37,508l-15.1,5.32-2.61-5.13Z" style="fill:#455b64;opacity:0.1"/><path d="M474.06,505.51l22-1.76s9.24,7.31,11.48,10.11,4,12.3,4.56,13.51-4.76,1.49-4.76,1.49l-6.24-10.55-9.24-3.92-19.94-.28-1.13-4Z" style="fill:#fbcbbd"/><path d="M478.54,513.53l17.52-4.2s9.24,7.32,11.48,10.12,4,12.29,4.56,13.51-4.76,1.49-4.76,1.49L501.1,523.9,491.86,520l-16.43-2.63-1.37-3.86Z" style="fill:#455b64;opacity:0.1"/><polygon points="473.66 513.12 471.92 517.69 473.66 521.33 489.44 524.11 499.89 527.12 503.62 530.66 506.27 525.3 500.26 517.78 490.93 514.56 473.66 513.12" style="fill:#fbcbbd"/><polygon points="478.55 523.15 478.55 525.16 477.02 526.65 489.44 529.29 499.89 532.3 503.62 535.85 506.27 530.48 500.26 522.96 490.93 519.74 478.55 523.15" style="fill:#455b64;opacity:0.1"/><polygon points="475.81 522.82 474.06 526.71 475.81 530.66 493.1 533.21 498.45 539.58 504.74 538.23 497.22 527.17 491.46 524.69 475.81 522.82" style="fill:#fbcbbd"/><path d="M494.36,531.46l-6.23-2.17L480.94,532s-10.64,17.06-13.58,27.92c-.57,2.09-22.37,24.66-38.51,36.35-9.75,7.06-17.56,5.47-17,6.31,14.56,20.83,68.48-33.9,72.28-35.14,2.82-.92,4-6.45,4-6.45L500.2,539.2Z" style="fill:#455b64;opacity:0.1"/><path d="M440.33,544.77s-11.36,11-15.84,20-7,6.43,0-3.74,2-2.34-.49-.85,2.24-4.76,4.67-6.44,11.66-9.29,11.66-9.29Z" style="fill:#263238;opacity:0.1"/><path d="M517.68,283.28s1.15,20.84.5,23.17c0,0,2.64-4.22,3-19.14s-2.78-12.9-2.78-12.9Z" style="fill:#184966"/><path d="M625.58,288.82s-4.68,20.06-.93,27.06a33.35,33.35,0,0,1-4.55-21.75c1.59-13,3.12-9.52,3.12-9.52Z" style="fill:#184966"/></g></g></svg>