<svg xmlns="http://www.w3.org/2000/svg" viewBox="0 0 500 500"><title>Lousa_1</title><g id="Layer_2" data-name="Layer 2"><g id="Layer_1-2" data-name="Layer 1"><path d="M500,250a249.73,249.73,0,0,1-11.81,76.13q-2.69,8.43-6,16.6c-.39,1-.8,2-1.22,3C443.44,436.3,354.16,500,250,500S56.56,436.3,19,345.73c-.42-1-.83-2-1.22-3q-3.27-8.16-6-16.6A249.73,249.73,0,0,1,0,250C0,146.4,63,57.52,152.8,19.6c2-.85,4-1.68,6.07-2.47a251,251,0,0,1,182.26,0c2,.79,4.06,1.62,6.07,2.47C437,57.52,500,146.4,500,250Z" style="fill:#e0edf3"/><path d="M500,250a249.73,249.73,0,0,1-11.81,76.13q-2.69,8.43-6,16.6H17.77q-3.27-8.16-6-16.6A249.73,249.73,0,0,1,0,250C0,146.4,63,57.52,152.8,19.6c2-.85,4-1.68,6.07-2.47H341.13c2,.79,4.06,1.62,6.07,2.47C437,57.52,500,146.4,500,250Z" style="fill:#80cbc4"/><path d="M488.19,326.13q-2.69,8.43-6,16.6c-.39,1-.8,2-1.22,3H19c-.42-1-.83-2-1.22-3q-3.27-8.16-6-16.6Z" style="fill:#a18888"/><path d="M347.2,19.6H152.8c2-.85,4-1.68,6.07-2.47a251,251,0,0,1,182.26,0C343.17,17.92,345.19,18.75,347.2,19.6Z" style="fill:#a18888"/><rect x="304.29" y="306.53" width="52.07" height="19.6" style="fill:#a1887f"/><polygon points="408.88 367.46 402.02 370.66 332.68 219.52 337.73 217.17 408.88 367.46" style="fill:#fff"/></g></g></svg>