<svg xmlns="http://www.w3.org/2000/svg" viewBox="0 0 500 500"><title>Lupa_1</title><g id="Layer_2" data-name="Layer 2"><g id="Layer_1-2" data-name="Layer 1"><path d="M500,250A249.72,249.72,0,0,1,250,500C111.92,500,0,388.07,0,250S111.92,0,250,0,500,111.93,500,250Z" style="fill:#e0edf3"/><path d="M376.42,465.72A248.16,248.16,0,0,1,312,492.25L244.88,325l43.88-20.65Z" style="fill:#565a7b"/><polygon points="307.65 339.17 259.63 361.76 244.88 325.04 288.75 304.39 307.65 339.17" style="fill:#b0bec5"/><circle cx="213.45" cy="201.28" r="131.14" style="fill:#cfd8dc"/><circle cx="213.45" cy="201.28" r="109.42" style="fill:#b5e4fa"/><path d="M135.23,244.17a88.72,88.72,0,0,0,4.8,7.76" style="fill:#b5e4fa;stroke:#fff;stroke-linecap:round;stroke-miterlimit:10;stroke-width:12px;opacity:0.5"/><path d="M162.8,127.86a89.21,89.21,0,0,0-36.63,91.92" style="fill:#b5e4fa;stroke:#fff;stroke-linecap:round;stroke-miterlimit:10;stroke-width:12px;opacity:0.5"/></g></g></svg>