<svg xmlns="http://www.w3.org/2000/svg" viewBox="0 0 342.08 386.25"><title>Mapa</title><g id="Layer_2" data-name="Layer 2"><g id="Layer_1-2" data-name="Layer 1"><path id="Caminho_2" data-name="Caminho 2" d="M85.76,4.09c48.09-18.26,114.66,48.72,186.36,140.44s88.75,176.52,49,208.25-251.87,58.62-303.28-88S37.67,22.35,85.76,4.09Z" style="fill:#e0edf5"/><g id="svg2"><polygon points="147.19 250.81 144.6 242.32 134.53 234.84 134.24 234.99 134.1 235.71 133.81 235.56 133.74 236.21 133.52 236.07 133.45 236.35 133.45 236.57 133.16 236.5 133.09 236.72 132.88 237.36 133.24 237.29 133.16 237.51 133.45 237.65 133.45 238.08 132.95 238.51 133.24 238.8 133.16 238.94 133.38 239.09 133.31 239.3 133.45 239.38 133.6 239.16 133.81 239.3 133.6 239.38 133.81 239.66 133.74 240.17 133.81 240.46 133.67 240.53 133.74 240.74 133.67 240.96 133.52 240.81 133.38 241.25 133.45 241.18 133.52 241.32 133.24 241.61 133.45 241.68 133.45 242.25 133.16 242.4 133.24 243.04 133.45 243.48 133.31 243.55 133.45 243.55 133.16 243.91 133.52 244.84 133.45 245.06 133.45 245.85 133.16 246.14 133.31 246.28 133.16 246.57 133.38 246.57 133.52 247 133.31 247 130 246.71 124.75 247.94 118.92 249.23 117.48 260.67 106.62 261.67 105.62 264.98 104.47 269.51 84.18 260.24 84.04 260.6 84.25 261.1 84.04 261.82 84.11 261.82 84.04 262.32 84.61 262.75 84.61 262.97 85.04 263.26 85.12 263.62 85.26 263.69 85.12 263.76 85.26 264.05 85.19 264.33 85.55 265.77 85.26 266.13 85.48 266.28 85.33 266.56 85.12 266.71 84.76 267.64 84.9 267.79 84.9 268 84.47 268.29 84.61 268.58 84.33 270.02 84.04 270.31 84.11 270.45 83.82 270.45 83.89 271.17 83.03 272.1 83.03 272.32 82.67 272.61 82.53 272.97 82.74 274.26 82.45 274.84 82.53 275.63 82.24 276.2 81.95 278.58 82.24 278.79 82.09 282.68 81.74 283.9 81.45 283.97 81.59 284.55 81.23 284.76 81.3 285.19 80.37 287.35 79.65 287.93 79.22 288.65 78.86 288.57 78.64 288.79 78.79 289.15 78.5 289.37 78.28 290.01 77.49 291.24 76.05 292.46 75.33 292.89 74.83 292.75 74.11 293.25 73.97 293.75 72.82 294.55 71.09 296.13 70.73 296.27 70.16 296.92 70.23 297.06 69.87 297.13 69.22 297.78 69.08 298.21 68.36 298.72 68.14 299.51 67.78 299.8 67.78 300.16 67.06 301.16 65.55 302.31 65.34 302.96 64.69 303.97 62.24 306.05 52.89 302.75 52.53 302.03 51.81 301.31 51.96 300.23 52.17 299.87 52.1 299.65 51.45 298.64 50.95 298.29 50.52 297.06 50.81 296.49 51.45 296.49 52.75 295.26 52.68 295.12 53.11 294.55 53.25 293.61 53.68 293.11 54.19 293.04 54.12 292.89 54.33 292.75 54.62 291.81 56.34 289.94 56.78 289.87 56.99 289.22 58.07 288.57 58.22 288.29 58.43 285.84 58.29 285.77 58.14 285.19 58.43 284.83 58.22 284.4 58.43 283.83 58.29 283.4 58.43 283.04 58.22 282.46 58.36 282.39 58.29 282.03 58.5 281.74 58.36 281.31 58.65 280.95 58.5 280.66 59.01 279.8 58.72 278.87 58.79 278.58 57.86 277.5 57.28 276.92 57.14 276.2 56.7 275.92 56.63 275.63 56.42 275.7 56.2 275.13 55.91 274.91 56.06 274.84 55.55 274.26 55.19 274.19 55.27 274.19 55.19 273.97 54.98 274.12 54.91 273.9 54.69 273.9 54.48 273.76 54.33 273.9 53.32 273.47 53.25 273.25 53.04 273.33 52.89 272.68 52.75 272.97 52.53 272.75 52.53 272.46 52.32 272.61 52.1 272.32 51.81 272.32 51.74 272.03 51.45 272.25 51.45 271.82 51.24 272.03 51.17 271.67 51.09 271.89 50.59 271.67 50.59 271.38 50.3 271.6 50.16 271.53 50.3 271.24 50.02 271.38 49.94 271.1 49.51 270.88 49.44 271.02 49.22 270.88 49.08 271.1 48.65 271.1 48.58 271.17 48.43 271.1 47.71 271.1 47.64 270.81 47.28 270.67 47.35 270.45 46.92 270.45 47.07 270.02 46.71 269.73 46.92 269.51 46.42 269.51 46.49 269.15 46.2 268.94 46.06 269.01 46.06 268.36 45.77 268.29 45.84 268 45.05 267.36 44.91 267 44.69 266.93 44.55 267.14 44.19 267 44.33 266.85 44.26 266.71 44.12 266.71 44.05 266.42 43.69 266.28 43.83 265.99 43.54 265.99 43.11 266.28 43.18 266.71 42.68 267.14 42.61 267.36 42.53 267.5 42.75 267.93 42.1 268.94 42.17 270.09 41.89 270.95 42.25 271.31 41.53 272.25 41.46 272.54 41.53 273.18 41.24 273.61 41.24 274.19 40.88 274.55 39.66 275.2 39.66 275.56 41.02 276.42 40.45 276.78 39.51 276.56 39.51 276.92 39.23 277 38.65 277.5 38.44 278.29 38.51 278.5 38.87 278.58 38.44 279.01 37.57 281.38 36.92 281.1 36.42 281.38 36.42 282.03 35.92 282.1 35.2 282.46 35.2 283.61 34.41 283.4 33.47 284.26 33.11 284.33 32.9 284.62 32.9 285.12 32.25 285.7 31.89 286.2 31.96 286.56 32.61 286.78 32.61 287.21 32.47 287.42 32.03 287.21 31.96 287.71 31.39 288.29 31.31 288.57 31.6 288.94 31.03 289.22 30.88 289.51 31.03 290.16 30.67 290.44 30.74 290.88 30.38 291.31 30.38 291.88 30.95 293.18 31.6 293.68 31.96 294.83 32.68 295.41 32.61 295.84 33.04 296.56 32.9 297.35 32.97 297.64 33.4 297.93 33.47 298.5 33.26 298.86 33.62 298.93 33.69 299.29 33.47 299.51 33.54 299.94 33.47 301.16 33.76 301.52 34.12 302.6 34.84 303.46 34.77 303.68 34.48 303.68 34.84 304.54 34.55 305.55 34.91 305.77 34.62 306.49 34.84 306.99 34.55 307.28 34.91 307.92 34.84 308.28 34.48 308.36 34.41 308.64 34.77 309.36 34.62 309.58 34.84 309.65 34.91 310.08 35.2 310.23 35.05 310.8 35.34 311.09 35.7 310.94 35.92 311.3 36.42 311.52 37.21 311.38 38.29 312.31 38.58 312.96 39.51 314.25 39.3 314.61 39.3 315.12 39.66 315.26 39.51 315.48 39.73 315.55 39.66 315.76 39.95 316.2 39.66 316.34 39.95 316.48 39.95 316.7 40.16 317.2 39.95 317.35 39.59 317.56 39.51 317.92 38.94 318.28 38.36 319.07 38.44 319.36 37.93 319.86 38.15 320.3 37.43 321.09 37.43 321.66 37.86 322.24 37.86 322.38 37.64 322.45 37.72 322.96 38.22 323.17 38.51 323.68 38.51 323.96 38.22 324.11 38.29 324.54 37.93 325.33 38 326.63 37.64 327.34 38.08 327.7 38 328.14 38.22 328.35 38.08 328.71 38.44 329.43 38.15 329.72 38.44 330.15 38.36 330.94 38.08 331.8 37.64 332.02 37.36 332.52 37.07 334.03 36.78 334.18 36.78 334.46 36.42 335.11 36.35 335.54 36.49 335.76 36.42 336.05 36.64 336.26 36.71 337.27 37 337.85 37.21 338.06 37.43 338.85 37.07 339.5 37.21 339.86 37 340.8 36.78 340.87 36.85 341.37 36.35 342.02 35.85 343.53 35.92 344.18 35.7 344.32 36.13 344.82 35.77 346.76 35.41 346.98 34.84 347.99 34.77 348.78 34.12 349 34.05 349.28 33.62 349.57 33.26 350.5 32.9 350.5 32.61 350.79 32.61 351.3 32.18 351.8 32.61 353.74 33.54 353.31 35.77 352.81 37.43 353.74 39.66 354.17 42.03 352.88 42.53 352.3 42.82 351.3 42.46 349.64 42.82 348.92 43.04 348.92 43.33 348.78 43.9 348.92 44.77 348.78 45.56 348.42 46.49 347.56 46.92 347.48 48.58 346.69 49.08 346.76 49.73 347.34 50.3 348.13 50.38 349.14 50.16 350.22 50.3 351.08 50.81 351.73 52.17 352.66 52.39 353.17 52.39 354.53 52.68 355.04 53.83 355.76 54.69 356.4 55.48 357.48 56.7 358.49 56.85 359.14 56.7 360.5 56.92 361.58 58.29 362.59 58 363.38 56.63 364.53 55.91 365.39 56.34 366.26 56.2 367.05 55.91 367.62 56.42 368.63 56.42 370.64 56.85 371.36 57.5 371.8 58.65 372.08 59.29 372.95 60.09 375.9 61.74 377.26 63.25 377.48 64.11 377.91 64.76 379.64 65.19 380.14 66.56 379.92 66.7 380.43 69.65 380.93 71.38 381.07 71.88 381.29 72.75 381 73.39 381 75.41 382.23 76.05 383.09 76.7 383.23 76.99 383.02 78 383.52 80.01 385.17 81.02 384.38 81.45 384.24 81.59 383.88 82.24 383.88 83.17 383.16 83.61 383.09 83.75 383.59 84.04 383.81 85.12 382.66 85.55 382.44 85.76 382.15 85.69 381.29 86.7 379.49 87.2 379.28 88.06 379.35 88.14 378.56 88.5 378.27 90.22 377.33 91.45 377.62 92.31 377.26 92.6 376.76 92.6 375.97 92.31 374.1 92.31 373.74 92.67 373.38 93.39 373.31 94.25 373.23 94.9 372.8 95.19 372.51 95.98 371.22 96.55 371 97.85 371.08 99 372.01 99.29 372.08 100.08 372.01 101.16 371.65 101.88 370.43 102.38 370.14 102.52 370.07 103.75 370.36 104.75 370.07 105.04 369.85 106.98 367.7 107.41 367.34 107.85 367.34 108.78 367.7 109 367.91 109.36 368.27 110.29 370.07 111.23 370.86 112.45 371 113.46 370.43 113.82 370.43 114.53 371.08 115.25 371.22 115.83 371.72 116.19 371.72 116.69 371.72 117.27 371.44 117.48 371.29 118.42 369.57 118.85 369.35 119.71 369.21 120.14 368.85 121.15 365.32 121.66 364.75 122.16 364.24 122.3 363.88 121.87 362.44 122.16 361.08 122.66 360.57 123.24 360.57 123.89 360.94 125.25 361.51 126.26 361.58 127.41 361.51 127.48 361.29 127.55 359.57 128.2 358.92 128.42 358.27 128.92 357.7 129.57 357.05 130.65 356.4 131.15 355.83 131.29 354.61 131.15 354.1 131.15 353.38 133.02 351.37 133.88 350.07 134.46 347.92 134.46 346.98 134.1 346.19 134.46 345.33 134.75 345.11 136.19 344.97 137.91 345.18 137.91 344.39 137.98 343.67 138.99 343.02 139.35 341.8 139.21 341.08 138.27 340.8 137.41 340 138.06 338.71 137.98 338.28 137.91 338.06 137.34 337.99 137.12 337.56 137.34 337.2 137.7 336.98 137.84 336.48 138.63 336.26 139.13 335.47 139.21 334.82 139.78 334.32 139.78 334.03 139.21 333.31 138.34 332.95 137.91 332.45 137.19 332.45 136.69 332.31 136.62 331.88 134.75 331.16 134.46 330.8 133.6 330.44 133.02 328.86 133.16 328.14 132.95 327.34 131.65 325.12 130.93 324.54 131.01 324.11 131.29 323.89 131.29 323.68 130.93 323.46 130.93 322.17 130.43 321.09 130.57 320.44 132.01 317.92 132.88 317.2 133.52 316.12 133.74 315.91 129.64 309.43 125.54 302.89 129.64 295.55 133.24 285.99 137.48 281.38 138.34 275.92 140.79 260.16 143.16 259.8 145.9 255.7 146.04 254.77 147.26 253.47 147.19 250.81" style="fill:#2161ac;stroke:#f6f6f6;stroke-linejoin:round;stroke-width:2.1578402715337877px"/><polygon points="251.84 46.32 250.69 46.18 250.19 45.67 249.33 45.46 248.47 45.53 247.75 45.24 247.75 45.03 247.89 44.81 248.32 42.65 247.67 40.93 246.81 40.71 246.45 40.28 246.45 39.92 246.59 39.7 246.74 39.49 248.03 39.27 248.54 38.48 248.61 36.97 248.75 36.68 249.76 36.4 249.11 36.25 248.68 36.47 248.61 36.4 248.39 36.25 248.39 35.17 247.46 34.52 247.75 33.95 247.67 32.94 247.46 32.8 247.1 32.58 245.59 32.66 245.37 32.01 244.87 31.94 245.01 31.07 244.94 30.35 244.22 30.71 243.93 30.57 244.29 29.71 244.51 29.27 245.23 28.7 245.08 28.27 245.66 26.9 248.68 21.72 248.39 20.93 248.82 20.36 248.82 20.14 250.41 18.63 250.41 18.2 251.05 18.05 251.27 17.69 251.77 17.48 251.77 16.69 251.56 16.47 251.56 15.9 251.56 15.61 251.92 15.11 251.92 14.82 252.13 14.67 251.84 14.24 251.77 13.59 251.2 12.66 251.05 12.01 250.55 11.8 249.83 11.87 248.82 11.37 248.68 10.93 248.68 9.64 248.25 9.64 247.96 9.93 246.59 9.42 246.24 9.49 245.08 8.85 244.22 9.13 243.43 8.92 243.29 9.21 243.29 9.06 243.21 9.13 242.93 8.92 241.27 8.49 240.63 8.63 239.91 9.21 238.83 9.13 237.6 8.56 237.53 8.7 236.6 8.99 236.02 8.92 234.15 7.98 233.07 7.12 233 6.76 231.78 6.04 229.69 4.1 229.4 4.32 228.69 4.03 227.03 2.52 226.31 1.51 225.74 1.08 225.23 1.87 224.08 2.66 224.15 4.24 224.44 4.82 224.37 5.11 223.51 5.47 223.51 6.47 223.29 7.48 223.65 8.27 224.44 9.21 224.73 9.42 226.02 10.43 226.24 10.79 226.53 11.72 225.74 12.73 225.23 14.53 224.87 14.82 223.51 15.54 223.15 16.11 222.21 17.55 221.71 17.91 221.06 17.98 220.63 18.41 220.49 18.77 220.56 19.78 220.05 20.36 219.98 20.64 219.91 22.08 219.62 22.23 219.05 21.72 218.69 21.72 218.4 22.37 218.18 23.3 218.04 23.59 217.75 23.81 217.03 24.6 216.53 24.89 215.59 24.82 213.94 25.18 213.44 25.46 211.64 25.61 210.7 26.47 210.85 26.97 212.28 27.12 212.43 27.33 212.5 27.62 212.36 27.98 211.71 28.05 211.35 28.41 211.06 29.42 214.01 31.86 213.36 32.66 212.72 33.73 212.43 33.95 213.29 34.52 214.3 34.52 214.59 34.38 214.95 35.46 214.51 36.32 215.16 36.54 215.45 36.83 216.03 37.04 217.39 36.97 218.18 37.12 218.25 37.76 221.06 38.12 221.28 38.41 220.99 39.2 220.56 39.49 220.13 40.14 220.41 40.71 219.98 41.36 219.84 42.29 219.98 42.58 219.91 43.16 220.56 43.3 220.49 43.95 220.63 44.88 220.63 45.17 223.22 47.11 226.67 42.65 227.68 40.14 228.9 40.78 228.9 44.81 232.14 44.52 233.43 43.3 239.4 41.72 239.69 42.15 242.28 42.73 240.84 44.52 242.93 44.59 243.65 46.61 242.5 47.04 243.07 49.56 248.1 45.75 249.11 47.98 250.77 49.49 251.56 48.91 251.77 47.54 251.99 47.26 252.56 47.11 252.56 46.68 251.84 46.32" style="fill:#2161ac;stroke:#f6f6f6;stroke-linejoin:round;stroke-width:2.1578402715337877px"/><polygon points="153.59 210.46 155.97 200.46 149.64 198.31 150.21 197.3 150.72 195.86 151.65 194.93 152.01 194.06 152.01 193.13 151.65 193.06 151.15 193.49 150.72 193.56 149.49 193.34 149.06 193.63 148.92 193.7 147.77 193.2 147.41 192.48 147.19 191.98 146.54 191.54 145.1 191.11 144.75 190.75 144.53 189.82 144.03 189.24 143.59 189.17 143.38 189.53 143.02 189.53 142.3 188.88 141.22 188.52 140.5 187.73 138.85 187.16 137.62 187.3 137.34 186.87 136.83 186.8 136.26 187.01 135.11 187.01 134.75 186.94 134.1 187.52 133.16 187.01 133.09 187.01 132.52 187.66 131.94 188.09 130.36 188.52 129.14 189.53 127.55 189.31 127.34 189.46 126.91 190.18 126.62 190.18 126.11 189.89 125.9 189.24 125.4 188.81 124.89 188.88 124.1 189.53 122.02 189.67 121.58 190.11 121.01 190.03 120.72 190.75 120.79 191.9 120.29 192.55 119.93 192.55 119.43 191.69 118.42 191.69 118.2 191.76 118.13 192.05 118.2 192.34 118.92 193.41 118.78 193.99 118.49 194.21 118.2 193.99 118.13 193.27 117.92 193.06 117.56 193.49 117.05 194.49 116.05 194.93 115.4 195.93 115.33 196.15 115.47 197.3 115.33 197.51 114.53 197.44 114.1 197.73 113.96 199.24 112.52 200.82 111.94 200.82 111.3 200.82 111.15 201.69 110.72 202.33 110.51 203.05 110.72 203.99 110.72 204.2 109.21 206.36 108.78 206.43 107.99 206 106.55 206.58 105.76 206.5 104.25 207.3 103.1 208.23 101.88 208.52 100.87 209.24 100.58 209.53 100.15 209.53 99.5 210.17 99 211.25 98.86 211.4 97.2 211.61 96.77 212.55 96.48 212.98 95.69 213.55 95.69 213.91 94.75 215.35 93.6 215.71 93.32 216.14 92.88 216.22 92.6 216.43 92.17 217.44 91.81 217.73 91.37 219.45 90.8 219.45 90.66 219.31 90.3 219.52 89.43 219.24 88.78 217.94 87.06 218.59 86.77 218.3 85.33 217.87 85.12 218.59 83.89 219.02 83.68 219.52 83.68 219.81 83.25 220.17 82.96 220.75 82.31 220.96 81.66 220.75 81.45 220.89 81.02 221.68 80.58 222.19 80.37 222.98 80.15 222.98 79.72 222.98 78.79 223.26 78.28 223.55 77.64 223.55 77.28 223.55 76.63 224.2 75.98 224.2 74.76 224.85 73.54 224.49 72.82 224.49 70.95 224.99 70.37 225.35 69.94 225.35 69.58 224.99 68.72 225.71 68.21 226.36 67.28 226.79 66.63 227.58 66.42 227.51 66.42 227.22 65.91 226.72 65.05 227.22 64.55 227.65 63.47 227.44 62.96 227.8 61.67 227.87 60.95 228.08 60.73 228.73 59.37 229.88 58.93 229.67 58.43 229.67 58.14 230.17 58.14 230.89 57.93 231.1 57.35 231.18 57.5 231.61 57.28 231.75 56.56 231.97 56.34 232.26 56.49 232.62 56.2 232.69 55.48 232.33 55.27 232.69 55.84 232.97 55.41 233.26 54.91 233.26 54.91 234.34 54.33 234.41 54.04 235.13 54.33 235.78 54.26 236.14 54.04 236.07 53.9 235.85 53.61 236.07 54.19 236.72 53.76 237.36 53.9 237.79 53.68 237.94 53.4 237.72 53.47 238.3 52.96 238.59 52.96 239.38 52.75 240.02 52.17 240.31 52.24 241.1 51.74 241.39 51.53 241.46 51.81 242.04 52.39 242.32 52.46 242.54 51.6 242.83 51.45 242.97 52.32 243.55 52.39 243.69 51.96 244.2 51.6 244.05 51.38 244.12 51.45 244.48 51.38 244.99 51.24 245.35 50.81 245.71 51.31 245.99 51.17 246.43 50.81 246.57 50.3 247.65 51.09 248.22 51.09 248.51 50.88 248.58 50.52 248.51 49.87 249.16 50.52 250.09 50.23 250.31 50.23 251.25 49.51 252.4 49.94 253.19 49.44 253.91 49.37 254.19 49.58 255.13 49.22 255.92 48.79 256.06 48.43 256.5 48.29 256.57 48.15 256.93 48.36 257.43 45.92 259.52 45.7 261.39 45.2 262.03 45.05 262.97 44.69 263.62 44.69 264.48 44.48 264.84 43.9 265.13 44.12 265.7 43.83 265.99 43.69 266.28 44.05 266.42 44.12 266.71 44.26 266.71 44.33 266.85 44.19 267 44.55 267.14 44.69 266.93 44.91 267 45.05 267.36 45.84 268 45.77 268.29 46.06 268.36 46.06 269.01 46.2 268.94 46.49 269.15 46.42 269.51 46.92 269.51 46.71 269.73 47.07 270.02 46.92 270.45 47.35 270.45 47.28 270.67 47.64 270.81 47.71 271.1 48.43 271.1 48.58 271.17 48.65 271.1 49.08 271.1 49.22 270.88 49.44 271.02 49.51 270.88 49.94 271.1 50.02 271.38 50.3 271.24 50.16 271.53 50.3 271.6 50.59 271.38 50.59 271.67 51.09 271.89 51.17 271.67 51.24 272.03 51.45 271.82 51.45 272.25 51.74 272.03 51.81 272.32 52.1 272.32 52.32 272.61 52.53 272.46 52.53 272.75 52.75 272.97 52.89 272.68 53.04 273.33 53.25 273.25 53.32 273.47 54.33 273.9 54.48 273.76 54.69 273.9 54.91 273.9 54.98 274.12 55.19 273.97 55.27 274.19 55.19 274.19 55.55 274.26 56.06 274.84 55.91 274.91 56.2 275.13 56.42 275.7 56.63 275.63 56.7 275.92 57.14 276.2 57.28 276.92 57.86 277.5 58.79 278.58 58.72 278.87 59.01 279.8 58.5 280.66 58.65 280.95 58.36 281.31 58.5 281.74 58.29 282.03 58.36 282.39 58.22 282.46 58.43 283.04 58.29 283.4 58.43 283.83 58.22 284.4 58.43 284.83 58.14 285.19 58.29 285.77 58.43 285.84 58.22 288.29 58.07 288.57 56.99 289.22 56.78 289.87 56.34 289.94 54.62 291.81 54.33 292.75 54.12 292.89 54.19 293.04 53.68 293.11 53.25 293.61 53.11 294.55 52.68 295.12 52.75 295.26 51.45 296.49 50.81 296.49 50.52 297.06 50.95 298.29 51.45 298.64 52.1 299.65 52.17 299.87 51.96 300.23 51.81 301.31 52.53 302.03 52.89 302.75 62.24 306.05 64.69 303.97 65.34 302.96 65.55 302.31 67.06 301.16 67.78 300.16 67.78 299.8 68.14 299.51 68.36 298.72 69.08 298.21 69.22 297.78 69.87 297.13 70.23 297.06 70.16 296.92 70.73 296.27 71.09 296.13 72.82 294.55 73.97 293.75 74.11 293.25 74.83 292.75 75.33 292.89 76.05 292.46 77.49 291.24 78.28 290.01 78.5 289.37 78.79 289.15 78.64 288.79 78.86 288.57 79.22 288.65 79.65 287.93 80.37 287.35 81.3 285.19 81.23 284.76 81.59 284.55 81.45 283.97 81.74 283.9 82.09 282.68 82.24 278.79 81.95 278.58 82.24 276.2 82.53 275.63 82.45 274.84 82.74 274.26 82.53 272.97 82.67 272.61 83.03 272.32 83.03 272.1 83.89 271.17 83.82 270.45 84.11 270.45 84.04 270.31 84.33 270.02 84.61 268.58 84.47 268.29 84.9 268 84.9 267.79 84.76 267.64 85.12 266.71 85.33 266.56 85.48 266.28 85.26 266.13 85.55 265.77 85.19 264.33 85.26 264.05 85.12 263.76 85.26 263.69 85.12 263.62 85.04 263.26 84.61 262.97 84.61 262.75 84.04 262.32 84.11 261.82 84.04 261.82 84.25 261.1 84.04 260.6 84.18 260.24 104.47 269.51 105.62 264.98 106.62 261.67 117.48 260.67 118.92 249.23 124.75 247.94 130 246.71 133.31 247 133.52 247 133.38 246.57 133.16 246.57 133.31 246.28 133.16 246.14 133.45 245.85 133.45 245.06 133.52 244.84 133.16 243.91 133.45 243.55 133.31 243.55 133.45 243.48 133.24 243.04 133.16 242.4 133.45 242.25 133.45 241.68 133.24 241.61 133.52 241.32 133.45 241.18 133.38 241.25 133.52 240.81 133.67 240.96 133.74 240.74 133.67 240.53 133.81 240.46 133.74 240.17 133.81 239.66 133.6 239.38 133.81 239.3 133.6 239.16 133.45 239.38 133.31 239.3 133.38 239.09 133.16 238.94 133.24 238.8 132.95 238.51 133.45 238.08 133.45 237.65 133.16 237.51 133.24 237.29 132.88 237.36 133.09 236.72 133.16 236.5 133.45 236.57 133.45 236.35 133.52 236.07 133.74 236.21 133.81 235.56 134.1 235.71 134.24 234.99 134.53 234.84 144.6 242.32 144.03 240.46 146.54 232.76 148.2 226.93 155.1 219.81 159.71 214.2 153.59 210.46" style="fill:#2161ac;stroke:#f6f6f6;stroke-linejoin:round;stroke-width:2.1578402715337877px"/><polygon points="228.83 248.87 215.81 247.65 214.37 246.64 212.57 245.49 207.68 242.04 206.03 240.96 208.19 234.84 203.08 230.31 206.82 230.46 206.89 230.17 209.12 225.35 206.82 221.39 202.43 221.11 202.07 221.25 200.2 220.46 192.22 218.52 190.56 219.24 189.77 219.09 188.76 218.73 186.1 210.46 187.18 208.3 186.46 205.35 186.97 200.25 187.76 200.75 188.98 199.38 190.35 195.28 187.9 191.4 189.12 189.82 192.15 187.09 195.02 185.57 195.38 185.14 199.63 184.71 200.34 178.81 202.57 178.09 202.57 177.81 200.71 177.81 200.49 178.31 189.84 178.31 189.34 177.01 186.46 177.66 180.06 178.53 177.69 187.09 176.97 185.07 176.03 184.78 175.31 184.78 175.17 184.85 174.31 184.35 174.31 184.42 174.02 185.43 172.65 187.01 171.29 187.73 170.71 188.96 170.21 189.39 168.7 189.82 167.98 189.67 167.26 189.17 166.47 189.1 165.39 190.18 164.16 190.61 163.52 190.75 163.16 190.75 162.44 190.11 160.78 189.82 158.84 189.96 158.63 190.03 158.05 190.82 157.26 191.4 155.89 191.54 153.95 191.4 153.3 192.41 152.15 192.34 152.01 193.13 152.01 194.06 151.65 194.93 150.72 195.86 150.21 197.3 149.64 198.31 155.97 200.46 153.59 210.46 159.71 214.2 155.1 219.81 148.2 226.93 146.54 232.76 144.03 240.46 144.6 242.32 147.19 250.81 147.26 253.47 146.04 254.77 145.9 255.7 143.16 259.8 140.79 260.16 138.34 275.92 137.48 281.38 137.34 282.1 158.41 281.96 158.05 282.82 166.68 282.53 169.42 281.89 171.14 281.45 178.19 280.23 183.08 280.16 184.45 275.7 185.17 273.61 186.18 271.96 186.53 269.87 187.97 265.92 188.62 262.03 190.28 262.11 190.92 261.75 191.93 261.39 191.93 260.52 191.5 259.73 191.5 259.37 192.15 258.29 194.01 259.23 195.45 258.8 195.31 258.15 195.31 257.36 195.38 257.21 195.02 251.1 195.96 253.26 209.41 259.44 209.77 258.87 210.13 258.73 210.34 258.29 210.63 257.43 210.63 256.57 211.28 258.44 214.8 260.74 217.61 261.67 220.63 259.8 222 254.55 229.55 252.32 229.55 252.04 228.83 248.87" style="fill:#2161ac;stroke:#f6f6f6;stroke-linejoin:round;stroke-width:2.1578402715337877px"/><polygon points="219.62 126.38 219.62 126.23 219.19 125.66 218.97 125.8 218.9 125.44 218.33 125.44 218.04 125.73 217.82 125.37 217.39 125.3 217.03 124.22 216.82 124.44 216.53 124.51 215.31 124.08 215.02 123.64 215.09 122.49 214.8 122.28 214.95 121.85 214.95 120.77 215.16 120.48 214.95 120.12 215.09 120.12 214.59 119.26 216.03 117.67 216.17 116.74 215.95 116.09 216.03 115.16 215.88 114.87 208.19 113.07 208.11 112.71 208.33 112.57 208.47 111.92 208.33 111.63 208.98 111.2 209.12 110.77 208.9 110.41 209.26 110.27 209.7 110.34 209.98 110.12 202.43 104.22 199.7 99.19 201.35 91.78 203.22 86.1 196.68 82.64 197.32 82.21 196.25 80.85 194.88 80.56 191.5 77.25 191.28 77.39 190.99 77.39 191.43 76.39 189.27 72.94 188.12 71.06 186.82 66.39 186.25 63.87 184.88 64.66 184.74 64.81 183.87 64.38 182.72 63.23 182 62.72 179.99 59.34 179.77 60.06 179.41 60.13 178.91 59.63 178.48 59.84 177.62 62 176.97 63.87 176.68 64.52 176.03 65.38 175.17 65.74 174.81 66.1 174.74 66.39 175.6 67.11 175.53 67.54 173.73 67.61 173.3 67.83 173.08 68.04 171.14 70.27 170.85 71.21 171.07 73.73 171.14 74.3 172.08 75.88 172.08 76.82 172 77.9 172.22 78.19 172.58 78.33 173.52 78.19 175.53 79.55 176.25 80.34 175.96 81.42 176.03 82 177.11 82.64 177.26 82.79 177.26 82.93 177.18 83.44 176.9 83.72 176.82 84.37 176.18 85.38 176.47 86.67 176.39 86.96 176.18 87.54 174.45 90.41 174.02 90.84 172.72 91.85 172.44 92.57 172.65 93.08 173.01 93.43 173.88 94.08 174.02 94.8 173.73 95.45 172.72 96.17 172.65 97.32 173.23 98.25 175.1 99.76 175.31 100.48 175.17 101.85 175.39 102.21 176.39 103.5 176.47 103.72 177.11 104.22 176.75 105.88 176.9 106.31 177.69 108.61 177.69 109.76 177.83 110.41 178.77 111.49 179.05 113.29 179.49 114.22 179.77 115.73 179.63 116.45 178.34 118.11 178.41 118.61 179.05 120.34 179.05 121.2 178.41 123.36 177.9 123.79 176.61 124.36 176.39 124.87 175.82 125.44 174.74 125.44 174.52 125.66 174.31 125.8 173.88 127.17 173.52 127.67 172.08 128.03 171.79 128.32 171.5 129.61 171.5 129.9 170.5 130.91 170.06 132.56 169.2 133.43 168.98 134.29 168.63 134.87 167.98 134.87 166.54 135.22 166.03 135.66 165.89 135.94 165.68 136.81 166.03 136.81 166.4 137.45 166.18 139.18 166.68 141.41 166.54 141.91 165.89 141.91 165.75 142.06 165.53 142.99 165.75 144.29 166.03 144.94 165.75 146.09 166.68 147.67 166.61 147.96 165.68 149.39 165.82 149.83 166.18 150.33 166.25 151.55 166.47 152.2 166.9 152.85 167.69 153.35 167.98 153.71 167.98 154.65 167.76 155.15 166.75 156.01 166.75 156.59 167.47 157.31 167.98 158.67 168.7 159.18 169.78 159.18 170.64 159.54 171.14 160.11 171.5 161.84 171.79 162.34 172.51 162.84 173.37 163.06 174.16 164 175.17 164.5 176.18 164.72 176.54 165 177.04 165.87 177.04 166.51 177.47 167.31 177.26 168.46 176.82 169.53 177.11 169.68 177.9 169.25 178.26 169.82 178.19 170.11 177.18 170.83 176.97 171.4 176.9 172.34 175.96 173.56 176.03 174.14 176.39 175.15 176.32 175.86 176.47 176.73 175.75 177.23 175.6 177.66 175.6 177.88 176.25 178.02 175.46 179.25 175.67 180.32 175.6 180.9 174.74 182.05 174.16 183.92 174.31 184.35 175.17 184.85 175.31 184.78 176.03 184.78 176.97 185.07 177.69 187.09 180.06 178.53 186.46 177.66 189.34 177.01 189.84 178.31 200.49 178.31 200.71 177.81 203.51 172.34 204.3 168.6 202.43 168.17 202.22 167.31 202.43 166.66 202.07 166.01 202.07 165.15 201.64 164.21 201.71 164 200.99 163.13 199.7 162.34 199.41 161.77 199.48 161.55 198.98 161.34 199.7 161.12 198.98 159.1 204.88 157.16 204.66 155.94 204.37 155.8 204.01 155.15 203.58 156.23 198.76 152.92 198.69 151.77 202.72 151.26 205.02 151.91 205.02 151.62 205.45 150.98 205.6 150.04 205.38 149.61 205.52 149.18 205.31 148.75 204.3 148.6 204.09 148.46 204.09 147.09 204.66 146.81 205.09 147.09 205.45 146.95 206.24 147.09 207.68 148.6 208.76 148.46 209.12 148.6 209.19 148.24 209.48 148.24 209.77 148.39 209.77 148.75 210.27 149.03 211.13 149.25 211.35 149.03 211.13 148.96 210.63 148.03 210.7 147.81 210.41 146.95 210.41 146.73 210.06 146.88 207.54 145.8 207.54 144 206.46 143.57 206.24 142.2 206.31 138.6 207.32 138.17 207.54 137.74 208.83 137.53 209.77 137.67 210.41 137.24 210.56 136.02 210.85 135.44 211.35 135.37 212.07 134.87 212.57 134.79 212.72 134.43 214.3 133.5 215.52 133.21 216.03 132.56 216.82 131.99 217.1 131.63 217.1 130.91 217.39 130.33 218.11 129.54 218.4 128.9 219.12 128.53 219.05 127.89 219.41 127.24 219.62 126.38" style="fill:#2161ac;stroke:#f6f6f6;stroke-linejoin:round;stroke-width:2.1578402715337877px"/><polygon points="273.57 171.4 274.07 170.11 274 169.25 273.71 168.31 272.63 167.45 271.99 166.08 270.69 164.5 270.91 163.56 270.62 161.77 270.91 160.18 270.4 158.96 269.68 156.66 269.18 156.23 268.32 156.37 268.17 156.16 251.63 159.18 248.32 160.26 248.9 161.41 246.81 162.34 246.52 160.9 244.29 160.04 239.98 161.05 240.41 159.32 235.95 158.24 235.95 157.74 235.45 158.1 233.86 157.45 232.06 155.51 232.78 152.49 233.07 151.05 230.19 144.14 229.33 144.22 229.04 144.14 228.18 144.65 227.89 144.5 227.75 144.72 227.46 144.86 227.1 144.43 227.03 144.72 226.53 144.86 225.81 145.37 225.16 145.22 225.02 145.44 224.22 145.44 222.57 145.51 221.56 144.72 221.2 144.86 220.27 144.86 220.05 144.5 219.62 144.94 219.33 144.94 219.26 144.57 218.9 144.72 218.33 144.65 218.04 144.5 218.11 143.93 217.9 143.5 216.75 142.78 216.03 143.14 215.81 142.92 214.87 142.63 214.66 142.35 213.51 142.06 213 142.56 212.79 141.91 212.65 141.91 212.43 142.13 212.07 141.99 212 141.41 212.43 139.97 212.14 139.47 211.78 139.18 211.85 138.75 211.49 138.39 210.99 138.46 210.7 138.17 210.06 137.96 209.77 137.67 208.83 137.53 207.54 137.74 207.32 138.17 206.31 138.6 206.24 142.2 206.46 143.57 207.54 144 207.54 145.8 210.06 146.88 210.41 146.73 210.41 146.95 210.7 147.81 210.63 148.03 211.13 148.96 211.35 149.03 211.13 149.25 210.27 149.03 209.77 148.75 209.77 148.39 209.48 148.24 209.19 148.24 209.12 148.6 208.76 148.46 207.68 148.6 206.24 147.09 205.45 146.95 205.09 147.09 204.66 146.81 204.09 147.09 204.09 148.46 204.3 148.6 205.31 148.75 205.52 149.18 205.38 149.61 205.6 150.04 205.45 150.98 205.02 151.62 205.02 151.91 202.72 151.26 198.69 151.77 198.76 152.92 203.58 156.23 204.01 155.15 204.37 155.8 204.66 155.94 204.88 157.16 198.98 159.1 199.7 161.12 198.98 161.34 199.48 161.55 199.41 161.77 199.7 162.34 200.99 163.13 201.71 164 201.64 164.21 202.07 165.15 202.07 166.01 202.43 166.66 202.22 167.31 202.43 168.17 204.3 168.6 203.51 172.34 200.71 177.81 202.57 177.81 202.57 178.09 202.72 181.69 204.16 182.05 207.47 183.27 208.47 184.35 210.2 184.14 214.01 183.92 215.02 183.42 217.03 182.99 217.61 183.13 220.41 184.21 220.63 184.35 220.2 185.43 220.92 188.74 220.92 192.98 222.79 194.21 225.81 198.09 226.02 197.59 225.88 197.23 228.04 197.23 228.25 196.79 230.91 196.29 231.06 196.94 233.5 196.36 234.66 196.15 234.73 196.29 234.94 195.21 235.37 193.13 238.4 188.59 241.99 188.88 243.36 186.44 241.78 183.92 240.41 180.9 241.56 179.53 243.14 178.67 246.74 179.82 247.75 183.92 249.97 185.93 250.91 185.93 254.58 186.08 254.87 185.14 257.67 184.78 257.17 188.52 260.33 189.46 273.57 177.52 273.28 176.08 273.42 175.43 273.28 174.07 272.92 172.41 273.14 171.91 273.57 171.4" style="fill:#2161ac;stroke:#f6f6f6;stroke-linejoin:round;stroke-width:2.1578402715337877px"/><polygon points="269.4 150.19 268.53 149.39 268.75 148.6 268.17 146.95 268.03 145.8 268.17 144.43 267.96 142.99 267.6 142.06 267.81 141.19 267.17 140.19 267.02 139.25 266.59 138.68 267.09 138.25 267.88 137.96 268.1 137.24 268.39 136.02 268.25 135.44 267.88 134.87 267.81 133.71 266.88 132.85 266.95 132.28 266.73 131.77 267.09 131.41 267.09 130.91 266.88 130.62 267.09 130.19 267.09 129.83 267.53 129.33 267.67 128.97 267.45 128.25 266.73 127.67 266.45 126.81 266.66 126.67 267.6 126.67 267.88 126.23 267.67 125.44 267.09 124.72 266.73 124.29 266.88 123.57 267.53 123 267.81 122.06 267.88 121.56 267.31 121.13 267.24 120.91 267.45 120.48 267.31 119.98 267.88 119.83 267.88 119.76 267.24 118.97 266.45 118.39 267.45 117.75 266.95 116.52 267.24 115.66 267.09 115.16 266.66 114.94 266.16 114.94 265.44 114.15 264.94 114.15 264.58 114.29 264.36 113.57 263.21 112.93 263.07 112.06 262.49 112.28 262.13 111.42 261.84 111.42 261.34 111.99 260.05 111.42 259.97 110.77 259.69 110.55 259.61 110.12 259.25 109.98 259.25 109.62 257.67 109.4 258.1 108.25 258.03 107.53 257.46 107.03 257.31 106.38 257.17 106.38 256.95 106.74 256.67 106.74 255.37 104.66 254.51 104.22 254.22 104.8 254 104.58 253.93 104.22 253.5 104.22 253.43 104.15 253.36 103.65 252.78 102.64 253.14 101.99 252.13 100.99 252.56 100.27 252.49 98.76 252.85 98.47 252.85 97.97 253.36 97.32 253.93 96.96 254.07 96.67 253.79 96.38 252.56 96.1 252.21 95.95 249.97 98.47 244.51 98.54 243.72 98.61 235.59 101.49 233.58 98.9 228.9 93.22 227.46 92.5 228.9 87.97 229.26 86.96 229.19 86.75 228.9 86.67 228.97 86.53 228.83 86.46 228.83 86.31 228.61 86.24 228.61 86.03 228.61 86.1 228.4 86.03 228.47 85.81 228.25 85.67 228.47 85.45 228.25 85.38 228.18 85.45 228.11 85.67 227.97 85.45 227.61 85.45 227.32 85.16 227.25 84.73 227.03 84.66 226.96 84.37 225.95 84.16 225.74 83.72 225.52 83.87 225.38 83.58 225.16 83.51 225.09 82.93 224.94 82.93 224.66 82.64 224.66 82.36 224.37 82 223.87 81.78 223.36 82 222.57 81.35 222.21 81.21 222.14 80.63 221.92 80.49 221.78 80.56 221.64 80.42 221.28 80.2 220.56 80.49 220.2 80.27 219.41 80.06 218.97 80.2 218.47 79.7 218.47 79.19 217.46 78.62 217.25 78.33 217.1 78.4 216.67 78.11 216.24 78.26 216.03 77.68 216.17 77.32 215.81 76.82 217.03 76.39 217.03 73.01 216.1 72.79 212.36 73.15 211.93 72.72 211.35 72.65 211.21 73.01 209.77 73.08 209.48 72.94 208.69 72.86 207.82 72.94 208.33 73.37 208.33 73.8 207.97 74.37 208.47 74.73 208.69 75.52 208.47 76.53 208.83 77.68 208.47 78.19 207.97 77.97 207.82 78.11 197.54 76.17 197.4 76.32 196.1 75.88 194.45 76.39 191.43 76.39 190.99 77.39 191.28 77.39 191.5 77.25 194.88 80.56 196.25 80.85 197.32 82.21 196.68 82.64 203.22 86.1 201.35 91.78 199.7 99.19 202.43 104.22 209.98 110.12 209.7 110.34 209.26 110.27 208.9 110.41 209.12 110.77 208.98 111.2 208.33 111.63 208.47 111.92 208.33 112.57 208.11 112.71 208.19 113.07 215.88 114.87 216.03 115.16 215.95 116.09 216.17 116.74 216.03 117.67 214.59 119.26 215.09 120.12 214.95 120.12 215.16 120.48 214.95 120.77 214.95 121.85 214.8 122.28 215.09 122.49 215.02 123.64 215.31 124.08 216.53 124.51 216.82 124.44 217.03 124.22 217.39 125.3 217.82 125.37 218.04 125.73 218.33 125.44 218.9 125.44 218.97 125.8 219.19 125.66 219.62 126.23 219.62 126.38 219.41 127.24 219.05 127.89 219.12 128.53 218.4 128.9 218.11 129.54 217.39 130.33 217.1 130.91 217.1 131.63 216.82 131.99 216.03 132.56 215.52 133.21 214.3 133.5 212.72 134.43 212.57 134.79 212.07 134.87 211.35 135.37 210.85 135.44 210.56 136.02 210.41 137.24 209.77 137.67 210.06 137.96 210.7 138.17 210.99 138.46 211.49 138.39 211.85 138.75 211.78 139.18 212.14 139.47 212.43 139.97 212 141.41 212.07 141.99 212.43 142.13 212.65 141.91 212.79 141.91 213 142.56 213.51 142.06 214.66 142.35 214.87 142.63 215.81 142.92 216.03 143.14 216.75 142.78 217.9 143.5 218.11 143.93 218.04 144.5 218.33 144.65 218.9 144.72 219.26 144.57 219.33 144.94 219.62 144.94 220.05 144.5 220.27 144.86 221.2 144.86 221.56 144.72 222.57 145.51 224.22 145.44 225.02 145.44 225.16 145.22 225.81 145.37 226.53 144.86 227.03 144.72 227.1 144.43 227.46 144.86 227.75 144.72 227.89 144.5 228.18 144.65 229.04 144.14 229.33 144.22 230.19 144.14 233.07 151.05 232.78 152.49 232.06 155.51 233.86 157.45 235.45 158.1 235.95 157.74 235.95 158.24 240.41 159.32 239.98 161.05 244.29 160.04 246.52 160.9 246.81 162.34 248.9 161.41 248.32 160.26 251.63 159.18 268.17 156.16 268.1 156.01 268.25 155 268.82 154.29 269.04 153.57 269.61 152.85 269.4 150.19" style="fill:#2161ac;stroke:#f6f6f6;stroke-linejoin:round;stroke-width:2.1578402715337877px"/><polygon points="292.34 191.4 291.62 191.69 291.05 192.12 290.33 192.12 289.97 191.83 289.82 191.11 289.39 190.75 289.03 189.53 288.46 188.96 288.31 188.45 286.37 188.31 284.14 187.8 282.13 187.52 280.98 186.8 280.11 185.79 277.31 185.72 276.3 184.71 276.8 182.99 276.16 182.12 275.65 180.54 273.71 178.6 273.5 178.02 273.57 177.52 260.33 189.46 257.17 188.52 257.67 184.78 254.87 185.14 254.58 186.08 250.91 185.93 249.97 185.93 247.75 183.92 246.74 179.82 243.14 178.67 241.56 179.53 240.41 180.9 241.78 183.92 243.36 186.44 241.99 188.88 238.4 188.59 235.37 193.13 234.94 195.21 234.73 196.29 234.66 196.15 233.5 196.36 231.06 196.94 230.91 196.29 228.25 196.79 228.04 197.23 225.88 197.23 226.02 197.59 226.53 200.32 227.32 199.24 229.26 201.47 229.55 201.69 227.39 202.62 225.66 203.99 227.97 205.93 228.83 207.8 228.76 208.09 229.84 208.66 229.69 209.81 231.13 210.6 230.05 214.92 230.56 216.14 231.56 215.35 233.14 214.85 236.02 214.56 235.3 218.09 234.37 219.38 233.72 220.17 233.86 220.68 234.01 223.05 234.37 224.27 234.37 226.07 233.58 230.03 241.13 233.19 243 229.52 245.52 226.86 245.16 226.72 246.24 225.13 248.18 218.3 248.1 217.58 248.82 215.78 250.91 213.77 253.28 212.62 253.86 212.98 256.02 212.98 256.09 211.4 257.02 210.6 257.1 212.62 256.95 212.98 257.31 213.27 257.6 213.99 262.27 213.55 262.49 213.55 262.42 213.05 262.99 212.69 263.35 212.84 263.93 212.62 264.43 213.05 264.65 212.98 264.36 211.76 267.38 213.27 269.25 212.62 269.47 213.55 271.77 213.55 273.86 213.63 276.8 211.4 286.66 211.54 287.09 209.74 287.38 209.45 287.31 208.88 287.88 207.15 287.67 206.43 288.53 205.28 288.6 205 289.03 204.56 289.75 203.56 289.82 203.2 290.54 202.48 290.54 202.33 290.11 201.69 290.54 201.76 290.54 201.61 291.48 201.11 291.26 200.82 290.47 200.68 290.47 198.52 290.62 197.87 290.25 196.15 290.47 195.5 290.54 194.49 291.19 194.21 291.41 193.99 291.69 193.41 292.41 192.91 292.7 192.41 293.2 191.9 293.2 191.69 292.34 191.4" style="fill:#2161ac;stroke:#f6f6f6;stroke-linejoin:round;stroke-width:2.1578402715337877px"/><polygon points="245.16 280.88 244.15 279.51 243.57 279.23 241.78 281.6 240.98 282.32 240.26 282.61 239.62 282.32 239.33 281.89 240.48 274.48 240.34 273.25 240.55 269.23 239.76 268 240.41 267 240.26 266.28 239.47 266.28 239.04 265.99 238.61 265.13 238.11 264.62 238.68 264.19 231.63 261.67 229.55 252.32 222 254.55 220.63 259.8 217.61 261.67 214.8 260.74 211.28 258.44 210.63 256.57 210.63 257.43 210.34 258.29 210.13 258.73 209.77 258.87 209.41 259.44 195.96 253.26 195.02 251.1 195.38 257.21 195.31 257.36 195.31 258.15 195.45 258.8 194.01 259.23 192.15 258.29 191.5 259.37 191.5 259.73 191.93 260.52 191.93 261.39 190.92 261.75 190.28 262.11 188.62 262.03 187.97 265.92 186.53 269.87 186.18 271.96 185.17 273.61 184.45 275.7 183.08 280.16 178.19 280.23 171.14 281.45 169.42 281.89 166.68 282.53 158.05 282.82 158.41 281.96 137.34 282.1 137.48 281.38 133.24 285.99 129.64 295.55 125.54 302.89 129.64 309.43 133.74 315.91 134.31 315.48 135.18 315.05 138.2 314.25 141.15 312.24 143.38 309.58 143.67 309.51 144.89 309.22 145.75 308.79 147.05 307.49 147.55 307.13 148.7 306.99 149.71 307.13 150.28 307.49 151.36 308.86 152.8 311.16 153.74 312.02 154.67 312.02 155.53 312.96 156.32 313.25 156.47 313.39 156.97 314.4 157.26 314.61 157.55 314.54 157.84 314.04 158.99 314.04 159.63 313.61 160.06 313.46 160.64 313.61 161 314.25 161.29 314.4 162.15 313.97 162.87 312.38 163.45 312.31 164.09 312.89 164.24 312.53 164.45 312.45 164.67 312.17 165.1 312.53 165.24 312.45 165.39 312.81 165.82 312.74 166.32 313.03 166.4 313.32 166.83 313.46 167.19 313.18 167.47 313.32 167.62 314.25 167.76 314.18 169.7 313.82 169.99 313.89 170.85 313.53 171.57 313.82 172.22 314.83 172.29 315.05 172.08 316.12 172.08 316.7 172.51 317.99 172.58 318.64 172.8 319 173.66 319.43 174.67 319.36 176.18 321.09 176.32 321.09 177.54 320.44 177.9 320.51 178.19 320.87 178.26 321.95 178.62 322.74 178.69 323.75 179.49 323.89 181.28 323.6 181.43 323.24 181.64 322.31 182.29 322.02 182.79 321.37 183.51 320.8 183.37 319.58 183.87 319.65 184.74 320.22 185.53 320.44 186.46 320.08 187.11 320.15 187.47 319.94 187.97 320.08 188.84 318.86 189.2 318.35 189.63 317.99 190.42 318.28 191.35 317.92 192.65 318.28 194.01 317.85 194.3 317.35 194.09 316.7 194.23 316.41 194.88 316.2 195.96 316.41 196.39 316.12 196.96 315.33 197.25 314.18 197.32 314.04 198.4 313.32 200.13 312.53 200.2 312.31 200.42 311.09 201.78 310.37 202.07 309.72 203.44 309.22 204.44 309.22 205.6 308.28 206.46 308 207.39 308.43 207.97 308.36 208.62 308.07 210.63 308.14 212.36 307.92 213.94 306.7 214.59 306.7 215.38 306.7 216.03 306.41 217.03 307.13 218.33 306.41 219.05 306.99 219.98 307.28 220.56 307.71 220.92 307.78 221.28 307.56 221.56 306.85 222.43 306.56 223.07 305.84 223.58 305.84 224.22 306.13 224.59 306.05 225.45 303.61 226.38 302.46 226.38 301.67 227.53 300.59 228.25 300.16 229.4 299.15 229.55 297.93 229.55 296.85 229.69 295.7 229.91 295.34 231.99 295.26 232.43 294.83 232.43 294.19 234.37 293.97 234.66 293.83 234.73 293.32 235.3 293.18 235.45 292.68 235.88 292.75 236.24 292.6 237.17 292.6 237.32 293.25 238.32 292.89 238.32 291.74 238.9 291.31 239.33 290.23 239.47 290.01 240.05 289.65 239.91 288.94 240.26 288.29 240.7 288.22 240.98 287.35 241.7 287.35 242.13 286.7 243.57 285.12 243.93 285.48 244.51 284.12 245.08 282.82 245.3 281.89 245.88 281.1 246.02 281.02 245.16 280.88" style="fill:#2161ac;stroke:#f6f6f6;stroke-linejoin:round;stroke-width:2.1578402715337877px"/><polygon points="286.66 211.54 276.8 211.4 273.86 213.63 271.77 213.55 269.47 213.55 269.25 212.62 267.38 213.27 264.36 211.76 264.65 212.98 264.43 213.05 263.93 212.62 263.35 212.84 262.99 212.69 262.42 213.05 262.49 213.55 262.27 213.55 257.6 213.99 257.31 213.27 256.95 212.98 257.1 212.62 257.02 210.6 256.09 211.4 256.02 212.98 253.86 212.98 253.28 212.62 250.91 213.77 248.82 215.78 248.1 217.58 248.18 218.3 246.24 225.13 245.16 226.72 245.52 226.86 243 229.52 241.13 233.19 240.05 235.49 245.88 237.87 244.87 242.25 238.54 244.63 241.2 247.29 241.13 247.94 240.77 249.09 240.91 249.23 240.91 249.59 241.34 249.81 241.34 250.17 241.56 250.31 241.92 250.31 241.92 250.45 242.21 250.45 242.5 251.03 242.42 251.39 241.99 252.11 242.06 252.4 243.65 253.12 242.35 253.55 239.4 257.57 240.05 258.73 246.24 258.8 246.16 258.94 246.31 259.37 246.02 259.52 245.95 259.8 245.73 259.73 245.44 260.24 245.23 260.16 244.8 260.45 244.87 260.74 245.08 260.95 244.58 260.81 244.22 261.39 243.36 261.67 242.85 261.67 242.78 262.03 242.5 262.32 241.49 262.61 239.91 263.76 239.04 263.69 238.68 264.19 238.11 264.62 238.61 265.13 239.04 265.99 239.47 266.28 240.26 266.28 240.41 267 239.76 268 240.55 269.23 240.34 273.25 240.48 274.48 239.33 281.89 239.62 282.32 240.26 282.61 240.98 282.32 241.78 281.6 243.57 279.23 244.15 279.51 245.16 280.88 246.02 281.02 246.45 280.88 247.03 281.02 248.03 281.02 249.33 280.23 250.34 278.79 251.92 278.87 252.56 278.58 252.85 278.22 253.57 278.07 254.15 277.5 254.07 276.42 253.86 276.06 254.29 275.92 254.44 275.56 255.37 275.63 255.44 275.41 255.87 275.13 256.67 273.4 256.81 272.82 257.46 272.82 257.81 273.18 258.61 272.82 258.89 272.32 259.18 272.25 259.54 271.82 259.9 271.1 260.12 269.95 261.41 270.38 261.48 268.87 261.92 268.08 263.43 267.57 263.71 266.56 264.65 266.49 265.37 267.14 265.37 267.36 265.73 267.5 265.8 267.64 266.66 268.22 267.24 268.72 267.81 268.29 268.32 267.64 268.39 266.93 268.1 266.49 268.68 266.21 268.89 265.92 268.82 265.2 268.53 265.06 268.75 264.55 269.75 264.62 270.19 264.91 270.4 265.41 270.4 265.63 271.41 265.7 272.2 264.84 272.06 263.62 272.27 263.26 272.2 262.9 273.5 262.75 273.78 262.18 274.07 261.96 274 261.75 273.93 261.53 274.14 261.24 273.93 259.8 274.57 259.52 274.79 259.23 275.73 259.08 276.08 258.51 276.44 258.37 277.38 258.29 277.45 258.22 277.74 257.36 278.1 257.21 278.53 256.64 278.96 256.42 279.25 256.06 279.32 255.42 279.68 255.13 280.4 255.2 280.47 254.84 280.62 254.7 280.98 254.34 282.42 254.84 282.42 254.55 282.92 254.26 282.85 253.62 282.63 253.33 282.27 252.61 282.56 251.6 283.28 249.88 283.57 249.23 285.08 246.14 285.08 245.78 285.08 245.35 285.36 241.61 285.08 240.1 284.93 239.81 284.5 239.3 284.14 239.02 283.64 238.73 281.12 238.08 279.97 237.58 279.03 236.64 278.82 234.92 279.39 233.19 280.26 231.32 280.4 229.45 279.97 228.66 278.1 226.14 277.09 223.91 277.16 223.12 277.52 222.4 279.11 222.11 279.68 221.83 279.97 221.25 284.86 219.31 285.22 217.08 285.22 216.5 286.3 215.64 286.59 215.06 286.44 213.77 286.66 211.54" style="fill:#2161ac;stroke:#f6f6f6;stroke-linejoin:round;stroke-width:2.1578402715337877px"/><polygon points="246.16 258.94 246.24 258.8 240.05 258.73 239.4 257.57 242.35 253.55 243.65 253.12 242.06 252.4 241.99 252.11 242.42 251.39 242.5 251.03 242.21 250.45 241.92 250.45 241.92 250.31 241.56 250.31 241.34 250.17 241.34 249.81 240.91 249.59 240.91 249.23 240.77 249.09 241.13 247.94 241.2 247.29 238.54 244.63 244.87 242.25 245.88 237.87 240.05 235.49 241.13 233.19 233.58 230.03 234.37 226.07 234.37 224.27 234.01 223.05 233.86 220.68 233.72 220.17 234.37 219.38 235.3 218.09 236.02 214.56 233.14 214.85 231.56 215.35 230.56 216.14 230.05 214.92 231.13 210.6 229.69 209.81 229.84 208.66 228.76 208.09 228.83 207.8 227.97 205.93 225.66 203.99 227.39 202.62 229.55 201.69 229.26 201.47 227.32 199.24 226.53 200.32 226.02 197.59 225.81 198.09 222.79 194.21 220.92 192.98 220.92 188.74 220.2 185.43 220.63 184.35 220.41 184.21 217.61 183.13 217.03 182.99 215.02 183.42 214.01 183.92 210.2 184.14 208.47 184.35 207.47 183.27 204.16 182.05 202.72 181.69 202.57 178.09 200.34 178.81 199.63 184.71 195.38 185.14 195.02 185.57 192.15 187.09 189.12 189.82 187.9 191.4 190.35 195.28 188.98 199.38 187.76 200.75 186.97 200.25 186.46 205.35 187.18 208.3 186.1 210.46 188.76 218.73 189.77 219.09 190.56 219.24 192.22 218.52 200.2 220.46 202.07 221.25 202.43 221.11 206.82 221.39 209.12 225.35 206.89 230.17 206.82 230.46 203.08 230.31 208.19 234.84 206.03 240.96 207.68 242.04 212.57 245.49 214.37 246.64 215.81 247.65 228.83 248.87 229.55 252.04 229.55 252.32 231.63 261.67 238.68 264.19 239.04 263.69 239.91 263.76 241.49 262.61 242.5 262.32 242.78 262.03 242.85 261.67 243.36 261.67 244.22 261.39 244.58 260.81 245.08 260.95 244.87 260.74 244.8 260.45 245.23 260.16 245.44 260.24 245.73 259.73 245.95 259.8 246.02 259.52 246.31 259.37 246.16 258.94" style="fill:#2161ac;stroke:#f6f6f6;stroke-linejoin:round;stroke-width:2.1578402715337877px"/><polygon points="259.54 68.26 258.25 67.97 257.89 67.4 257.74 66.75 257.02 66.1 257.17 65.96 257.31 65.74 258.03 63.87 257.81 63.08 258.46 62.65 258.39 62.15 258.18 61.93 257.1 62 256.31 61.71 255.73 61.71 255.3 61.43 255.23 61.07 254.79 61.21 254.44 61.07 254 61.43 252.85 61.64 252.06 62 251.92 61.93 251.92 61.5 252.56 60.99 252.28 60.49 252.13 59.77 252.35 59.56 252.35 59.27 252.56 59.2 252.85 58.69 253.07 58.77 253.5 57.47 253.07 56.1 252.28 55.38 252.21 54.81 251.63 54.16 251.56 53.87 251.27 53.73 251.13 53.3 251.27 52.94 250.84 52 250.55 52.08 250.34 51.86 249.97 52.29 249.69 52.08 251.41 50.49 251.92 49.7 251.56 48.91 250.77 49.49 249.11 47.98 248.1 45.75 243.07 49.56 242.5 47.04 243.65 46.61 242.93 44.59 240.84 44.52 242.28 42.73 239.69 42.15 239.4 41.72 233.43 43.3 232.14 44.52 228.9 44.81 228.9 40.78 227.68 40.14 226.67 42.65 223.22 47.11 220.63 45.17 220.63 44.88 220.49 43.95 220.56 43.3 219.91 43.16 219.98 42.58 219.84 42.29 219.98 41.36 220.41 40.71 220.13 40.14 220.56 39.49 220.99 39.2 221.28 38.41 221.06 38.12 218.25 37.76 218.18 37.12 217.39 36.97 216.03 37.04 215.45 36.83 215.16 36.54 214.51 36.32 214.95 35.46 214.59 34.38 214.3 34.52 213.29 34.52 212.43 33.95 212.72 33.73 213.36 32.66 214.01 31.86 211.06 29.42 211.21 29.85 210.41 30.14 209.91 31.5 208.33 31.72 208.19 31.86 207.75 32.37 207.82 33.3 207.47 33.73 207.54 33.45 207.25 33.81 205.67 33.59 204.3 34.17 203.51 34.52 203.08 34.52 202.07 33.81 201.57 33.66 200.49 34.38 199.55 34.52 198.69 34.31 198.69 34.88 198.4 35.46 197.9 35.6 197.61 35.46 197.54 34.81 197.25 34.6 196.82 34.67 196.03 35.75 195.6 36.11 195.24 36.11 194.88 36.04 194.3 35.46 194.23 34.38 194.01 34.38 193.73 34.31 193.51 34.74 193.37 35.75 192.29 36.4 192 36.76 192.15 37.62 190.71 39.42 190.28 40.06 188.55 40.78 188.19 42.01 187.83 42.65 187.33 42.94 186.32 43.95 185.46 45.03 185.17 45.89 185.17 46.32 185.81 47.54 185.67 48.12 185.1 49.13 185.31 49.85 185.81 50.42 185.6 50.56 184.95 51.14 183.3 54.38 183.3 54.74 183.08 56.03 182.51 56.68 180.35 58.26 179.99 59.34 182 62.72 182.72 63.23 183.87 64.38 184.74 64.81 184.88 64.66 186.25 63.87 186.82 66.39 188.12 71.06 189.27 72.94 191.43 76.39 194.45 76.39 196.1 75.88 197.4 76.32 197.54 76.17 207.82 78.11 207.97 77.97 208.47 78.19 208.83 77.68 208.47 76.53 208.69 75.52 208.47 74.73 207.97 74.37 208.33 73.8 208.33 73.37 207.82 72.94 208.69 72.86 209.48 72.94 209.77 73.08 211.21 73.01 211.35 72.65 211.93 72.72 212.36 73.15 216.1 72.79 217.03 73.01 217.03 76.39 215.81 76.82 216.17 77.32 216.03 77.68 216.24 78.26 216.67 78.11 217.1 78.4 217.25 78.33 217.46 78.62 218.47 79.19 218.47 79.7 218.97 80.2 219.41 80.06 220.2 80.27 220.56 80.49 221.28 80.2 221.64 80.42 221.78 80.56 221.92 80.49 222.14 80.63 222.21 81.21 222.57 81.35 223.36 82 223.87 81.78 224.37 82 224.66 82.36 224.66 82.64 224.94 82.93 225.09 82.93 225.16 83.51 225.38 83.58 225.52 83.87 225.74 83.72 225.95 84.16 226.96 84.37 227.03 84.66 227.25 84.73 227.32 85.16 227.61 85.45 227.97 85.45 228.11 85.67 228.18 85.45 228.25 85.38 228.47 85.45 228.25 85.67 228.47 85.81 228.4 86.03 228.61 86.1 228.61 86.03 228.61 86.24 228.83 86.31 228.83 86.46 228.97 86.53 228.9 86.67 229.19 86.75 229.26 86.96 228.9 87.97 227.46 92.5 228.9 93.22 233.58 98.9 235.59 101.49 243.72 98.61 244.51 98.54 249.97 98.47 252.21 95.95 252.06 95.74 252.78 95.23 252.71 94.87 253.07 94.37 254.29 93.15 255.66 91.49 255.08 91.28 254.29 90.13 253.07 89.26 252.85 88.83 253.21 88.04 253.43 87.46 253.21 87.32 252.78 87.11 252.42 87.03 252.56 86.89 253.43 86.82 253.79 86.1 254.07 85.95 254.22 85.02 254.87 84.37 254.94 83.15 255.44 82.21 255.44 80.92 256.31 79.48 256.31 78.11 256.81 77.47 257.53 76.17 258.18 75.74 258.18 75.45 258.25 74.88 257.38 71.14 259.11 68.76 259.54 68.26" style="fill:#2161ac;stroke:#f6f6f6;stroke-linejoin:round;stroke-width:2.1578402715337877px"/></g></g></g></svg>