<svg xmlns="http://www.w3.org/2000/svg" viewBox="0 0 500 500"><title>Megafone_1</title><g id="Layer_2" data-name="Layer 2"><g id="Layer_1-2" data-name="Layer 1"><circle cx="250" cy="250" r="250" style="fill:#e0edf3"/><polygon points="227.14 428.99 185.26 441.3 131.46 315.59 173.33 303.28 227.14 428.99" style="fill:#cfd8dc"/><polygon points="190.27 359.68 205.43 339.33 185.03 285.76 167.76 302.75 190.27 359.68" style="fill:#cfd8dc"/><path d="M222.16,302.64,115.68,334a27.48,27.48,0,0,1-34.12-18.61L65.43,260.48a27.48,27.48,0,0,1,18.62-34.12l106.48-31.3Z" style="fill:#57a0d7"/><path d="M425.52,324.81c-75.67-10.69-177.06-29.9-203.36-22.17L190.53,195.06C225.17,184.87,293.44,115.7,349,64.61Z" style="fill:#cfd8dc"/><polygon points="435.69 324.07 425.52 324.81 349.03 64.61 357.67 58.7 435.69 324.07" style="fill:#78909c"/></g></g></svg>