<svg xmlns="http://www.w3.org/2000/svg" viewBox="0 0 766.1 300"><title>Ministério da Saúde</title><g id="Layer_2" data-name="Layer 2"><g id="Layer_1-2" data-name="Layer 1"><path d="M192.42,0c0,.39,0,.78,0,1.17v119c0,.38,0,.77,0,1.16a3.87,3.87,0,0,1-.63-.87L144.23,48.06a2.67,2.67,0,0,0-.61-.79l-.4.57a126.86,126.86,0,0,1-7.63,10.52,92.1,92.1,0,0,1-12.68,13.21,42.86,42.86,0,0,1-9.23,6.08,20.89,20.89,0,0,1-9.56,2.23c-1,0-1.93-.24-2.89-.32a11.49,11.49,0,0,1-7.93-7.23,31.49,31.49,0,0,1-2.09-8.54,58.89,58.89,0,0,1-.31-7.15q0-27.74,0-55.47c0-.39,0-.78,0-1.17Z" style="fill:#00643b"/><path d="M0,90.37l121.83,0s.09,0,.15.06a.43.43,0,0,1-.22.41,2,2,0,0,0-.91.36L92.34,105.74l-64,32.58a2.44,2.44,0,0,0-.85.52,2.84,2.84,0,0,0,.82.47c3.55,1.65,7.12,3.26,10.65,4.95a192.07,192.07,0,0,1,21.71,12A80.38,80.38,0,0,1,72,164.94a32.64,32.64,0,0,1,6.13,7.42,15.35,15.35,0,0,1,1.87,5c.15.85.06,1.72.18,2.57-.07.29-.16.59-.21.89a9.55,9.55,0,0,1-4.21,6.35,19.71,19.71,0,0,1-6.48,2.77,38.4,38.4,0,0,1-9.48,1.17q-29.89,0-59.77,0Z" style="fill:#00643b"/><path d="M352.91,220.3a23.88,23.88,0,0,0-5.32-.7,81.67,81.67,0,0,1-14.25-2.45c-.38-.11-.75-.21-1.11-.34-2.06-.74-2.23-.44-1.86-2.94.89-6,1.64-12,2.45-18,.07-.5,0-1.05.54-1.4a4.4,4.4,0,0,1,1.77.71,51,51,0,0,0,18,4.64,50,50,0,0,0,10.8,0,19.88,19.88,0,0,0,6.84-1.94,8,8,0,0,0,2.1-12.74,15.72,15.72,0,0,0-5.3-3.47,106.32,106.32,0,0,0-11.92-3.89,80.68,80.68,0,0,1-8.93-3.12c-1.24-.54-2.46-1.13-3.65-1.77-8.07-4.31-12.27-11.12-12.94-20.17a31.67,31.67,0,0,1,.81-10.36,24.21,24.21,0,0,1,11.75-15.17,45.76,45.76,0,0,1,16.78-5.5,87.64,87.64,0,0,1,21.59-.36A44.23,44.23,0,0,1,393.31,124c1.86.74,1.87.76,1.69,2.66q-.78,7.89-1.58,15.77c-.24,2.3-.26,2.29-2.42,1.51a53.6,53.6,0,0,0-25.88-2.56,15.73,15.73,0,0,0-6.68,2.37c-4.47,3-4.56,8.7-.16,11.8a21,21,0,0,0,6.11,2.83c4.31,1.32,8.65,2.55,13,3.86a52.79,52.79,0,0,1,9.64,4c7.56,4.09,12.05,10.32,13,18.94a34.61,34.61,0,0,1-1.52,15.08c-2.33,6.75-6.93,11.5-13.24,14.68A46,46,0,0,1,371,219.15c-1.15.18-2.31.27-3.45.44-.46.06-1.1-.07-1.12.71h-.77c-.91-.7-1.81-.37-2.71,0Z" style="fill:#2b2f71"/><path d="M657.18,95.13c-.34,0-.28.27-.32.47a22.36,22.36,0,0,1-.75,2.81,14.37,14.37,0,0,1-10.41,9.67,23.35,23.35,0,0,1-12.76-.15,14.18,14.18,0,0,1-10-9.8,24.36,24.36,0,0,1-.1-14.54,14.34,14.34,0,0,1,10.87-10.33,23.64,23.64,0,0,1,12,.07c5.7,1.53,9.24,5.28,10.79,11,.15.53.24,1.08.37,1.62,0,.18,0,.42.31.39v.5a1.06,1.06,0,0,0,0,1.17v5.5a1.06,1.06,0,0,0,0,1.17Zm-25.84-4a19.29,19.29,0,0,0,.34,3.48,11.54,11.54,0,0,0,1.8,4.62,6.3,6.3,0,0,0,4.08,2.66,10.25,10.25,0,0,0,2.82.07,7,7,0,0,0,5.84-3.74,10.58,10.58,0,0,0,1-2.39,19,19,0,0,0,.62-6.19,14.73,14.73,0,0,0-1.56-6.09,7.57,7.57,0,0,0-9.84-3.47,7.25,7.25,0,0,0-4,4.42A18.08,18.08,0,0,0,631.34,91.1Z" style="fill:#2b2f71"/><path d="M699,150.64a1,1,0,0,1,0-1.17Z" style="fill:#000001"/><path d="M699,144a1,1,0,0,1,0-1.17Z" style="fill:#000001"/><path d="M363,220.3c.9-.37,1.8-.7,2.71,0Z" style="fill:#000001"/><path d="M180.94,201.74l1.7.4a10,10,0,0,1,6.58,5.22,23.56,23.56,0,0,1,2.52,7.29,43.45,43.45,0,0,1,.73,8.21q0,28.5,0,57c0,1.76.15,1.57-1.56,1.57H92.36c-1.53,0-1.46.18-1.46-1.42V161.32a8.36,8.36,0,0,1,0-1c0-.26.18-.32.4-.14-.11.06-.18.15-.11.27s.3.47.45.7l23.92,36.42,23.57,35.86c.18.27.29.6.64.76.15-.21.3-.41.43-.62,2-3.15,4.22-6.19,6.54-9.15a95.65,95.65,0,0,1,12.79-13.67A44.74,44.74,0,0,1,169.64,204a20.92,20.92,0,0,1,10.63-2.23A5,5,0,0,0,180.94,201.74Z" style="fill:#00643b"/><path d="M203.29,100.49c.24-.59.48-1.18.73-1.77a9.75,9.75,0,0,1,3.61-4.37,20,20,0,0,1,7.11-2.95,40.55,40.55,0,0,1,9.25-1h58.26c1,0,1,0,1,1,0,5.14,0,10.28,0,15.41v82.77c0,.33,0,.67,0,1s-.18.5-.52.5H162a1.88,1.88,0,0,1-.91-.08c.31-.13.62-.26.91-.41l15.53-7.87,77.84-39.46a3.18,3.18,0,0,0,.9-.51.91.91,0,0,0,0-.12l-.84-.38q-10.6-4.42-20.75-9.86A139.71,139.71,0,0,1,217.87,122,56.48,56.48,0,0,1,208,113a22.1,22.1,0,0,1-3.84-6.2,11.06,11.06,0,0,1-.8-5.71C203.41,100.91,203.49,100.67,203.29,100.49Z" style="fill:#00643b"/><path d="M141.56,103.77a36.73,36.73,0,1,1-36.79,36.35A36.67,36.67,0,0,1,141.56,103.77Z" style="fill:#2b2f71"/><path d="M203.29,100.49c.2.18.12.42.09.63a11.06,11.06,0,0,0,.8,5.71A22.1,22.1,0,0,0,208,113a56.48,56.48,0,0,0,9.85,8.94,139.71,139.71,0,0,0,16.75,10.42q10.14,5.45,20.75,9.86l.84.38a.91.91,0,0,1,0,.12,3.18,3.18,0,0,1-.9.51L177.5,182.72,162,190.59c-.29.15-.6.28-.91.41a27.71,27.71,0,0,1,1.22-2.73l40.45-86.49C202.93,101.35,203.11,100.92,203.29,100.49Z" style="fill:#f9cf0c"/><path d="M80.15,179.9c-.12-.85,0-1.72-.18-2.57a15.35,15.35,0,0,0-1.87-5A32.64,32.64,0,0,0,72,164.94a80.38,80.38,0,0,0-11.29-8.67,192.07,192.07,0,0,0-21.71-12c-3.53-1.69-7.1-3.3-10.65-4.95a2.84,2.84,0,0,1-.82-.47,2.44,2.44,0,0,1,.85-.52l64-32.58,28.51-14.52a2,2,0,0,1,.91-.36q-3.33,7.17-6.68,14.33Q97.82,142.09,80.57,179Z" style="fill:#f9cf0c"/><path d="M101.23,79.56c1,.08,1.91.3,2.89.32a20.89,20.89,0,0,0,9.56-2.23,42.86,42.86,0,0,0,9.23-6.08,92.1,92.1,0,0,0,12.68-13.21,126.86,126.86,0,0,0,7.63-10.52l.4-.57a2.67,2.67,0,0,1,.61.79l47.54,72.37a3.87,3.87,0,0,0,.63.87c-.37.1-.63-.16-.92-.29l-40.34-18.5L102.19,80C101.86,79.89,101.55,79.72,101.23,79.56Z" style="fill:#f9cf0c"/><path d="M180.94,201.74a5,5,0,0,1-.67,0A20.92,20.92,0,0,0,169.64,204a44.74,44.74,0,0,0-10.07,6.76,95.65,95.65,0,0,0-12.79,13.67c-2.32,3-4.5,6-6.54,9.15-.13.21-.28.41-.43.62-.35-.16-.46-.49-.64-.76L115.6,197.57,91.68,161.15c-.15-.23-.31-.46-.45-.7s0-.21.11-.27l23.46,10.88,65.48,30.34Z" style="fill:#f9cf0c"/><path d="M368.23,81.55c-.17.44-.27.7-.35,1q-4.12,12.38-8.25,24.74c-.45,1.34-.19,1.17-1.67,1.18h-6.33c-1,0-1,0-1.28-.9l-7.89-24.86c-.1-.31-.21-.62-.37-1.11a2.32,2.32,0,0,0-.13,1.08q0,12.18,0,24.34c0,1.6.2,1.44-1.4,1.45h-6.67c-.94,0-.95,0-.95-.91V73.85c0-.86,0-.87.9-.87h12.92c.81,0,.82,0,1.07.83q3.42,11,6.82,22l.18.55c.05.17.12.32.32.33s.29-.12.34-.29.15-.42.22-.63q3.56-10.89,7.13-21.77c.4-1.22.2-1.07,1.49-1.07,3.94,0,7.89,0,11.83,0h.67c.39,0,.57.16.56.55,0,.22,0,.44,0,.66v33c0,1.32.06,1.23-1.22,1.23h-7.33a.42.42,0,0,1-.47-.46c0-.27,0-.55,0-.83V82.71A3,3,0,0,0,368.23,81.55Z" style="fill:#2b2f71"/><path d="M685,90.92V74.44c0-1-.1-1,1-1,4.78,0,9.57-.1,14.35.07a26.17,26.17,0,0,1,8.74,1.67,13.06,13.06,0,0,1,8.35,9.44,24.17,24.17,0,0,1,.09,11.68,14.12,14.12,0,0,1-9.07,10.33,25.47,25.47,0,0,1-6.83,1.56c-1.89.18-3.78.22-5.67.22H685.58c-.49,0-.52-.05-.54-.53,0-.19,0-.38,0-.57Zm9.19.17v9.65c0,.19,0,.38,0,.57,0,.37.15.49.51.49,1.16,0,2.32,0,3.48,0a12.6,12.6,0,0,0,2.81-.3,8.81,8.81,0,0,0,7.18-6.92,14.58,14.58,0,0,0-.05-7.16,8.59,8.59,0,0,0-4.29-5.66,11.08,11.08,0,0,0-4.53-1.28c-1.42-.11-2.84-.06-4.26-.06-.85,0-.85,0-.85.87C694.23,84.56,694.23,87.82,694.23,91.09Z" style="fill:#2b2f71"/><path d="M601.93,169.45V125.17c0-.51,0-1,0-1.54,0-1.64.09-1.73,1.8-1.72,13.46,0,26.94-.28,40.4.19a73.38,73.38,0,0,1,20.68,3.6c14.13,4.69,22.79,14.28,25.82,28.87a67.66,67.66,0,0,1-.07,28.58c-3.1,14-11.39,23.69-24.72,29a68.54,68.54,0,0,1-18.75,4.32,180.32,180.32,0,0,1-18.15.6H605c-.51,0-1,0-1.54,0-1.37-.07-1.43-.12-1.49-1.44,0-.57,0-1.16,0-1.74Zm24.89.56v25.91c0,.45,0,.9,0,1.35,0,1.73,0,1.76,1.72,1.77,3.1,0,6.19,0,9.28,0a33.5,33.5,0,0,0,7.67-.82c10.43-2.32,17.07-8.6,19.56-19.05A39.71,39.71,0,0,0,665,160.4c-1.58-6.53-5-11.82-10.85-15.36a29.36,29.36,0,0,0-13.37-4c-3.86-.29-7.73-.24-11.59-.22-2.34,0-2.35,0-2.35,2.35Z" style="fill:#2b2f71"/><path d="M452,121.9c4.32,0,8.64,0,13,0,2.72,0,2.4-.14,3.31,2.24Q482,160.4,495.72,196.63l6.86,18.08c.18.48.34,1,.51,1.46s0,.86-.61.9c-.38,0-.77,0-1.16,0H477.53c-2,0-2,0-2.72-1.94q-2.88-8.21-5.75-16.42c-.59-1.66-.61-1.68-2.29-1.68q-16.44,0-32.88,0c-1.6,0-1.62,0-2.17,1.58-2,5.54-3.87,11.07-5.82,16.61-.64,1.84-.65,1.85-2.59,1.85H401.46c-.39,0-.78,0-1.16,0-.57,0-.84-.3-.64-.88s.34-1,.53-1.46q17.54-45,35.09-90.07c1.21-3.07.45-2.74,4.12-2.76C443.59,121.88,447.78,121.9,452,121.9Zm-2.58,20.57a2.49,2.49,0,0,0-.76,1.48q-5.36,16.52-10.7,33c-.64,2-.62,2,1.49,2q9.75,0,19.5,0c2.53,0,2.53,0,1.75-2.41q-5.24-16.15-10.49-32.3A3.86,3.86,0,0,0,449.4,142.47Z" style="fill:#2b2f71"/><path d="M742.43,73.46h4.9c.77,0,.77,0,1,.74q4.67,12.28,9.31,24.57,1.68,4.41,3.35,8.83c.31.81.3.83-.56.83h-8.67c-.73,0-.73,0-1-.73l-2.1-6c-.24-.67-.24-.68-.94-.68H736.28c-.73,0-.69-.08-.95.66q-1,3-2.09,6c-.25.74-.26.74-1,.74h-8c-.77,0-.78,0-.5-.75q6.35-16.77,12.7-33.53c.26-.69.27-.69,1-.69ZM741.85,81a.93.93,0,0,0-.27.54q-2,6.06-3.94,12.14c-.23.72-.23.73.55.73h7.24c.85,0,.85,0,.6-.8q-1.93-6-3.88-11.94A1.26,1.26,0,0,0,741.85,81Z" style="fill:#2b2f71"/><path d="M585.94,153.6c0,9.54,0,19.08,0,28.62a42.57,42.57,0,0,1-2.39,14c-3.68,10.26-10.94,16.8-21.15,20.19A56.38,56.38,0,0,1,541.21,219a53.5,53.5,0,0,1-15.14-2.8c-11.76-4.21-18.72-12.54-21.28-24.68a55.91,55.91,0,0,1-1-11.54q0-27.75,0-55.5c0-.13,0-.26,0-.39,0-2.13,0-2.15,2.17-2.15q10.34,0,20.69,0c.38,0,.77,0,1.16,0a.88.88,0,0,1,1,1c0,.64,0,1.29,0,1.93q0,26.88,0,53.76a37.47,37.47,0,0,0,1.11,9.19,28.64,28.64,0,0,0,.85,2.77c2.3,6.1,6.76,9.26,13.22,9.53,4.61.19,8.84-.89,12.06-4.51a17.47,17.47,0,0,0,3.63-7.18,44.44,44.44,0,0,0,1.27-11.88V134.16c0-3.42,0-6.84,0-10.25,0-1.94,0-2,1.92-2q10.53,0,21.08,0c2,0,2,0,2,2.11q0,14.79,0,29.59Z" style="fill:#2b2f71"/><path d="M415.65,84.46v22.85c0,1.16.09,1.12-1.15,1.12h-6.34l-.66,0a.39.39,0,0,1-.41-.42V74.07a1,1,0,0,1,0-.17c0-.91,0-.92.92-.92,3.42,0,6.83,0,10.25,0a1.22,1.22,0,0,1,1.27.79Q425.07,84.91,430.66,96a2.76,2.76,0,0,0,.62,1V74.07c0-1.16-.07-1.09,1.08-1.09h7c.36,0,.5.18.5.52,0,.19,0,.38,0,.58v33.25a2.09,2.09,0,0,1,0,.25c0,.81,0,.83-.86.84-3.33,0-6.66,0-10,0a1.12,1.12,0,0,1-1.14-.74q-3.19-6.23-6.42-12.43c-1.74-3.36-3.47-6.71-5.22-10.06A1.33,1.33,0,0,0,415.65,84.46Z" style="fill:#2b2f71"/><path d="M698,169.56q0-22.42,0-44.86c0-3-.23-2.8,2.87-2.8H761.4c2.67,0,2.68,0,2.68,2.61,0,4.32,0,8.64,0,13,0,.52,0,1-.05,1.55a.78.78,0,0,1-.87.81l-1.74,0H725.26c-2.35,0-2.36,0-2.36,2.28v15.47c0,.39,0,.77,0,1.16-.07,1,.45,1.24,1.3,1.2.52,0,1,0,1.55,0H759.6c2.45,0,2.4-.24,2.4,2.44q0,6.66,0,13.34c0,2.13,0,2.15-2.15,2.15h-34c-3.34,0-2.89,0-2.9,2.94,0,5.22,0,10.45,0,15.67,0,.51,0,1,0,1.54s.28,1,.92,1l1.74,0h38.1c2.38,0,2.42-.29,2.42,2.43,0,4.51,0,9,0,13.54,0,2,0,2.07-2.05,2.07H700c-2,0-2,0-2-2.07Q698,192.29,698,169.56Z" style="fill:#2b2f71"/><path d="M588.5,91.68c1.87.62,2.71,2.15,3.37,3.81,1.67,4.17,3.15,8.42,4.69,12.65.23.62.19.68-.45.68-2.86,0-5.72,0-8.59,0a.74.74,0,0,1-.81-.63c-.77-2.38-1.56-4.75-2.33-7.13a25.13,25.13,0,0,0-1.45-3.72,4.6,4.6,0,0,0-4.47-2.76c-.61,0-1.23,0-1.84,0-.37,0-.57.14-.56.53,0,.23,0,.45,0,.67v11.42c0,.2,0,.39,0,.58,0,.57,0,.62-.64.62-1.58,0-3.17,0-4.75,0-1,0-2,0-3,0-.57,0-.6,0-.63-.63V74.62c0-1.28-.11-1.18,1.17-1.18,5.22,0,10.44,0,15.67,0a14.8,14.8,0,0,1,5.62,1,8.19,8.19,0,0,1,5.29,5.69,10.6,10.6,0,0,1-.68,7.16,7.31,7.31,0,0,1-4.69,4l-.88.26Zm-12.44-7.75c0,1.16,0,2.33,0,3.5,0,.68,0,.69.71.69,1.11,0,2.23,0,3.34,0a8.84,8.84,0,0,0,3.16-.66,3.46,3.46,0,0,0,2.17-2.37c.53-2.15-.07-4-2.56-4.73a6.74,6.74,0,0,0-.89-.2,28.67,28.67,0,0,0-5.32-.26c-.56,0-.61.06-.61.64C576.05,81.65,576.06,82.79,576.06,83.93Z" style="fill:#2b2f71"/><path d="M534,90.7V74.11c0-1.24,0-1.13,1.14-1.13h22.34c1.17,0,1.1-.08,1.1,1.07,0,1.67,0,3.33,0,5,0,.81,0,.83-.85.83H544.35c-1.53,0-1.36-.07-1.37,1.34V86.3c0,1,0,1,1,1,4.19,0,8.39,0,12.58,0,1.26,0,1.15-.1,1.16,1.19,0,1.44,0,2.89,0,4.33,0,.88,0,.89-.88.89-4.19,0-8.39,0-12.59,0-1.38,0-1.21,0-1.22,1.22V101c0,1,0,1,.95,1h14.34c1.19,0,1.11-.12,1.11,1.14v4.25c0,1.07,0,1.07-1.11,1.07H535.18c-.23,0-.45,0-.67,0-.39,0-.56-.17-.55-.55s0-.5,0-.75Z" style="fill:#2b2f71"/><path d="M479.66,108.83a29.06,29.06,0,0,1-9.08-1.18c-1.77-.57-1.45-.33-1.38-2s.2-3.38.3-5.07c.05-.73.06-.75.71-.46A23.6,23.6,0,0,0,480.54,102a9,9,0,0,0,2.3-.36A2.86,2.86,0,0,0,485,99.41a3.21,3.21,0,0,0-1-3.32A7.22,7.22,0,0,0,482.06,95c-1.41-.6-2.88-1-4.33-1.48a26.35,26.35,0,0,1-4.25-1.7,9,9,0,0,1-4.9-6,12.06,12.06,0,0,1,0-5.54A8.84,8.84,0,0,1,473,74.46a16.63,16.63,0,0,1,6-2,34.17,34.17,0,0,1,11.76.31c.52.11,1,.29,1.53.41a.69.69,0,0,1,.58.84c-.1,1.22-.15,2.44-.22,3.66,0,.75-.08,1.5-.13,2.25s-.09.74-.72.47a15.36,15.36,0,0,0-4.23-1.2,19.52,19.52,0,0,0-6.47.07,6.16,6.16,0,0,0-1.33.46,2.84,2.84,0,0,0-.19,5,12.77,12.77,0,0,0,2.53,1.06c1.66.52,3.37.91,5,1.48a19.7,19.7,0,0,1,3.06,1.31,8.86,8.86,0,0,1,4.82,7.5,12.36,12.36,0,0,1-.71,5.49,9.71,9.71,0,0,1-4.78,5.23,18.46,18.46,0,0,1-6.36,1.84A24.89,24.89,0,0,1,479.66,108.83Z" style="fill:#2b2f71"/><path d="M517.19,94.4v13c0,1,0,1-1,1h-7.92c-.33,0-.52-.14-.52-.49V81.59c0-1.51,0-1.28-1.32-1.28-2.16,0-4.33,0-6.5,0-.81,0-.82,0-.82-.84q0-2.79,0-5.58c0-.9,0-.9.95-.9h25.24c.41,0,.55.19.53.56v.25c0,1.92,0,3.83,0,5.75,0,.74,0,.75-.73.76-1,0-2,0-3,0h-4.17c-.72,0-.74,0-.75.76V94.4Z" style="fill:#2b2f71"/><path d="M450.8,90.64V74.32c0-.14,0-.28,0-.42,0-.91,0-.92.92-.92h8.08c.3,0,.47.14.47.45v34c0,1,0,1-1,1h-8c-.3,0-.47-.14-.47-.45v-.75Q450.8,98.94,450.8,90.64Z" style="fill:#2b2f71"/><path d="M614,90.76v16.75c0,.91,0,.92-.93.92h-8.08c-.3,0-.47-.13-.47-.45s0-.39,0-.58V73.9c0-.91,0-.92.92-.92h8.08a.41.41,0,0,1,.47.45c0,.25,0,.5,0,.75Z" style="fill:#2b2f71"/><path d="M397.51,90.7v16.41c0,.23,0,.45,0,.67,0,.59-.05.64-.61.64q-4.12,0-8.25,0c-.56,0-.59-.06-.62-.64V74.21c0-1.33-.11-1.23,1.2-1.23,2.45,0,4.89,0,7.33,0,.94,0,.95,0,.95,1Z" style="fill:#2b2f71"/><path d="M534.44,120.39l5.13-1.58,17.67-5.43c1.59-.49,1.62-.46,1.64,1.19,0,1.48,0,3,0,4.43,0,1.76,0,1.79-1.89,1.8-2.7,0-5.4,0-8.1,0H534.46Z" style="fill:#2b2f71"/><path d="M539.74,69.19l2.9-.89,10-3.08c.9-.28.91-.26.93.67s0,1.68,0,2.52c0,1,0,1-1.07,1H539.75Z" style="fill:#2b2f71"/><path d="M198.93,296.7v2.88a.36.36,0,0,1-.4.41H189l-.54,0C189.09,299.61,197.57,297,198.93,296.7Z" style="fill:#2b2f71"/></g></g></svg>