<svg xmlns="http://www.w3.org/2000/svg" viewBox="0 0 500 500"><title>Prancheta_1</title><g id="Layer_2" data-name="Layer 2"><g id="Layer_1-2" data-name="Layer 1"><path d="M500,250A250,250,0,1,1,0,250C0,111.93,111.93,0,250,0S500,111.93,500,250Z" style="fill:#e0edf3"/><path d="M419.72,235.33V433.57a249.83,249.83,0,0,1-339.43,0V235.33a18.16,18.16,0,0,1,18.16-18.16h303.1A18.16,18.16,0,0,1,419.72,235.33Z" style="fill:#cfd8dc"/><path d="M389.79,230.57V457.3a250.17,250.17,0,0,1-279.58,0V230.57Z" style="fill:#fafbfb"/><path d="M291.13,194.7h-8.54a11.25,11.25,0,0,1-11.16-11.48q0-.61,0-1.23a21.43,21.43,0,0,0-42.83,1.14v.13a11.23,11.23,0,0,1-11.16,11.44h-8.53a17.7,17.7,0,0,0-17.7,17.7V241H308.82V212.4A17.7,17.7,0,0,0,291.13,194.7Z" style="fill:#b0bec5"/><polygon points="203.97 333.58 205.63 350.43 192.37 339.9 92.08 155.89 103.68 149.56 203.97 333.58" style="fill:#57c1ef"/></g></g></svg>