<svg xmlns="http://www.w3.org/2000/svg" viewBox="0 0 720.46 209.81"><title>SESAPI</title><g id="Layer_2" data-name="Layer 2"><g id="Layer_1-2" data-name="Layer 1"><path d="M0,132.49c.38-.06.77-.09,1.14-.18,1.25-.31,2.3-.52,2.57,1.42A1.66,1.66,0,0,0,6,135.1c1.23-.35,1.45-1.29,1.29-2.44a4.26,4.26,0,0,0-1.41-2.5c-1-1-2.08-1.92-3.09-2.9a7.78,7.78,0,0,1-2.31-4c-.69-3.07.68-5.81,3.25-6.53,3.09-.85,5.67.47,6.46,3.41.13.47.79,1.37-.25,1.54s-2.2,1-2.79-.3-1.34-2-2.67-1.41c-1,.46-1.1,2.2-.23,3.55A20.1,20.1,0,0,0,7.58,127c1.67,1.6,3.07,3.34,3.07,5.93,0,2.92-1.34,4.75-4,5.37A5,5,0,0,1,.55,135.1c-.18-.4-.08-1-.55-1.21Z" style="fill:#135a83"/><path d="M295.06,137a33.65,33.65,0,0,0,2.41,6.87c2.42-4.81,5.15-6.64,9-6.08a14,14,0,0,0-1.37,3.3,16.76,16.76,0,0,1,3.2-.21c1.64.18,3.78.44,4.23,2.13s-1.12,3.15-2.46,4.24c-.65.53-1.4.93-2.16,1.43.14.1.29.23.45.34.71.49,2,.66,2,1.59s-1.13,1.48-1.92,2a5.86,5.86,0,0,1-4.47.75c-.34-.06-.79-.42-1,.08s.22.73.45,1c2.53,3.35,5.26,6.48,8.84,8.6.91.54,1,1,.48,1.88-.59,1.13-1.13.5-1.72.12a36.88,36.88,0,0,1-9.28-8.62c-.33-.44-.55-1-1.11-1.25,0,8.52-2.75,13-8.82,14.07a18.72,18.72,0,0,0,.66-5.08,10.2,10.2,0,0,1-8.59,1.78,1.87,1.87,0,0,1-1.69-2.38,10.9,10.9,0,0,1,2.84-6.17c.36-.41.81-.74,1.39-1.27-1.32-.36-2.31-.65-3.31-.89-.82-.19-1-.6-.53-1.33,1.95-3,.51-5.75-.48-8.55-.22-.62-.69-.47-1.1-.51a13.73,13.73,0,0,1-6.94-2.74,15.45,15.45,0,0,0,4.55-3,11.16,11.16,0,0,1-7.48-6.42,1.66,1.66,0,0,1,.54-2.34,10.2,10.2,0,0,1,7.34-2.07c.49,0,1,.12,1.69.22-1-1.12-.93-2.9-2.76-2.93.72-1.55,2-2.69,2.34-4.56-2.55.41-5,.43-7.28-1-2.84-1.81-3.3-1.88-1-5.26,1.31-1.89,3.28-2.87,5.49-3.74-1-.73-1.76-1.39-2.59-2s-.86-1-.1-1.57a1.1,1.1,0,0,0,.25-.23c.57-.75,2-.81,2-1.82s-1.21-1.42-1.75-2.23a7.94,7.94,0,0,0-.88-1c-1.69-1.83-1.7-1.83.14-3.47a10.05,10.05,0,0,1,3-1.82c1.11-.44,1.17-1.35.25-2.15-.63-.56-1.25-1.14-1.84-1.75a10,10,0,0,1-.82-1.07c.76-.15,1.38-.26,2-.4s1.17-.34,1.88-.54c-.79-1.06-1.88-1.72-2.44-2.85a16,16,0,0,1-.87-1.88c-1-3-.66-3.53,2.28-4.14-1.41-2.36-.8-4.59.45-6.72a3.4,3.4,0,0,0,.56-2.28,3.14,3.14,0,0,1,.06-1.73c1.09-2,.78-3.77-.95-5.68a21.89,21.89,0,0,0,4.4.06c.25-.62-.29-.84-.51-1.18a9.68,9.68,0,0,1-1.7-5.56c0-2.56.4-2.92,2.78-2.74A9.3,9.3,0,0,1,288.57,59c.41-.19.26-.52.27-.77.11-3.37.5-3.59,3.22-1.86A7.89,7.89,0,0,1,295.28,61a7.1,7.1,0,0,0-1.09-6.35,11.4,11.4,0,0,1-2-6.7c-.06-3.63,2-5.4,5.23-4.34a17.85,17.85,0,0,0,5.31.88c2.88,0,3.95,1.86,3.2,4.82a10,10,0,0,1-5.41,6.87c-1.88.93-3.18,2.28-3,4.9,1.75-1.42,3.54-2.58,5.86-2.22-.35,1-1.22,1.62-1.35,2.75a5.24,5.24,0,0,1,4.27.67,1.3,1.3,0,0,1,.43,2,8.57,8.57,0,0,1-3.88,3.4c0,.43.38.56.63.73,1.12.73.75,1.4-.12,1.9a6,6,0,0,0-2.63,3.82A8.21,8.21,0,0,1,307,75c1.61,1,1.73,1.43.72,3.15a8.65,8.65,0,0,1-4.35,3.58c.06.52.51.58.82.79,1.95,1.34,2,1.52.09,2.89-2.3,1.67-4.66,1.53-7.05.27a18.69,18.69,0,0,1-3.81-3c-.35,2.41-.65,4.54-1,7,3.17-3.13,6.4-3.25,9.94-1.35-.8.86-1.93,1.19-2.57,2.32a8.11,8.11,0,0,1,4.67,3.06c1,1.31.68,2.12-.54,2.95a9,9,0,0,1-4.72,1.21c0,.23,0,.36,0,.44,1.33,2.45,1.11,2.84-1.56,2.94A5.59,5.59,0,0,1,293,98.87c-.38-.47-.72-1-1.3-1.78-.17,2.54-.32,4.7-.48,7,1.57-.6,3-1.12,4.34-1.68.48-.19,1.06-.51,1.21.23.33,1.61,1.33,1.1,2.25.93a3.4,3.4,0,0,1,3.49,1,1.37,1.37,0,0,0,1.31.52,1.82,1.82,0,0,1,.33,0c1.84.25,4.64.07,5.06,1.67.56,2.13-.78,4.64-2.44,6.37a4.61,4.61,0,0,0-1.59,2.63,2.81,2.81,0,0,1-.83,1.49c-2.82,3.16-8.84,3-11.48-.33-.28-.36-.4-1.14-1-.88s-.33.94-.29,1.42c.21,2.29.47,4.58.76,7.25a10.36,10.36,0,0,1,8.41-4.6c-.45,1.41-1.33,2.56-1.37,4.21a8.67,8.67,0,0,1,7.27.29c1.2.59,1.41,1.35.94,2.62-.86,2.37-2.63,3.79-4.72,5.18l.74.31c2.88,1.39,2.93,1.84.36,3.82-2.85,2.19-5.72,1.49-8.6.05l-.39-.05Zm2.38,13.6.21.21,0-.41-3.27-6.34c-.11,1.15.75,2.24.21,3.13-1.35,2.25.23,2.48,1.58,3Zm-7-5.66,0,0a2.53,2.53,0,0,0,.19-.45c.15-.59,1.58-.85.49-1.7-.79-.62-1.5-2-2.84-.58a7.73,7.73,0,0,1-4.38,2.31c-1.36.22-1.29.92-.7,1.73a4.19,4.19,0,0,1,.74,3,2.7,2.7,0,0,0,2.11,3.09,5.46,5.46,0,0,0,5.12-1.19c.16-.13.4-.33.4-.49,0-1-.05-1,.28-1.37a5.07,5.07,0,0,0,1.25-2.42c.32-1.85-.07-2.27-1.77-2C291.1,145.06,290.77,145.3,290.47,145Zm-6.93-61.54a10,10,0,0,0,5.15-1.29A3.36,3.36,0,0,0,290.78,78a2.34,2.34,0,0,1,.34-2.19c.82-1.06,0-2.09-.41-3.08s-1-.27-1.57-.2c-2.85.35-5.53,0-7.72-2.17-.94-.91-1.21-.3-1.41.49a5.57,5.57,0,0,0-.2,2.06,4.26,4.26,0,0,1-.65,2.93c-2.4,4.13-1.1,6.91,3.46,7.55C283.06,83.42,283.5,83.42,283.54,83.43Zm12.9,29.43c-.29.28-.47.48-.67.66-1.93,1.8-1.68,2.91.86,3.88a3.73,3.73,0,0,0,2.59.11c.73-.24,1.44-.57,2.15-.87.37-.15.62-.17.6.39s.06.78.55.61a3.34,3.34,0,0,0,1.79-4.33,32,32,0,0,1-1.67-6.48,2.76,2.76,0,0,0-3.46-2.39c-1.41.27-3.33.53-3.84,1.7-.69,1.61-2.34,2.57-2.49,4.44l-.12,1.39c-.07.87.16,1.33,1.11,1.07A5.51,5.51,0,0,1,296.44,112.86Zm2-61.94c.17,1.17.33,1.85.35,2.54,0,1,.26,1.33,1.3.95a7.4,7.4,0,0,0,5.05-5.47c.56-2.25-.08-3.56-2.26-3.56a22,22,0,0,1-6.39-1.07c-1.85-.56-3,.5-3.39,2.52a6.93,6.93,0,0,0,2.31,6.36c1.37,1.38,1.35,1.39,2.13-.35C297.75,52.33,298,51.82,298.42,50.92Zm-21.48,51.73c0,1.76,1,2.59,2.55,2.44a9.11,9.11,0,0,1,3.12.18c1.39.33,3.54-1.09,3-1.93-1-1.75-.44-2.72.65-4,.63-.73.29-1.89-.19-2.81s-1.25-.29-1.89-.23a8,8,0,0,1-3.93-.26c-.88-.36-1.23,0-1.26.87a5.36,5.36,0,0,0,.13,1.55,1.45,1.45,0,0,1-.77,2A2.58,2.58,0,0,0,276.94,102.65Zm12,18.52a13.45,13.45,0,0,1-3.16,3.08c1.52.68,2.45,1.9,3.87,3.21C289.38,125.21,289.17,123.42,288.92,121.17ZM292,137.49a10.91,10.91,0,0,1-1.78,3.12l2.43,1.53c.23.14.48.38.74.16s.17-.53.07-.81C293,140.3,292.6,139.12,292,137.49Zm-4-29.08v-3.72l-2.89,1.57Zm7-35.56L297.85,71l-2-1.81A15.48,15.48,0,0,0,295.06,72.85Zm-4.8,12.94c.25-1.53.43-2.57.61-3.69C289,82.87,289,82.87,290.26,85.79Zm-1.47,10.77c.07-.83.13-1.6.2-2.5-.67.48-1.59.63-1.63,1.25S288.13,96.27,288.79,96.56Zm4-25.18c-1.65.61-1.7.94-.32,2.37C292.54,73,293,72.23,292.76,71.38Zm10,81.8-.1-.12a1.07,1.07,0,0,0-.1.22s.06.08.09.11Z" style="fill:#1a763e"/><path d="M411.14,108.55a106.28,106.28,0,0,1,10.55-10.77c.59-.56,1-.41,1.59,0,1.3.93,2.64,1.83,4.24,2.94-.1-1.81-.19-3.34-.28-4.87,0-.17,0-.4-.14-.49a29.07,29.07,0,0,0-5.92-4c-.46-.25-.91.32-1.31.6-3.11,2.16-6.21,4.36-9.32,6.55a2.39,2.39,0,0,0-.23-.22,127.9,127.9,0,0,1,10.36-11.79,1.08,1.08,0,0,1,1.68-.14c1.31.94,2.67,1.8,4.16,2.79a49.06,49.06,0,0,0-.62-6.41,1,1,0,0,0-.51-.83c-1.68-.87-3.35-1.77-5-2.65-.7-.37-1.14.21-1.61.56a100.5,100.5,0,0,0-8.58,7.14c-.43.39-.74,1-1.54,1,2.93-4.88,6-9.57,9.33-14.1.84-1.15,1.45-1.2,2.51-.49,1.34.9,2.77,1.65,4.32,2.56a27.85,27.85,0,0,0-.63-5.26.82.82,0,0,0-.63-.71l-.63-.19c-6.11-2-6.11-2-11,2.4-.33.3-.69.55-1,.82l-.26-.22c1.78-3.08,3.85-5.94,5.89-8.82a1.42,1.42,0,0,1,2-.62c1.48.59,3,1,4.61,1.57a29.7,29.7,0,0,0-.62-4.33.78.78,0,0,0-.62-.7,5.25,5.25,0,0,0-.63-.22c-2.26-.57-4.61-2.27-6.76-1.45s-3.61,2.94-5.39,4.49l-.26-.3a84.57,84.57,0,0,1,6-9c.51-.71,1-.53,1.6-.34,1.57.52,3.13,1.08,4.7,1.62.18-3-.94-4.76-3.6-5.76-.63-.23-.93.15-1.32.4-1.3.86-2.58,1.76-3.88,2.63-.06,0-.19,0-.4-.11,1.42-1.87,2.86-3.67,4.17-5.57.76-1.1,1.51-1.59,2.72-.84a3.9,3.9,0,0,0,1,.27c0-2.59-1.11-4.93-1-7.44l0,0c1.52,3.13,2.1,6.58,2.91,9.94.25,1,.5,1.33,1.36.69a2.69,2.69,0,0,1,.29-.16c1.87-1,3.76-2.92,5.63-2.57s3.43,2.37,5.08,3.72a47.64,47.64,0,0,1,4.39,4c-2.52-.92-5-1.8-7.56-2.77a2.69,2.69,0,0,0-2.51.12c-1.41.79-2.85,1.55-4.31,2.22-.89.41-1,.89-.8,1.88.81,3.32.75,3.3,3.61,2,1.82-.82,3.77-2.31,5.5-2.1s3,2.53,4.41,4c1.73,1.8,3.39,3.68,5.05,5.55a1.7,1.7,0,0,1,.72,1.6c-.77-.58-1.39-1.08-2-1.54-2.24-1.59-4.51-3.14-6.73-4.76a1.65,1.65,0,0,0-2.23-.06c-1.6,1.14-3.23,2.25-4.92,3.23a2,2,0,0,0-1,2.82,20.65,20.65,0,0,1,.54,2.51l5.6-3c.49-.26.92-.47,1.49,0a90,90,0,0,1,10.19,9.73.9.9,0,0,1,.18.92,78.08,78.08,0,0,0-8-4.93,2.16,2.16,0,0,0-2.43,0q-2.39,1.4-4.86,2.61a1.48,1.48,0,0,0-.84,2c.38,1.63.19,4,1.15,4.73s2.9-.74,4.31-1.45c1.92-1,3.26-.6,4.75,1,2.44,2.62,4.93,5.19,7.26,7.92.35.41.85.77.65,1.53A89,89,0,0,0,437,83.78c-.52-.33-1-.51-1.52-.1,0,0-.11,0-.16.06-1.94,1-4.56,1.42-5.63,3s.37,4.23.42,6.68l5.71-2.77c.5-.25.93-.56,1.47,0,3.11,3.3,6.52,6.28,9.39,9.83a2,2,0,0,0-.19.22,63.73,63.73,0,0,0-8.69-4.66,2.09,2.09,0,0,0-2,0c-5.07,2.55-5.08,2.53-5,8.44V106c2.25-1,4.39-1.88,6.47-2.87a1.57,1.57,0,0,1,2.34.62c2.6,3.76,5.29,7.47,7.94,11.2.08.11.06.3.12.66-3-2.29-5.82-4.43-8.61-6.66a1.85,1.85,0,0,0-2.37-.29c-1.7,1-3.46,1.82-5.19,2.71-.5.26-1,.5-1,1.23-.08,1.68-.22,3.36-.36,5.27,2.11-.51,4.12-1,6.12-1.49,1.12-.29,1.71,0,2.28,1.17,1.62,3.37,3.45,6.63,5.17,10a3.75,3.75,0,0,1,.7,1.75l-.22.18a70.36,70.36,0,0,1-7.67-7.19c-.73-.82-1.35-1.07-2.24-.46a2.85,2.85,0,0,1-.31.12c-4.54,1.88-4.49,1.88-5.25,7-.16,1.14.17,1.14,1,1,1.84-.37,3.69-.68,5.54-1,.55-.11.95-.07,1.14.6a105.32,105.32,0,0,1,3.22,13c-1.41-2.48-2.87-4.92-4.2-7.45a1.42,1.42,0,0,0-2.1-.81,13.27,13.27,0,0,1-2.68.86c-3.13.48-4.71,2.4-4.8,5.82l4.54-1c.5-.1.93-.23,1.14.54A97.49,97.49,0,0,1,434.22,153c-1.39-2.42-2.82-4.8-4.15-7.25-.52-1-1.06-1.1-2-.65a16.26,16.26,0,0,1-3.05,1.3c-2.64.71-3.58,3-4.76,5.41,2-.15,3.79-.31,5.59-.43.51,0,1.1-.24,1.21.7.44,3.86.93,7.71,1.11,11.65-1.29-2.26-2.62-4.5-3.88-6.79a1.73,1.73,0,0,0-1.86-.94,10.65,10.65,0,0,0-9.38,4.7,17.4,17.4,0,0,1-5,4.26c-.66.42-1.07.57-1.58-.3s-.08-1.18.53-1.58c4.61-3,7.9-7.38,10.83-12.1.4-.66.46-1.15-.19-1.6a.74.74,0,0,1-.13-.12c-2.92-3-2.91-2.95-6.66-1.13-.7.33-1.35,1-2.34.59,2.21-1.83,4.41-3.57,6.51-5.43,1-.88,1.65-.73,2.47.18s1.78,1.73,2.75,2.65a27.61,27.61,0,0,0,1.83-4.12,1,1,0,0,0-.3-1.36,1.37,1.37,0,0,1-.23-.25c-4-4.43-4-4.42-9.35-1.85-.44.21-.91.35-1.37.53l-.15-.22a101,101,0,0,1,7.92-6.85c.76-.62,1.14-.44,1.75.19,1.18,1.22,2.47,2.32,3.74,3.5.28-1.12.63-2.53,1-3.94.18-.68-.18-1.07-.59-1.5-3.51-3.77-3.51-3.78-7.67-.78-1.7,1.23-3.36,2.51-5.14,3.64a95.28,95.28,0,0,1,8.84-10.43c.56-.58.93-.34,1.4,0,1.1.88,2.23,1.72,3.31,2.61.65.54,1,.64,1.14-.42.17-1.62.39-3.23.61-4.84a1.13,1.13,0,0,0-.42-1.22,4,4,0,0,1-.4-.32c-4.27-3.66-4.26-3.63-9.27-1.12a59.43,59.43,0,0,1-6,3.13l-.05,0c3.05-4.16,6.8-7.59,10.43-11.14.61-.6,1-.2,1.38.17a37.77,37.77,0,0,0,5,3.95c0-2.06,0-4.12,0-6.18a1.11,1.11,0,0,0-.48-1l-.41-.29c-5.15-3.9-5.16-3.91-10.57-.42-1.65,1.06-3.26,2.17-4.89,3.26A1.57,1.57,0,0,0,411.14,108.55Z" style="fill:#1a763e"/><path d="M326.64,191.9a105.79,105.79,0,0,0,16.11,2.4c.18,0,.38-.15.57-.24a9.26,9.26,0,0,0,1.26.31,88.64,88.64,0,0,0,12.19.31c0,1.06,0,2.12,0,3.18h.38v-3.2l4.6-.22a43.81,43.81,0,0,0,13.52-.37c1.13.61,2.26,0,3.37-.06a86.68,86.68,0,0,0,13.37-2.1c5.75-.87,11.39-2.14,16.6-5-6,.7-11.9,1-17.81-.23a39,39,0,0,0,11.13-2.91,53.3,53.3,0,0,0,16.4-11.93,11.53,11.53,0,0,0,1-1.37l.44.17c.32,2.08.73,4.14.93,6.23a2,2,0,0,0,1.48,2c1.23.48,2.41,1.14,3.65,1.62s1.08.92.32,1.79a35.43,35.43,0,0,1-12.52,8.93c-1.27.57-1.6,1.13-.93,2.39a10.27,10.27,0,0,1,.49,1.48c1.13,3.39,1.14,3.42-2,4.68-11.77,4.76-23.84,5.45-36.13,2.89-.7-.15-1.41-.21-2.11-.31a90.85,90.85,0,0,1-10.47-3.12,4,4,0,0,0,1.72,1.79c2.77,2.18,5.52,4.41,9.07,5-1.37,1.63-3.29,2.44-4.91,3.69-.48.37-.83,0-1.16-.34-2.91-2.58-5.15-5.64-5.73-9.71-.13-1-.46-1.12-1.23-1.08-1,.05-2.09,0-3.14,0a1.93,1.93,0,0,0-1.67.67,62.58,62.58,0,0,1-9.88,3A121,121,0,0,1,333.31,204a60.16,60.16,0,0,1-27-4.77c-1.45-.62-1.85-1.32-1.15-2.82.48-1,.69-2.22,1.14-3.27s.1-1.41-.78-1.8a36.46,36.46,0,0,1-12.57-8.87c-.86-1-1.25-1.73.36-2.06,4-.83,5.51-3.59,5.49-7.63a4.75,4.75,0,0,1,.72-2.67,10.09,10.09,0,0,0,1.15,1.82c6.33,6.54,13.45,11.7,22.23,13.86,1.64.4,3.33.58,5,.87-5.92,1.28-11.87.85-17.83.2C315.22,189.78,320.9,191,326.64,191.9ZM336.88,200a2.58,2.58,0,0,0,0-3.51h-.62c-2.19-.81-2.17.84-2.09,2.59-.79-1,.11-2.06-.72-2.79-.56.53-.14,1.34-.71,1.83l-.69-1.19c-.2-.33-.33-.84-.81-.71s-.26.67-.33,1c-.11.57.12,1.25-.41,1.73-.71-.91-.23-2.59-1.29-2.87-.79-.21-.77,1.33-1.32,1.94-.06.07-.19.08-.28.11-.08-2.41-.08-2.41-1.64-2.24,1.32.57,1,1.54.64,2.32-.49,1.18-.76-.87-1.31-.16a.78.78,0,0,0,.48,1.1,3.07,3.07,0,0,0,2.44-.22c.45-.34,1-.43,1.12-.16a1.5,1.5,0,0,0,1.59.87c1.08-.06.22-1.3,1-1.75.6,2.69,2.64,1.92,4.31,2.08Zm-22.18-4.9c-.05-.7.3-1.55-.65-1.93a.9.9,0,0,0-1.31.44c.4.4,1-.18,1.22.45s-.36.61-.68.79c-.51.3-1.35.46-1.19,1.21s1,.63,1.64.78c.16,0,.45.12.49-.22-.15-.61-.88-.28-1.22-.92l1.72-.62c-.35,1.54,1.82,1.08,1.56,2.42,1.31-.42.75-1.49.92-2.27.09-.41.46-.93-.12-1.21s-.76.3-1.12.53S315.4,195.66,314.7,195.08Zm6.95,2.81c.52,1.14,1.37,1,2.36.91-.3-.91-1.27-.21-1.33-1.06-.08-1,1,0,1.16-.82-.25-.27-.94-.17-.9-.74.07-.91,1.18.18,1.34-.7-1.93-.7-2-.66-2.29,1.38-.05.38.11.84-.36,1.06-.32-.62.21-1.17.11-1.8-.18-1.06-.87-1.37-1.72-1.55-.36-.08-.83-.35-.95.23-.2,1-.89,2.2-.36,3s1.78.59,2.68,0C321.43,197.72,321.56,197.84,321.65,197.89Zm73.82.71a7.69,7.69,0,0,1,.42-.67c.47-.56.85-1.18.23-1.82a1.07,1.07,0,0,0-1.82.25c-.45.7-.7.13-1-.06a1,1,0,0,0-1.37.16c-.66.82-.25,1.85-.25,2.78,0,.47.74.85,1,.64,1.25-1,2.72-.11,4-.68.1,0,.14-.26.25-.48Zm-13.52,0c-.54,1.35.1,1.49.84,1.52,1.11,0,2-.31,2.11-1.62a1.75,1.75,0,0,0-1.94-2C381.07,196.43,382.38,198.2,382,198.6Zm-41.45,1.32a2.56,2.56,0,0,1-.23-2.34.85.85,0,0,0-.94-1.11c-.48,0-1.29-.41-1.36.45a5,5,0,0,0,.3,3.19C338.74,198.94,338.74,198.94,340.5,199.92Zm1.84.09a1.72,1.72,0,0,0,1.87-1.75,1.66,1.66,0,0,0-1.65-1.94,1.69,1.69,0,0,0-1.95,1.81A1.74,1.74,0,0,0,342.34,200Zm45.09-3.34c-.69-.12-1.6-.47-1.91.15a3.7,3.7,0,0,0,0,3.17c.31.59,1.39.52,2.05,0-.35-.79-1.34.17-1.5-.76-.13-.78,1-.21,1.08-.85-.29-.44-1.05,0-1.07-.66C386,196.69,387.16,197.6,387.43,196.67Zm9.51-1.1c1.2.17.62,2.07,1.83,2,.14,0-.08.46-.34.59s-.79-.18-1.07.4a1.22,1.22,0,0,0,1.73,0c1.62-1.14-1.16-2-.2-3.17.14-.16-.17-.36-.42-.33a1.32,1.32,0,0,0-.32.07Zm-5.2,4.33c-1.38-.75-1.21-1.78-1.36-2.7,0-.26,0-.62-.32-.7s-.57.25-.8.49-.31.44,0,.7c.93.79.42,1.53-.15,2.28C389.84,200.37,390.5,200,391.74,199.9Z" style="fill:#0c5982"/><path d="M311.89,173.36c-1.55-.7-1.9-1.56-.89-3.24,1.93-3.17,3.61-6.5,5.39-9.78.33-.61.54-1,1.33-.4,8.93,6.4,19,9.76,29.5,11.58,16.47,2.84,32.14-.13,47.16-7.49a47.87,47.87,0,0,0,7.43-4.63l3.1,5.62c1,1.81,1.92,3.67,3,5.41.73,1.16.73,1.94-.48,2.61a12.75,12.75,0,0,0-1.21.91c-.22-.19-.34-.14-.33.17v0a1.56,1.56,0,0,0-1.23.33,84.69,84.69,0,0,1-13.75,6.36c-4.74,1.74-9.62,2.87-14.47,4.12-.55.06-1.09.09-1.64.18-6.86,1.11-13.73,1.91-20.71,1.32-4-.34-8-1-12-1.5-.52-.13-1-.29-1.58-.41a91.78,91.78,0,0,1-26.39-10c-.37-.22-.75-.53-1.23-.32H313c0-.43-.34-.44-.64-.44l0,0ZM400.23,172l-2.94-3c-.27-.28-.53-.62-1-.34a.87.87,0,0,0-.39.88c0,1.28.05,2.55.09,3.83,0,.33,0,.75.47.72s.44-.41.49-.77c.18-1.43,1-1.67,2-1,.61.41,1,.45,1.19-.33a4.77,4.77,0,0,0,2.51-.92c.32-.18.89-.27.71-.76-.27-.74-.71-.06-1.08,0s-.9.92-1.36,0c-.37-.72.25-.87.66-1.11.24-.14.55-.25.41-.62s-.35-.33-.66-.2-1,.87-1.31-.12.61-.76,1-1.08.85-.62.34-.83c-.82-.34-1.48.54-2.22.86s-.25.75-.13,1.17C399.36,169.6,400.43,170.55,400.23,172ZM327,173c-.43-.48.11-.94,0-1.44-.25-1.28-1.31-1.43-2.18-1.85-.41-.2-.69-.24-.88.31-.42,1.19-.89,2.37-1.35,3.55-.11.29-.16.57.14.74s.57,0,.77-.33.16-1.17.78-.83c1,.54,1.83,0,2.73-.17,0,.8-.72,1.09-1,1.67-.14.26-.6.43-.26.84s.56.27.85,0c1.22-1.18,1.89-.7,2.22.82.07.3.23.56.54.54.49,0,.37-.47.37-.79,0-1.22-.06-2.44-.07-3.65,0-.45-.08-.77-.52-1s-.66.19-.94.45S327.62,173,327,173Zm44,5c.84,1,1.39,1.6,1.93,2.24.3.36.61.71,1.12.5s.3-.79.26-1.2a18.87,18.87,0,0,0-.32-2.24c-.17-.8.16-.86.83-1,1.92-.36.94,1.38,1.41,2.05s-.18,2,.74,1.79.19-1.34.19-2.07c0-1-.9-2.27.93-2.46.07,0,.19-.28.16-.41-.07-.37-.34-.37-.64-.3l-2.26.47c-2.35.49-2.35.49-2.26,3.06,0,.07-.11.14-.22.29l-1.76-2.07c-.26-.31-.53-.64-1-.47s-.34.66-.31,1c.08,1,.19,2,.31,3,.06.43,0,1.11.56,1.07.81-.05.39-.78.41-1.23S371,179,371,178Zm-52.14-8.55c.4.88-.19,1.81.5,2.3.89.62,1.14-.86,2-.8-.16.64-.29,1.25-.48,1.83-.14.41-.06.68.31.83s.53-.28.63-.57c.35-1.09.66-2.21,1-3.31.09-.32.3-.67-.07-.92a.74.74,0,0,0-1,.09c-.55.5-.94,1.23-1.75,1.53,0-.89,0-1.65,0-2.4a.86.86,0,0,0-.46-.83c-.42-.24-.62,0-.79.34-.62,1.1-1.22,2.21-1.82,3.31-.15.28-.26.54.1.71s.52.22.71-.14C318.05,170.86,318.39,170.27,318.84,169.49Zm27.76,8.6c.92,2.75.92,2.75,2.74.7,0,.63,0,1.26,0,1.88,0,.37,0,.75.46.79s.47-.37.48-.72c0-1.16.06-2.32.08-3.48,0-.36,0-.72-.44-.8a.68.68,0,0,0-.81.41c-.35.69-.73,1.35-1.24,2.3-.28-1.07-.5-1.83-.69-2.6a.72.72,0,0,0-.7-.61c-.33,0-.49.22-.56.52-.26,1.24-.51,2.48-.77,3.73-.07.37-.07.72.39.77s.47-.25.54-.53C346.25,179.79,346.38,179.11,346.6,178.09Zm47.24-5.25-2.36-1.68a.71.71,0,0,0-.91-.1c-.35.25-.22.57-.1.92.38,1.08.73,2.18,1.08,3.27.11.36.24.68.66.57.59-.16.35-.58.26-1-.16-.65-.63-1.23-.46-2.08l2.48,1.73a.66.66,0,0,0,.9,0,.59.59,0,0,0,.16-.76c-.43-1.19-.87-2.37-1.32-3.55a.49.49,0,0,0-.65-.35c-.35.12-.32.42-.25.71C393.5,171.27,394,171.88,393.84,172.84Zm-8.83,5.3c-.25-.87-1.45-1-1.1-2a1.68,1.68,0,0,0-.56-2.14,2.43,2.43,0,0,0-2.51.29c-.85.44-.08,1.34,0,2a15.35,15.35,0,0,0,.49,2.19c.08.39.07.89.67.69.43-.15.35-.51.31-.87s-.49-.76,0-1.06.8.13,1.11.46S384.24,178.9,385,178.14Zm-47.14,1.24a2.31,2.31,0,0,0,2.58-2.3c.14-1.5-.83-2.53-2.68-2.94s-1,1.33-1.51,2a2.2,2.2,0,0,0-.16.67C335.58,179,335.77,179.29,337.87,179.38Zm18.78.17c-.13,2.64-.13,2.65,2.11,2.51.34,0,.89.21,1-.35.09-.76-.56-.49-.93-.57s-1.12.25-1.16-.57.65-.58,1.1-.66.51-.2.47-.56-.26-.32-.48-.36c-.44-.07-1.14.19-1-.69s.77-.43,1.21-.5.69,0,.72-.5c0-.12-.15-.3-.28-.37a1.77,1.77,0,0,0-2.66,1.58C356.68,178.86,356.66,179.2,356.65,179.55Zm3.75-.12h0c0,.52,0,1,0,1.57,0,.36-.19.92.36,1s.59-.48.63-.94-.13-.76.27-.9.66.27.86.62a9.64,9.64,0,0,0,.55.86.56.56,0,0,0,.87.14c.27-.27,0-.52-.17-.75-.34-.62-.87-1.13-.18-2a1.34,1.34,0,0,0-.25-1.75c-.73-.75-1.68-.52-2.52-.39s-.36.94-.44,1.45A7.35,7.35,0,0,0,360.4,179.43ZM389,175.31c-.21-.71-.47-1.65-.75-2.59-.1-.33-.2-.71-.65-.56s-.38.51-.28.86c.21.78.45,1.55.64,2.33a1.06,1.06,0,0,1-.84,1.42c-.65.17-1-.2-1.2-.86s-.43-1.55-.63-2.33c-.08-.31-.21-.56-.54-.51s-.51.41-.41.78a26.25,26.25,0,0,0,.73,2.67,1.71,1.71,0,0,0,2.29,1.1A2,2,0,0,0,389,175.31Zm-48.19,2.62c-.17,1.77.59,2.43,1.76,2.62a1.83,1.83,0,0,0,2.24-1.73c.13-.74.24-1.49.33-2.24,0-.32.14-.74-.33-.83s-.59.33-.65.75c-.1.75-.22,1.49-.34,2.24a1,1,0,0,1-1.19.89,1,1,0,0,1-.88-1.23c.09-.8.27-1.6.39-2.4,0-.33.14-.74-.32-.85s-.57.18-.63.58C341.09,176.59,340.93,177.44,340.85,177.93Zm28,1c-.38-.84-1.66.28-1.71-.89-.05-1.35,1.61-.24,1.95-1.41a3.42,3.42,0,0,0-2.92.28,19.8,19.8,0,0,0,.38,4.63,4.25,4.25,0,0,0,3.22-.45c-.71-.67-1.63,0-2-.42C366.43,179,368.74,179.77,368.87,178.94Zm-37.26-2.75c-.11-1.46-.18-2.43-.24-3.39,0-.41-.26-.72-.6-.7s-.34.49-.32.8c.05,1.22.12,2.43.19,3.65,0,.4,0,.83.5,1s.8-.18,1.07-.57c.62-.89,1.27-1.75,1.84-2.67.18-.29.89-.63.2-1.07s-.75.24-1,.58C332.8,174.45,332.36,175.11,331.61,176.19Zm21.55,4.1a1.82,1.82,0,0,0,0,.49c0,.36-.22.89.36,1s.66-.48.62-.92c-.08-1,.47-1,1.13-.92.3,0,.54-.12.51-.49s-.18-.37-.42-.43c-.45-.11-1.23.26-1.12-.77s.81-.53,1.28-.59c.27,0,.59,0,.61-.39s-.3-.37-.56-.42c-1.95-.4-2.16-.24-2.32,1.86C353.22,179.11,353.2,179.51,353.16,180.29Zm-17.28-5.89c.08-.47,0-.71-.34-.78a.42.42,0,0,0-.53.29c-.35,1.33-.69,2.67-1,4a.48.48,0,0,0,.4.63c.34.08.48-.12.56-.44C335.27,176.82,335.6,175.54,335.88,174.4Zm29.54,5.34v-2.26c0-.38-.09-.71-.53-.7s-.46.38-.45.75a8.56,8.56,0,0,0,.1,1.9c.21.79-.43,2.31.71,2.22C366.19,181.57,365.26,180.17,365.42,179.74Zm23.6-8.1c-.12.05-.21.28-.11.6.38,1.28.75,2.56,1.15,3.82.09.3.31.5.63.36a.55.55,0,0,0,.28-.73c-.4-1.26-.81-2.53-1.22-3.79C389.67,171.66,389.49,171.54,389,171.64Zm-71.26-4.71c.15-.5-.09-.59-.26-.7s-.39-.08-.51.17c-.59,1.24-1.18,2.48-1.78,3.71-.17.37,0,.53.28.67a.34.34,0,0,0,.54-.15C316.64,169.34,317.25,168.05,317.76,166.93Z" style="fill:#0c5982"/><path d="M153.47,72.52c0-8.45,0-16.9,0-25.36,0-1.24.32-1.56,1.47-1.52,4.79.18,9.62-.4,14.38.29,6.51.93,10,5,10.74,11.93a82.82,82.82,0,0,1,.25,10c-.07,6.35.36,12.71-.25,19-.79,8.25-5.22,12.48-13.13,12.63-4,.08-8.06,0-12.09.05-1.11,0-1.37-.35-1.37-1.48C153.49,89.55,153.47,81,153.47,72.52Zm8.72-.08c0,6,0,12,0,18,0,.63-.28,1.43.85,1.45,6,.12,8.52-.45,8.45-8-.06-6.69,0-13.4,0-20.1,0-1.8,0-3.61-.12-5.41-.29-3.33-1.87-4.88-5-5.06-.93-.05-1.88,0-2.81-.06-1.16-.13-1.36.41-1.35,1.5C162.21,60.67,162.19,66.56,162.19,72.44Z" style="fill:#055882"/><path d="M145,67.65V85.51a22,22,0,0,1-.56,5.54C143,96.49,139,99.71,133,100.2a16.45,16.45,0,0,1-5.75-.52c-5.18-1.41-8.41-5.4-8.9-11-.29-3.31-.16-6.64-.17-10,0-10.44,0-20.88,0-31.32,0-1.4.38-1.79,1.66-1.71a48.07,48.07,0,0,0,5.63,0c1.24-.08,1.56.31,1.55,1.62-.06,10.85,0,21.7,0,32.55,0,2.45-.07,4.91,0,7.35.16,3.82,2.68,5.75,6.07,4.8a4,4,0,0,0,2.83-2.89,11,11,0,0,0,.37-3.29c0-12.83,0-25.67,0-38.5,0-1.28.24-1.73,1.53-1.65a48.63,48.63,0,0,0,5.79,0c1.16-.06,1.49.31,1.48,1.54C145,54,145,60.83,145,67.65Z" style="fill:#055882"/><path d="M359.35,165.94c-.17-.34-.27-.49-.33-.65-2.37-6.22-7-8.73-13.06-8.69-5,0-9.95.12-14.92.17a15.35,15.35,0,0,1-10-3.17c-4.75-3.72-6.23-8.95-6.23-14.89q0-40.88,0-81.75c0-4.72,0-9.45,0-14.17,0-1.32.37-1.69,1.6-1.69q43,.06,86,0c1.19,0,1.47.42,1.46,1.61q-.06,48.48-.08,97c0,8.71-4.72,15.17-12.14,16.7-3.86.8-7.82.39-11.74.3a70,70,0,0,0-9.93.15,11.35,11.35,0,0,0-9.28,6.43C360.26,164.07,359.87,164.9,359.35,165.94Zm-.54-6.28c-.07.47.32,1,.5.9a1.56,1.56,0,0,0,.95-1.58c-.06-.68.6-.58.87-.89,2.32-1.58,4.64-3.17,7.46-3.53a46.8,46.8,0,0,1,7.1-.37c4.14.1,8.27.19,12.41.18a11.82,11.82,0,0,0,9.38-3.93l.28-.3c2.95-3,3.74-6.78,3.75-10.84q0-47,.07-94c0-1.43-.33-1.85-1.73-1.84q-40.52.06-81,0c-1.35,0-1.79.35-1.78,1.84.07,8,0,16.1,0,24.15q0,34.65,0,69.31c0,4.94,1,9.51,5.1,12.65a11.7,11.7,0,0,0,8.43,3c5.07,0,10.14-.19,15.21-.16,4.82,0,9.34,1,12.59,5.31.08.1.28.1.43.15Z" style="fill:#b5a563"/><path d="M98.37,45.67c1.32,0,2.65.08,4,0,1.11-.1,1.51.34,1.7,1.46,1.52,8.94,3.1,17.86,4.65,26.79,1.39,8,2.75,16,4.2,24,.22,1.24.07,1.67-1.2,1.6a55.64,55.64,0,0,0-5.63,0c-1.11,0-1.53-.32-1.65-1.52-.29-3-.76-6-1.11-9-.12-1-.41-1.5-1.51-1.45-2.32.11-4.64.1-7,0-1.06,0-1.39.35-1.51,1.43-.33,3.06-.82,6.11-1.15,9.17-.11,1-.43,1.41-1.43,1.37-2-.07-4.09-.06-6.13,0-.92,0-1.13-.26-1-1.21Q87.86,74.46,92,50.59c.28-1.6.12-3.76,1-4.64s3.06-.2,4.65-.28C97.92,45.66,98.14,45.67,98.37,45.67Zm0,11H98.2q-1.64,10.86-3.3,21.72c-.13.89.13,1.12.93,1.1,1.66,0,3.31-.05,5,0,.84,0,1-.29.9-1.13-.34-2-.62-4-.92-6Z" style="fill:#0c5982"/><path d="M188.7,72.45c0-8.34,0-16.68,0-25,0-1.49.41-1.81,1.75-1.8,6.79.07,13.58.06,20.38,0,1,0,1.47.2,1.4,1.41-.1,1.8-.07,3.62,0,5.42,0,1-.25,1.29-1.2,1.27-4-.05-8.06,0-12.09,0-1,0-1.43.23-1.4,1.42.07,3.73.05,7.47,0,11.2,0,1,.27,1.3,1.21,1.28,2.93,0,5.86,0,8.78,0,1,0,1.39.22,1.33,1.35-.09,1.81-.08,3.62,0,5.42.06,1.13-.36,1.38-1.34,1.36-2.87-.06-5.74,0-8.61,0-1.09,0-1.4.32-1.38,1.47.06,4.25.08,8.51,0,12.77,0,1.4.46,1.61,1.62,1.59,4.19-.07,8.39,0,12.59,0,1.12,0,1.56.24,1.48,1.51-.1,1.8-.07,3.62,0,5.42,0,.94-.29,1.18-1.14,1.18-7.4,0-14.8,0-22.2,0-1.21,0-1.14-.68-1.14-1.55Q188.71,85.23,188.7,72.45Z" style="fill:#0c5982"/><path d="M67.45,45c7.63-.26,11.38,5.91,12.28,12.06.11.71-.1,1-.71,1-2.25.26-4.5.52-6.74.82-1,.12-.86-.66-1-1.24-.62-3.1-2.27-4.73-4.72-4.66a4,4,0,0,0-3.93,3.53A7.93,7.93,0,0,0,64,62.81a46,46,0,0,0,7.38,7.5,29.47,29.47,0,0,1,7,8.5,16.5,16.5,0,0,1,1.29,12c-1.46,5.73-6,9.09-12.35,9.4-8.51.42-13.26-6.1-14-13.79-.06-.7,0-1.18.86-1.28,2.08-.24,4.15-.6,6.22-1,.92-.17,1.22.13,1.31,1.11a10.73,10.73,0,0,0,1.32,4.47,4.47,4.47,0,0,0,5.6,2.12c2.15-.65,3.28-2.34,3.24-4.86a9.34,9.34,0,0,0-1.83-5.33,36.49,36.49,0,0,0-6.41-6.55c-3-2.57-5.87-5.3-7.73-9a17.27,17.27,0,0,1-1.06-13c1.41-4.81,5.44-7.73,10.9-8.11C66.34,45,66.9,45,67.45,45Z" style="fill:#055882"/><path d="M253.4,108.66q0,30.87,0,61.76c0,.68.45,1.78-.41,2a12.92,12.92,0,0,1-3.46,0c-.08,0-.19-.39-.21-.6s0-.7,0-1q0-62.11,0-124.23c0-.61-.43-1.62.45-1.77a5.67,5.67,0,0,1,3.41.14c.49.23.22,1.07.22,1.63q0,25,0,50Z" style="fill:#055882"/><path d="M376.46,184.9c4.85-1.25,9.73-2.38,14.47-4.12a84.69,84.69,0,0,0,13.75-6.36,1.56,1.56,0,0,1,1.23-.33,115.08,115.08,0,0,1-12.84,9.75,106.33,106.33,0,0,1-17.79,10.23,43.81,43.81,0,0,1-13.52.37A91.73,91.73,0,0,0,376.46,184.9Z" style="fill:#1f3b4c"/><path d="M313,174.16c.48-.21.86.1,1.23.32a91.78,91.78,0,0,0,26.39,10c.53.12,1.06.28,1.58.41a92.94,92.94,0,0,0,14.68,9.58.36.36,0,0,0-.06.2,88.64,88.64,0,0,1-12.19-.31,9.26,9.26,0,0,1-1.26-.31,117.62,117.62,0,0,1-21-12.53A85.23,85.23,0,0,1,313,174.16Z" style="fill:#1f3b4c"/><path d="M182.73,150.1c1.93-.59,2.35.5,2.62,2.2.93,5.92,2,11.81,3.06,17.7.2,1.08.1,1.31-1,1.42-1.78.18-2.41-.47-2.47-2.33-.07-2.21-1.71-3.18-3.64-2.38-.45.19-.51.57-.56,1s-.1,1-.17,1.56c-.29,2.06-1.13,2.59-3.06,2.12-.74-.17-.5-.66-.43-1.05,1.1-6.41,2.23-12.82,3.33-19.24C180.71,149.36,182,150.34,182.73,150.1Zm.16,4.91-.23,0c-.35,2.4-.72,4.79-1,7.18-.05.4-.49,1,.14,1.19a4,4,0,0,0,1.95,0c.6-.13.33-.78.27-1.19C183.63,159.8,183.25,157.41,182.89,155Z" style="fill:#135a83"/><path d="M34.43,169.88a6.27,6.27,0,0,1-2.28,1.66c-2.09.61-3.92-.53-4.16-3a54.41,54.41,0,0,1,0-10.13c.27-3.05,2.8-4.12,5.24-2.45.27.18.51.38,1,.78,0-1.9.09-3.51,0-5.11-.1-1.37.39-1.67,1.6-1.63s1.67.08,1.65,1.56c-.09,6.12,0,12.25,0,18.38,0,.63.27,1.59-.86,1.38C35.75,171.19,34.31,172.16,34.43,169.88Zm-.18-6.57c0-1.17,0-2.33,0-3.49A1.53,1.53,0,0,0,32.7,158c-1-.11-1.56.51-1.58,1.54,0,2.56,0,5.13,0,7.69,0,1,.48,1.72,1.52,1.64A1.59,1.59,0,0,0,34.27,167C34.19,165.76,34.25,164.53,34.25,163.31Z" style="fill:#1a5b84"/><path d="M190.62,160.73c0-3.09,0-6.18,0-9.27,0-1,.15-1.5,1.25-1.42,1.92.15,3.86-.14,5.78.26,2.41.49,3.54,1.65,4.05,4.17a10.05,10.05,0,0,1-.14,4.5c-.6,2.33-2.26,3.51-5,3.64-2.38.11-2.38.11-2.38,2.67,0,1.63,0,3.27,0,4.9,0,.89-.22,1.19-1.11,1.21-2.39,0-2.39.09-2.39-2.44Zm3.45-4.51a12.62,12.62,0,0,1,0,1.74c-.2,1.41.36,1.83,1.65,1.7,2.25-.23,2.89-1.2,2.6-4.17-.18-1.85-1-2.39-3.14-2.38-1.86,0-.85,1.44-1.09,2.24A3.61,3.61,0,0,0,194.07,156.22Z" style="fill:#0c5982"/><path d="M153.5,160.72c0-3.09,0-6.18,0-9.27,0-1,.18-1.46,1.26-1.42,2.31.09,4.64.1,6.95,0,1.47-.06,1,1,1.08,1.75s.15,1.64-1.11,1.52a10,10,0,0,0-3.63,0c-2.28.66-.55,2.72-1,4.07-.27.8,0,1.48,1.07,1.34.6-.07,1.23.07,1.82,0,1.24-.18,1.57.29,1.57,1.61s-.34,1.66-1.57,1.62c-2.92-.08-2.92,0-2.92,3.09s0,3.13,2.9,3.13h1.33c2,0,2.17.21,1.93,2.41-.07.61-.27.78-.81.78-2.65,0-5.3-.05-7.95,0-1,0-.91-.52-.91-1.21Q153.51,165.45,153.5,160.72Z" style="fill:#135a83"/><path d="M63,171.67a4.8,4.8,0,0,1-4.17-3.28c-.94-2.25-.59-2.8,1.69-3,.85-.08,1.13.17,1.25,1.06a2.1,2.1,0,0,0,1.63,2,1.78,1.78,0,0,0,1.9-.78,2.62,2.62,0,0,0-.11-2.81,14.69,14.69,0,0,0-3.49-3.67c-1.93-1.74-3.26-3.75-3.06-6.62s1.93-4.58,4.94-4.75a4.84,4.84,0,0,1,5,4.1c.12.67.07,1.16-.71,1.2-1.09,0-2.39.83-2.86-1.13-.2-.82-1-1-1.79-.87A1.54,1.54,0,0,0,62,154.67a3.1,3.1,0,0,0,.82,2.56c.85.9,1.75,1.76,2.66,2.61a11.51,11.51,0,0,1,2.93,3.73C70.16,167.7,67.74,171.71,63,171.67Z" style="fill:#135a83"/><path d="M170.31,171.67a5.32,5.32,0,0,1-5.23-4.83c-.13-1,.33-1.29,1.06-1.25s1.85-1,2.28.58a5,5,0,0,0,.37,1.15,1.73,1.73,0,0,0,2.35,1,1.85,1.85,0,0,0,1.18-2.22,4.38,4.38,0,0,0-1.36-2.54c-.92-.92-1.91-1.76-2.85-2.66a7.63,7.63,0,0,1-2.77-5.88c.08-3,1.42-4.65,4.19-5.1a4.62,4.62,0,0,1,5.63,3.56c.16.53.71,1.37-.29,1.52s-2.16,1-2.75-.3-1.35-2-2.67-1.4c-.94.41-1.07,2.21-.31,3.43a13.35,13.35,0,0,0,2.81,2.95,11,11,0,0,1,3.16,4C176.86,167.67,174.5,171.64,170.31,171.67Z" style="fill:#135a83"/><path d="M119.92,123.48c0-1.84,0-3.35,0-4.86,0-1.2,0-1.92,1.53-1.88s1.62.47,1.61,1.79c-.07,6,0,12,0,18,0,.63.44,1.75-.85,1.54-.83-.13-2.31.9-2.15-1.39-.49.44-.79.75-1.14,1a3.12,3.12,0,0,1-5.17-2.15,41.07,41.07,0,0,1,0-10.45c.34-3,2.78-4,5.24-2.33Zm0,6.73c0-1.23,0-2.45,0-3.67s-.74-1.73-1.75-1.79-1.49.66-1.5,1.66c0,2.5,0,5,0,7.51,0,1.08.5,1.84,1.62,1.71A1.62,1.62,0,0,0,120,133.7C119.87,132.54,119.93,131.37,119.93,130.21Z" style="fill:#135a83"/><path d="M102.37,156.83c0-2,.09-3.61,0-5.21-.11-1.42.47-1.61,1.61-1.6s1.55.18,1.54,1.5c-.07,6.17,0,12.35,0,18.52,0,.7.13,1.54-.94,1.31-.79-.17-2.18.76-2.1-1.17-.12,0-.26,0-.31,0-1.17,1.29-2.52,1.9-4.17,1.2s-2-2.39-2-4.05c-.07-2.39,0-4.78,0-7.17,0-1.76,0-3.6,1.78-4.58S100.76,155.47,102.37,156.83Zm0,6.68c0-1.16-.06-2.33,0-3.49a1.63,1.63,0,0,0-1.71-2c-1.15-.08-1.55.73-1.56,1.79q0,3.66,0,7.34c0,1.06.46,1.86,1.59,1.75s1.77-.55,1.68-1.88C102.31,165.85,102.37,164.68,102.37,163.51Z" style="fill:#135a83"/><path d="M194.23,136.74a9.72,9.72,0,0,1-1.93,1.44,3,3,0,0,1-4.31-2.41,39.9,39.9,0,0,1,0-11.13,3,3,0,0,1,4.71-2.19c.42.25.81.57,1.49,1.06,0-2,.07-3.77,0-5.53-.08-1.5.87-1.15,1.64-1.18s1.51-.2,1.5,1.15c-.06,6.35,0,12.7,0,19,0,.61,0,1.27-.81,1.08S194.21,138.88,194.23,136.74Zm0-6.55c0-1.23,0-2.45,0-3.67s-.67-1.65-1.61-1.76c-1.13-.14-1.63.59-1.65,1.67,0,2.5,0,5,0,7.51,0,1,.45,1.76,1.49,1.69s1.83-.41,1.77-1.78C194.16,132.63,194.2,131.41,194.2,130.19Z" style="fill:#135a83"/><path d="M150.88,166.14c0,3.26-1.84,5.32-5,5.53a5.35,5.35,0,0,1-5.61-5c-.07-.67.09-.93.73-1,1.33-.24,2.67-.85,3,1.49a1.6,1.6,0,0,0,2.22,1.22c1.13-.31,1.43-1.13,1.33-2.25a4.3,4.3,0,0,0-1.43-2.68c-1-1-2.15-2-3.21-3a7.69,7.69,0,0,1-2.2-3.83c-.69-3.07.68-5.81,3.26-6.53,3.1-.86,5.66.46,6.46,3.41.12.47.78,1.37-.26,1.53s-2.2,1-2.79-.29-1.34-2-2.67-1.41c-1,.46-1.09,2.21-.22,3.55a19.73,19.73,0,0,0,3.33,3.38C149.49,161.8,150.87,163.58,150.88,166.14Z" style="fill:#135a83"/><path d="M144.78,127.42c0-3.09,0-6.18,0-9.27,0-1.08.32-1.4,1.32-1.37,2.21.07,4.42.11,6.63,0,1.33-.07,1.34.64,1.37,1.69s-.24,1.7-1.45,1.59-2.32,0-3.48,0c-.71,0-1,.28-.94,1,0,.17,0,.35,0,.52,0,1.22-.37,2.76.18,3.58s2.16.34,3.28.31c1.33,0,1,.87,1,1.62s.26,1.68-1.06,1.62c-1.08-.06-2.53-.55-3.18.21s-.17,2.44-.26,3.7c0,.41,0,.82,0,1.23-.08.83.22,1.13,1,1.1,1.33-.06,2.66.08,4,0s1.3.6,1.25,1.57.23,1.74-1.17,1.66c-2.37-.12-4.75-.08-7.13,0-1,0-1.42-.24-1.39-1.42C144.84,133.61,144.78,130.51,144.78,127.42Z" style="fill:#0c5982"/><path d="M461.53,167.62c-3.07-1.44-4-4.15-4-7.45,0-3.5-.06-7,0-10.49.12-4,2.75-6.41,6.55-6.13s6.06,3.24,5.8,7.09c0,.68-.26.92-.88.88a13.82,13.82,0,0,0-1.82,0c-.63,0-.91-.21-.93-.88a5.35,5.35,0,0,0-.45-2.2,2.27,2.27,0,0,0-2.41-1.45,2.11,2.11,0,0,0-2.12,1.87,57.13,57.13,0,0,0,0,13.07,2.32,2.32,0,0,0,2.56,2.21c1.48-.07,2.14-1,2.35-2.44.07-.46.1-.92.18-1.38.21-1.23-.11-1.95-1.44-1.69s-1.49-.41-1.52-1.64.56-1.37,1.49-1.33c1.32.05,2.65.06,4,0,.87,0,1.14.3,1.13,1.21-.05,3,0,5.94,0,8.91,0,.54.38,1.37-.64,1.48-.8.08-1.42-.06-1.56-1.06a3.26,3.26,0,0,0-.33-.74,12.46,12.46,0,0,1-3,2.17Z" style="fill:#135a83"/><path d="M608.39,167.62c-3.73-1.4-4.66-4.52-4.55-8.28.09-3.44-.25-6.88.22-10.3.49-3.61,2.64-5.52,6.12-5.5a5.74,5.74,0,0,1,6.11,5.74,110,110,0,0,1,0,12.58c-.14,2.92-1.84,4.67-4.27,5.76Zm4.35-12.08c0-2,0-4,0-5.95a2.4,2.4,0,0,0-2.36-2.61,2.32,2.32,0,0,0-2.73,2.35,71.09,71.09,0,0,0,0,12.38,2.35,2.35,0,0,0,2.66,2.44c1.51-.07,2.36-.86,2.46-2.67C612.83,159.5,612.75,157.52,612.74,155.54Z" style="fill:#135a83"/><path d="M712.49,167.62c-3.7-1.28-4.72-4.27-4.65-8,.06-3.08-.06-6.17,0-9.25.19-5.16,3.43-7.72,8.13-6.55,2.6.64,4.2,2.66,4.34,6,.15,3.84.11,7.68,0,11.52a6.35,6.35,0,0,1-4.57,6.27Zm4.31-12.08h0c0-1.8.05-3.61,0-5.41-.07-2.12-.93-3.12-2.58-3.16s-2.65.95-2.69,3c-.08,3.72-.08,7.46,0,11.18,0,2,1,2.93,2.57,3s2.6-.91,2.69-3C716.86,159.28,716.8,157.41,716.8,155.54Z" style="fill:#135a83"/><path d="M565.3,167.62c-3.67-1.33-4.73-4.32-4.61-8.06.11-3.55-.3-7.12.24-10.65s2.53-5.28,5.89-5.37,5.78,1.7,6.21,5.19a70.22,70.22,0,0,1,.05,13.6c-.21,2.7-1.93,4.25-4.14,5.29Zm4.33-12h0c0-1.93.06-3.85,0-5.77s-1-2.79-2.5-2.86a2.42,2.42,0,0,0-2.7,2.63c-.13,4-.14,7.92,0,11.88.07,2,1.13,2.76,2.82,2.66,1.5-.09,2.31-1,2.39-2.95S569.63,157.46,569.63,155.6Z" style="fill:#135a83"/><path d="M479.43,167.62c-3.71-1.44-4.6-4.56-4.5-8.32.09-3.31-.18-6.64.17-10,.4-3.81,2.6-5.84,6.21-5.81s5.87,2.2,6.07,6c.18,3.37.08,6.76.14,10.13.07,3.64-.85,6.64-4.44,8Zm-.81-12.1c0,2-.12,4,0,5.91s1,2.71,2.57,2.72,2.43-.72,2.59-2.7a82.09,82.09,0,0,0,0-11.84,2.44,2.44,0,0,0-2.49-2.64c-1.56-.07-2.39.74-2.7,2.63A32.52,32.52,0,0,0,478.62,155.52Z" style="fill:#135a83"/><path d="M646.52,167.62a7.56,7.56,0,0,1-4.77-5.28c-.25-1-.16-1.42.85-1.73,1.42-.44,2.58-.8,2.9,1.38a2.52,2.52,0,0,0,1.61,1.87,2.67,2.67,0,0,0,3.35-.6,2.82,2.82,0,0,0,.08-3.4,8.81,8.81,0,0,0-2.19-2.36c-1.3-1.08-2.68-2.07-3.91-3.24a6.35,6.35,0,0,1-2-6.59,5.3,5.3,0,0,1,4.74-4,5.89,5.89,0,0,1,6.22,2.69l.18.29c1.44,2.46.94,3.41-1.79,3.67-.72.07-.7-.44-.84-.79-.53-1.38-1.23-2.53-2.82-2.53a2.07,2.07,0,0,0-2,1.5c-.58,1.68.39,2.82,1.44,3.78,1.49,1.38,3.13,2.59,4.66,3.92a7,7,0,0,1,2,8.3c-.87,1.73-2.5,2.31-4,3.14Z" style="fill:#135a83"/><path d="M482.62,50.73c5.93.16,13.17-.3,20.4.3a36.19,36.19,0,0,1,10.64,2.35c7.79,3.13,11.67,9.33,11.35,18.11-.45,12.1-6.88,20.06-18.8,23.29-6.16,1.67-12.44,1.89-18.74,1.7-1.5,0-1.79.42-1.78,1.92.09,6.76,0,13.53,0,20.3,0,4.2,1.28,5.91,5.14,6.9,1.18.31,2.37.57,3.56.76,1.54.25,2,1.25,1.88,2.74a1.89,1.89,0,0,1-2.15,2h-35a2,2,0,0,1-2.32-2.09c-.09-1.56.53-2.45,2-2.64,1.2-.15,2.41-.27,3.61-.48,3.52-.61,5-2.4,5-6.16q0-14.34,0-28.69V63.42c0-4.19-1-5.62-4.77-6.85a27.79,27.79,0,0,0-4-1c-1.68-.29-1.94-1.42-1.85-2.92s1-1.93,2.24-1.92C466.52,50.74,473.92,50.73,482.62,50.73ZM505,73.47a27,27,0,0,0-.36-5.51c-.86-5.24-2.85-9.54-8.17-11.17-3.29-1-6.66-.86-10-.87-.94,0-.69.7-.69,1.22,0,11,0,21.91,0,32.86,0,1.06.37,1.3,1.25,1.22,1.6-.13,3.2-.13,4.79-.3,6.85-.77,11.37-4.9,12.78-11.66A22.74,22.74,0,0,0,505,73.47Z" style="fill:#055882"/><path d="M659.6,123.09c-1.47,1.46-2.56,2.59-3.69,3.66-6,5.67-13,7.23-20.66,5.38-5.78-1.39-9.66-6.69-10.61-13.75a41.46,41.46,0,0,1-.36-5.57q0-12.16,0-24.33c0-5-1.87-7.41-6.51-8.33a2.06,2.06,0,0,1-1.92-2.32c0-1.41.61-2.18,2-2.25,6.84-.35,13.67-.73,20.51-1.06,1.75-.09,2.83,1.17,2.85,3.26,0,4,0,8,0,12.08v22.57a26.6,26.6,0,0,0,.27,4.18c1,6.12,4.93,8.77,10.56,7a13.93,13.93,0,0,0,6.81-5,3.17,3.17,0,0,0,.65-2.08c0-9.8,0-19.6,0-29.4,0-4.39-2-6.67-6.18-7-1.13-.09-2.27-.1-2.5-1.67-.28-1.88.36-2.74,2.18-2.84q9.76-.54,19.53-1c3-.15,3.89.8,3.89,3.9q0,20.31,0,40.6c0,5.25,1.44,7,6.42,7.6a2,2,0,0,1,2,2.39c-.05,1.57-.9,2.09-2.28,2.09-6.85,0-13.7,0-20.55,0-1.61,0-2.33-.77-2.41-2.62C659.54,126.9,659.6,125.24,659.6,123.09Z" style="fill:#055882"/><path d="M612.08,105.11c0,4.44,0,8.87,0,13.3a19.36,19.36,0,0,0,.25,3,4.65,4.65,0,0,0,4.54,4.25c.61,0,1.22.06,1.82.08,1.12,0,2.16.23,2.31,1.69s.11,2.58-1.5,3.23a26.47,26.47,0,0,1-15.75,1.65,9.38,9.38,0,0,1-7.37-6.29c-.52-1.43-.9-1-1.6-.24-5.39,5.73-11.91,8.07-19.45,6.93a13.39,13.39,0,0,1-11.61-11.45c-1.09-6.87,1.63-13.21,7.1-16.38,4.62-2.69,9.68-4.18,14.68-5.81,3-1,6-2,8.91-3.2a1.76,1.76,0,0,0,1.24-1.94c-.09-3.32.13-6.66-.55-9.94-1.18-5.75-7.34-8.17-11.88-4.72a2.36,2.36,0,0,0-.69,2.81A23.21,23.21,0,0,1,583.62,87c.23,3.91-1.72,6.85-5.33,7.7a13.81,13.81,0,0,1-6.58,0c-5.25-1.33-7.48-7.8-4.3-12.49a16,16,0,0,1,5.73-4.92,30.65,30.65,0,0,1,11.67-3.62,41.57,41.57,0,0,1,16.28,1c7.59,2.16,11.23,7.58,11.46,16.84.11,4.54,0,9.1,0,13.64Zm-16.62,5.22h.15c0-2.8,0-5.6,0-8.4,0-1.1-.12-1.53-1.25-1a62.09,62.09,0,0,0-6.33,3c-5.53,3.24-7.74,8.27-6.5,14.8a6,6,0,0,0,4.4,5.12,8.79,8.79,0,0,0,9.19-3.78,2.92,2.92,0,0,0,.32-1.67C595.47,115.7,595.46,113,595.46,110.33Z" style="fill:#055882"/><path d="M553.85,99.4v19.06c0,5.3,1,6.72,5.89,8.12,1,.28,1.76.61,1.9,1.83.2,1.87-.47,2.71-2.3,2.72H531.85c-1.82,0-2.61-.64-2.62-2.12,0-1.64.95-2.16,2.33-2.34,4.16-.52,5.49-2.1,5.5-6.48V88.71c0-4.37-1.59-6.63-5.56-8a18.26,18.26,0,0,0-1.91-.58A2.08,2.08,0,0,1,528,77.71a2,2,0,0,1,2-2.12c7-.37,14-.75,21-1.08,1.47-.07,2.59,1.08,2.8,2.85a34.53,34.53,0,0,1,.1,3.67Z" style="fill:#055882"/><path d="M712.17,99.34v19.08c0,5.28,1.05,6.79,5.88,8.15,1.17.32,1.91.8,2,2.16.06,1.64-.53,2.38-2.12,2.39-3.92,0-7.84,0-11.77,0-5.3,0-10.6,0-15.91,0-1.34,0-2.46-.23-2.59-2s.52-2.26,2.31-2.5c4.17-.55,5.42-2,5.42-6.52,0-10.27-.12-20.54,0-30.8.1-5.61-2.41-7.88-6.57-9-.94-.25-2-.35-2.4-1.56a2.3,2.3,0,0,1,2.11-3.26c4.69-.26,9.38-.49,14.07-.73,1.93-.1,3.86-.23,5.79-.32,2.58-.12,3.77,1.06,3.78,3.8Q712.19,88.85,712.17,99.34Z" style="fill:#055882"/><path d="M554.12,59.1A10.26,10.26,0,0,1,544,69.53a10.42,10.42,0,0,1,0-20.83A10.25,10.25,0,0,1,554.12,59.1Z" style="fill:#055882"/><path d="M717,53.12A6.29,6.29,0,0,1,714.79,58a45.8,45.8,0,0,1-6.32,4.44c-4,2.56-8,5.08-12,7.64-.8.51-1.6,1-2.39.13s-.59-1.78,0-2.68c3.14-4.84,6.3-9.67,9.42-14.54,2.13-3.35,5-5,8.85-4.46C715,48.91,717,50.86,717,53.12Z" style="fill:#055882"/><path d="M546.72,152.61c0,4.37-.09,8.74,0,13.1,0,1.67-.74,1.52-1.79,1.56s-1.65-.1-1.63-1.55c.08-6.7,0-13.4.06-20.1,0-.58-.46-1.71.56-1.66s2.68-1,3.43,1c1.54,4,3.13,7.94,4.71,11.91a1.18,1.18,0,0,0,.61.68c0-4,.08-7.95,0-11.93,0-1.56.52-1.74,1.8-1.77s1.63.44,1.61,1.78c-.06,6.64,0,13.29-.05,19.93,0,.56.52,1.65-.56,1.65s-2.39.75-3.07-1.06c-1.65-4.38-3.43-8.69-5.17-13a5.86,5.86,0,0,0-.26-.57Z" style="fill:#0c5982"/><path d="M526.16,155.51c0-3.38,0-6.77,0-10.15,0-1.08.17-1.6,1.34-1.51,1.92.16,3.86-.1,5.79.18,2.33.34,4.12,1.49,4.73,4,.69,2.89.65,5.77-1.72,7.88a1.79,1.79,0,0,0-.56,2.33c.9,2.63,1.68,5.3,2.56,7.93.29.87.11,1.08-.75,1.12-2.6.11-2.6.14-3.42-2.45-.63-2-1.36-3.94-1.88-6-.3-1.17-1-1.26-1.84-1.16s-.61,1-.62,1.49c0,2.27-.08,4.55,0,6.83.06,2-1.29,1.08-2.08,1.2s-1.61.27-1.57-1.21C526.23,162.51,526.16,159,526.16,155.51Zm3.59-4.73c0,.75,0,1.51,0,2.26-.08.93.17,1.31,1.15,1.3,2.65,0,3.68-.9,3.7-3.43s-1-3.64-3.66-3.65c-.94,0-1.28.28-1.19,1.27C529.8,149.27,529.75,150,529.75,150.78Z" style="fill:#135a83"/><path d="M690.55,155.53c0-3.38.05-6.76,0-10.14,0-1.27.37-1.62,1.5-1.53,2,.14,4-.16,6,.24a5.22,5.22,0,0,1,4.57,4.81,56.22,56.22,0,0,1,.06,12.9c-.36,3.46-2.36,5.22-5.69,5.4-1.76.1-3.53,0-5.3.06-.93,0-1.08-.39-1.07-1.24C690.57,162.53,690.55,159,690.55,155.53Zm3.57-.1c0,2-.07,4,0,5.94.05.83-.69,2.11.67,2.46a3.16,3.16,0,0,0,4.06-2,5,5,0,0,0,.26-1.37c0-3.2.13-6.41,0-9.6-.13-2.72-1.3-3.61-3.9-3.56-.87,0-1.14.28-1.12,1.19C694.16,150.78,694.12,153.1,694.12,155.43Z" style="fill:#1a5b84"/><path d="M586.52,155.48c0-3.43,0-6.87,0-10.3,0-1,.2-1.37,1.18-1.32,1.87.1,3.76-.07,5.61.15,3.45.4,5.3,2.44,5.43,6.07s.13,7.34,0,11-2.31,6-5.92,6.14c-1.71.08-3.42,0-5.13.05-1,0-1.19-.35-1.17-1.31C586.55,162.47,586.52,159,586.52,155.48Zm3.61,0c0,2.39,0,4.78,0,7.17,0,.46-.23,1,.55,1.22,2.43.61,4.35-.8,4.43-3.48q.14-4.72,0-9.45c-.07-2.66-1.14-3.61-3.62-3.69-1,0-1.46.19-1.41,1.41C590.2,150.93,590.13,153.21,590.13,155.48Z" style="fill:#135a83"/><path d="M683.9,167.2c-1.24.26-1.94,0-2.19-1.49-.64-3.71-.71-3.67-4.35-3.56-.86,0-1.37.21-1.39,1.23a12.13,12.13,0,0,1-.27,1.54c-.39,2.37-1,2.78-3.28,2.35-.93-.18-.47-.75-.4-1.15q1.23-6.68,2.49-13.34c.49-2.57,1-5.12,1.45-7.7.16-1,.53-1.2,1.4-1.22,3.64-.08,3.66-.12,4.4,3.55,1.2,6,2.33,12,3.61,17.9C685.73,167,685.55,167.65,683.9,167.2Zm-5.21-18.07-.25.09c-.4,2.34-.79,4.67-1.21,7-.53,2.94-.54,2.91,2.34,2.65.64-.06.88-.23.76-.92C679.77,155,679.24,152.07,678.69,149.13Z" style="fill:#135a83"/><path d="M499.62,160.85q1.33-7.8,2.69-15.59c.09-.55,0-1.31.75-1.35a11.23,11.23,0,0,1,2.78.12c.4.08.14.74.08,1.1-1.32,7-2.66,14.05-4,21.07-.14.75-.43,1-1.2,1.07-3.4.17-3.39.2-4.12-3.28-1.31-6.19-2.6-12.38-4-18.56-.26-1.19-.15-1.52,1.12-1.61,1.78-.12,2.44.45,2.75,2.35.81,4.92,1.88,9.79,2.85,14.68Z" style="fill:#135a83"/><path d="M628.29,155.71c0-3.44.06-6.89,0-10.33,0-1.26.36-1.57,1.49-1.53,2.6.09,5.2.11,7.79,0,1.5-.06,1.19.93,1.22,1.82s.12,1.74-1.22,1.64c-1.54-.13-3.1,0-4.64-.05-.81,0-1,.28-1,1.11.05,1.28.07,2.57,0,3.84-.06,1,.34,1.21,1.16,1.14s1.45.09,2.15,0c1.57-.27,1.79.51,1.78,2,0,1.29-.43,1.51-1.53,1.5-3.54,0-3.55,0-3.55,3.79,0,3.3,0,3.3,3.07,3.3a15.56,15.56,0,0,0,2.16,0c1.29-.17,1.69.31,1.69,1.72s-.39,1.78-1.68,1.72c-2.37-.11-4.75-.11-7.12,0-1.34.07-1.82-.25-1.76-1.78C628.38,162.24,628.29,159,628.29,155.71Z" style="fill:#1a5b84"/><path d="M510.55,155.56c0-3.43,0-6.87,0-10.31,0-1,.24-1.43,1.28-1.4,2.65.08,5.3.1,7.94,0,1.54-.06,1.14,1,1.18,1.84s.14,1.74-1.21,1.62c-1.54-.14-3.09,0-4.63,0-.71,0-1,.23-1,1a1.08,1.08,0,0,1,0,.18c0,1.51-.45,3.34.19,4.45s2.52.39,3.85.42c1.48,0,1,1.1,1,1.84s.28,1.77-1,1.59c-.1,0-.22,0-.33,0-3.68.07-3.68.07-3.68,4,0,3.08,0,3.08,3,3.08a12,12,0,0,0,2,0c1.54-.24,2,.41,1.9,2-.05,1.16-.35,1.47-1.41,1.44-2.54-.08-5.08-.1-7.61,0-1.21.05-1.46-.4-1.43-1.58C510.6,162.32,510.55,158.94,510.55,155.56Z" style="fill:#1a5b84"/><path d="M662.43,157.17c0-2.92,0-5.83,0-8.74,0-.93-.25-1.27-1.12-1.16-.49,0-1-.07-1.48,0-1.54.27-2-.4-1.9-2,.06-1.14.34-1.48,1.43-1.46,3.25.08,6.5.1,9.75,0,1.35,0,1.4.66,1.34,1.69s.24,1.8-1.25,1.78c-3.18,0-3.18.05-3.18,3.46,0,4.89-.09,9.79,0,14.68,0,1.72-.6,1.82-1.89,1.83s-1.88-.14-1.8-1.74C662.54,162.76,662.43,160,662.43,157.17Z" style="fill:#135a83"/><path d="M104.38,131.59c0,1.69,0,3.38,0,5.07,0,.47.39,1.27-.23,1.35-.86.12-2.08.61-2.57-.3s-.66-.4-1-.19c-2.28,1.28-4.22,1.18-5.28-.26s-.94-4.32.51-6.15a10.06,10.06,0,0,1,4.39-3,1.48,1.48,0,0,0,1-1.86c-.1-.85-.43-1.43-1.31-1.5a1.46,1.46,0,0,0-1.76,1.15c-.24.83-2.28,1.43-3,1-.46-.29-.23-.73-.16-1.08.46-2.61,2.65-4.06,5.68-3.78,2.51.22,3.74,1.68,3.79,4.53,0,1.69,0,3.38,0,5.06Zm-3.21-1.35a6.82,6.82,0,0,0-3,2.33,2.39,2.39,0,0,0-.22,2.61,1.26,1.26,0,0,0,1.65.38,2,2,0,0,0,1.55-2C101.15,132.54,101.17,131.51,101.17,130.24Z" style="fill:#1a5b84"/><path d="M76.54,131.65c0,1.63,0,3.26,0,4.89,0,.51.47,1.38-.28,1.47s-2,.65-2.54-.35c-.4-.75-.57-.39-.92-.2l-.14.1c-2.16,1.21-4.09,1.14-5.16-.21s-1.07-4,.18-5.87a9.25,9.25,0,0,1,4.56-3.31,1.59,1.59,0,0,0,1.08-2c-.13-.85-.5-1.39-1.37-1.44A1.47,1.47,0,0,0,70.21,126c-.22.81-2,1.42-2.88.89s-.2-1.36,0-2c.81-2.28,3.23-3.4,5.94-2.84,2.2.45,3.21,1.84,3.24,4.53,0,1.69,0,3.37,0,5.06Zm-3.21-1.49a7.85,7.85,0,0,0-3,2.52,2.38,2.38,0,0,0-.17,2.46,1.24,1.24,0,0,0,1.63.43,2,2,0,0,0,1.59-1.95C73.32,132.58,73.33,131.54,73.33,130.16Z" style="fill:#1a5b84"/><path d="M12.93,130.1a22.72,22.72,0,0,1,.25-4.51c.64-2.55,2.17-3.69,4.92-3.61a4.31,4.31,0,0,1,4.4,3.88c.83,4.57.55,4.92-3.84,4.92-2.73,0-3,.41-2.47,3.33.18.92.61,1.48,1.52,1.53a1.4,1.4,0,0,0,1.64-1.35c.06-2.3,1.62-1.42,2.7-1.52.7-.06.53.56.52,1a4.52,4.52,0,0,1-3.95,4.6A4.51,4.51,0,0,1,13.23,135,21.49,21.49,0,0,1,12.93,130.1Zm4.76-2c1.82,0,1.82,0,1.84-.94,0-1.51-.64-2.42-1.79-2.38-1.34.06-1.5,1.07-1.62,2.17C15.94,128.45,17,128,17.69,128.05Z" style="fill:#135a83"/><path d="M49.7,165c0,1.63,0,3.26,0,4.89,0,.49.49,1.33-.37,1.41s-2,.54-2.42-.31-.61-.46-1-.22c-2.3,1.29-4.21,1.2-5.28-.24s-.95-4.31.49-6.15a9.83,9.83,0,0,1,4.24-2.93,1.56,1.56,0,0,0,1.15-1.94c-.12-.84-.42-1.43-1.3-1.51a1.5,1.5,0,0,0-1.81,1.33c-.16.71-2.63,1.24-3.1.71-.25-.29-.1-.65,0-1,.48-2.63,2.63-4.06,5.67-3.81,2.53.22,3.76,1.67,3.8,4.51,0,1.75,0,3.5,0,5.24Zm-3.22-1.56A7.49,7.49,0,0,0,43.42,166a2.31,2.31,0,0,0-.12,2.46,1.26,1.26,0,0,0,1.64.38A2,2,0,0,0,46.47,167C46.5,165.92,46.48,164.83,46.48,163.44Z" style="fill:#1a5b84"/><path d="M126,130c0-1.28-.1-2.57,0-3.83a4.29,4.29,0,0,1,4.27-4.21c2.84-.13,4.43,1,5.07,3.63a22.5,22.5,0,0,1,.25,4.34c0,.75-.34.85-.92.84-1.37,0-2.76.1-4.13,0s-1.73.48-1.56,1.77c.07.57.05,1.16.16,1.73a1.5,1.5,0,0,0,1.63,1.39c.9,0,1.37-.56,1.55-1.49a2.23,2.23,0,0,1,3-1.36c.42.23.28.58.27.9a4.59,4.59,0,0,1-4.41,4.72c-2.88.18-4.83-1.36-5.12-4.2A39,39,0,0,1,126,130Zm4.62-1.94c.68-.26,2,.59,1.8-1.15-.09-1.18-.32-2.25-1.76-2.19s-1.56,1.21-1.65,2.34C128.87,128.59,130,127.85,130.6,128.08Z" style="fill:#135a83"/><path d="M184.79,131.64c0,1.57,0,3.15,0,4.72,0,.56.58,1.48-.2,1.64s-1.94.63-2.56-.33c-.42-.64-.63-.4-1-.16l-.14.1c-2.11,1.14-4,1.06-5-.21s-1.09-4.2.2-6a9.82,9.82,0,0,1,4.6-3.27,1.43,1.43,0,0,0,1-1.84c-.14-.79-.4-1.45-1.31-1.53a1.5,1.5,0,0,0-1.8,1.12c-.28.85-2.19,1.45-3,1-.41-.23-.24-.59-.22-.9.2-2.39,2.25-4,5-4s4.22,1.29,4.35,3.89c.09,1.92,0,3.85,0,5.77Zm-3.12-1.49a7.17,7.17,0,0,0-3.1,2.53,2.29,2.29,0,0,0-.19,2.46,1.28,1.28,0,0,0,1.64.45,2.09,2.09,0,0,0,1.64-1.92C181.69,132.59,181.67,131.5,181.67,130.15Z" style="fill:#0c5982"/><path d="M90.14,169.89c-.69.52-1.08.86-1.5,1.13-2.58,1.62-4.84.38-4.9-2.77-.07-3.85,0-7.7,0-11.55,0-1.69,1.06-1,1.81-1.16s1.41,0,1.38,1.24c-.09,3.38,0,6.77,0,10.15,0,.93-.13,2.07,1.22,1.94A1.83,1.83,0,0,0,90,166.76c-.09-3.21.07-6.42-.07-9.63-.07-1.59.66-1.55,1.76-1.63,1.34-.1,1.52.48,1.5,1.7-.06,4.2,0,8.4,0,12.6,0,.64.4,1.75-.87,1.53C91.42,171.2,89.92,172.26,90.14,169.89Z" style="fill:#135a83"/><path d="M108.41,163.36c0-1.28-.1-2.57,0-3.84a4.28,4.28,0,0,1,4.21-4.27c2.91-.17,4.53,1,5.17,3.71a24.24,24.24,0,0,1,.22,4.17c0,.84-.37.93-1,.92-1.49,0-3,0-4.47,0-.82,0-1.26.17-1.15,1.14.1.81.06,1.63.21,2.42a1.44,1.44,0,0,0,1.68,1.31,1.55,1.55,0,0,0,1.45-1.41,2.17,2.17,0,0,1,2.9-1.47c.43.19.33.52.33.85a4.67,4.67,0,0,1-4,4.77,4.52,4.52,0,0,1-5.44-3.58A19.44,19.44,0,0,1,108.41,163.36Zm4.67-2c.6-.33,1.86.64,1.79-1-.05-1.12-.17-2.29-1.63-2.37-1.16-.06-1.82.85-1.83,2.37S112.47,161.09,113.08,161.35Z" style="fill:#135a83"/><path d="M80.58,165c0,1.57,0,3.15,0,4.72,0,.53.63,1.4-.24,1.58s-2,.54-2.46-.26-.75-.41-1.21-.15c-2,1.16-4,1.06-5-.22s-1.09-4.12.11-5.89a9.75,9.75,0,0,1,4.55-3.33c.91-.37,1.37-.87,1.14-1.94-.18-.79-.43-1.44-1.34-1.5a1.58,1.58,0,0,0-1.82,1.33c-.49,1.67-1.87.84-2.75.75-1.11-.12-.28-1.17-.15-1.63.66-2.42,3.1-3.65,5.92-3.14,2.24.41,3.27,1.79,3.29,4.45,0,1.74,0,3.49,0,5.23Zm-3.09.89c0-.64,0-1.11,0-1.57s-.14-.87-.66-.55a5.47,5.47,0,0,0-2.76,2.84,1.68,1.68,0,0,0,.36,2,1.7,1.7,0,0,0,2.14-.17A2.58,2.58,0,0,0,77.49,165.87Z" style="fill:#0c5982"/><path d="M47.07,130.23c0-1.28-.09-2.57,0-3.85.22-2.64,1.75-4.22,4.12-4.39,3-.22,4.65,1,5.28,3.79a23.38,23.38,0,0,1,.2,4.18c.05.77-.36.83-.92.83-1.55,0-3.09,0-4.64,0-.77,0-1.13.22-1.05,1.08s.05,1.63.18,2.43a1.47,1.47,0,0,0,1.65,1.36,1.54,1.54,0,0,0,1.5-1.36,2.19,2.19,0,0,1,2.89-1.5c.54.23.35.65.33,1A4.55,4.55,0,0,1,52,138.41a4.39,4.39,0,0,1-4.86-4.34c-.12-1.27,0-2.56,0-3.84Zm4.74-2.14c.62-.28,1.85.58,1.73-1.06-.09-1.14-.24-2.29-1.7-2.3s-1.64,1.11-1.75,2.27C50,128.63,51.15,127.85,51.81,128.09Z" style="fill:#135a83"/><path d="M209.86,130.28a23.61,23.61,0,0,1-.26,4.52,4.37,4.37,0,0,1-4.79,3.61,4.25,4.25,0,0,1-4.5-4,37.61,37.61,0,0,1,0-8.55,4.19,4.19,0,0,1,4.36-3.91c2.76-.08,4.29,1,4.93,3.6A25.51,25.51,0,0,1,209.86,130.28Zm-6.58-.22h0c0,1.28-.07,2.56,0,3.83.07,1,.56,1.78,1.67,1.76s1.57-.74,1.64-1.78a55.72,55.72,0,0,0,0-7.31c-.06-1-.46-1.79-1.59-1.83s-1.67.78-1.75,1.85S203.28,128.9,203.28,130.06Z" style="fill:#0c5982"/><path d="M28.51,130.12c0,1.22,0,2.45,0,3.67.05,1,.48,1.81,1.59,1.84s1.6-.75,1.74-1.87c.07-.54-.31-1.37.34-1.55a8.77,8.77,0,0,1,2.46-.06c.35,0,.37.34.41.64a5,5,0,0,1-3.62,5.51c-2.8.65-5.36-.71-5.84-3.37a26,26,0,0,1,0-9.55c.49-2.6,2.84-3.86,5.73-3.34a4.77,4.77,0,0,1,3.68,4.9c0,.41-.11.6-.51.72A2,2,0,0,1,31.77,126a1.56,1.56,0,0,0-1.71-1.3,1.49,1.49,0,0,0-1.5,1.54c-.1,1.27,0,2.56,0,3.84Z" style="fill:#1a5b84"/><path d="M160.34,122a4.42,4.42,0,0,1,4.54,2.86c.18.44.76,1.12-.12,1.39-.71.22-1.55.81-2.25-.09-.2-.26-.27-.66-.49-.89a1.42,1.42,0,0,0-2.09-.18,1.27,1.27,0,0,0,.06,2c.92.91,1.95,1.71,2.94,2.54a6.17,6.17,0,0,1,2.41,3.84,4.11,4.11,0,0,1-3.39,4.92,4.72,4.72,0,0,1-5.6-3.64c-.16-.85.32-1,.75-1,.66,0,1.37-1.09,2,0,.16.3.2.68.37,1a1.52,1.52,0,0,0,2.39.62c.89-.63.66-1.57.06-2.28a13.84,13.84,0,0,0-2-1.84,13.12,13.12,0,0,1-2.46-2.31,4.29,4.29,0,0,1-.52-4.59A3.8,3.8,0,0,1,160.34,122Z" style="fill:#1a5b84"/><path d="M126.58,42.86c1.81-3.5,3.49-6.7,5.12-9.93a1.5,1.5,0,0,1,1.62-.87c2.65,0,5.3,0,7.93,0,.21.36,0,.57-.19.79-2.67,3.1-5.35,6.2-8,9.32a1.66,1.66,0,0,1-1.42.69C130,42.83,128.44,42.86,126.58,42.86Z" style="fill:#135a83"/><path d="M60,130.49v-3.84c0-.83.26-1.75-1.14-1.71-.95,0-.49-1-.54-1.52s-.24-1.21.58-1.12c1.28.15,1.1-.73,1.1-1.54a9.17,9.17,0,0,0,0-1.05c-.18-1.3.2-1.8,1.57-1.79s1.7.43,1.63,1.79c-.05,1.16-.62,2.78,1.6,2.66.84-.05.36,1,.46,1.58s0,1.13-.73,1c-1.29-.18-1.4.56-1.38,1.65.06,2.33,0,4.66,0,7,0,.94.09,1.74,1.3,1.75,1.38,0,.65,1.18.78,1.84s-.21,1.12-1,1.21c-2.69.31-4.23-1.07-4.26-3.92C60,133.17,60,131.83,60,130.49Z" style="fill:#135a83"/><path d="M168.33,130.68c0-1.34,0-2.69,0-4,0-.88.18-1.74-1.18-1.71-.92,0-.53-1-.58-1.53s-.15-1.19.64-1.11c1.23.13,1.15-.71,1.12-1.55a9.17,9.17,0,0,0,0-1c-.2-1.37.31-1.76,1.62-1.77s1.66.45,1.49,1.7c-.07.52,0,1.05,0,1.58,0,.68.1,1.19.88,1.06,1.09-.17,1.28.39,1.26,1.41s-.18,1.47-1.19,1.33-1,.4-1,1.16c0,2.5,0,5,0,7.52,0,.72,0,1.61.89,1.6,1.76,0,1.2,1.27,1.2,2.17,0,1.35-1.06.94-1.73.93-2.33,0-3.39-1.2-3.44-3.68C168.31,133.36,168.33,132,168.33,130.68Z" style="fill:#0c5982"/><path d="M208.51,160.74c0,3.15-.06,6.29,0,9.43,0,1.29-.63,1.35-1.42,1.17s-2.14.86-2.14-1.12c0-6.34,0-12.68,0-19,0-1.94,1.38-.94,2.16-1.12s1.41,0,1.38,1.24C208.46,154.46,208.51,157.6,208.51,160.74Z" style="fill:#1a5b84"/><path d="M40.85,123.75c.63-.49,1-.86,1.48-1.17.77-.52,1.85-1,2.48-.48s.24,1.84.25,2.8c0,.77-.54.31-.84.29-2.64-.21-3.18.3-3.18,3s-.09,5.72,0,8.57c.07,1.57-.8,1.29-1.67,1.33s-1.64.09-1.61-1.38c.1-4.31,0-8.62.05-12.94,0-.59-.36-1.64.77-1.47C39.49,122.44,41.09,121.26,40.85,123.75Z" style="fill:#1a5b84"/><path d="M82.71,123.7A5.88,5.88,0,0,1,85.64,122c.89-.12,1.31.08,1.24,1.16s.33,2.48-1.72,2c-1.59-.33-2.33.57-2.34,2.31,0,3.09-.09,6.19,0,9.27.06,1.54-.76,1.32-1.65,1.34s-1.66.12-1.63-1.37c.1-4.31,0-8.62,0-12.94,0-.59-.38-1.59.77-1.5C81.29,122.38,82.7,121.56,82.71,123.7Z" style="fill:#1a5b84"/><path d="M124.94,171.57c2-7,4-13.91,5.91-20.83.45-1.62,1.65-1.05,2.42-.89,1.08.22.23,1.15.09,1.66-1.64,6-3.35,11.93-5,17.9C127.65,171.79,127.66,171.79,124.94,171.57Z" style="fill:#1a5b84"/><path d="M88.9,130.11c0-2.21.07-4.43,0-6.64-.07-1.5.85-1.19,1.62-1.19s1.66-.31,1.64,1.18q-.12,6.74,0,13.47c0,1.51-.87,1.16-1.63,1.16s-1.7.37-1.63-1.16C89,134.66,88.9,132.39,88.9,130.11Z" style="fill:#1a5b84"/><path d="M390.81,186.63c5.91,1.19,11.84.93,17.81.23-5.21,2.91-10.85,4.18-16.6,5C391.62,190.15,391.21,188.39,390.81,186.63Z" style="fill:#1f3b4c"/><path d="M326.64,191.9c-5.74-.94-11.42-2.12-16.61-5.08,6,.65,11.91,1.08,17.83-.2C327.76,188.46,327,190.12,326.64,191.9Z" style="fill:#1f3b4c"/><path d="M355.48,199.24a1.93,1.93,0,0,1,1.67-.67c-.36,4.54-2.66,7.91-5.83,10.75-.32.29-.68.71-1.15.34-1.62-1.26-3.54-2-4.9-3.69,4.24-.83,7.41-3.64,10.6-6.39C356.07,199.41,355.66,199.3,355.48,199.24Z" style="fill:#135a83"/><path d="M361.87,20c2.14.57,4.43.27,6.53,1.18a40.7,40.7,0,0,1-9.94,3.06h0l-3-4.23c1.18-2,1.55-4.44,3.06-6.25.47.61.23,1.33.24,2,0,2.62,0,5.25,0,8.26A14.49,14.49,0,0,0,361.87,20Z" style="fill:#bcc9d2"/><path d="M350.16,9.14a4.05,4.05,0,0,1-3.89-4.09,3.93,3.93,0,1,1,7.85.11A4,4,0,0,1,350.16,9.14Zm.15-6.71a2.3,2.3,0,0,0-2.49,2.36,2.65,2.65,0,0,0,2.36,3,2.35,2.35,0,0,0,2.38-2.5C352.62,3.61,351.72,2.49,350.31,2.43Z" style="fill:#32302e"/><path d="M359.2,5a16.83,16.83,0,0,1,0-1.74c.38-4-.16-3.18,2.32-3.09,2.82.11,4.33,1.8,4.1,4.29s-1.54,3.63-3.81,3.67a11.66,11.66,0,0,0-1.32,0c-1.13.13-1.64-.27-1.41-1.54a9.11,9.11,0,0,0,0-1.57Zm4.92-.9a3.45,3.45,0,0,0-.05-.73,2.33,2.33,0,0,0-2.64-1.86c-1.3.09-.48,1.25-.69,1.9a4.24,4.24,0,0,0-.14,1.55c0,.59-.5,1.44.21,1.71a2.41,2.41,0,0,0,2.38-.3A2.63,2.63,0,0,0,364.12,4.06Z" style="fill:#32302e"/><path d="M345.83,7.94c0,1.9-2.71,4.38-4.6,4.31-.53,0-.56-.47-.69-.83-.69-1.84-1.37-3.67-2.07-5.51-.12-.31-.34-.6-.09-1,.48-.67,3.91-1.45,4.86-1.11A4.39,4.39,0,0,1,345.83,7.94ZM341.88,5c-1.55,0-1.95.65-1.39,2.13.34.92.69,1.82,1,2.74.12.33.17.62.64.58a2.67,2.67,0,0,0,2.13-2.67A2.64,2.64,0,0,0,341.88,5Z" style="fill:#32302e"/><path d="M366.73,5.35a3.79,3.79,0,0,1,3.93-4,3.84,3.84,0,0,1,3.78,4.13,3.86,3.86,0,1,1-7.71-.16Zm4.12-2.55a2.56,2.56,0,0,0-2.71,2.6,2.53,2.53,0,0,0,2.25,2.7A2.65,2.65,0,0,0,373,5.54,2.48,2.48,0,0,0,370.85,2.8Z" style="fill:#32302e"/><path d="M394.69,25.2A3.44,3.44,0,0,1,391.8,23a2.75,2.75,0,0,1,.54-3.2c1-1,2.15-2,3.21-3,.4-.38.69-.45,1.09,0s.26.79-.14,1.14c-.93.82-1.83,1.67-2.76,2.49s-1.18,1.58-.4,2.54,1.72.8,2.58,0,1.75-1.6,2.62-2.4c.32-.29.58-.7,1.07-.14s.39.85-.1,1.27c-1.06.92-2.08,1.9-3.14,2.83A3.05,3.05,0,0,1,394.69,25.2Z" style="fill:#32302e"/><path d="M355.48,199.24c.18.06.59.17.39.34-3.19,2.75-6.36,5.56-10.6,6.39l.33-3.7A62.58,62.58,0,0,0,355.48,199.24Z" style="fill:#1f3b4c"/><path d="M373.32,206c-3.55-.61-6.3-2.84-9.07-5a4,4,0,0,1-1.72-1.79A90.85,90.85,0,0,0,373,202.28C373.1,203.51,373.21,204.74,373.32,206Z" style="fill:#1f3b4c"/><path d="M390.26,21c-.74-.41-1.38-.83-.9-1.66.59-1,0-1.52-.58-2.18a1.2,1.2,0,0,0-2,0c-.55.5-1,.23-1.37-.28-.44-.68.3-.74.59-.93,1.68-1.09,3.4-2.14,5.1-3.2.44-.27.82-.5,1.32,0a1.16,1.16,0,0,1,.26,1.51C391.87,16.4,391.1,18.63,390.26,21Zm.53-6.5a9.86,9.86,0,0,0-1.11.7c-.2.17-.74.2-.47.68a2.07,2.07,0,0,0,.82.79c.42.2.5-.25.6-.55s.27-.86.4-1.29l.16-.4Z" style="fill:#32302e"/><path d="M322.81,28.92c-.45-.32-.86-.61-1.26-.91-1.31-1-2.58-2-3.91-2.94-.7-.48-.72-.86-.22-1.5s1.11-1.6,1.65-2.41c.25-.37.49-.57.94-.22s.33.65.06,1-.56.87-.88,1.27c-.45.57-.35.92.24,1.35s.95.44,1.31-.23c.16-.3.39-.56.58-.85s.46-.38.82-.15.41.59.17,1-1,1-.84,1.57c.09.4.67.77,1.11,1s.55-.59.89-.8c.63-.4.65-2.1,1.64-1.37s-.34,1.49-.68,2.15A4.53,4.53,0,0,1,322.81,28.92Z" style="fill:#32302e"/><path d="M384.74,8.45c.06,2-1.73,3.43-3.45,2.51-1.17-.62-1.75-.45-2.17.79-.16.48-.32,1-1,.61s-.5-.76-.25-1.26c.69-1.38,1.31-2.81,2.07-4.14.37-.64.31-1.9,1.38-1.75C383.05,5.47,384.71,7.14,384.74,8.45ZM381.68,6.9a2.87,2.87,0,0,0-1,2c0,.71.89,1,1.54.94a1.22,1.22,0,0,0,1.11-1.44C383.25,7.46,382.45,7.28,381.68,6.9Z" style="fill:#32302e"/><path d="M335.19,14.19c.07.46.15.81.17,1.15,0,.6-.47.8-.87.88s-.45-.4-.51-.72c-.42-2.1-.82-4.21-1.26-6.31a1.06,1.06,0,0,1,.44-1.32.93.93,0,0,1,1.31.14c1.48,1.31,3,2.56,4.47,3.89.3.27,1.11.43.67,1.08a.87.87,0,0,1-1.53,0c-1.16-1.39-1.9,0-2.77.48C335,13.65,335.13,14,335.19,14.19Zm1-2.77a5.42,5.42,0,0,0-1.89-1.67c-.16,1,.34,1.68.38,2.63Z" style="fill:#32302e"/><path d="M329,20.43a3.47,3.47,0,0,1-2.69,3.09c-.51,0-.7-.18-.81-.62s0-.67.42-.78a2.1,2.1,0,0,0,.61-.21c.56-.36,1.3-.75,1-1.57s-1.13-.37-1.74-.22a3,3,0,0,0-.45.21c-1.8.71-2.82.42-3.32-1a3,3,0,0,1,1.88-3.57c.39-.15.83-.46,1.09.21a.71.71,0,0,1-.43,1.07,3,3,0,0,0-.84.53,1,1,0,0,0-.3,1.25c.25.56.68.46,1.13.27a15.43,15.43,0,0,1,1.84-.75A2.1,2.1,0,0,1,329,20.43Z" style="fill:#32302e"/><path d="M358.79,30.49c-2,1.15-3.89,2.31-5.85,3.41-.23.13-.88,1-.86-.24a59.42,59.42,0,0,0,6.06-8.77h0l.34-.36h0c.36,0,.76-.07,1,.35-.82.07-.68.73-.68,1.29C358.77,27.62,358.79,29.06,358.79,30.49Z" style="fill:#bcc9d2"/><path d="M353.47,26.29c-1.79-1.7-3.79-3.18-5.29-5.22a5.19,5.19,0,0,1,2,.53l8.25,2.6h0v.36h0l-.34.36h0C356.43,24.77,355.09,26.05,353.47,26.29Z" style="fill:#bcc9d2"/><path d="M358.46,24.55v-.36a40.7,40.7,0,0,0,9.94-3.06H369a1.76,1.76,0,0,0,.1.3l-5,4.91c-1.67-.06-3-1.27-4.66-1.44h0C359.22,24.48,358.82,24.57,358.46,24.55Z" style="fill:#9f9f9e"/><path d="M358.79,30.49c0-1.43,0-2.87,0-4.3,0-.56-.14-1.22.68-1.29h0c.8,2.43,2.63,4.17,3.84,6.33.51.92,1.47,1.61,1.45,2.84Z" style="fill:#9f9f9e"/><path d="M332.7,17.51c0,.47-.32.59-.55.8-.48.42-.68-.07-.9-.35-.87-1.12-1.79-2.21-2.57-3.39-.63-.94-1.14-1-1.9-.2-.27.3-.62,1-1.19.28s.09-1,.46-1.31c1.1-1,2.22-1.89,3.33-2.84.35-.3.67-.63,1.1-.07s0,.89-.34,1.1c-1.4.79-.89,1.56-.1,2.47s1.47,1.88,2.2,2.83C332.41,17.05,332.56,17.29,332.7,17.51Z" style="fill:#32302e"/><path d="M364.75,34.06c0-1.23-.94-1.92-1.45-2.84-1.21-2.16-3-3.9-3.84-6.33,1.64.17,3,1.38,4.66,1.44a65.37,65.37,0,0,0,1.2,6.51C365.39,33.24,366.09,34.27,364.75,34.06Z" style="fill:#bcc9d2"/><path d="M361.87,20a14.49,14.49,0,0,1-3.08,4c0-3,0-5.64,0-8.26,0-.67.23-1.39-.24-2,.26-1.27.56-.46.76,0C360.17,15.79,361,17.87,361.87,20Z" style="fill:#9f9f9e"/><path d="M353.47,26.29c1.62-.24,3-1.52,4.67-1.4a59.42,59.42,0,0,1-6.06,8.77C352.54,31.2,353,28.75,353.47,26.29Z" style="fill:#9f9f9e"/><path d="M358.47,24.2l-8.25-2.6a5.19,5.19,0,0,0-2-.53c.78-.8,1.83-.42,2.74-.61a40.49,40.49,0,0,1,4.56-.49Z" style="fill:#9f9f9e"/><path d="M404.2,23.75c-1.12.27-2-.1-2.85.93-1.26,1.45-3.11,2.34-4.69,3.49-.4.29-.7.49-1.1-.05s-.18-.89.3-1.23a37.16,37.16,0,0,1,4.81-3.32C401.58,23.13,403,21.7,404.2,23.75Z" style="fill:#32302e"/><path d="M86.56,153.47c2.07-4.37,2.07-4.37,5.44-4C90.54,152.47,88.79,153.8,86.56,153.47Z" style="fill:#1a5b84"/><path d="M384,15.87a6.19,6.19,0,0,1-.81-.58c-.27-.27,0-.53.12-.76,1.12-1.79,2.25-3.58,3.36-5.38.25-.4.51-.57.93-.26s.66.48.36,1l-3.55,5.66A1.93,1.93,0,0,1,384,15.87Z" style="fill:#32302e"/><path d="M90.44,119.83c-1.39.36-1.52-.38-1.58-1.6-.08-1.6.8-1.36,1.75-1.46,1.32-.14,1.51.45,1.55,1.69C92.21,120,91.42,120,90.44,119.83Z" style="fill:#1a5b84"/><path d="M444.34,129.23c.2,0,.33.23.22.36-.24.31-.28-.13-.44-.18Z" style="fill:#1a763e"/><path d="M410.86,139.06a.33.33,0,0,1-.49.23l.34-.45Z" style="fill:#1a763e"/><path d="M418.82,38.2l-.18-.2s0,.08.07.12a.48.48,0,0,0,.09.11Z" style="fill:#1a763e"/><path d="M408.61,63.24c-.42-.42-.07-.67.19-.93l.26.3-.46.58Z" style="fill:#1a763e"/><path d="M312.36,173.72c.3,0,.6,0,.64.44A.61.61,0,0,1,312.36,173.72Z" style="fill:#1f3b4c"/><path d="M410.89,72.91c-.1.09-.24.28-.28.26-.27-.15-.06-.32,0-.48Z" style="fill:#1a763e"/><path d="M410.89,120.52l-.12.25-.18-.14.25-.15Z" style="fill:#1a763e"/><path d="M411.34,108.8c-.14.08-.29.32-.44,0,0,0,.16-.18.24-.28A1.57,1.57,0,0,1,411.34,108.8Z" style="fill:#1a763e"/><path d="M408.6,63.19l-.31,0,.13-.21.19.21S408.6,63.19,408.6,63.19Z" style="fill:#1a763e"/><path d="M369.13,21.42a1.76,1.76,0,0,1-.1-.3C369.34,21.11,369.37,21.21,369.13,21.42Z" style="fill:#bcc9d2"/><path d="M405.9,174.12c0-.31.11-.36.33-.17Z" style="fill:#1f3b4c"/><path d="M311.89,173.36l.5.38Z" style="fill:#1f3b4c"/><polygon points="409.88 99.17 409.81 99.21 409.93 99.21 409.88 99.17" style="fill:#1a763e"/><path d="M410.18,98.77l-.3.4.05,0c-.09-.28-.12-.52.29-.41Z" style="fill:#1a763e"/><path d="M446.66,100.51c.18,0,.31.13.2.32s-.25-.06-.39-.1A2,2,0,0,1,446.66,100.51Z" style="fill:#1a763e"/><path d="M410.22,98.8c-.29-.25,0-.39.1-.55a2.39,2.39,0,0,1,.23.22.32.32,0,0,1-.37.3Z" style="fill:#1a763e"/><path d="M295.06,137l-.14-.39.39.05C295.23,136.81,295.14,136.92,295.06,137Z" style="fill:#fefefe"/><path d="M302.73,153.18l-.11.21s-.1-.08-.09-.11a1.07,1.07,0,0,1,.1-.22Z" style="fill:#fefefe"/><path d="M297.68,150.43l0,.41-.21-.21A.91.91,0,0,1,297.68,150.43Z" style="fill:#dbe5eb"/><path d="M336.27,200c-1.67-.16-3.71.61-4.31-2.08-.78.45.08,1.69-1,1.75a1.5,1.5,0,0,1-1.59-.87c-.15-.27-.67-.18-1.12.16a3.07,3.07,0,0,1-2.44.22.78.78,0,0,1-.48-1.1c.55-.71.82,1.34,1.31.16.32-.78.68-1.75-.64-2.32,1.56-.17,1.56-.17,1.64,2.25.09,0,.22,0,.28-.12.55-.61.53-2.15,1.32-1.94,1.06.28.58,2,1.29,2.87.53-.48.3-1.16.41-1.73.07-.36-.19-.9.33-1s.61.38.81.71l.69,1.19c.57-.49.15-1.3.71-1.83.83.73-.07,1.81.72,2.79-.08-1.75-.1-3.4,2.09-2.59-1.45,1-1.45,1-.45,1.79-.09.54-1,0-.89.7.07.57.6.32.93.41A.49.49,0,0,1,336.27,200Z" style="fill:#dbe5eb"/><path d="M395.47,198.6l1.43.12c-.11.22-.15.44-.25.48-1.27.57-2.74-.33-4,.68-.26.21-1-.17-1-.64,0-.93-.41-2,.25-2.78a1,1,0,0,1,1.37-.16c.32.19.57.76,1,.06a1.07,1.07,0,0,1,1.82-.25c.62.64.24,1.26-.23,1.82A7.69,7.69,0,0,0,395.47,198.6Zm-1.15.18a18.55,18.55,0,0,0,1.27-1.76c.17-.28-.17-.66-.41-.48-.45.37-1.39-.15-1.46.93A1.63,1.63,0,0,0,394.32,198.78Z" style="fill:#dbe5eb"/><path d="M382,198.6c.43-.4-.88-2.17,1-2.12a1.75,1.75,0,0,1,1.94,2c-.08,1.31-1,1.67-2.11,1.62C382.05,200.09,381.41,200,382,198.6Zm1.06-1.44c-.71.25-.32,1-.43,1.54s.09.92.7.79a1.09,1.09,0,0,0,.89-1.24A1.06,1.06,0,0,0,383,197.16Z" style="fill:#dbe5eb"/><path d="M321.65,197.89c-.09,0-.22-.17-.26-.15-.9.62-2.08.91-2.68,0s.16-2,.36-3c.12-.58.59-.31.95-.23.85.18,1.54.49,1.72,1.55.1.63-.43,1.18-.11,1.8Zm-1.64-.34c.67,0,1-.4,1-1.08s-.33-1.24-.89-1.2c-.86.07-.6,1-.76,1.59S319.55,197.57,320,197.55Z" style="fill:#dbe5eb"/><path d="M340.5,199.92c-1.76-1-1.76-1-2.23.19a5,5,0,0,1-.3-3.19c.07-.86.88-.43,1.36-.45a.85.85,0,0,1,.94,1.11A2.56,2.56,0,0,0,340.5,199.92Z" style="fill:#dbe5eb"/><path d="M342.34,200a1.74,1.74,0,0,1-1.73-1.88,1.69,1.69,0,0,1,1.95-1.81,1.66,1.66,0,0,1,1.65,1.94A1.72,1.72,0,0,1,342.34,200Zm.12-3.08a1.16,1.16,0,0,0-1.14,1.18,1.05,1.05,0,0,0,.95,1.19,1,1,0,0,0,1.25-1C343.59,197.51,343.16,197.12,342.46,196.93Z" style="fill:#dbe5eb"/><path d="M314.7,195.08c.7.58.88-.3,1.26-.55s.62-.78,1.12-.53.21.8.12,1.21c-.17.78.39,1.85-.92,2.27.26-1.34-1.91-.88-1.56-2.42Z" style="fill:#dbe5eb"/><path d="M387.43,196.67c-.27.93-1.41,0-1.37,1,0,.65.78.22,1.07.66-.1.64-1.21.07-1.08.85.16.93,1.15,0,1.5.76-.66.55-1.74.62-2.05,0a3.7,3.7,0,0,1,0-3.17C385.83,196.2,386.74,196.55,387.43,196.67Z" style="fill:#dbe5eb"/><path d="M321.63,197.92c.47-.22.31-.68.36-1.06.29-2,.36-2.08,2.29-1.38-.16.88-1.27-.21-1.34.7,0,.57.65.47.9.74-.15.78-1.24-.18-1.16.82.06.85,1,.15,1.33,1.06-1,.09-1.84.23-2.36-.91Z" style="fill:#dbe5eb"/><path d="M314.72,195.06l-1.72.62c.34.64,1.07.31,1.22.92,0,.34-.33.26-.49.22-.6-.15-1.49,0-1.64-.78s.68-.91,1.19-1.21c.32-.18.84-.22.68-.79s-.82,0-1.22-.45a.9.9,0,0,1,1.31-.44c.95.38.6,1.23.65,1.93Z" style="fill:#dbe5eb"/><path d="M396.94,195.57l1.21-.39a1.32,1.32,0,0,1,.32-.07c.25,0,.56.17.42.33-1,1.16,1.82,2,.2,3.17a1.22,1.22,0,0,1-1.73,0c.28-.58.74-.25,1.07-.4s.48-.59.34-.59C397.56,197.64,398.14,195.74,396.94,195.57Z" style="fill:#dbe5eb"/><path d="M391.74,199.9c-1.24.11-1.9.47-2.64.07.57-.75,1.08-1.49.15-2.28-.3-.26-.19-.49,0-.7s.41-.59.8-.49.28.44.32.7C390.53,198.12,390.36,199.15,391.74,199.9Z" style="fill:#bcc9d2"/><path d="M336.27,200a.49.49,0,0,0-.39-.61c-.33-.09-.86.16-.93-.41-.09-.74.8-.16.89-.7-1-.74-1-.74.45-1.79h.62l0,3.51Z" style="fill:#1a5b84"/><path d="M336.88,200l0-3.51A2.58,2.58,0,0,1,336.88,200Z" style="fill:#dbe5eb"/><path d="M356.83,194.48l.33.18v3.2h-.38c0-1.06,0-2.12,0-3.18A.36.36,0,0,1,356.83,194.48Z" style="fill:#135a83"/><path d="M371,178c0,1,.12,1.49.1,2s.4,1.18-.41,1.23c-.59,0-.5-.64-.56-1.07-.12-1-.23-2-.31-3,0-.37-.21-.84.31-1s.72.16,1,.47l1.76,2.07c.11-.15.22-.22.22-.29-.09-2.57-.09-2.57,2.26-3.06l2.26-.47c.3-.07.57-.07.64.3,0,.13-.09.41-.16.41-1.83.19-.94,1.51-.93,2.46,0,.73.81,1.87-.19,2.07s-.35-1.23-.74-1.79.51-2.41-1.41-2.05c-.67.13-1,.19-.83,1a18.87,18.87,0,0,1,.32,2.24c0,.41.36.94-.26,1.2s-.82-.14-1.12-.5C372.37,179.64,371.82,179,371,178Z" style="fill:#dbe5eb"/><path d="M318.84,169.49c-.45.78-.79,1.37-1.12,2-.19.36-.46.25-.71.14s-.25-.43-.1-.71c.6-1.1,1.2-2.21,1.82-3.31.17-.3.37-.58.79-.34a.86.86,0,0,1,.46.83c0,.75,0,1.51,0,2.4.81-.3,1.2-1,1.75-1.53a.74.74,0,0,1,1-.09c.37.25.16.6.07.92-.34,1.1-.65,2.22-1,3.31-.1.29-.13.77-.63.57s-.45-.42-.31-.83c.19-.58.32-1.19.48-1.83-.89-.06-1.14,1.42-2,.8C318.65,171.3,319.24,170.37,318.84,169.49Z" style="fill:#dbe5eb"/><path d="M346.6,178.09c-.22,1-.35,1.7-.52,2.36-.07.28-.19.58-.54.53s-.46-.4-.39-.77c.26-1.25.51-2.49.77-3.73.07-.3.23-.56.56-.52a.72.72,0,0,1,.7.61c.19.77.41,1.53.69,2.6.51-.95.89-1.61,1.24-2.3a.68.68,0,0,1,.81-.41c.42.08.45.44.44.8,0,1.16-.05,2.32-.08,3.48,0,.35,0,.75-.48.72s-.46-.42-.46-.79c0-.62,0-1.25,0-1.88C347.52,180.84,347.52,180.84,346.6,178.09Z" style="fill:#dbe5eb"/><path d="M393.84,172.84c.19-1-.34-1.57-.51-2.27-.07-.29-.1-.59.25-.71a.49.49,0,0,1,.65.35c.45,1.18.89,2.36,1.32,3.55a.59.59,0,0,1-.16.76.66.66,0,0,1-.9,0L392,172.77c-.17.85.3,1.43.46,2.08.09.39.33.81-.26,1-.42.11-.55-.21-.66-.57-.35-1.09-.7-2.19-1.08-3.27-.12-.35-.25-.67.1-.92a.71.71,0,0,1,.91.1Z" style="fill:#dbe5eb"/><path d="M385,178.14c-.77.76-1.14,0-1.59-.47s-.61-.75-1.11-.46-.06.71,0,1.06.12.72-.31.87c-.6.2-.59-.3-.67-.69a15.35,15.35,0,0,1-.49-2.19c-.05-.68-.82-1.58,0-2a2.43,2.43,0,0,1,2.51-.29,1.68,1.68,0,0,1,.56,2.14C383.56,177.17,384.76,177.27,385,178.14Zm-1.94-2.68c0-.48-.2-.75-.67-.72s-.82,0-.76.58c0,.36,0,.86.52.87S383,176,383.07,175.46Z" style="fill:#dbe5eb"/><path d="M337.87,179.38c-2.1-.09-2.29-.36-1.77-2.55a2.2,2.2,0,0,1,.16-.67c.48-.69-.31-2.42,1.51-2s2.82,1.44,2.68,2.94A2.31,2.31,0,0,1,337.87,179.38Zm1.61-2.62c-.11-.93-.64-1.7-1.44-1.58-1.31.21-.78,1.66-1.09,2.53-.24.68.42.84.92.84C339,178.56,339.33,177.74,339.48,176.76Z" style="fill:#dbe5eb"/><path d="M356.64,179.55c0-.35,0-.69.05-1a1.77,1.77,0,0,1,2.66-1.58c.13.07.29.25.28.37,0,.46-.39.45-.72.5s-1.1-.28-1.21.5.58.62,1,.69c.22,0,.45.07.48.36s-.16.51-.47.56-1.13-.16-1.1.66.73.47,1.16.57,1-.19.93.57c-.07.56-.62.33-1,.35C356.52,182.2,356.52,182.19,356.64,179.55Z" style="fill:#dbe5eb"/><path d="M360.4,179.43a7.35,7.35,0,0,1,0-1.05c.08-.51-.36-1.33.44-1.45s1.79-.36,2.52.39a1.34,1.34,0,0,1,.25,1.75c-.69.83-.16,1.34.18,2,.13.23.44.48.17.75a.56.56,0,0,1-.87-.14,9.64,9.64,0,0,1-.55-.86c-.2-.35-.38-.79-.86-.62s-.25.58-.27.9.05,1.05-.63.94-.33-.64-.36-1c0-.52,0-1.05,0-1.57Zm1.51-.16c.48,0,.85-.21.87-.8s-.32-.67-.72-.73-.71.19-.69.69S361.33,179.27,361.91,179.27Z" style="fill:#dbe5eb"/><path d="M327,173c.65-.07.77-.75,1.17-1.11s.45-.66.94-.45.52.51.52,1c0,1.21,0,2.43.07,3.65,0,.32.12.75-.37.79-.31,0-.47-.24-.54-.54-.33-1.52-1-2-2.22-.82-.29.28-.58.33-.85,0s.12-.58.26-.84c.32-.58,1.05-.87,1-1.67Z" style="fill:#dbe5eb"/><path d="M400.2,171.94c-.23.78-.58.74-1.19.33-1.06-.68-1.86-.44-2,1-.05.36-.06.74-.49.77s-.46-.39-.47-.72c0-1.28-.06-2.55-.09-3.83a.87.87,0,0,1,.39-.88c.45-.28.71.06,1,.34l2.94,3Z" style="fill:#dbe5eb"/><path d="M389,175.31a2,2,0,0,1-1.64,2.31,1.71,1.71,0,0,1-2.29-1.1,26.25,26.25,0,0,1-.73-2.67c-.1-.37,0-.72.41-.78s.46.2.54.51c.2.78.43,1.55.63,2.33s.55,1,1.2.86a1.06,1.06,0,0,0,.84-1.42c-.19-.78-.43-1.55-.64-2.33-.1-.35-.13-.72.28-.86s.55.23.65.56C388.57,173.66,388.83,174.6,389,175.31Z" style="fill:#dbe5eb"/><path d="M340.85,177.93c.08-.49.24-1.34.38-2.2.06-.4.21-.68.63-.58s.36.52.32.85c-.12.8-.3,1.6-.39,2.4a1,1,0,0,0,.88,1.23,1,1,0,0,0,1.19-.89c.12-.75.24-1.49.34-2.24.06-.42.08-.86.65-.75s.36.51.33.83c-.09.75-.2,1.5-.33,2.24a1.83,1.83,0,0,1-2.24,1.73C341.44,180.36,340.68,179.7,340.85,177.93Z" style="fill:#dbe5eb"/><path d="M400.23,172c.2-1.42-.87-2.37-1.2-3.59-.12-.42-.49-.9.13-1.17s1.4-1.2,2.22-.86c.51.21-.06.56-.34.83s-1.27.16-1,1.08.88.29,1.31.12.54-.13.66.2-.17.48-.41.62c-.41.24-1,.39-.66,1.11.46.88.91.05,1.36,0s.81-.75,1.08,0c.18.49-.39.58-.71.76a4.77,4.77,0,0,1-2.51.92Z" style="fill:#dbe5eb"/><path d="M327,173c-.9.19-1.73.71-2.73.17-.62-.34-.58.49-.78.83s-.41.54-.77.33-.25-.45-.14-.74c.46-1.18.93-2.36,1.35-3.55.19-.55.47-.51.88-.31.87.42,1.93.57,2.18,1.85.1.5-.44,1,0,1.44Zm-2-2.24c-.51,0-.5.55-.62.92-.23.68.36.73.73.83s.83-.19.88-.72S325.53,171,325,170.76Z" style="fill:#dbe5eb"/><path d="M368.87,178.94c-.13.83-2.44.09-1,1.74.32.37,1.24-.25,2,.42a4.25,4.25,0,0,1-3.22.45,19.8,19.8,0,0,1-.38-4.63,3.42,3.42,0,0,1,2.92-.28c-.34,1.17-2,.06-1.95,1.41C367.21,179.22,368.49,178.1,368.87,178.94Z" style="fill:#dbe5eb"/><path d="M331.61,176.19c.75-1.08,1.19-1.74,1.65-2.38.24-.34.42-.95,1-.58s0,.78-.2,1.07c-.57.92-1.22,1.78-1.84,2.67-.27.39-.53.76-1.07.57s-.47-.59-.5-1c-.07-1.22-.14-2.43-.19-3.65,0-.31-.16-.79.32-.8s.57.29.6.7C331.43,173.76,331.5,174.73,331.61,176.19Z" style="fill:#dbe5eb"/><path d="M353.16,180.29c0-.78.06-1.18.09-1.59.16-2.1.37-2.26,2.32-1.86.26,0,.59,0,.56.42s-.34.35-.61.39c-.47.06-1.17-.36-1.28.59s.67.66,1.12.77c.24.06.41.16.42.43s-.21.51-.51.49c-.66-.07-1.21-.06-1.13.92,0,.44.06,1-.62.92s-.32-.63-.36-1A1.82,1.82,0,0,1,353.16,180.29Z" style="fill:#dbe5eb"/><path d="M335.88,174.4c-.28,1.14-.61,2.42-.92,3.71-.08.32-.22.52-.56.44a.48.48,0,0,1-.4-.63c.32-1.34.66-2.68,1-4a.42.42,0,0,1,.53-.29C335.87,173.69,336,173.93,335.88,174.4Z" style="fill:#dbe5eb"/><path d="M365.42,179.74c-.16.43.77,1.83-.17,1.91-1.14.09-.5-1.43-.71-2.22a8.56,8.56,0,0,1-.1-1.9c0-.37,0-.74.45-.75s.53.32.53.7Z" style="fill:#dbe5eb"/><path d="M389,171.64c.47-.1.65,0,.73.26.41,1.26.82,2.53,1.22,3.79a.55.55,0,0,1-.28.73c-.32.14-.54-.06-.63-.36-.4-1.26-.77-2.54-1.15-3.82C388.81,171.92,388.9,171.69,389,171.64Z" style="fill:#dbe5eb"/><path d="M317.76,166.93c-.51,1.12-1.12,2.41-1.73,3.7a.34.34,0,0,1-.54.15c-.24-.14-.45-.3-.28-.67.6-1.23,1.19-2.47,1.78-3.71.12-.25.28-.33.51-.17S317.91,166.43,317.76,166.93Z" style="fill:#f1f2f5"/><path d="M322.22,151.42c-4.1-3.14-5.09-7.71-5.1-12.65q-.06-34.65,0-69.31c0-8,0-16.1,0-24.15,0-1.49.43-1.84,1.78-1.84q40.51.06,81,0c1.4,0,1.73.41,1.73,1.84q-.07,47-.07,94c0,4.06-.8,7.88-3.75,10.84l-.3-.36c.3-.77,1.21-1.19,1.21-2.14H319.83a12,12,0,0,0,2.73,3.4Zm47.86-7.17H397c3.53,0,3.53,0,3.88-3.76-.38-.78-1.07-.43-1.61-.43-6.56,0-13.11,0-19.66,0h-9.53l2-1.6a9.82,9.82,0,0,0-1-.06c-1.58.1-2.86,1.6-4.26,1.53s-2.69-1.71-4.33-1.91a1.19,1.19,0,0,1-.33,0c-1-.41-.47-.74.06-1.06H374c1.12-.29,2.27.65,3.38-.07l19.94.07c3.56,0,3.56,0,3.55-3.79-.41-.74-1.09-.41-1.64-.41-6.6,0-13.21-.18-19.8.06a4.24,4.24,0,0,1-4.72-3.17l22.61,0c3.57,0,3.57,0,3.55-3.8-.47-.78-1.21-.41-1.81-.41q-12,0-23.94,0c-1.45,0-2.81.06-3.72-1.47-.32-.54-.93-.91-1,.25,0,1-.46.87-1.07.54a8.74,8.74,0,0,0-4-1.43c-.61,0-.61-.54-.58-1h32.56c3.58,0,3.58,0,3.54-3.8-.53-.79-1.32-.41-2-.41q-39.5,0-79,0c-.49,0-1,0-1.49,0s-.74.16-.72.56c.07,1.22-.51,2.51.33,3.65l32.15,0c-1.63,2.15-4.09,2.58-6.36,3s-4.83.09-7.25.09c-5.78,0-11.56,0-17.34,0-.55,0-1.46-.29-1.5.58-.06,1.21-.54,2.51.31,3.64l26.5,0c-.71,3.16-.71,3.16-3.75,3.16-7.18,0-14.36,0-21.54,0-.56,0-1.46-.3-1.52.58-.07,1.2-.55,2.51.32,3.64l25.82-.06c.48.76.28,1.8.93,2.57a5.83,5.83,0,0,1,.45-2.59l12.55.12c-.35.84-1.07.67-1.71.68A10.85,10.85,0,0,0,350,139.4a4.18,4.18,0,0,1-2.49.66q-14.08,0-28.15,0c-1.82,0-1.93.2-1.36,2.17,0,1.55.63,2.1,2.21,2.09,11.21-.08,22.41,0,33.62,0a50.6,50.6,0,0,0,8.79-.05h5.72c.56,0,.94.46,1.4.7.17.09.47.48.57,0C370.3,144.69,370.15,144.46,370.08,144.25ZM317.75,104c0,.35,0,.7-.05,1,0,2.57,0,2.57,2.44,2.57H398.4c2.58,0,2.58,0,2.44-2.82q0-29.67.08-59.33c0-1-.29-1.27-1.22-1.27q-40.35,0-80.7,0c-1,0-1.32.24-1.32,1.35Q317.76,74.72,317.75,104ZM359.28,115q19.71,0,39.41,0c1.33,0,2.33.19,2.29-2,0-2-.73-2.06-2.19-2-9.05,0-18.11,0-27.16,0H319.47c-.53,0-1.32-.3-1.55.22a6,6,0,0,0-.1,3.26c.13.86,1,.48,1.55.48Q339.32,115,359.28,115Z" style="fill:#f8f8f7"/><path d="M358.88,159.67c-.15,0-.35,0-.43-.15-3.25-4.28-7.77-5.28-12.59-5.31-5.07,0-10.14.15-15.21.16a11.7,11.7,0,0,1-8.43-3l.34-.38a3.52,3.52,0,0,0,2.52.57q33.85,0,67.71,0a5.38,5.38,0,0,0,4.35-1.52l.34.32a11.82,11.82,0,0,1-9.38,3.93c-4.14,0-8.27-.08-12.41-.18a46.8,46.8,0,0,0-7.1.37c-2.82.36-5.14,1.95-7.45,3.52.25-1.34,1.64-1.57,2.31-2.5H355.1a12.32,12.32,0,0,1,1.81,1.41C357.64,157.81,358.89,158.24,358.88,159.67Z" style="fill:#f8f8f7"/><path d="M358.88,159.67c0-1.43-1.24-1.86-2-2.68a12.32,12.32,0,0,0-1.81-1.41h8.35c-.67.93-2.06,1.16-2.31,2.5-.28.32-.94.22-.88.9l-1.45.68Z" style="fill:#135a83"/><path d="M358.81,159.66l1.45-.68a1.56,1.56,0,0,1-.95,1.58C359.13,160.66,358.74,160.13,358.81,159.66Z" style="fill:#f8f8f7"/><path d="M397.76,150.14l-.28.3-.34-.32.32-.34Z" style="fill:#f8f8f7"/><path d="M358.13,24.9l.34-.36Z" style="fill:#9f9f9e"/><path d="M302.51,116.36c-.11.16-.18.48-.43.23s.05-.37.2-.5Z" style="fill:#1a763e"/><path d="M302.28,116.09c.14-.1.29-.34.45,0,0,0-.14.21-.22.32Z" style="fill:#1a763e"/><path d="M290.47,145l0,.23-.2,0,.22-.15Z" style="fill:#1a763e"/><path d="M394.32,198.78a1.63,1.63,0,0,1-.6-1.31c.07-1.08,1-.56,1.46-.93.24-.18.58.2.41.48A18.55,18.55,0,0,1,394.32,198.78Z" style="fill:#0c5982"/><path d="M383,197.16a1.06,1.06,0,0,1,1.16,1.09,1.09,1.09,0,0,1-.89,1.24c-.61.13-.82-.25-.7-.79S382.3,197.41,383,197.16Z" style="fill:#1a5b84"/><path d="M320,197.55c-.46,0-.78-.15-.64-.69s-.1-1.52.76-1.59c.56,0,.95.49.89,1.2S320.68,197.53,320,197.55Z" style="fill:#1a5b84"/><path d="M342.46,196.93c.7.19,1.13.58,1.06,1.34a1,1,0,0,1-1.25,1,1.05,1.05,0,0,1-.95-1.19A1.16,1.16,0,0,1,342.46,196.93Z" style="fill:#1a5b84"/><path d="M383.07,175.46c-.06.58-.45.74-.91.73s-.48-.51-.52-.87c-.06-.62.41-.56.76-.58S383.08,175,383.07,175.46Z" style="fill:#135a83"/><path d="M339.48,176.76c-.15,1-.5,1.8-1.61,1.79-.5,0-1.16-.16-.92-.84.31-.87-.22-2.32,1.09-2.53C338.84,175.06,339.37,175.83,339.48,176.76Z" style="fill:#1a5b84"/><path d="M361.91,179.27c-.58,0-.53-.45-.54-.84s.19-.77.69-.69.74.22.72.73S362.39,179.23,361.91,179.27Z" style="fill:#1a5b84"/><path d="M325,170.76c.55.19,1,.37,1,1s-.37.85-.88.72-1-.15-.73-.83C324.48,171.31,324.47,170.76,325,170.76Z" style="fill:#1a5b84"/><path d="M317.75,104q0-29.22-.07-58.45c0-1.11.34-1.35,1.32-1.35q40.35,0,80.7,0c.93,0,1.22.27,1.22,1.27q-.07,29.65-.08,59.33c-3.34-2.47-7.23-3-11.13-3.43-3.25-.36-3.35-.32-3.33-3.86.05-6.85-.61-13.72.49-20.55.28-1.73.11-1.76,1.54-1,.48-.36-.43-.94.12-1.18s.57.37.83.63.84.76,1-.24c.06-.4.17-.79.26-1.19s.18-.85.63-.92.33.5.56.73c.64.62,1.1,1.58,2.31,1-.82-1.89-2.22-3.3-3.3-5a13.47,13.47,0,0,0,2.38-.33c1-.12,1.41-1.07,2.09-1.44,1-.52.34-.71.09-1-.4-.57-1.14,0-1.66-.52.64-.36,1-1.14,1.91-.74.74.34.61-.41.73-.78.21-.61-.22-.64-.63-.7s-.76.25-1.11-.07v0c-.42-1.22-1.25-1.06-2.16-.73-1.15.42-2.14,1.47-3.42,1a3,3,0,0,1,2.3-2L390,61.76c1.1,0,1.23-.61,1.17-1.34-1.23-.33-2,.5-2.86,1.08-.07-.81-.09-1.5-.18-2.18-.05-.35,0-.85-.47-1s-.65.36-.88.64a8,8,0,0,0-1.17,3c-.52.22-.88-.37-1.37-.31.05-1.65-1-2.88-1.51-4.4-1.2.82-.75,2.18-1,3.26l-.17.17c-.82.2-1.12-.38-1.48-1-.23-.43-.67-.87-1.21-.49s-.13.84-.05,1.24c.2,1.05,1.47,1.41,1.53,2.58-.8.19-1.2-.84-2-.71-.07-1-1-.93-1.55-1.36-.35-.28-.43-1.44-1.14-.64-.37.42,0,1.11.31,1.68.47.8,1.38,1.14,2,2.17-1.33-.31-2.45-.54-3.52.15,1.43,1.58,2.17,2.28,3,2.38,1.29.16,1.84,1.17,2.59,2.06s.14.83-.31,1.16c-1.41,1-3,1.85-4,3.42-.25.38-1.08.6-.61,1.13s1.05.21,1.63-.16c.76-.5,1.13-1.59,2.22-1.75-.28,1.33-.75,2.57-.18,3.39,1.86-.15,2.15-2.55,4.08-2.72.05.74-.47.8-.65,1.14s-.31,1.09.39.85c1.05-.37.92.35,1,.94,1.56,8,.89,16.13,1,24.21,0,.41,0,.83-.55.88-2.94.25-5.86,1.35-8.81,0a32.48,32.48,0,0,0-12.53-2.88c-1.39,0-1.68-.64-1.74-2-.35-7.52-.17-15.05-.28-22.57a6.27,6.27,0,0,1,1.08-4.1c.13-.18.38-.26.21-.67-.81-2-.58-2.52,1.31-3.4-.09.79-.15,1.42,1,1.09a1.83,1.83,0,0,1,1.55.33c.36.29.89.66,1.22,0s-.37-.82-.67-1.17c.27-.88,1.54.61,1.62-.75.08-.34-.11-.79.35-1,1.2-.12,1.91.64,2.54,1.8a2.76,2.76,0,0,0-1.16-3.61c0-1.33,1.35-.93,1.92-1.61a2.27,2.27,0,0,1-2.14-1.59c-.15-.33-.12-.7.29-.83.74-.22.78.65,1.22.91,0,.2,0,.42.32.36-.15.24,0,.39.16.49,0,0,.11,0,.12-.08.11-.28-.06-.37-.27-.41,0-.21-.08-.4-.35-.34,1-1.37-.28-2.08-.93-3,.63-.22,1.13-.43,1.64-.56s1.11.08,1.48-.49l-2.65-.22c.57-.47,1.15-.34,1.44-.84-.71-.22-1.4.45-2.09,0,.25-1.41.25-1.41-.08-2.2a3,3,0,0,0-.73,1.53c-.52,1.84-2,2.43-3.76,1.48.32-.42,1.06-.47.76-1.42-.2-.6-.82-.51-.91-1C363.1,53.62,363.9,51.28,364,51c.32-1.81,0-2.71-2-2.75-.85,0-1.69.19-1.86.7-.48,1.44-.79.8-1.28.09s-1.26-.51-1.95-.31c-.48.13-.62.46-.61,1,0,1.93,0,1.93-1.59,1.72.13.18.27.36.4.55l-.36.36c-1.46.42-1.31-1.14-1.73-1.7-1.72.29-.13,2.82-2.17,2.74l1,.79c-1.19.48-1.27,1.52-1.72,2.46a10,10,0,0,0-1.29,3.88c0,1.3-.25,1.75-1.31,2,.51.48,2.09-.19,1.22,1.51-.2.4.55.68.92.72a2.81,2.81,0,0,1,1.68.85c1,.9,2.08.71,3.19.27h0a2.1,2.1,0,0,1,0,1.65c-.11.38,2.19,2.56,2.46,2.37.11-.08.11-.38.11-.58a6.19,6.19,0,0,1,.61-3.18,4.93,4.93,0,0,1,.32,2.61c-.09,1.58.84,2.85.84,4.35q0,11.81,0,23.61c0,1.12-.29,1.46-1.38,1.51-4.47.19-9,.47-13.11,2.41-3.29,1.55-6.5,1.42-9.86.86-1-.17-1.25-.6-1.25-1.6-.06-7.58-.17-15.15-.25-22.73,0-.59-.09-1.22.51-1.7.09,1,.34,1.71,1.42,1.58,1.83-.23.82-1.82,1.18-2.75,1.69.75,2.89.79,3.54-.18s1.37-2.09,1.2-3c-.29-1.51.39-2,1.31-2.59,1.25-.87,1.21-1.63,0-2.44-.36-.25-1-.44-.33-1s.91-.79.35-1.51-1.11-.9-1.83-.34l-.23-.32a4.75,4.75,0,0,0-2.06-3.82c-.71-.54-2.21-.08-2.85,1.31a3,3,0,0,0-2.42-3.06c-1.3-.36-1.19,1.22-1.48,2.12l-.21.18c-2.1-1.73-2.49-1.41-4.24.69-.91,1.08-.92,2.89-2.71,3.37s-1.79,1.38-.58,2.63c.61.64.15.71-.25.91a.93.93,0,0,0-.93,1.28c.22.76.72,1.26,1.58.91.56-.13,1.13-.41,1.72-.07-1.64.73-1.59,2.14.2,4.87.2-1,1.08-1.25,1.69-1.79l1,0h0l.2.45a.85.85,0,0,0,.11.26v1c-.46.65.34.7.44,1.07.33,1.16,2,.94,2,2.59-.09,7.21-.07,14.43,0,21.64,0,1.42-.43,1.7-1.68,1.72C325.58,101.34,321.5,101.88,317.75,104Z" style="fill:#fbcc0e"/><path d="M323.35,67.29c.4-.2.86-.27.25-.91-1.21-1.25-1.09-2.18.58-2.63s1.8-2.29,2.71-3.37c1.75-2.1,2.14-2.42,4.24-.69.1.14.14.48.36.32s.07-.39-.15-.5c.29-.9.18-2.48,1.48-2.12a3,3,0,0,1,2.42,3.06c.64-1.39,2.14-1.85,2.85-1.31A4.75,4.75,0,0,1,340.15,63c-.2.11-.66.08-.45.46s.45,0,.68-.14c.72-.56,1.28-.35,1.83.34s.21,1.06-.35,1.51,0,.71.33,1c1.19.81,1.23,1.57,0,2.44-.92.64-1.6,1.08-1.31,2.59.17.88-.61,2.08-1.2,3s-1.85.93-3.54.18c-.36.93.65,2.52-1.18,2.75-1.08.13-1.33-.6-1.42-1.58-.6.48-.52,1.11-.51,1.7.08,7.58.19,15.15.25,22.73,0,1,.28,1.43,1.25,1.6,3.36.56,6.57.69,9.86-.86,4.12-1.94,8.64-2.22,13.11-2.41,1.09,0,1.39-.39,1.38-1.51q-.06-11.81,0-23.61c0-1.5-.93-2.77-.84-4.35a4.93,4.93,0,0,0-.32-2.61,6.19,6.19,0,0,0-.61,3.18c0,.2,0,.5-.11.58-.27.19-2.57-2-2.46-2.37a2.1,2.1,0,0,0,0-1.65l.21-.09-.06-.13-.15.22c-1.11.44-2.23.63-3.19-.27a2.81,2.81,0,0,0-1.68-.85c-.37,0-1.12-.32-.92-.72.87-1.7-.71-1-1.22-1.51,1.06-.25,1.31-.7,1.31-2a10,10,0,0,1,1.29-3.88c.45-.94.53-2,1.72-2.46l-1-.79c2,.08.45-2.45,2.17-2.74.42.56.27,2.12,1.73,1.7a.51.51,0,0,0,.72.11l-.36-.47c-.13-.19-.27-.37-.4-.55,1.57.21,1.6.21,1.59-1.72,0-.56.13-.89.61-1,.69-.2,1.42-.47,1.95.31s.8,1.35,1.28-.09c.17-.51,1-.71,1.86-.7,2,0,2.31.94,2,2.75-.05.32-.85,2.66,1.27,1.49.09.52.71.43.91,1,.3,1-.44,1-.76,1.42,1.79,1,3.24.36,3.76-1.48a3,3,0,0,1,.73-1.53c.33.79.33.79.08,2.2.69.46,1.38-.21,2.09,0-.29.5-.87.37-1.44.84l2.65.22c-.37.57-1,.37-1.48.49s-1,.34-1.64.56c.65.93,1.93,1.64.93,3l0,0c-.44-.26-.48-1.13-1.22-.91-.41.13-.44.5-.29.83a2.27,2.27,0,0,0,2.14,1.59c-.57.68-1.88.28-1.92,1.61,0,.5-.25.67-.77.58-1.23-.21-.9.54-.61,1.23-.46.19-.27.64-.35,1-.07-.08-.19-.16-.21-.25-.26-1.52-.19-1.4-1.28-.78s-.89,1.12-.13,1.78c.3.35,1,.51.67,1.17s-.86.34-1.22,0a1.83,1.83,0,0,0-1.55-.33c-1.14.33-1.08-.3-1-1.09-1.89.88-2.12,1.42-1.31,3.4.17.41-.08.49-.21.67a6.27,6.27,0,0,0-1.08,4.1c.11,7.52-.07,15,.28,22.57.06,1.36.35,2,1.74,2a32.48,32.48,0,0,1,12.53,2.88c2.95,1.34,5.87.24,8.81,0,.54,0,.56-.47.55-.88-.11-8.08.56-16.2-1-24.21-.11-.59,0-1.31-1-.94-.7.24-.64-.36-.39-.85s.7-.4.65-1.14c-1.93.17-2.22,2.57-4.08,2.72-.57-.82-.1-2.06.18-3.39-1.09.16-1.46,1.25-2.22,1.75-.58.37-1.29.55-1.63.16s.36-.75.61-1.13c1-1.57,2.57-2.39,4-3.42.45-.33,1-.37.31-1.16s-1.3-1.9-2.59-2.06c-.82-.1-1.56-.8-3-2.38,1.07-.69,2.19-.46,3.52-.15-.61-1-1.52-1.37-2-2.17-.33-.57-.68-1.26-.31-1.68.71-.8.79.36,1.14.64.53.43,1.48.35,1.55,1.36,1.14,1.93,2.94,3.39,3.54,5.73.34-2-1-3.38-1.56-5-.06-1.17-1.33-1.53-1.53-2.58-.08-.4-.41-.91.05-1.24s1,.06,1.21.49c.36.63.66,1.21,1.48,1l.29.16-.12-.33c.3-1.08-.15-2.44,1-3.26.54,1.52,1.56,2.75,1.51,4.4.15,1.07.29,2.15.47,3.51l.9-3.2a8,8,0,0,1,1.17-3c.23-.28.38-.76.88-.64s.42.63.47,1c.09.68.11,1.37.18,2.18.86-.58,1.63-1.41,2.86-1.08.06.73-.07,1.33-1.17,1.34l1.28.65a3,3,0,0,0-2.3,2c1.28.47,2.27-.58,3.42-1,.91-.33,1.74-.49,2.16.73l-.21.17.14,0,.06-.24c.35.32.74,0,1.11.07s.84.09.63.7c-.12.37,0,1.12-.73.78-.89-.4-1.27.38-1.91.74.52.49,1.26,0,1.66.52.25.34.87.53-.09,1-.68.37-1.07,1.32-2.09,1.44a13.47,13.47,0,0,1-2.38.33c1.08,1.74,2.48,3.15,3.3,5-1.21.56-1.67-.4-2.31-1-.23-.23-.1-.8-.56-.73s-.54.52-.63.92-.2.79-.26,1.19c-.13,1-.67.52-1,.24s-.38-.84-.83-.63.36.82-.12,1.18c-1.43-.77-1.26-.74-1.54,1-1.1,6.83-.44,13.7-.49,20.55,0,3.54.08,3.5,3.33,3.86,3.9.42,7.79,1,11.13,3.43.14,2.82.14,2.82-2.44,2.82H320.14c-2.45,0-2.45,0-2.44-2.57,0-.35,0-.7.05-1,3.75-2.07,7.83-2.61,12-2.67,1.25,0,1.7-.3,1.68-1.72-.07-7.21-.09-14.43,0-21.64,0-1.65-1.69-1.43-2-2.59-.1-.37-.9-.42-.44-1.07.38-.35.55-.69,0-1a.85.85,0,0,1-.11-.26.34.34,0,0,0-.2-.45h0c.19-1-.12-2.18.69-3.09.29-.32,0-.79-.3-1.05-.15-.13-.49-.26-.59-.18-.67.6.34.43.33.74,0,.12,0,.29-.08.33-1.28.74-.43,2.26-1.07,3.22-.61.54-1.49.76-1.69,1.79-1.79-2.73-1.84-4.14-.2-4.87-.59-.34-1.16-.06-1.72.07A2.07,2.07,0,0,1,323.35,67.29Zm34.58-6.09-.28-.36c-.23.24-.07.38.1.51.16.89.26,1.82,1.3,2.28C359.18,62.47,359.05,61.58,357.93,61.2Zm1.53-2.7.09.1-.1-.09c-.17-1-.08-2.22-1.14-3C358,56.89,357.22,58.35,359.46,58.5Zm4.59-.27c-.22.3-1-.21-.85.62.11.55.29,1.19.92,1.29s.63-.41.6-.82S364.9,58.19,364.05,58.23Zm-1,4.66a3.78,3.78,0,0,0-1.76,3C363.22,65.68,362.53,63.87,363.06,62.89ZM335,67.74a.72.72,0,0,0-.67.77,1,1,0,0,0,.84,1.07.31.31,0,0,0,.39-.38C335.42,68.69,335.18,68.21,335,67.74Zm4.1-4.27-.12.11s.07.11.11.11.08-.06.12-.1Z" style="fill:#1a763e"/><path d="M345.24,136.85a5.83,5.83,0,0,0-.45,2.59c-.65-.77-.45-1.81-.93-2.57,0-1.49-.66-2.07-2.06-1.79-.9.18-1.82.23-2.8.34.5-1.11,1.6-1.49,2.67-2.42H320.83c-3.34,0-3.38.05-2.92,3.61a1.44,1.44,0,0,0,.13.32c-.87-1.13-.39-2.44-.32-3.64.06-.88,1-.58,1.52-.58,7.18,0,14.36,0,21.54,0,3,0,3,0,3.75-3.16.29-.62.58-1.24.86-1.87.11-.25.26-.76.07-.73-1.32.22-1.73-1.41-3.17-1.37-7.16.19-14.32.09-21.48.09-3.26,0-3.26,0-2.94,3.44a1.81,1.81,0,0,0,.16.48c-.85-1.13-.37-2.43-.31-3.64,0-.87.95-.58,1.5-.58,5.78,0,11.56,0,17.34,0,2.42,0,4.89.33,7.25-.09s4.73-.84,6.36-3a14.84,14.84,0,0,1,3.8-2.44c2.63-1.06,3.27-.61,3.16,2.22a1,1,0,0,0,0,.17,13.21,13.21,0,0,0-1.18,3h6.25c-1.06-.89-2.3-.66-3.35-1.21.7-.83,1.62-.66,2.36-1,.44-.2,1.18.16,1.2-.78a8.39,8.39,0,0,0,.1-.86c0-3.05,0-3.05-2.94-3.05H320.83c-3.35,0-3.36,0-2.95,3.6a1.23,1.23,0,0,0,.14.31c-.84-1.14-.26-2.43-.33-3.65,0-.4.37-.54.72-.56s1,0,1.49,0q39.5,0,79,0c.66,0,1.45-.38,2,.41a5.6,5.6,0,0,0-.81-.1q-18.09,0-36.18,0c-.25,0-.56-.09-.7.37a12.16,12.16,0,0,1,1.59,3.53c0,.49,0,1,.58,1a8.74,8.74,0,0,1,4,1.43c.61.33,1,.42,1.07-.54,0-1.16.65-.79,1-.25.91,1.53,2.27,1.47,3.72,1.47q12-.06,23.94,0c.6,0,1.34-.37,1.81.41-.6,0-1.21-.12-1.81-.12-8,0-16.05,0-24.08,0-.65,0-1.66-.44-1.89.38a2.91,2.91,0,0,0,.69,2.57c.3.34.62.66.93,1a4.24,4.24,0,0,0,4.72,3.17c6.59-.24,13.2-.09,19.8-.06.55,0,1.23-.33,1.64.41-.44,0-.87-.12-1.31-.12-7,0-14.09,0-21.13,0-1.28,0-1.72.24-1.15,1.63a3.86,3.86,0,0,1,.1,2.24c-1.11.72-2.26-.22-3.38.07-1.56-1.06-3.37-1.69-4.71-3.1a2.83,2.83,0,0,0-2.25-.83c-5.46,0-10.93.08-16.39,0C348,132.93,346.13,133.57,345.24,136.85Zm20.14-7.29c-1-2.8-2.5-4.64-5.7-3.94a13.72,13.72,0,0,1-3.14,0,1.36,1.36,0,0,0-1.29.58c-.76,1.13-1.57,2.22-2.37,3.33a24.84,24.84,0,0,0-3.57,3.05h18.75Z" style="fill:#bcc9d2"/><path d="M359.28,115q-19.95,0-39.91,0c-.54,0-1.42.38-1.55-.48a6,6,0,0,1,.1-3.26c.23-.52,1-.22,1.55-.22h52.16c9.05,0,18.11,0,27.16,0,1.46,0,2.16.08,2.19,2,0,2.16-1,2-2.29,2Q379,115,359.28,115Z" style="fill:#055882"/><path d="M397.46,149.78l-.32.34a5.38,5.38,0,0,1-4.35,1.52q-33.85-.07-67.71,0a3.52,3.52,0,0,1-2.52-.57,12,12,0,0,1-2.73-3.4h78.84C398.67,148.59,397.76,149,397.46,149.78Z" style="fill:#1a5b84"/><path d="M357.16,122.22a1,1,0,0,1,0-.17c.11-2.83-.53-3.28-3.16-2.22a14.84,14.84,0,0,0-3.8,2.44l-32.15,0a1.23,1.23,0,0,1-.14-.31c-.41-3.6-.4-3.6,2.95-3.6H359.6c2.92,0,2.93,0,2.94,3.05a8.39,8.39,0,0,1-.1.86Z" style="fill:#055882"/><path d="M362.57,144.22a50.6,50.6,0,0,1-8.79.05c-1.62-.94-3.64-1.3-4.79-2.9a2.33,2.33,0,0,0-2.32-1c-9,0-18,0-27,0-1.48,0-2,.43-1.76,1.92-.57-2-.46-2.17,1.36-2.17q14.07,0,28.15,0a4.18,4.18,0,0,0,2.49-.66,10.85,10.85,0,0,1,6.13-1.75c.64,0,1.36.16,1.71-.68a7.35,7.35,0,0,1,3.92-1.18c1.21,0,.61.62.45,1.13-.53.32-1.08.65-.06,1.06a1.19,1.19,0,0,0,.33,0c1.64.2,2.85,1.83,4.33,1.91s2.68-1.43,4.26-1.53a9.82,9.82,0,0,1,1,.06l-2,1.6h9.53c6.55,0,13.1,0,19.66,0,.54,0,1.23-.35,1.61.43a8.9,8.9,0,0,0-1.14-.15H370.93a4.85,4.85,0,0,0-.66,0c-1.45.22-1.86,1.17-1.07,2.42.31.48.59,1,.88,1.47.07.21.22.44.18.62-.1.53-.4.14-.57,0-.46-.24-.84-.67-1.4-.7C366.38,142.54,364.47,143.66,362.57,144.22Z" style="fill:#bcc9d2"/><path d="M364.77,122.23a12.16,12.16,0,0,0-1.59-3.53c.14-.46.45-.37.7-.37q18.09,0,36.18,0a5.6,5.6,0,0,1,.81.1c0,3.8,0,3.79-3.54,3.8Z" style="fill:#055882"/><path d="M318,142.22c-.23-1.49.28-1.93,1.76-1.92,9,.08,18,0,27,0a2.33,2.33,0,0,1,2.32,1c1.15,1.6,3.17,2,4.79,2.9-11.21,0-22.41,0-33.62,0C318.58,144.32,318,143.77,318,142.22Z" style="fill:#0c5982"/><path d="M370.08,144.25c-.29-.49-.57-1-.88-1.47-.79-1.25-.38-2.2,1.07-2.42a4.85,4.85,0,0,1,.66,0h28.79a8.9,8.9,0,0,1,1.14.15c-.35,3.76-.35,3.77-3.88,3.76Z" style="fill:#0c5982"/><path d="M374.72,129.61c-.31-.32-.63-.64-.93-1a2.91,2.91,0,0,1-.69-2.57c.23-.82,1.24-.38,1.89-.38,8,0,16.06,0,24.08,0,.6,0,1.21.08,1.81.12,0,3.8,0,3.79-3.55,3.8Z" style="fill:#055882"/><path d="M318,129.58a1.81,1.81,0,0,1-.16-.48c-.32-3.44-.32-3.44,2.94-3.44,7.16,0,14.32.1,21.48-.09,1.44,0,1.85,1.59,3.17,1.37.19,0,0,.48-.07.73-.28.63-.57,1.25-.86,1.87Z" style="fill:#055882"/><path d="M362.16,136.92c.16-.51.76-1.1-.45-1.13a7.35,7.35,0,0,0-3.92,1.18l-12.55-.12c.89-3.28,2.77-3.92,5.42-3.88,5.46.1,10.93,0,16.39,0a2.83,2.83,0,0,1,2.25.83c1.34,1.41,3.15,2,4.71,3.1Z" style="fill:#0c5982"/><path d="M318,136.93a1.44,1.44,0,0,1-.13-.32c-.46-3.56-.42-3.61,2.92-3.61h20.84c-1.07.93-2.17,1.31-2.67,2.42,1-.11,1.9-.16,2.8-.34,1.4-.28,2.07.3,2.06,1.79Z" style="fill:#0c5982"/><path d="M377.39,136.85a3.86,3.86,0,0,0-.1-2.24c-.57-1.39-.13-1.64,1.15-1.63,7,.05,14.09,0,21.13,0,.44,0,.87.08,1.31.12,0,3.79,0,3.8-3.55,3.79Z" style="fill:#0c5982"/><path d="M362.57,144.22c1.9-.56,3.81-1.68,5.72,0Z" style="fill:#1a5b84"/><path d="M380.34,63.05c.58,1.64,1.9,3,1.56,5-.6-2.34-2.4-3.8-3.54-5.73C379.14,62.21,379.54,63.24,380.34,63.05Z" style="fill:#8ea43b"/><path d="M368.4,64.13c-.29-.69-.62-1.44.61-1.23.52.09.72-.08.77-.58a2.76,2.76,0,0,1,1.16,3.61C370.31,64.77,369.6,64,368.4,64.13Z" style="fill:#8ea43b"/><path d="M366.43,65.86c-.76-.66-.95-1.16.13-1.78s1-.74,1.28.78c0,.09.14.17.21.25C368,66.47,366.7,65,366.43,65.86Z" style="fill:#8ea43b"/><path d="M327.61,72.49c.64-1-.21-2.48,1.07-3.22.07,0,.07-.21.08-.33,0-.31-1-.14-.33-.74.1-.08.44,0,.59.18.31.26.59.73.3,1.05-.81.91-.5,2-.69,3.09Z" style="fill:#8ea43b"/><path d="M323.35,67.29a2.07,2.07,0,0,0,.65,2.19c-.86.35-1.36-.15-1.58-.91A.93.93,0,0,1,323.35,67.29Z" style="fill:#8ea43b"/><path d="M385.65,62l-.9,3.2c-.18-1.36-.32-2.44-.47-3.51C384.77,61.64,385.13,62.23,385.65,62Z" style="fill:#8ea43b"/><path d="M328.94,73.22c.56.35.39.69,0,1C329,73.91,329,73.57,328.94,73.22Z" style="fill:#8ea43b"/><path d="M371.4,59.56c.21,0,.38.13.27.41,0,0-.1.09-.12.08-.19-.1-.31-.25-.16-.49Z" style="fill:#1a763e"/><path d="M328.63,72.51a.34.34,0,0,1,.2.45Z" style="fill:#8ea43b"/><path d="M371.05,59.22c.27-.06.31.13.35.34h0c-.29.06-.29-.16-.32-.36Z" style="fill:#1a763e"/><path d="M359.46,58.5c-2.24-.15-1.48-1.61-1.15-3,1.06.74,1,1.91,1.14,3Z" style="fill:#8ea43b"/><path d="M364.05,58.23c.85,0,.63.65.67,1.09s-.11.9-.6.82-.81-.74-.92-1.29C363,58,363.83,58.53,364.05,58.23Z" style="fill:#8ea43b"/><path d="M363.06,62.89c-.53,1,.16,2.79-1.76,3A3.78,3.78,0,0,1,363.06,62.89Z" style="fill:#8ea43b"/><path d="M335,67.74c.18.47.42,1,.56,1.46a.31.31,0,0,1-.39.38,1,1,0,0,1-.84-1.07A.72.72,0,0,1,335,67.74Z" style="fill:#8ea43b"/><path d="M357.93,61.2c1.12.38,1.25,1.27,1.12,2.43-1-.46-1.14-1.39-1.3-2.28Z" style="fill:#8ea43b"/><path d="M357.75,61.35c-.17-.13-.33-.27-.1-.51l.28.36Z" style="fill:#8ea43b"/><path d="M331.34,59.51c.22.11.33.38.15.5s-.26-.18-.36-.32Z" style="fill:#fbcc0e"/><path d="M355.07,52l.36.47a.51.51,0,0,1-.72-.11Z" style="fill:#fbcc0e"/><path d="M340.38,63.28c-.23.11-.53.43-.68.14s.25-.35.45-.46Z" style="fill:#fbcc0e"/><path d="M354.49,65.86l.15-.22.06.13-.21.09Z" style="fill:#fbcc0e"/><path d="M339.1,63.47l.11.12s-.08.1-.12.1-.08-.07-.11-.11Z" style="fill:#fbcc0e"/><path d="M394.59,64.1l-.06.24-.14,0,.21-.17Z" style="fill:#fbcc0e"/><path d="M381.72,60.56l.12.33-.29-.16Z" style="fill:#fbcc0e"/><polygon points="359.45 58.51 359.55 58.6 359.46 58.51 359.45 58.51" style="fill:#8ea43b"/><path d="M365.38,129.56l2.68,3.05H349.31a24.84,24.84,0,0,1,3.57-3.05Z" style="fill:#fefefe"/><path d="M365.38,129.56h-12.5c.8-1.11,1.61-2.2,2.37-3.33a1.36,1.36,0,0,1,1.29-.58,13.72,13.72,0,0,0,3.14,0C362.88,124.92,364.4,126.76,365.38,129.56Z" style="fill:#0c5982"/><path d="M357.16,122.22h5.28c0,.94-.76.58-1.2.78-.74.33-1.66.16-2.36,1,1.05.55,2.29.32,3.35,1.21H356A13.21,13.21,0,0,1,357.16,122.22Z" style="fill:#fefefe"/></g></g></svg>